<svg width="26" height="26" viewBox="0 0 26 26" fill="none" xmlns="http://www.w3.org/2000/svg">
<path d="M13.9 0.537354C12.1118 0.407185 10.3166 0.663562 8.63634 1.28905C6.95608 1.91455 5.43019 2.89449 4.16242 4.16227C2.89464 5.43004 1.9147 6.95593 1.28921 8.63618C0.663714 10.3164 0.407338 12.1117 0.537506 13.8999C0.987506 20.5124 6.76251 25.4999 13.3875 25.4999H18C18.6875 25.4999 19.25 24.9374 19.25 24.2499C19.25 23.5624 18.6875 22.9999 18 22.9999H13.4125C8.75001 22.9999 4.47501 19.9749 3.31251 15.4624C1.45001 8.21235 8.20001 1.44985 15.45 3.32485C19.975 4.47485 23 8.74985 23 13.4124V14.7874C23 15.7749 22.1125 16.7499 21.125 16.7499C20.1375 16.7499 19.25 15.7749 19.25 14.7874V13.2249C19.25 10.0874 17.025 7.26235 13.925 6.82485C12.9387 6.67819 11.9316 6.76927 10.9876 7.0905C10.0437 7.41173 9.19006 7.95382 8.49793 8.67163C7.8058 9.38944 7.29515 10.2622 7.00851 11.2173C6.72187 12.1723 6.66753 13.182 6.85001 14.1624C7.06924 15.3436 7.62454 16.4365 8.44931 17.31C9.27408 18.1836 10.3333 18.8007 11.5 19.0874C13.8 19.6249 15.9875 18.8874 17.425 17.4249C18.5375 18.9499 20.7625 19.7499 22.8 18.9374C24.475 18.2749 25.5 16.5624 25.5 14.7624V13.3999C25.5 6.76235 20.5125 0.987354 13.9 0.537354V0.537354ZM13 16.7499C10.925 16.7499 9.25001 15.0749 9.25001 12.9999C9.25001 10.9249 10.925 9.24985 13 9.24985C15.075 9.24985 16.75 10.9249 16.75 12.9999C16.75 15.0749 15.075 16.7499 13 16.7499Z" fill="#FFE100"/>
</svg>
