<svg width="23" height="22" viewBox="0 0 23 22" fill="none" xmlns="http://www.w3.org/2000/svg">
<path d="M7.39941 13.7853L7.39933 13.7854L7.40444 13.7884L10.8308 15.8442C10.8923 15.8983 10.9702 15.9184 11.0347 15.9276C11.1037 15.9375 11.18 15.9375 11.2454 15.9375H11.25H11.2546C11.32 15.9375 11.3963 15.9375 11.4653 15.9276C11.5298 15.9184 11.6077 15.8983 11.6692 15.8442L15.0956 13.7884L15.0956 13.7886L15.1006 13.7853C15.3356 13.6285 15.5 13.386 15.5 13.0625V8.9375C15.5 8.61401 15.3356 8.37145 15.1006 8.21474L15.1007 8.21463L15.0956 8.21156L11.6692 6.15577C11.6077 6.10172 11.5298 6.08156 11.4653 6.07235C11.3963 6.06249 11.32 6.06249 11.2546 6.0625L11.25 6.0625L11.2454 6.0625C11.18 6.06249 11.1037 6.06249 11.0347 6.07235C10.9702 6.08156 10.8923 6.10172 10.8308 6.15577L7.40444 8.21156L7.40437 8.21144L7.39941 8.21474C7.16435 8.37145 7 8.61401 7 8.9375V13.0625C7 13.386 7.16435 13.6285 7.39941 13.7853ZM11.25 14.1542L8.625 12.5792V9.35202L11.25 7.77702L13.875 9.35202V12.5792L11.25 14.1542Z" fill="#5B5E71" stroke="#5B5E71" strokeWidth="0.25"/>
<path d="M10.8433 21.3517L10.8431 21.3519L10.8503 21.3556C10.9272 21.394 10.9908 21.4161 11.0576 21.4272C11.1195 21.4375 11.1801 21.4375 11.2443 21.4375H11.25H11.2557C11.3199 21.4375 11.3805 21.4375 11.4424 21.4272C11.5092 21.4161 11.5728 21.394 11.6497 21.3556L11.6498 21.3558L11.6567 21.3517L19.9067 16.5392L19.9068 16.5394L19.9131 16.5353C20.1481 16.3785 20.3125 16.136 20.3125 15.8125V10.3125V10.1875H20.1875H18.8125H18.6875V10.3125V15.3969L11.25 19.7241L3.8125 15.3969V6.67189L11.2504 2.34437L19.094 6.84591L19.2013 6.90747L19.264 6.80088L19.9515 5.63213L20.0151 5.52399L19.9067 5.46078L11.6567 0.648278L11.6569 0.648053L11.6497 0.644447C11.5728 0.606008 11.5092 0.583926 11.4424 0.572795C11.3806 0.562482 11.3199 0.562491 11.2557 0.562499L11.25 0.5625L11.2443 0.562499C11.1801 0.562491 11.1194 0.562482 11.0576 0.572795C10.9908 0.583926 10.9272 0.606008 10.8503 0.644447L10.8502 0.644214L10.8433 0.648278L2.59327 5.46078L2.59315 5.46058L2.58691 5.46474C2.35185 5.62145 2.1875 5.86401 2.1875 6.1875V15.8125C2.1875 16.136 2.35185 16.3785 2.58691 16.5353L2.58679 16.5354L2.59327 16.5392L10.8433 21.3517Z" fill="#5B5E71" stroke="#5B5E71" strokeWidth="0.25"/>
</svg>
