<svg width="112" height="110" viewBox="0 0 112 110" fill="none" xmlns="http://www.w3.org/2000/svg">
<path d="M10 0.403564C4.47715 0.403564 0 4.88072 0 10.4036V99.5966C0 105.119 4.47715 109.597 10 109.597H102C107.523 109.597 112 105.119 112 99.5966V10.4036C112 4.88071 107.523 0.403564 102 0.403564H10ZM4.6655 10.0691C4.6655 7.30764 6.90408 5.06906 9.6655 5.06906H102.331C105.092 5.06906 107.331 7.30764 107.331 10.0691V99.9276C107.331 102.689 105.092 104.928 102.331 104.928H9.6655C6.90407 104.928 4.6655 102.689 4.6655 99.9276V10.0691ZM38.8465 62.2381L35.147 76.2206C35.0735 76.6231 34.9265 76.6931 34.4715 76.6931H27.6185C27.146 76.6931 27.0725 76.5461 27.146 76.0176L40.397 29.6076C40.635 28.7676 40.7785 28.0221 40.852 25.7051C40.852 25.3936 41.0165 25.2501 41.2545 25.2501H51.0265C51.338 25.2501 51.499 25.3236 51.5725 25.7051L66.43 76.0911C66.521 76.4726 66.43 76.6931 66.0485 76.6931H58.3555C57.953 76.6931 57.736 76.6021 57.6625 76.2906L53.7985 62.2346H38.8325L38.8465 62.2381ZM51.863 54.6536C50.5505 49.4946 47.4705 38.1931 46.3225 32.7226H46.2315C45.248 38.1721 42.7665 47.4156 40.8555 54.6536H51.863ZM72.863 28.7151C72.863 25.7086 74.942 23.9376 77.6405 23.9376C80.486 23.9376 82.418 25.8696 82.418 28.7151C82.418 31.7951 80.4125 33.4926 77.5495 33.4926C74.76 33.4926 72.8455 31.7986 72.8455 28.7151H72.863ZM73.3915 39.3236C73.3915 38.9596 73.5385 38.8126 73.92 38.8126H81.249C81.669 38.8126 81.8125 38.9596 81.8125 39.3586V76.1996C81.8125 76.5811 81.739 76.7281 81.2665 76.7281H74.046C73.5735 76.7281 73.4265 76.5076 73.4265 76.1261V39.3201L73.3915 39.3236Z" fill="#5B5E71"/>
</svg>
