<svg width="112" height="112" viewBox="0 0 112 112" fill="none" xmlns="http://www.w3.org/2000/svg">
<path d="M28 35H56V42H28V35ZM28 21H70V28H28V21ZM28 7H70V14H28V7Z" fill="#5B5E71"/>
<path d="M16.4885 98L36.197 63.014L62.216 85.729C63.0025 86.4289 63.9368 86.9423 64.9492 87.2311C65.9617 87.5199 67.0262 87.5766 68.0636 87.397C69.101 87.2174 70.0845 86.806 70.9409 86.1936C71.7973 85.5813 72.5046 84.7836 73.01 83.86L97.405 47.4495L91.5915 43.5505L67.0915 80.1185L66.8465 80.479L40.824 57.764C40.0377 57.0681 39.1052 56.5577 38.0952 56.2705C37.0852 55.9834 36.0237 55.9267 34.9889 56.1048C33.9541 56.2828 32.9725 56.6911 32.1166 57.2993C31.2608 57.9076 30.5524 58.7003 30.044 59.619L14 88.1405V7H7V98C7.00185 99.8559 7.73995 101.635 9.0523 102.948C10.3647 104.26 12.1441 104.998 14 105H105V98H16.4885Z" fill="#5B5E71"/>
</svg>
