<svg width="57" height="59" viewBox="0 0 57 59" fill="none" xmlns="http://www.w3.org/2000/svg">
<path d="M9.26691 45.2088L27.0277 55.3549C27.4693 55.6071 27.969 55.7398 28.4775 55.7398C28.9861 55.7398 29.4858 55.6071 29.9274 55.3549L47.6882 45.2088C48.0779 44.9862 48.4111 44.6769 48.662 44.3049C48.9129 43.9328 49.0748 43.5079 49.1351 43.0632L53.0024 14.6974C53.0932 14.0311 52.9514 13.3538 52.6011 12.7798C52.2507 12.2058 51.7131 11.7702 51.079 11.5463L29.448 3.91119C28.819 3.68943 28.1331 3.68943 27.5041 3.91119L5.87611 11.5493C5.24196 11.7731 4.70438 12.2087 4.35401 12.7827C4.00364 13.3568 3.86191 14.034 3.95271 14.7004L7.81997 43.0662C7.88027 43.5109 8.04215 43.9357 8.29307 44.3078C8.54399 44.6798 8.87721 44.9892 9.26691 45.2117V45.2088Z" stroke="#1E1E1E" stroke-width="6.5" stroke-linecap="round" stroke-linejoin="round"/>
<path d="M19.7082 38.6465L28.4775 15.2617L37.2468 38.6465M22.6313 32.8003H34.3237" stroke="#1E1E1E" stroke-width="6.5" stroke-linecap="round" stroke-linejoin="round"/>
</svg>
