<svg width="112" height="112" viewBox="0 0 112 112" fill="none" xmlns="http://www.w3.org/2000/svg">
<path d="M45.283 10.5V29.7617M29.736 27.0527L45.283 29.764M28.2847 53.27L45.283 29.764M66.717 10.5L45.2853 29.7617M66.717 10.5L73.1663 41.6733M82.264 27.0527L73.1663 41.6733M83.7153 53.27L73.1687 41.6733M72.24 71.4187L73.1663 41.6733M45.283 29.764L73.1663 41.6733M45.283 10.5H66.7147L82.264 27.0527L83.713 53.27L72.2423 71.4187L69.09 80.577V96.4997L56 101.5L42.91 96.4997V80.577L39.76 71.4187L28.287 53.27L29.7337 27.055L45.283 10.5Z" stroke="#5B5E71" strokeWidth="4" strokeLinecap="round" strokeLinejoin="round"/>
<path d="M28.2847 53.2699L53.5827 57.5142L72.2423 71.4209M73.1663 41.6733L53.5827 57.5119M45.283 29.7639L53.5827 57.5119M39.76 71.4186L53.585 57.5119" stroke="#5B5E71" strokeWidth="4" strokeLinecap="round" strokeLinejoin="round"/>
<path d="M53.5827 57.512L42.91 80.577L72.2424 71.4186M42.91 80.577H69.09" stroke="#5B5E71" strokeWidth="4" strokeLinecap="round" strokeLinejoin="round"/>
</svg>
