<svg width="112" height="112" viewBox="0 0 112 112" fill="none" xmlns="http://www.w3.org/2000/svg">
<path d="M21.3734 89.4367L80.7801 30.03M33.1567 93.5433L23.9867 91C22.9936 90.72 22.0895 90.1884 21.3619 89.4568C20.6343 88.7251 20.1078 87.818 19.8334 86.8233L17.2667 77.6533L72.8234 22.0967L88.6667 37.9633L33.1567 93.5433Z" stroke="#5B5E71" strokeWidth="5" strokeLinecap="round" strokeLinejoin="round"/>
<path d="M17.2667 77.6533L11.27 96.6933C11.1673 97.087 11.1694 97.5008 11.276 97.8936C11.3826 98.2863 11.5901 98.6443 11.8779 98.9321C12.1656 99.2198 12.5236 99.4273 12.9164 99.5339C13.3091 99.6406 13.7229 99.6426 14.1167 99.5399L33.1567 93.5433M91.511 15.9039L94.927 19.3199C95.7461 20.139 96.3958 21.1113 96.8391 22.1815C97.2825 23.2516 97.5106 24.3986 97.5106 25.5569C97.5106 26.7153 97.2825 27.8623 96.8391 28.9324C96.3958 30.0026 95.7461 30.9749 94.927 31.7939L88.69 38.0309L72.8 22.1409L79.037 15.9039C79.856 15.0848 80.8284 14.4351 81.8985 13.9918C82.9687 13.5485 84.1157 13.3203 85.274 13.3203C86.4323 13.3203 87.5793 13.5485 88.6495 13.9918C89.7196 14.4351 90.692 15.0848 91.511 15.9039V15.9039Z" stroke="#5B5E71" strokeWidth="5" strokeLinecap="round" strokeLinejoin="round"/>
<mask id="path-3-inside-1_309_622" fill="white">
<path d="M15.8666 98.9801C16.1317 98.715 16.3419 98.4004 16.4854 98.0541C16.6288 97.7078 16.7026 97.3366 16.7026 96.9618C16.7026 96.5869 16.6288 96.2158 16.4854 95.8695C16.3419 95.5231 16.1317 95.2085 15.8666 94.9434C15.6016 94.6784 15.2869 94.4681 14.9406 94.3247C14.5943 94.1812 14.2231 94.1074 13.8483 94.1074C13.4734 94.1074 13.1023 94.1812 12.756 94.3247C12.4097 94.4681 12.095 94.6784 11.83 94.9434"/>
</mask>
<path d="M12.3311 95.4446C10.3785 97.3972 10.3785 100.563 12.3311 102.516C14.2837 104.468 17.4495 104.468 19.4022 102.516L12.3311 95.4446ZM16.7026 96.9618L11.7026 96.9618L16.7026 96.9618ZM13.8483 94.1074V99.1074V94.1074ZM8.29442 91.4079C6.3418 93.3605 6.3418 96.5263 8.29442 98.479C10.247 100.432 13.4129 100.432 15.3655 98.479L8.29442 91.4079ZM19.4022 102.516C20.1315 101.786 20.71 100.92 21.1048 99.9675L11.866 96.1407C11.9738 95.8803 12.1319 95.6438 12.3311 95.4446L19.4022 102.516ZM21.1048 99.9675C21.4995 99.0146 21.7026 97.9932 21.7026 96.9618L11.7026 96.9618C11.7026 96.68 11.7581 96.401 11.866 96.1407L21.1048 99.9675ZM21.7026 96.9618C21.7026 95.9303 21.4995 94.909 21.1048 93.956L11.866 97.7829C11.7581 97.5225 11.7026 97.2435 11.7026 96.9618L21.7026 96.9618ZM21.1048 93.956C20.7101 93.0031 20.1315 92.1373 19.4022 91.4079L12.3311 98.479C12.1318 98.2797 11.9738 98.0432 11.866 97.7829L21.1048 93.956ZM19.4022 91.4079C18.6728 90.6785 17.8069 90.1 16.854 89.7053L13.0272 98.9441C12.7669 98.8363 12.5304 98.6782 12.3311 98.479L19.4022 91.4079ZM16.854 89.7053C15.9011 89.3106 14.8797 89.1074 13.8483 89.1074V99.1074C13.5665 99.1074 13.2875 99.0519 13.0272 98.9441L16.854 89.7053ZM13.8483 89.1074C12.8169 89.1074 11.7955 89.3106 10.8426 89.7053L14.6694 98.9441C14.4091 99.0519 14.13 99.1074 13.8483 99.1074V89.1074ZM10.8426 89.7053C9.88966 90.1 9.02379 90.6785 8.29442 91.4079L15.3655 98.479C15.1662 98.6782 14.9297 98.8363 14.6694 98.9441L10.8426 89.7053Z" fill="#5B5E71" mask="url(#path-3-inside-1_309_622)"/>
</svg>
