<svg width="37" height="69" viewBox="0 0 37 69" fill="none" xmlns="http://www.w3.org/2000/svg">
<path d="M0.823619 0.811972C0.295605 1.34281 0 2.05542 0 2.79747C0 3.53952 0.295605 4.25212 0.823619 4.78296L30.3231 34.5L0.823619 64.2111C0.295605 64.7419 0 65.4545 0 66.1966C0 66.9386 0.295605 67.6513 0.823619 68.1821C1.08027 68.4409 1.38713 68.6467 1.72608 68.7872C2.06503 68.9276 2.42921 69 2.79711 69C3.16502 69 3.52919 68.9276 3.86814 68.7872C4.2071 68.6467 4.51395 68.4409 4.77061 68.1821L36.1407 36.5747C36.6916 36.0196 37 35.2751 37 34.5C37 33.7249 36.6916 32.9804 36.1407 32.4253L4.77061 0.817918C4.51395 0.55907 4.2071 0.353334 3.86814 0.212855C3.52919 0.0723755 3.16502 0 2.79711 0C2.42921 0 2.06503 0.0723755 1.72608 0.212855C1.38713 0.353334 1.08027 0.55907 0.823619 0.817918V0.811972Z" fill="#1E1E1E"/>
</svg>
