<svg width="59" height="36" viewBox="0 0 59 36" fill="none" xmlns="http://www.w3.org/2000/svg">
<path d="M16.9327 12.9421C16.9327 13.6729 16.9911 14.2575 17.1373 14.7545C17.2834 15.1052 17.4881 15.5729 17.7511 16.0991C17.8681 16.216 17.8973 16.3914 17.8973 16.5375C17.8973 16.7422 17.7804 16.9175 17.5173 17.1222L16.2896 17.9406C16.1142 18.0576 15.9388 18.116 15.7927 18.116C15.588 18.116 15.4127 17.9991 15.208 17.8237C14.945 17.5314 14.7111 17.2391 14.5065 16.9175C14.3311 16.596 14.1265 16.216 13.9219 15.7775C12.4019 17.5606 10.5018 18.4668 8.19258 18.4668C6.55565 18.4668 5.26948 17.9991 4.30486 17.0637C3.36946 16.1283 2.87254 14.8714 2.87254 13.2929C2.87254 11.6852 3.45716 10.3698 4.6264 9.31748C5.82487 8.32362 7.40335 7.79747 9.39106 7.79747C10.0634 7.79747 10.6772 7.85593 11.4665 7.97285C12.1388 8.06055 12.928 8.2067 13.688 8.38208V6.979C13.688 5.48821 13.3957 4.52359 12.7819 3.85128C12.1388 3.23742 11.1157 2.97434 9.6249 2.97434C8.92336 2.97434 8.22182 3.06204 7.52027 3.20819C6.78949 3.38358 6.08795 3.5882 5.41564 3.88051C5.09409 3.99743 4.83102 4.08512 4.74332 4.11436C4.59717 4.17282 4.50947 4.17282 4.42178 4.17282C4.1587 4.17282 4.01255 3.99743 4.01255 3.5882V2.62357C4.01255 2.33126 4.04178 2.09741 4.1587 1.95126C4.24639 1.8051 4.42178 1.68818 4.68486 1.60049C5.3864 1.19125 6.17564 0.898942 7.14027 0.665093C8.1319 0.402219 9.15447 0.274398 10.1803 0.285091C12.4895 0.285091 14.1849 0.811249 15.2665 1.86357C16.348 2.91588 16.8742 4.52359 16.8742 6.65745V12.9421H16.9327ZM9.04028 15.9237C9.68337 15.9237 10.3264 15.8068 11.028 15.5729C11.7295 15.3391 12.3434 14.9006 12.8695 14.316C13.1911 13.936 13.4249 13.5267 13.6003 13.0591C13.6003 12.5914 13.7465 12.036 13.7465 11.3637V10.5744C13.1619 10.3698 12.5772 10.3698 11.9342 10.2236C11.3321 10.1574 10.7274 10.1184 10.1218 10.1067C8.80644 10.1067 7.87104 10.3698 7.22796 10.896C6.58488 11.4221 6.29257 12.1529 6.29257 13.1175C6.29257 14.0529 6.49718 14.7544 6.99411 15.1929C7.46181 15.6898 8.13412 15.9237 9.04028 15.9237ZM24.6497 17.9991C24.3665 18.01 24.0851 17.9497 23.8312 17.8237C23.7435 17.6776 23.5973 17.4145 23.4804 17.0637L18.9204 2.03895C18.8034 1.60049 18.745 1.39587 18.745 1.24971C18.745 0.928174 18.8911 0.752787 19.2127 0.752787H21.1127C21.4927 0.752787 21.7558 0.81125 21.8727 0.957405C22.0481 1.07433 22.165 1.33741 22.2819 1.71741L25.5266 14.5791L28.5666 1.71741C28.6543 1.33741 28.7712 1.07433 28.9466 0.957405C29.0928 0.840481 29.3559 0.752787 29.6774 0.752787H31.2851C31.6359 0.752787 31.899 0.81125 32.0451 0.957405C32.1913 1.07433 32.3374 1.33741 32.4251 1.71741L35.5236 14.7545L38.8559 1.71741C38.9729 1.33741 39.119 1.07433 39.2359 0.957405C39.4113 0.840481 39.6452 0.752787 39.9959 0.752787H41.8083C42.1298 0.752787 42.3052 0.928174 42.3052 1.24971C42.3052 1.33741 42.276 1.45433 42.2467 1.60049C42.2467 1.60049 42.1883 1.83434 42.1298 2.03895L37.4236 17.0637C37.3067 17.4729 37.1898 17.6776 36.9852 17.8237C36.8682 17.9406 36.6051 18.0283 36.2836 18.0283H34.6174C34.2374 18.0283 34.062 17.9699 33.8282 17.8237C33.6316 17.6153 33.5085 17.3485 33.4774 17.0637L30.4666 4.52359L27.4558 17.0345C27.3681 17.4145 27.2512 17.6776 27.1051 17.8237C26.8643 17.9567 26.5903 18.0176 26.3158 17.9991H24.6497ZM49.6422 18.5253C48.6776 18.5253 47.596 18.4083 46.6314 18.1745C45.6668 17.9406 44.9068 17.6776 44.4098 17.4145C44.1556 17.2929 43.9423 17.0999 43.796 16.8591C43.7157 16.6955 43.6756 16.5151 43.6791 16.3329V15.3391C43.6791 14.9298 43.8252 14.7545 44.1175 14.7545H44.4683C44.5852 14.7545 44.7606 14.9006 44.9652 14.9883C45.6083 15.2806 46.3391 15.5145 47.0991 15.6606C47.8883 15.8068 48.6776 15.8945 49.4083 15.8945C50.636 15.8945 51.6007 15.6898 52.2438 15.2514C52.9161 14.7545 53.2668 14.1991 53.2668 13.4098C53.2668 12.8544 53.0622 12.416 52.7407 12.036C52.3899 11.6852 51.7176 11.3344 50.7822 11.0421L47.9468 10.1652C46.5437 9.69748 45.4914 9.0544 44.8483 8.17747C44.2207 7.36572 43.8813 6.36811 43.8837 5.34206C43.8837 4.52359 44.0591 3.82205 44.4098 3.20819C44.7606 2.56511 45.2283 2.03895 45.7545 1.60049C46.3975 1.16202 47.0406 0.84048 47.8299 0.606631C48.5899 0.372783 49.4083 0.255859 50.2853 0.255859C50.6945 0.255859 51.133 0.285091 51.6007 0.343553C52.0099 0.402015 52.4191 0.489707 52.8284 0.548169C53.2376 0.665094 53.5884 0.752787 53.9391 0.869711C54.2899 0.986635 54.5238 1.10356 54.7576 1.22048C55.0207 1.36664 55.2253 1.51279 55.3422 1.68818C55.4592 1.86357 55.5176 2.06818 55.5176 2.33126V3.26666C55.5176 3.67589 55.3715 3.88051 55.0792 3.88051C54.933 3.88051 54.6699 3.79281 54.3192 3.64666C53.2376 3.14973 51.9807 2.88665 50.6068 2.88665C49.496 2.88665 48.6776 3.06204 48.0053 3.44204C47.4206 3.79281 47.0991 4.37743 47.0991 5.16667C47.0991 5.72206 47.3037 6.18976 47.6837 6.54053C48.0637 6.92053 48.7945 7.27131 49.8176 7.62208L52.5945 8.49901C53.9976 8.90824 54.9915 9.55133 55.6053 10.3698C56.1899 11.159 56.4823 12.0652 56.4823 13.0883C56.4823 13.9068 56.3069 14.6668 55.9853 15.3391C55.6346 15.9822 55.1669 16.5668 54.5238 17.0345C53.9684 17.5314 53.2376 17.8822 52.4191 18.1453C51.6007 18.4083 50.6068 18.5253 49.6422 18.5253ZM53.2961 27.9961C46.8945 32.7023 37.599 35.2162 29.6774 35.2162C18.4234 35.2162 8.33874 31.0654 0.709439 24.1961C0.0955877 23.6407 0.650977 22.9099 1.38175 23.3484C9.6249 28.113 19.7681 31.0069 30.2912 31.0069C37.3944 31.0069 45.1991 29.5454 52.3607 26.4469C53.4422 26.0084 54.3484 27.2069 53.2961 27.9961ZM55.9853 24.9853C55.1376 23.9038 50.5484 24.4592 48.4729 24.693C47.8591 24.7807 47.7714 24.2253 48.3268 23.8161C51.9807 21.273 58.0023 22.0622 58.6746 22.8514C59.3761 23.7284 58.4992 29.75 55.0792 32.6146C54.5238 33.0531 54.0268 32.8192 54.2607 32.2931C55.0499 30.3054 56.7746 25.9792 55.9853 24.9853Z" fill="#1E1E1E"/>
</svg>
