<svg width="180" height="41" viewBox="0 0 180 41" fill="none" xmlns="http://www.w3.org/2000/svg">
<path fill-rule="evenodd" clip-rule="evenodd" d="M52.6622 24.1082C51.9572 23.1515 50.7584 22.3706 49.3063 22.3706C46.6184 22.3706 44.679 24.4228 44.679 27.2012C44.679 29.9795 46.6184 32.0317 49.3063 32.0317C50.5616 32.0317 51.7361 31.4961 52.3508 30.962C52.3928 30.9265 52.4154 30.8749 52.4154 30.8201V29.3131C52.4154 29.2195 52.3396 29.1421 52.2444 29.1421H48.7868C48.6497 29.1421 48.5383 29.0292 48.5383 28.8936V26.6558C48.5383 26.5187 48.6513 26.4057 48.7868 26.4057H54.9856V23.0853L52.9849 24.1824C52.8784 24.2405 52.7365 24.205 52.6655 24.1082H52.6622ZM23.5609 25.6797H27.2718C28.3286 25.6797 28.9901 25.0827 28.9901 24.1357C28.9901 23.2321 28.3447 22.5916 27.2718 22.5916H23.5609C23.5307 22.5912 23.5007 22.5968 23.4727 22.6082C23.4448 22.6195 23.4193 22.6364 23.398 22.6577C23.3766 22.6791 23.3597 22.7045 23.3484 22.7325C23.337 22.7605 23.3314 22.7905 23.3318 22.8207V25.4506C23.3314 25.4808 23.337 25.5108 23.3484 25.5388C23.3597 25.5668 23.3766 25.5922 23.398 25.6136C23.4193 25.6349 23.4448 25.6518 23.4727 25.6631C23.5007 25.6745 23.5307 25.6801 23.5609 25.6797ZM38.5738 34.3438C38.5738 34.4567 38.4819 34.5487 38.3689 34.5487H35.6503C35.5374 34.5487 35.4454 34.4567 35.4454 34.3438V20.0408C35.4454 19.9279 35.5374 19.8359 35.6503 19.8359H38.3705C38.4835 19.8359 38.5754 19.9279 38.5754 20.0408L38.5738 34.3438ZM54.2031 0.0972781L27.2379 19.8327H27.9317C30.7294 19.8327 32.1621 21.6187 32.1621 23.5823C32.1621 25.1102 31.3651 26.2379 30.2954 26.7365C30.134 26.8204 30.1243 27.0721 30.305 27.1463C31.5522 27.6578 32.4509 28.9937 32.4509 30.5538C32.4509 32.7804 30.9988 34.5471 28.1753 34.5471H20.4293C20.3991 34.5475 20.3691 34.5419 20.3411 34.5305C20.3131 34.5192 20.2877 34.5023 20.2663 34.4809C20.2449 34.4596 20.2281 34.4341 20.2167 34.4061C20.2054 34.3782 20.1997 34.3482 20.2002 34.318V24.9843L0.201801 39.6261C-0.18058 39.9069 0.0162578 40.5135 0.492217 40.5135H54.4935C54.7645 40.5135 54.984 40.2941 54.984 40.0214V32.5997C53.5383 33.9485 51.6393 34.7939 49.3047 34.7939C44.9872 34.7939 41.4635 31.8155 41.4635 27.1834C41.4635 22.5287 44.9888 19.5729 49.3047 19.5729C52.0201 19.5729 53.8223 20.8039 54.984 22.3093V0.492566C54.984 0.0892109 54.5274 -0.141509 54.2031 0.0956641V0.0972781ZM23.5593 31.7881H27.3831C28.5512 31.7881 29.2547 31.1702 29.2547 30.1102C29.2547 29.1841 28.6093 28.4322 27.3831 28.4322H23.5593C23.5291 28.4318 23.4991 28.4374 23.4711 28.4488C23.4431 28.4601 23.4177 28.477 23.3963 28.4983C23.375 28.5197 23.3581 28.5451 23.3468 28.5731C23.3354 28.6011 23.3298 28.6311 23.3302 28.6613V31.5558C23.3298 31.586 23.3354 31.616 23.3468 31.644C23.3581 31.672 23.375 31.6974 23.3963 31.7188C23.4177 31.7401 23.4431 31.757 23.4711 31.7683C23.4991 31.7797 23.5291 31.7853 23.5593 31.7849V31.7881ZM70.639 31.3412L68.953 30.4667C68.8993 30.4404 68.8377 30.435 68.7802 30.4513C68.7227 30.4677 68.6734 30.5048 68.6416 30.5555C67.9284 31.6736 66.6135 32.5045 65.1856 32.5045C62.3783 32.5045 60.297 30.2538 60.297 27.1883C60.297 24.0776 62.3944 21.872 65.1856 21.872C66.6135 21.872 67.9284 22.682 68.6416 23.8162C68.6737 23.8674 68.7238 23.9047 68.782 23.9208C68.8402 23.9369 68.9023 23.9307 68.9562 23.9033L70.6293 22.9917C70.7584 22.9224 70.8019 22.7659 70.7229 22.64C69.6645 20.9733 67.9123 19.5777 65.1856 19.5777C60.9988 19.5777 57.7639 22.6432 57.7639 27.1883C57.7639 31.7107 61.0149 34.7988 65.1856 34.7988C67.9091 34.7988 69.6419 33.3677 70.7358 31.701C70.8165 31.5719 70.7729 31.4138 70.639 31.346V31.3412ZM79.4241 32.5029C76.5522 32.5029 74.7226 30.2086 74.7226 27.1866C74.7371 24.1292 76.5683 21.8704 79.4402 21.8704C82.2911 21.8704 84.1417 24.1292 84.1417 27.1866C84.1417 30.2086 82.2911 32.5029 79.4402 32.5029H79.4241ZM77.4154 19.8375C74.2563 20.6829 72.1717 23.5484 72.1717 27.1915C72.1717 31.58 75.1727 34.802 79.4257 34.802C83.0494 34.802 85.7826 32.4432 86.4973 28.9937C87.659 23.4032 82.7574 18.3935 77.417 19.8214L77.4154 19.8375ZM104.327 19.8214H101.1C101.03 19.8203 100.962 19.841 100.904 19.8806C100.846 19.9202 100.802 19.9767 100.778 20.0424L96.8765 30.1392L92.9558 20.0424C92.9026 19.9101 92.7751 19.8214 92.6332 19.8214H89.4063C89.3095 19.8214 89.2337 19.8988 89.2337 19.994V34.3615C89.2337 34.4583 89.3111 34.5342 89.4063 34.5342H91.6393C91.7361 34.5342 91.8119 34.4567 91.8119 34.3615V23.1741L96.2972 34.4567C96.3166 34.5051 96.3618 34.5342 96.4102 34.5342H97.3427C97.3911 34.5342 97.4396 34.5019 97.4557 34.4567L101.92 23.1741V34.3615C101.92 34.4583 101.997 34.5342 102.093 34.5342H104.36C104.456 34.5342 104.532 34.4567 104.532 34.3615V19.994C104.532 19.8972 104.455 19.8214 104.36 19.8214H104.327ZM137.294 19.8214H127.754C127.593 19.8214 127.488 19.9408 127.488 20.0876V34.2857C127.488 34.447 127.607 34.5519 127.754 34.5519H137.293C137.454 34.5519 137.559 34.4325 137.559 34.2857V32.5464C137.559 32.3851 137.44 32.2802 137.293 32.2802H130.336C130.174 32.2802 130.069 32.1608 130.069 32.014V28.4419C130.069 28.2805 130.189 28.1757 130.336 28.1757H137.141C137.302 28.1757 137.407 28.0563 137.407 27.9095V26.1702C137.407 26.0088 137.288 25.904 137.141 25.904H130.336C130.174 25.904 130.069 25.7846 130.069 25.6378V22.3754C130.069 22.2141 130.189 22.1092 130.336 22.1092H137.296C137.457 22.1092 137.562 21.9898 137.562 21.843V20.1037C137.562 19.9424 137.443 19.8375 137.296 19.8375L137.294 19.8214ZM147.349 26.7704H144.082C143.921 26.7704 143.819 26.651 143.819 26.5074V22.3544C143.819 22.1931 143.937 22.0914 144.082 22.0914H147.365C148.817 22.0914 149.877 22.995 149.877 24.4083C149.877 25.8604 148.819 26.7688 147.365 26.7688L147.349 26.7704ZM149.374 28.6791C151.02 28.2644 152.504 26.8559 152.504 24.4309C152.504 21.6962 150.587 19.8214 147.664 19.8214H141.484C141.323 19.8214 141.221 19.9391 141.221 20.0844V34.2712C141.221 34.4325 141.339 34.5358 141.484 34.5358H143.533C143.695 34.5358 143.796 34.4164 143.796 34.2712V29.3051C143.796 29.1437 143.914 29.0421 144.059 29.0421H146.221C146.315 29.0421 146.383 29.0905 146.447 29.1711L149.535 34.4067C149.584 34.4874 149.669 34.5358 149.761 34.5358H152.133C152.339 34.5358 152.467 34.3099 152.359 34.1324L149.197 29.0727C149.1 28.9178 149.19 28.7226 149.368 28.6774L149.374 28.6791ZM172.769 22.0931H179.742C179.776 22.0931 179.81 22.0863 179.841 22.0733C179.872 22.0602 179.901 22.041 179.925 22.0169C179.949 21.9927 179.968 21.9641 179.981 21.9326C179.994 21.9011 180 21.8673 180 21.8333V20.0956C180 19.9343 179.884 19.8375 179.742 19.8375H170.19C170.122 19.8375 170.056 19.8647 170.008 19.9131C169.959 19.9615 169.932 20.0272 169.932 20.0956V34.2905C169.932 34.4519 170.048 34.5487 170.19 34.5487H179.742C179.776 34.5487 179.81 34.542 179.841 34.5289C179.872 34.5158 179.901 34.4966 179.925 34.4725C179.949 34.4484 179.968 34.4197 179.981 34.3882C179.994 34.3567 180 34.323 180 34.2889V32.5351C180 32.5011 179.994 32.4674 179.981 32.4358C179.968 32.4043 179.949 32.3757 179.925 32.3516C179.901 32.3274 179.872 32.3082 179.841 32.2952C179.81 32.2821 179.776 32.2754 179.742 32.2754H172.788C172.72 32.2754 172.654 32.2482 172.605 32.1998C172.557 32.1513 172.53 32.0857 172.53 32.0172V28.4322C172.53 28.2709 172.646 28.1741 172.788 28.1741H179.606C179.64 28.1743 179.674 28.1677 179.706 28.1547C179.738 28.1417 179.766 28.1226 179.79 28.0984C179.815 28.0743 179.834 28.0456 179.847 28.014C179.86 27.9823 179.866 27.9485 179.866 27.9143V26.146C179.866 25.9846 179.75 25.8878 179.608 25.8878H172.769C172.734 25.888 172.701 25.8815 172.669 25.8685C172.637 25.8555 172.609 25.8364 172.584 25.8122C172.56 25.7881 172.541 25.7593 172.528 25.7277C172.515 25.6961 172.509 25.6622 172.509 25.6281V22.3544C172.509 22.3203 172.515 22.2864 172.528 22.2548C172.541 22.2232 172.56 22.1944 172.584 22.1703C172.609 22.1461 172.637 22.127 172.669 22.114C172.701 22.101 172.734 22.0945 172.769 22.0947V22.0931ZM167.283 31.2815L165.597 30.407C165.489 30.3506 165.352 30.3909 165.286 30.4958C164.572 31.6139 163.257 32.4448 161.83 32.4448C159.022 32.4448 156.941 30.1941 156.941 27.1286C156.941 24.0179 159.038 21.8123 161.83 21.8123C163.257 21.8123 164.572 22.6223 165.286 23.7565C165.35 23.863 165.49 23.9178 165.6 23.8436L167.273 22.932C167.402 22.8627 167.446 22.7029 167.367 22.5803C166.308 20.9137 164.556 19.518 161.83 19.518C157.643 19.518 154.408 22.5835 154.408 27.1286C154.408 31.651 157.659 34.7391 161.83 34.7391C164.553 34.7391 166.286 33.308 167.38 31.6413C167.399 31.6124 167.413 31.5796 167.418 31.5451C167.424 31.5106 167.422 31.4753 167.413 31.4415C167.404 31.4078 167.388 31.3764 167.365 31.3497C167.343 31.3229 167.315 31.3013 167.283 31.2863V31.2815ZM123.377 19.8214H120.15C120.08 19.8203 120.011 19.841 119.954 19.8806C119.896 19.9202 119.852 19.9767 119.827 20.0424L115.926 30.1392L112.006 20.0424C111.952 19.9101 111.825 19.8214 111.683 19.8214H108.456C108.359 19.8214 108.283 19.8988 108.283 19.994V34.3615C108.283 34.4583 108.361 34.5342 108.456 34.5342H110.689C110.786 34.5342 110.862 34.4567 110.862 34.3615V23.1741L115.331 34.4551C115.35 34.5035 115.395 34.5325 115.444 34.5325H116.376C116.425 34.5325 116.473 34.5003 116.489 34.4551L120.954 23.1724V34.3599C120.954 34.4567 121.031 34.5325 121.126 34.5325H123.358C123.454 34.5325 123.53 34.4551 123.53 34.3599V19.9924C123.53 19.8956 123.453 19.8198 123.358 19.8198L123.377 19.8214Z" fill="#34313F"/>
</svg>
