<svg width="20" height="20" viewBox="0 0 20 20" fill="none" xmlns="http://www.w3.org/2000/svg">
<path d="M19.8583 0.466675V0.391675H19.7833H0.716675H0.641675V0.466675V14.7667V14.8417H0.716675H3.02501V19.1889V19.3699L3.15304 19.2419L7.55327 14.8417H19.7833H19.8583V14.7667V0.466675ZM4.36667 13.575V13.5H4.29167H1.98334V5.30834H18.5167V13.5H7.01947H6.98841L6.96644 13.522L4.36667 16.1217V13.575ZM12.6333 6.35001H12.5583V6.42501V12.3833V12.4583H12.6333H17.4H17.475V12.3833V6.42501V6.35001H17.4H12.6333ZM3.10001 7.54168H3.02501V7.61668V8.80834V8.88334H3.10001H11.4417H11.5167V8.80834V7.61668V7.54168H11.4417H3.10001ZM3.10001 9.92501H3.02501V10V11.1917V11.2667H3.10001H11.4417H11.5167V11.1917V10V9.92501H11.4417H3.10001ZM18.5167 3.96668H1.98334V1.73334H18.5167V3.96668ZM16.1333 7.69168V11.1167H13.9V7.69168H16.1333Z" fill="#5B5E71" stroke="#5B5E71" stroke-width="0.15"/>
</svg>
