<svg width="59" height="60" viewBox="0 0 59 60" fill="none" xmlns="http://www.w3.org/2000/svg">
<path d="M29.0636 28.6157H23.0127V18.9402H30.2328C33.9159 18.9402 35.9621 20.5771 35.9621 23.5879C35.9621 26.8618 33.5359 28.6157 29.0636 28.6157ZM30.1451 31.9188H23.0127V42.5589H30.4959C35.0559 42.5589 37.4529 40.7173 37.4529 37.2096C37.4529 33.7019 34.9682 31.9188 30.1451 31.9188ZM58.9084 10.5217V49.6328C58.9084 54.9236 54.5238 59.3083 49.233 59.3083H10.1219C4.83104 59.3083 0.446381 54.9236 0.446381 49.6328V10.5217C0.446381 5.23085 4.83104 0.846191 10.1219 0.846191H49.233C54.5238 0.846191 58.9084 5.23085 58.9084 10.5217ZM41.3698 37.385C41.3698 33.3511 38.6806 30.4572 34.559 29.9311V29.7557C37.4821 29.2295 39.7914 26.3064 39.7914 23.1495C39.7914 18.6187 36.2836 15.6079 31.139 15.6079H19.2419V45.8912H31.0513C37.5113 45.8912 41.3698 42.705 41.3698 37.385Z" fill="#1E1E1E"/>
</svg>
