<svg width="22" height="28" viewBox="0 0 22 28" fill="none" xmlns="http://www.w3.org/2000/svg">
<path d="M13.7341 15.0638L13.7326 15.0643L11.9976 15.6142C11.6166 15.1717 11.2764 14.695 10.9813 14.1901C10.6949 13.674 10.4539 13.1345 10.2607 12.5775L11.316 11.6026H11.319L11.6066 11.3364C12.2481 10.7426 12.6985 9.97145 12.9006 9.12099C13.1026 8.2708 13.0474 7.37975 12.7419 6.56104C12.7418 6.56079 12.7417 6.56053 12.7416 6.56027L12.0103 4.59351C12.0101 4.59305 12.0099 4.59259 12.0098 4.59212C11.6247 3.55078 10.8559 2.69608 9.86103 2.20316C8.86569 1.71001 7.7194 1.61633 6.65719 1.94131L6.65508 1.94196C3.49232 2.91726 0.748781 5.85391 1.32593 9.68165L1.3262 9.6834C1.77741 12.6403 2.77987 15.4861 4.28147 18.073C5.76512 20.651 7.71013 22.9343 10.0195 24.809L10.0214 24.8105C13.0309 27.2415 16.9473 26.3305 19.3714 24.0569L19.3721 24.0563C20.18 23.297 20.6695 22.2594 20.7417 21.1531C20.8138 20.0468 20.4633 18.9543 19.761 18.0965L19.7609 18.0964L18.4274 16.4683C18.4272 16.468 18.4269 16.4677 18.4267 16.4674C17.8749 15.7908 17.1329 15.2953 16.2965 15.045C15.4597 14.7947 14.5671 14.8012 13.7341 15.0638Z" stroke="#FFE100" strokeWidth="2"/>
</svg>
