<svg width="64" height="46" viewBox="0 0 64 46" fill="none" xmlns="http://www.w3.org/2000/svg">
<path d="M49.4375 23.1554C50.2917 24.6473 50.9271 26.2014 51.3437 27.8176C51.7604 29.4338 51.9792 31.1018 52 32.8216V36.023L32 46L12 36.023C12 34.7797 12.0104 33.6194 12.0312 32.5419C12.0521 31.4644 12.1458 30.418 12.3125 29.4027C12.4792 28.3874 12.7292 27.3721 13.0625 26.3568C13.3958 25.3414 13.8958 24.2743 14.5625 23.1554L8 19.8919V30.0431C8.60417 30.2503 9.14583 30.5404 9.625 30.9134C10.1042 31.2864 10.5312 31.7215 10.9062 32.2188C11.2812 32.7161 11.5521 33.2548 11.7188 33.835C11.8854 34.4152 11.9792 35.0265 12 35.6688V45.6148H0V35.6688C0 35.0472 0.09375 34.4463 0.28125 33.8661C0.46875 33.2859 0.739583 32.7368 1.09375 32.2188C1.44792 31.7008 1.86458 31.2657 2.34375 30.9134C2.82292 30.5612 3.375 30.2711 4 30.0431V17.9027L0 15.9135L32 0L64 15.9135L49.4375 23.1554ZM8 35.6688C8 35.1301 7.80208 34.6639 7.40625 34.2702C7.01042 33.8765 6.54167 33.6796 6 33.6796C5.45833 33.6796 4.98958 33.8765 4.59375 34.2702C4.19792 34.6639 4 35.1301 4 35.6688V41.6364H8V35.6688ZM8.9375 15.9135L32 27.3824L55.0625 15.9135L32 4.44459L8.9375 15.9135ZM48 33.5676C48 31.9721 47.8437 30.4905 47.5312 29.123C47.2187 27.7554 46.6667 26.3568 45.875 24.927L32 31.827L18.125 24.927C17.4375 26.1288 16.9167 27.3928 16.5625 28.7189C16.2083 30.045 16.0208 31.4126 16 32.8216V33.5676L32 41.5243L48 33.5676Z" fill="url(#paint0_linear_168_522)"/>
<defs>
<linearGradient id="paint0_linear_168_522" x1="32" y1="0" x2="32" y2="46" gradientUnits="userSpaceOnUse">
<stop stop-color="#C6CED3"/>
<stop offset="1" stop-color="#C6CED3"/>
</linearGradient>
</defs>
</svg>
