<svg width="21" height="20" viewBox="0 0 21 20" fill="none" xmlns="http://www.w3.org/2000/svg">
<path d="M19.9083 4.13357C19.9086 3.98935 19.8748 3.84703 19.8095 3.71992C19.7442 3.59279 19.6494 3.48459 19.5331 3.40631L19.5331 3.40624L19.5293 3.40385C19.4064 3.32743 19.2662 3.28676 19.1228 3.28676C18.9809 3.28676 18.842 3.32663 18.72 3.4016L13.0988 6.40354L13.0988 4.13334L13.0988 4.13299C13.0984 3.98833 13.0637 3.84575 12.9974 3.71871C12.9312 3.59163 12.8353 3.48381 12.718 3.40629C12.6007 3.32872 12.4661 3.28427 12.327 3.278C12.188 3.27173 12.0503 3.30386 11.927 3.37071C11.9269 3.37074 11.9269 3.37078 11.9268 3.37081L6.28929 6.40285V1.20001C6.28929 0.97523 6.20647 0.757965 6.05645 0.596407C5.90614 0.434536 5.70021 0.341675 5.48334 0.341675H1.39763C1.18076 0.341675 0.97483 0.434536 0.824522 0.596407C0.674503 0.757965 0.591675 0.97523 0.591675 1.20001V19.5333V19.6583H0.716675H19.7833H19.9083V19.5333V4.13357ZM19.9083 4.13357L19.7833 4.13334M19.9083 4.13357V4.13334H19.7833M19.7833 4.13334V19.4083L18.7823 3.51001C18.8859 3.44564 19.0033 3.41176 19.1228 3.41176C19.2423 3.41176 19.3598 3.44564 19.4633 3.51001C19.5614 3.57606 19.6423 3.66796 19.6983 3.77702C19.7543 3.88608 19.7836 4.00872 19.7833 4.13334ZM4.86165 9.09807L11.4869 5.53062V8.98801V9.19729L11.6712 9.09807L18.2964 5.53062V17.9417H15.8226V12.2C15.8226 11.9752 15.7398 11.758 15.5898 11.5964C15.4395 11.4345 15.2335 11.3417 15.0167 11.3417H10.931C10.7141 11.3417 10.5082 11.4345 10.3579 11.5964C10.2078 11.758 10.125 11.9752 10.125 12.2V17.9417H2.20358V2.05834H4.67739V8.98801V9.19729L4.86165 9.09807ZM11.7369 17.9417V13.0583H14.2107V17.9417H11.7369Z" fill="#5B5E71" stroke="#5B5E71" stroke-width="0.25"/>
</svg>
