<svg width="112" height="112" viewBox="0 0 112 112" fill="none" xmlns="http://www.w3.org/2000/svg">
<path d="M28.0234 41.6266L34.6268 35.0373L50.1948 50.6053L77.4248 23.3706L84.0281 29.9739L50.1948 63.7979L28.0234 41.6266Z" fill="#5B5E71"/>
<path d="M98.0001 9.33325H14.0001C11.527 9.34064 9.15732 10.3263 7.40858 12.0751C5.65984 13.8238 4.67413 16.1935 4.66675 18.6666L4.68541 74.6852C4.69035 77.1541 5.6733 79.5205 7.41907 81.2663C9.16484 83.012 11.5312 83.995 14.0001 83.9999H46.6667V93.3333L37.3521 93.3519L37.3334 102.667H74.6667L74.6854 93.3519L65.3334 93.3333V83.9999H98.0001C100.473 83.9925 102.843 83.0068 104.592 81.2581C106.34 79.5094 107.326 77.1397 107.333 74.6666V18.6666C107.326 16.1935 106.34 13.8238 104.592 12.0751C102.843 10.3263 100.473 9.34064 98.0001 9.33325ZM98.0001 74.6666H14.0001V18.6666H98.0001V74.6666Z" fill="#5B5E71"/>
</svg>
