<svg width="31" height="28" viewBox="0 0 31 28" fill="none" xmlns="http://www.w3.org/2000/svg">
<path d="M13.1629 2.70828C7.97907 6.01578 5.38779 10.0018 5.38779 14.6612C5.38779 16.1115 5.64192 16.836 6.14753 16.836L6.66895 16.6956C7.07976 16.5381 7.41026 16.4593 7.66438 16.4593C9.14831 16.4593 10.39 16.9975 11.3841 18.0737C12.3795 19.15 12.8772 20.4756 12.8772 22.0585C12.8772 23.577 12.3374 24.8672 11.2643 25.9264C10.1898 26.9856 8.89418 27.5145 7.37734 27.5145C5.26007 27.5145 3.5128 26.6483 2.13684 24.9118C0.763519 23.1793 0.0775146 21.0006 0.0775146 18.3795C0.0775146 15.4133 0.659499 12.7003 1.82873 10.2381C3.0006 7.77716 4.78342 5.55247 7.1851 3.56403C9.58677 1.57691 11.1194 0.582031 11.783 0.582031C12.2255 0.582031 12.5889 0.794656 12.8733 1.21991C13.1577 1.64384 13.2999 2.01397 13.2999 2.32897L13.159 2.70697L13.1629 2.70828ZM30.2275 2.70828C25.0436 6.01578 22.4536 10.0005 22.4536 14.6625C22.4536 16.1128 22.7078 16.8373 23.2134 16.8373L23.7348 16.6969C24.1456 16.5394 24.4761 16.4607 24.7302 16.4607C26.1825 16.4607 27.4163 16.9988 28.4262 18.075C29.4401 19.1513 29.9431 20.4769 29.9431 22.0598C29.9431 23.5783 29.4032 24.8685 28.3301 25.9277C27.2557 26.9869 25.96 27.5158 24.4432 27.5158C22.3259 27.5158 20.5786 26.6496 19.2027 24.9132C17.8294 23.1807 17.1434 21.0019 17.1434 18.3808C17.1434 15.3831 17.7332 12.6452 18.9209 10.1698C20.1059 7.69316 21.8901 5.47503 24.276 3.51941C26.6658 1.56247 28.1892 0.583344 28.8515 0.583344C29.2952 0.583344 29.6586 0.795969 29.9444 1.22122C30.2275 1.64647 30.3697 2.01659 30.3697 2.33159L30.2275 2.70828Z" fill="#FFE100"/>
</svg>
