<svg width="112" height="112" viewBox="0 0 112 112" fill="none" xmlns="http://www.w3.org/2000/svg">
<path d="M44.4504 81.8565C42.0879 89.0315 36.4004 94.2815 28.0441 97.0815C24.2853 98.3221 20.3638 99.0003 16.4066 99.094C15.4784 99.094 14.5881 98.7252 13.9317 98.0688C13.2754 97.4125 12.9066 96.5222 12.9066 95.594C13.0003 91.6368 13.6785 87.7153 14.9191 83.9565C17.7191 75.6002 22.9691 69.9127 30.1441 67.5502C30.5887 67.355 31.0691 67.2544 31.5546 67.2549C32.0402 67.2553 32.5204 67.3568 32.9646 67.5529C33.4088 67.7489 33.8074 68.0353 34.135 68.3937C34.4626 68.7522 34.712 69.1748 34.8673 69.6349C35.0227 70.0949 35.0807 70.5823 35.0375 71.0659C34.9944 71.5496 34.851 72.019 34.6167 72.4442C34.3823 72.8695 34.062 73.2413 33.6761 73.5361C33.2903 73.8309 32.8473 74.0422 32.3754 74.1565C23.7566 77.044 21.0879 86.3627 20.2566 91.744C25.6379 90.9127 34.9566 88.244 37.8441 79.6252C38.1959 78.8241 38.835 78.1838 39.6355 77.8305C40.436 77.4772 41.3397 77.4365 42.1687 77.7165C42.9977 77.9965 43.6917 78.5768 44.114 79.3431C44.5364 80.1094 44.6564 81.0061 44.4504 81.8565ZM88.1566 48.5627L84.2629 52.5002V79.319C84.2502 81.1724 83.5121 82.9471 82.2066 84.2627L68.0316 98.394C67.3887 99.0523 66.6194 99.5738 65.7698 99.9271C64.9202 100.281 64.008 100.458 63.0879 100.45C62.405 100.456 61.7257 100.352 61.0754 100.144C59.8575 99.7791 58.762 99.0896 57.9065 98.1492C57.0509 97.2089 56.4676 96.0533 56.2191 94.8065L52.7629 77.5252L34.4754 59.2377L17.1941 55.7815C15.9473 55.533 14.7917 54.9497 13.8514 54.0941C12.911 53.2386 12.2214 52.1431 11.8566 50.9252C11.4889 49.7161 11.4575 48.4297 11.7659 47.2041C12.0742 45.9786 12.7106 44.8601 13.6066 43.969L27.7379 29.794C29.0535 28.4885 30.8282 27.7504 32.6816 27.7377H59.5004L63.4379 23.844C75.9504 11.3315 88.7691 11.6815 93.7129 12.4252C95.1953 12.6303 96.5702 13.314 97.6284 14.3722C98.6866 15.4304 99.3703 16.8053 99.5754 18.2877C100.319 23.2315 100.669 36.0502 88.1566 48.5627ZM18.5504 48.9127L35.0441 52.194L52.5004 34.7377H32.6816L18.5504 48.9127ZM41.1691 56.0002L56.0004 70.8315L83.2129 43.619C86.6254 40.2065 94.4129 31.019 92.6629 19.3377C80.9816 17.5877 71.7941 25.3752 68.3816 28.7877L41.1691 56.0002ZM77.2629 59.5002L59.8066 76.9565L63.0879 93.4502L77.2629 79.319V59.5002Z" fill="#5B5E71"/>
</svg>
