<svg width="111" height="112" viewBox="0 0 111 112" fill="none" xmlns="http://www.w3.org/2000/svg">
<g clip-path="url(#clip0_2295_2445)">
<path d="M89.123 0C89.7498 0.660261 90.3536 1.34337 91.0079 1.97622C91.4556 2.40801 91.4258 2.73015 90.9942 3.15509C88.2414 5.87153 85.5002 8.60396 82.7658 11.3387C82.3847 11.7202 82.0472 11.8116 81.6684 11.3684C81.6454 11.341 81.6179 11.3158 81.5903 11.2907C80.0903 9.95342 80.0467 8.58188 81.4594 7.17606C83.8655 4.78404 86.2739 2.39202 88.6822 0C88.8292 0 88.9761 0 89.123 0Z" fill="#5B5E71"/>
<path d="M0 59.4534C0.606108 41.5532 8.34776 27.1714 23.5372 16.9293C31.1296 11.8095 39.6335 9.15698 48.81 8.66807C62.4039 7.94155 74.3332 12.1384 84.8436 20.6167C85.7092 21.3158 85.1581 21.6791 84.6875 22.1497C77.5336 29.3212 70.3958 36.5087 63.2235 43.6619C46.8815 59.956 30.5212 76.2318 14.1701 92.5121C13.013 93.6636 12.9946 93.6773 11.9614 92.4368C5.77639 85.0071 2.04332 76.4991 0.606108 66.9676C0.245657 64.5801 0.218107 62.1767 0 59.4534H0ZM48.8192 12.4629C44.2413 12.4172 37.3032 14.0187 30.737 17.1829C13.0749 25.6932 2.54382 44.3496 4.22209 63.8399C4.90626 71.779 7.40416 79.0716 11.7043 85.7702C12.69 87.3054 13.8387 87.4197 15.1504 86.1129C15.2285 86.0352 15.2973 85.9461 15.3846 85.8821C16.342 85.1967 16.5555 84.2669 16.5486 83.12C16.5027 75.8617 16.5073 68.6034 16.5325 61.3451C16.5486 57.3012 18.1511 54.1324 21.9025 52.2659C25.181 50.6347 28.3975 48.8412 31.7908 47.5001C34.4747 46.4401 35.6341 44.9573 35.1979 42.0581C35.0188 40.8769 34.904 39.81 34.1234 38.8459C32.8102 37.2284 31.9607 35.3892 31.7128 33.2965C31.5245 31.7087 31.8804 30.1734 32.1122 28.629C33.0421 22.4582 38.7037 18.3778 44.5535 19.6321C48.9088 20.5665 51.8475 23.7604 52.7406 28.3183C53.4224 31.7932 53.5946 35.1745 51.2597 38.1308C50.098 39.5998 49.8501 41.1602 49.7353 42.9674C49.5975 45.1492 50.2404 46.4149 52.3273 47.1689C53.2594 47.5047 53.7622 47.539 54.4877 46.8056C62.4888 38.7271 70.5312 30.6852 78.5598 22.6341C79.5746 21.6174 79.5769 21.6106 78.4014 20.8041C70.3154 15.2707 61.3661 12.4903 48.8169 12.4606L48.8192 12.4629ZM31.5245 69.2568C31.6117 69.2865 31.699 69.3162 31.7862 69.3459C34.5573 66.5929 37.3261 63.8399 40.0972 61.0892C40.3475 60.8402 40.4324 60.5386 40.4324 60.1959C40.4324 56.6958 40.4324 53.1957 40.4324 49.6957C40.4324 49.3096 40.3865 48.9075 39.886 48.9166C38.7312 48.9326 37.581 48.7315 36.4491 49.3187C32.289 51.4708 28.1128 53.5956 23.9068 55.654C21.5696 56.7963 20.4952 58.5624 20.5158 61.144C20.5595 67.1595 20.5273 73.1772 20.5365 79.1927C20.5365 79.5377 20.4148 79.9146 20.7133 80.287C20.8625 80.1751 21.014 80.0883 21.1357 79.9695C23.0826 78.0389 25.0157 76.0947 26.9764 74.1779C27.4447 73.7187 27.5343 73.1955 27.532 72.5901C27.5228 69.7457 27.5182 66.9013 27.532 64.0592C27.5458 61.0298 27.2427 61.5324 30.1791 61.4342C31.2651 61.3976 31.5727 61.8157 31.5475 62.8346C31.4924 64.9753 31.5314 67.1183 31.5314 69.2591L31.5245 69.2568ZM42.3862 30.7012C40.4807 30.7012 38.5751 30.7263 36.6695 30.6897C35.804 30.6737 35.5055 31.0438 35.494 31.864C35.4734 33.1366 35.5813 34.4571 36.4032 35.4007C38.5705 37.8978 39.1996 40.7467 38.8162 43.9178C38.807 43.9886 38.823 44.064 38.8162 44.1371C38.7588 44.7974 39.0664 45.0487 39.723 45.0373C41.151 45.0121 42.5814 45.0373 44.0117 45.0304C46.1698 45.0213 46.0734 45.2063 45.8989 43.0771C45.6739 40.3195 46.257 37.9298 48.0777 35.7982C49.0327 34.6787 49.2876 33.2577 49.2486 31.7864C49.2279 31.005 48.9042 30.6783 48.1075 30.692C46.2019 30.7217 44.2964 30.7012 42.3908 30.7012H42.3862ZM44.3216 56.8786C46.4866 54.7287 48.4358 52.7891 50.3873 50.8494C50.6192 50.6187 50.6353 50.4108 50.3161 50.2486C48.6195 49.3827 46.916 48.5511 44.9094 48.8938C44.5145 48.9623 44.3216 49.1496 44.3216 49.5357C44.3216 51.8821 44.3216 54.2284 44.3216 56.8786ZM42.3587 26.8378C43.8946 26.8378 45.4305 26.8424 46.9688 26.8333C47.2466 26.8333 47.6139 26.9543 47.7608 26.6276C47.894 26.3284 47.6139 26.0885 47.4509 25.8577C45.1665 22.5793 39.4314 22.6729 37.1999 26.0131C36.7889 26.6254 36.9267 26.847 37.6407 26.8401C39.2133 26.8287 40.786 26.8355 42.3587 26.8378Z" fill="#5B5E71"/>
<path d="M110.339 56.2733C110.098 69.7686 105.605 81.6008 96.2008 91.4362C87.8094 100.214 77.5147 105.402 65.4339 106.894C50.4419 108.747 37.1741 104.605 25.4928 95.1716C24.6777 94.5136 25.1668 94.1732 25.619 93.7231C32.385 86.9926 39.1509 80.2597 45.9168 73.5269C62.7409 56.7873 79.5626 40.0454 96.3867 23.3059C97.5301 22.1681 97.5232 22.175 98.5517 23.4407C104.911 31.2633 108.757 40.1551 110.006 50.1436C110.258 52.17 110.401 54.2079 110.341 56.271L110.339 56.2733ZM84.5975 54.2011C85.8809 54.2011 87.1619 54.1942 88.4453 54.2011C91.7606 54.2216 93.9164 56.0402 94.4054 59.2844C94.7429 61.5165 94.9702 63.7669 95.3306 65.9944C95.6452 67.9432 95.6176 69.8646 94.2906 71.3976C92.2542 73.7508 91.6595 76.4192 92.0131 79.3984C92.0177 79.435 92.0177 79.4715 92.0131 79.5081C91.9259 80.2346 92.2817 80.6412 92.9291 80.9382C94.0932 81.4706 95.2617 82.012 96.3638 82.6563C97.3097 83.2092 97.8561 83.0995 98.4806 82.1331C104.319 73.1019 106.998 63.2711 106.259 52.5264C105.678 44.0733 103.001 36.3535 98.2601 29.3282C97.6647 28.4448 96.976 28.3915 96.1939 29.1683C74.7872 50.4703 53.3806 71.7723 31.974 93.0743C31.7926 93.2548 31.6227 93.449 31.4299 93.6134C30.9363 94.0293 30.9845 94.3263 31.5286 94.7009C39.4264 100.118 48.1208 103.104 57.7473 103.323C58.6795 103.344 58.9504 103.001 58.9366 102.112C58.8953 99.4507 59.0078 96.7845 58.8999 94.1252C58.7736 91.0044 60.1419 88.9688 62.9337 87.6277C67.3555 85.503 71.7062 83.2343 76.1051 81.0662C76.888 80.6801 77.1589 80.2049 77.2461 79.3184C77.5423 76.3096 76.966 73.6205 74.8676 71.3428C74.6725 71.1326 74.537 70.8584 74.413 70.5957C73.9217 69.5607 73.5911 68.4847 73.7426 67.3218C74.0847 64.6853 74.436 62.0488 74.7964 59.4146C75.2487 56.1088 77.4114 54.2148 80.7496 54.1919C82.033 54.1828 83.3141 54.1919 84.5975 54.1919V54.2011ZM62.7041 97.6298C62.7041 99.0897 62.7363 100.55 62.6926 102.007C62.6674 102.827 62.8488 103.179 63.7969 103.086C70.1978 102.464 76.1923 100.584 81.8195 97.4996C82.3406 97.214 82.5243 96.8211 82.5174 96.2568C82.5013 94.87 82.3498 93.4604 82.5473 92.1033C83.0041 88.9802 81.9779 86.5767 79.4134 84.7765C79.3537 84.7353 79.3032 84.6782 79.2573 84.6234C78.8463 84.1276 78.3963 84.0682 77.8063 84.3629C73.1618 86.6955 68.5081 89.0122 63.8497 91.3197C63.0255 91.7286 62.688 92.3546 62.7018 93.2525C62.7271 94.7101 62.7087 96.17 62.7041 97.6298ZM84.5768 65.309C82.6712 65.309 80.7634 65.3044 78.8578 65.3136C78.4331 65.3136 77.905 65.2108 77.7925 65.8162C77.5515 67.1093 77.3012 68.3841 78.2127 69.5904C79.0254 70.6665 79.7004 71.8477 80.4718 72.958C80.8644 73.5246 81.0366 74.114 81.0274 74.7994C81.0021 76.5129 81.0205 78.2287 81.0205 79.9421C81.0205 80.4196 81.0205 80.8857 81.4062 81.2627C82.2695 82.1057 83.1166 82.9647 83.9707 83.8169C84.2485 84.0956 84.5515 84.3172 84.9097 83.9585C86.4938 82.3684 88.5693 81.1027 88.0367 78.2835C87.4443 75.1467 88.4637 72.3983 90.5231 70.0222C91.5379 68.8525 91.632 67.5731 91.3152 66.1338C91.1728 65.4849 90.9088 65.2976 90.2958 65.3044C88.3902 65.3273 86.4824 65.3136 84.5768 65.3113V65.309ZM86.549 94.2737C86.7625 94.2257 86.8796 94.2303 86.9576 94.1755C89.9009 92.1124 92.5113 89.6884 94.8508 86.9674C95.2296 86.5265 95.101 86.2912 94.6327 86.065C93.4503 85.4915 92.2702 84.9135 91.1039 84.3081C90.5897 84.0408 90.2131 84.1733 89.8366 84.5571C88.916 85.4915 87.9793 86.41 87.0517 87.3375C86.8199 87.5706 86.5558 87.8059 86.5558 88.1577C86.5467 90.1796 86.5512 92.2015 86.5512 94.2737H86.549ZM84.6044 61.4503C86.363 61.4503 88.1193 61.4571 89.8757 61.4434C90.1741 61.4411 90.5575 61.5736 90.6838 61.103C91.0626 59.6865 89.8481 58.0804 88.3558 58.0713C86.0485 58.0553 83.7434 58.0644 81.4361 58.0667C79.3859 58.0667 78.906 58.5328 78.5892 60.541C78.4629 61.3406 78.7453 61.4777 79.441 61.464C81.1606 61.432 82.8825 61.4548 84.6044 61.4525V61.4503Z" fill="#5B5E71"/>
<path d="M12.5424 112C12.1176 111.904 11.8903 111.55 11.6102 111.276C10.3858 110.077 10.3697 108.884 11.562 107.698C14.4112 104.863 17.281 102.046 20.0958 99.1761C20.7776 98.4816 21.1886 98.5067 21.8567 99.1921C23.7278 101.111 23.7577 101.081 21.8888 102.941C19.0649 105.751 16.2433 108.561 13.4148 111.369C13.1622 111.621 12.9487 111.943 12.5424 112Z" fill="#5B5E71"/>
<path d="M89.5222 18.9945C89.1342 18.9351 88.9298 18.6084 88.675 18.3617C87.3801 17.1051 87.374 15.8387 88.6566 14.5623C89.6921 13.5319 90.739 12.5153 91.7537 11.4689C92.1785 11.0302 92.4861 11.0554 92.9407 11.462C95.2526 13.5274 95.2618 13.5159 93.1152 15.6521C92.1578 16.6048 91.2027 17.5575 90.2431 18.5056C90.0387 18.7066 89.8505 18.9442 89.5222 18.9945Z" fill="#5B5E71"/>
<path d="M30.7643 106.594C30.7023 106.976 30.4567 107.154 30.2546 107.357C28.861 108.749 27.4468 110.12 26.0785 111.534C25.5596 112.071 25.1991 112.094 24.6412 111.561C22.5497 109.574 22.5336 109.592 24.5333 107.602C25.5665 106.574 26.6134 105.555 27.6305 104.511C28.0414 104.088 28.3835 104.008 28.8151 104.477C29.334 105.039 29.8988 105.557 30.4314 106.11C30.5784 106.261 30.6748 106.46 30.7666 106.594H30.7643Z" fill="#5B5E71"/>
<path d="M20.987 36.5887C21.2854 36.5795 21.453 36.7852 21.6459 36.9474C23.2101 38.2785 23.2645 39.6691 21.8089 41.1191C19.327 43.5888 16.8246 46.038 14.3772 48.5419C13.7389 49.1953 13.3463 49.1862 12.7104 48.5419C10.7704 46.5771 10.7451 46.6023 12.6966 44.6603C15.1784 42.1906 17.658 39.7209 20.1444 37.2535C20.3992 36.9999 20.6288 36.7029 20.9893 36.591L20.987 36.5887Z" fill="#5B5E71"/>
<path d="M66.7289 20.2236C67.1422 20.3173 67.3695 20.6714 67.6496 20.9479C68.874 22.1481 68.8901 23.3414 67.6978 24.5279C66.66 25.5606 65.5971 26.5658 64.5984 27.6327C64.029 28.2427 63.641 28.1696 63.0739 27.6145C61.0421 25.6245 61.0237 25.6428 63.0418 23.6346C64.0267 22.6545 65.0093 21.6721 65.9988 20.6966C66.2032 20.4955 66.3845 20.2488 66.7289 20.2236Z" fill="#5B5E71"/>
<path d="M65.6956 73.6452C65.6727 74.0427 65.4293 74.2278 65.225 74.4311C61.9626 77.6822 58.6933 80.9218 55.44 84.182C54.9648 84.6595 54.625 84.7349 54.0809 84.2254C51.8906 82.1761 51.8722 82.1943 53.9844 80.0947C56.6775 77.4149 59.3728 74.7327 62.0659 72.0528C62.7852 71.337 63.5176 71.3491 64.263 72.0894C64.6258 72.4503 64.9931 72.8067 65.3467 73.1768C65.4913 73.3299 65.6015 73.5173 65.6933 73.6452H65.6956Z" fill="#5B5E71"/>
<path d="M91.2905 50.013C90.7694 49.8233 90.4548 49.3527 90.0783 48.9735C88.3633 47.2486 88.384 47.6963 90.0393 46.0263C91.8117 44.2397 93.6185 42.4896 95.3772 40.6916C95.9213 40.1342 96.2932 40.0611 96.897 40.6459C98.9679 42.6564 98.9886 42.6359 96.92 44.6943C95.3175 46.289 93.7173 47.886 92.1102 49.4738C91.8852 49.6977 91.6969 49.997 91.2905 50.0107V50.013Z" fill="#5B5E71"/>
<path d="M45.4606 97.4604C45.0542 97.321 44.82 96.9783 44.5399 96.6996C43.3522 95.5268 43.3384 94.3632 44.4986 93.2086C45.5845 92.128 46.6866 91.0611 47.7518 89.9599C48.211 89.4847 48.5439 89.5121 49.0306 89.9485C51.2507 91.9452 51.2622 91.9315 49.2005 93.9831C48.1926 94.9861 47.1848 95.9936 46.1723 96.9943C45.9702 97.1953 45.7889 97.4421 45.4629 97.4626L45.4606 97.4604Z" fill="#5B5E71"/>
<path d="M73.5254 96.3639C72.6117 96.3639 71.6979 96.3433 70.7842 96.3684C70.0656 96.389 69.7051 96.1331 69.712 95.3632C69.7442 91.9088 69.3814 92.5691 72.4119 92.5074C73.654 92.4823 74.8984 92.5371 76.1381 92.4937C76.9578 92.4663 77.3366 92.7176 77.3182 93.5994C77.2562 96.8254 77.6809 96.3136 74.6206 96.3639C74.2555 96.3707 73.8905 96.3639 73.5254 96.3639Z" fill="#5B5E71"/>
</g>
<defs>
<clipPath id="clip0_2295_2445">
<rect width="110.353" height="112" fill="white"/>
</clipPath>
</defs>
</svg>
