<svg width="112" height="112" viewBox="0 0 112 112" fill="none" xmlns="http://www.w3.org/2000/svg">
<path d="M14 70V77H30.051L7 100.051L11.949 105L35 81.949V98H42V70H14ZM105 14H80.5V21H93.051L66.5 47.551L51.4745 32.5255C50.8182 31.8694 49.9281 31.5007 49 31.5007C48.0719 31.5007 47.1818 31.8694 46.5255 32.5255L28 51.051L32.949 56L49 39.949L64.0255 54.9745C64.6818 55.6306 65.5719 55.9993 66.5 55.9993C67.4281 55.9993 68.3182 55.6306 68.9745 54.9745L98 25.949V38.5H105V14ZM56 98H105V105H56V98ZM7 7H14V56H7V7Z" fill="#5B5E71"/>
</svg>
