<svg width="71" height="71" viewBox="0 0 71 71" fill="none" xmlns="http://www.w3.org/2000/svg">
<g clip-path="url(#clip0_1859_2205)">
<path d="M22.1295 0H29.6653V3.15111H25.2806V6.30221H29.6653V9.45332H22.1295V0ZM31.1707 0H38.7094V2.74187H34.3247V3.28849H38.7094V9.5907H31.1707V6.71437H35.5553V6.16482H31.1707V0ZM40.2177 0H47.7505V2.74187H43.3659V3.28849H47.7505V9.5907H40.2177V6.71437H44.6023V6.16482H40.2177V0Z" fill="#1E1E1E"/>
<path fill-rule="evenodd" clip-rule="evenodd" d="M35.2513 70.1545L14.9533 64.5188L8.96973 13.7883H61.5856L55.6049 64.5129L35.2513 70.1545ZM20.7995 36.7522L21.3578 42.9726H42.9216L42.1996 51.0404L35.2601 52.917H35.2543L28.3265 51.0462L27.8822 46.0857H21.6355L22.5066 55.8547L35.2513 59.3917L48.0165 55.8547L49.5716 38.4213L49.7236 36.7522L50.8461 24.1566H19.68L20.2471 30.3799H44.0294L43.4623 36.7522H20.7995Z" fill="#1E1E1E"/>
</g>
<defs>
<clipPath id="clip0_1859_2205">
<rect width="70.1545" height="70.1545" fill="white" transform="translate(0.200409)"/>
</clipPath>
</defs>
</svg>
