<svg width="112" height="112" viewBox="0 0 112 112" fill="none" xmlns="http://www.w3.org/2000/svg">
<path d="M33.1331 52.9666C34.222 50.7889 35.3497 48.6889 36.5164 46.6666C37.6831 44.6444 38.9664 42.6222 40.3664 40.6L33.8331 39.3166L24.0331 49.1166L33.1331 52.9666ZM89.3664 20.8833C83.922 21.0389 78.1088 22.6333 71.9271 25.6666C65.7422 28.7 60.122 32.7444 55.0664 37.8C51.7997 41.0666 48.8831 44.5666 46.3164 48.3C43.7497 52.0333 41.8442 55.5333 40.5997 58.8L53.8997 71.9833C57.1664 70.7389 60.6664 68.8333 64.3997 66.2666C68.1331 63.7 71.6331 60.7833 74.8997 57.5166C79.9553 52.4611 83.9997 46.8611 87.0331 40.7166C90.0664 34.5722 91.6609 28.7777 91.8164 23.3333C91.8164 23.0222 91.7589 22.7111 91.6437 22.4C91.5255 22.0889 91.3497 21.8166 91.1164 21.5833C90.8831 21.35 90.6109 21.1742 90.2997 21.056C89.9886 20.9409 89.6775 20.8833 89.3664 20.8833ZM63.6997 48.8833C61.9108 47.0944 61.0164 44.8964 61.0164 42.2893C61.0164 39.6853 61.9108 37.4889 63.6997 35.7C65.4886 33.9111 67.7053 33.0166 70.3497 33.0166C72.9942 33.0166 75.2108 33.9111 76.9997 35.7C78.7886 37.4889 79.6831 39.6853 79.6831 42.2893C79.6831 44.8964 78.7886 47.0944 76.9997 48.8833C75.2108 50.6722 72.9942 51.5666 70.3497 51.5666C67.7053 51.5666 65.4886 50.6722 63.6997 48.8833ZM59.7331 79.45L63.5831 88.6666L73.3831 78.8666L72.0997 72.3333C70.0775 73.7333 68.0553 74.9964 66.0331 76.1226C64.0108 77.252 61.9109 78.3611 59.7331 79.45ZM100.683 17.15C101.305 25.7055 99.9053 34.0464 96.4831 42.1726C93.0608 50.302 87.6553 58.0611 80.2664 65.45L82.5997 77C82.9109 78.5555 82.8331 80.0722 82.3664 81.55C81.8997 83.0277 81.122 84.3111 80.0331 85.4L65.3331 100.1C64.1664 101.267 62.7664 101.713 61.1331 101.439C59.4997 101.169 58.372 100.256 57.7497 98.7L50.6331 82.0166L30.6831 62.0666L13.9997 54.95C12.4442 54.3277 11.5109 53.2 11.1997 51.5666C10.8886 49.9333 11.3164 48.5333 12.4831 47.3666L27.1831 32.6666C28.272 31.5777 29.5755 30.8 31.0937 30.3333C32.6089 29.8666 34.1442 29.7889 35.6997 30.1L47.2497 32.4333C54.6386 25.0444 62.3977 19.6389 70.5271 16.2166C78.6533 12.7944 86.9942 11.3944 95.5497 12.0166C96.172 12.0944 96.7942 12.2686 97.4164 12.5393C98.0386 12.8131 98.5831 13.1833 99.0497 13.65C99.5164 14.1166 99.8851 14.6611 100.156 15.2833C100.43 15.9055 100.605 16.5277 100.683 17.15ZM18.3164 74.55C21.0386 71.8277 24.3629 70.4464 28.2891 70.406C32.2184 70.3686 35.5442 71.7111 38.2664 74.4333C40.9886 77.1555 42.3295 80.4797 42.2891 84.406C42.2517 88.3353 40.872 91.6611 38.1497 94.3833C36.2053 96.3277 32.9589 98 28.4104 99.4C23.8589 100.8 17.5775 102.044 9.56641 103.133C10.6553 95.1222 11.8997 88.8409 13.2997 84.2893C14.6997 79.7409 16.372 76.4944 18.3164 74.55ZM24.9664 81.0833C24.1886 81.8611 23.4108 83.2813 22.6331 85.344C21.8553 87.4035 21.3109 89.4833 20.9997 91.5833C23.0997 91.2722 25.1811 90.748 27.2437 90.0106C29.3033 89.2702 30.722 88.5111 31.4997 87.7333C32.4331 86.8 32.9386 85.6722 33.0164 84.35C33.0942 83.0277 32.6664 81.9 31.7331 80.9666C30.7997 80.0333 29.672 79.5853 28.3497 79.6226C27.0275 79.6631 25.8997 80.15 24.9664 81.0833Z" fill="#5B5E71"/>
</svg>
