<svg width="112" height="112" viewBox="0 0 112 112" fill="none" xmlns="http://www.w3.org/2000/svg">
<path d="M26.0163 9.67887C26.6105 9.96454 27.1119 10.4122 27.4627 10.9703C27.8136 11.5284 27.9997 12.1743 27.9997 12.8335C27.9997 16.7069 29.4557 18.9375 31.2803 21.6535L31.4157 21.8495C32.965 24.1549 34.9997 27.1742 34.9997 31.5002C34.9997 35.9149 32.7737 39.8069 29.381 42.1169C30.2723 42.8635 31.061 43.7829 31.7423 44.8842C33.9637 48.4775 34.9997 53.9702 34.9997 61.8569C34.9997 69.8462 33.9263 79.4409 32.1763 87.1035C31.3083 90.9115 30.2303 94.4255 28.947 97.0622C28.3411 98.3741 27.5386 99.5858 26.567 100.656C25.6057 101.64 24.1263 102.69 22.1663 102.69C20.2063 102.69 18.727 101.64 17.7703 100.656C16.796 99.588 15.9931 98.3758 15.3903 97.0622C14.1023 94.4209 13.0243 90.9115 12.1563 87.0989C10.3361 78.805 9.38982 70.3433 9.33301 61.8522C9.33301 53.9655 10.369 48.4775 12.5903 44.8842C13.2241 43.8412 14.0213 42.9068 14.9517 42.1169C13.2193 40.9407 11.8014 39.3581 10.8219 37.5073C9.84246 35.6566 9.33126 33.5941 9.33301 31.5002C9.33301 29.7829 9.33301 26.8289 11.1203 23.0162C12.8703 19.2829 16.1977 14.9942 22.311 10.0989C22.8263 9.68673 23.4475 9.42862 24.1031 9.3543C24.7587 9.27999 25.4219 9.3925 26.0163 9.67887ZM16.333 31.4955V31.5002C16.333 33.0473 16.9476 34.531 18.0416 35.625C19.1355 36.719 20.6192 37.3335 22.1663 37.3335C23.7134 37.3335 25.1972 36.719 26.2911 35.625C27.3851 34.531 27.9997 33.0473 27.9997 31.5002C27.9997 29.4515 27.1363 28.0329 25.4703 25.5549L25.4143 25.4709C24.3457 23.8842 23.081 22.0035 22.185 19.5909C19.651 22.1669 18.251 24.3042 17.4623 25.9842C16.333 28.3922 16.333 30.1049 16.333 31.4909V31.4955ZM18.545 48.5615C17.3877 50.4375 16.333 54.2829 16.333 61.8569C16.333 69.3282 17.3503 78.4002 18.979 85.5449C19.8003 89.1382 20.7337 92.0549 21.681 93.9962C21.8537 94.3555 22.017 94.6542 22.1663 94.9062C22.3157 94.6542 22.479 94.3555 22.6517 93.9962C23.599 92.0549 24.5323 89.1335 25.3537 85.5449C26.987 78.4049 27.9997 69.3329 27.9997 61.8569C27.9997 54.2829 26.945 50.4375 25.7877 48.5615C25.4386 47.93 24.9111 47.4154 24.271 47.0822C23.6083 46.7936 22.8886 46.6595 22.1663 46.6902C21.233 46.6902 20.5657 46.8349 20.0617 47.0822C19.4216 47.4154 18.894 47.93 18.545 48.5615ZM46.6663 69.6175C44.194 69.2028 41.7891 68.4556 39.517 67.3962C39.6536 64.7494 39.6925 62.0985 39.6337 59.4489C41.7383 60.8629 44.1137 61.9035 46.6663 62.4822V49.0002C46.6663 47.1437 47.4038 45.3632 48.7166 44.0504C50.0294 42.7377 51.8098 42.0002 53.6663 42.0002H72.333C72.3328 38.0834 71.2372 34.2448 69.17 30.918C67.1028 27.5911 64.1464 24.9087 60.6349 23.1738C57.1233 21.4389 53.1965 20.7206 49.2982 21.1002C45.3998 21.4797 41.6853 22.9419 38.5743 25.3215C37.641 22.7409 36.311 20.7669 35.387 19.3949L35.2003 19.1149C39.3931 16.1592 44.3173 14.4122 49.4354 14.0645C54.5535 13.7169 59.6687 14.7819 64.2227 17.1434C68.7766 19.5049 72.5943 23.0721 75.259 27.4556C77.9238 31.8391 79.333 36.8703 79.333 42.0002H95.6663C97.5229 42.0002 99.3033 42.7377 100.616 44.0504C101.929 45.3632 102.666 47.1437 102.666 49.0002V91.0002C102.666 92.8567 101.929 94.6372 100.616 95.9499C99.3033 97.2627 97.5229 98.0002 95.6663 98.0002H53.6663C51.8098 98.0002 50.0294 97.2627 48.7166 95.9499C47.4038 94.6372 46.6663 92.8567 46.6663 91.0002V69.6129V69.6175ZM53.6663 69.9115V91.0049H95.6663V49.0049H78.4463C76.9924 54.6283 73.8268 59.6609 69.3874 63.4064C64.948 67.1518 59.4543 69.4251 53.6663 69.9115ZM71.1383 49.0049H53.6663V62.8789C57.5873 62.4393 61.3053 60.9049 64.3951 58.4514C67.4849 55.9979 69.8218 52.7242 71.1383 49.0049Z" fill="#5B5E71"/>
</svg>
