<svg width="112" height="112" viewBox="0 0 112 112" fill="none" xmlns="http://www.w3.org/2000/svg">
<path d="M23.3333 9.33325C18.186 9.33325 14 13.5193 14 18.6666V74.6666C14 79.8139 18.186 83.9999 23.3333 83.9999H40.068L56 99.9319L71.932 83.9999H88.6667C93.814 83.9999 98 79.8139 98 74.6666V18.6666C98 13.5193 93.814 9.33325 88.6667 9.33325H23.3333ZM88.6667 74.6666H68.068L56 86.7346L43.932 74.6666H23.3333V18.6666H88.6667V74.6666Z" fill="#5B5E71"/>
<path d="M32.6666 32.6667H79.3333V42.0001H32.6666V32.6667ZM32.6666 51.3334H65.3333V60.6667H32.6666V51.3334Z" fill="#5B5E71"/>
</svg>
