<svg width="107" height="112" viewBox="0 0 107 112" fill="none" xmlns="http://www.w3.org/2000/svg">
<path d="M60.3646 27.0819V16.754C67.4028 18.4371 73.3318 21.6885 78.1514 26.5081C82.9711 31.3278 86.2225 37.4863 87.9055 44.9836H77.5777C74.9766 35.9562 69.2389 29.989 60.3646 27.0819ZM44.9875 27.0819V16.754C29.534 19.8142 20.1241 29.224 16.758 44.9836H27.0859C29.381 36.2622 35.3482 30.295 44.9875 27.0819ZM27.0859 59.2131H16.758C18.2881 67.9344 21.3099 74.5136 25.8236 78.9508C30.3372 83.3879 36.7252 86.448 44.9875 88.1311V77.8032C41.0094 76.5792 37.3372 74.2076 33.9711 70.6885C30.605 67.1693 28.3099 63.3442 27.0859 59.2131ZM98.9219 52.5573C98.9219 65.5628 94.37 76.6174 85.2662 85.7213C76.1624 94.8251 65.1842 99.377 52.3318 99.377C39.3263 99.377 28.2717 94.8251 19.1678 85.7213C10.064 76.6174 5.5121 65.5628 5.5121 52.5573C5.5121 39.5519 10.064 28.459 19.1678 19.2786C28.2717 10.0983 39.3263 5.50815 52.3318 5.50815C65.1842 5.50815 76.1624 10.0983 85.2662 19.2786C94.37 28.459 98.9219 39.5519 98.9219 52.5573ZM94.3318 52.5573C94.3318 40.9289 90.2389 30.9836 82.0531 22.7213C73.8673 14.459 63.9602 10.3278 52.3318 10.3278C40.7034 10.3278 30.758 14.4207 22.4957 22.6065C14.2334 30.7923 10.1023 40.7759 10.1023 52.5573C10.1023 64.1857 14.2334 74.1311 22.4957 82.3934C30.758 90.6557 40.7034 94.7868 52.3318 94.7868C63.9602 94.7868 73.8673 90.6557 82.0531 82.3934C90.2389 74.1311 94.3318 64.1857 94.3318 52.5573ZM52.3318 73.9016C46.3646 73.9016 41.3154 71.7978 37.1842 67.5901C33.0531 63.3825 30.9875 58.3715 30.9875 52.5573C30.9875 46.5901 33.0531 41.5409 37.1842 37.4098C41.3154 33.2786 46.3646 31.1366 52.3318 30.9836C58.146 31.1366 63.1187 33.2786 67.2498 37.4098C71.381 41.5409 73.523 46.5901 73.676 52.5573C73.523 58.3715 71.381 63.3825 67.2498 67.5901C63.1187 71.7978 58.146 73.9016 52.3318 73.9016ZM68.8564 52.5573C68.8564 47.9672 67.2498 44.0273 64.0367 40.7377C60.8236 37.448 56.9219 35.8032 52.3318 35.8032C47.7416 35.8032 43.8017 37.448 40.5121 40.7377C37.2225 44.0273 35.5777 47.9672 35.5777 52.5573C35.5777 57.1475 37.2225 61.0491 40.5121 64.2622C43.8017 67.4754 47.7416 69.0819 52.3318 69.0819C56.9219 69.0819 60.8236 67.4754 64.0367 64.2622C67.2498 61.0491 68.8564 57.1475 68.8564 52.5573ZM60.3646 77.8032V88.1311C75.6651 84.612 84.8454 74.9726 87.9055 59.2131H77.5777C76.0476 63.4972 73.7908 67.3606 70.8072 70.8032C67.8236 74.2459 64.3427 76.5792 60.3646 77.8032ZM100.528 79.8688C98.9984 79.8688 97.7361 80.3661 96.7416 81.3606C95.7471 82.3551 95.2498 83.6174 95.2498 85.1475C95.2498 86.5245 95.7471 87.7103 96.7416 88.7049C97.7361 89.6994 98.9984 90.1967 100.528 90.1967C101.906 90.1967 103.091 89.6994 104.086 88.7049C105.08 87.7103 105.578 86.5245 105.578 85.1475C105.578 83.6174 105.08 82.3551 104.086 81.3606C103.091 80.3661 101.906 79.8688 100.528 79.8688ZM87.9055 93.1803C86.0695 93.1803 84.5012 93.8306 83.2006 95.1311C81.9001 96.4316 81.2498 97.9999 81.2498 99.836C81.2498 101.672 81.9001 103.24 83.2006 104.541C84.5012 105.841 86.0695 106.492 87.9055 106.492C89.7416 106.492 91.3099 105.841 92.6105 104.541C93.911 103.24 94.5613 101.672 94.5613 99.836C94.5613 97.9999 93.911 96.4316 92.6105 95.1311C91.3099 93.8306 89.7416 93.1803 87.9055 93.1803ZM98.9219 62.8852C96.7799 62.8852 95.7088 63.9562 95.7088 66.0983C95.7088 68.0874 96.7799 69.0819 98.9219 69.0819C100.911 69.0819 101.906 68.0874 101.906 66.0983C101.906 63.9562 100.911 62.8852 98.9219 62.8852ZM7.11866 98.2295C4.97658 98.2295 3.90555 99.3005 3.90555 101.443C3.90555 103.738 4.97658 104.885 7.11866 104.885C8.03669 104.885 8.83997 104.541 9.5285 103.852C10.217 103.164 10.5613 102.361 10.5613 101.443C10.5613 99.3005 9.41374 98.2295 7.11866 98.2295ZM6.20063 80.5573C4.05855 80.5573 2.98751 81.6284 2.98751 83.7704C2.98751 85.9125 4.05855 86.9836 6.20063 86.9836C6.96565 86.9836 7.69243 86.6775 8.38096 86.0655C9.06948 85.4535 9.41374 84.6885 9.41374 83.7704C9.41374 82.8524 9.06948 82.0874 8.38096 81.4754C7.69243 80.8633 6.96565 80.5573 6.20063 80.5573ZM16.5285 88.5901C15.3045 88.5901 14.2717 89.0491 13.4301 89.9672C12.5886 90.8852 12.1678 91.8797 12.1678 92.9508C12.1678 94.0218 12.5886 95.0163 13.4301 95.9344C14.2717 96.8524 15.3045 97.3114 16.5285 97.3114C17.7525 97.3114 18.7853 96.8524 19.6269 95.9344C20.4684 95.0163 20.8892 94.0218 20.8892 92.9508C20.8892 91.8797 20.4684 90.8852 19.6269 89.9672C18.7853 89.0491 17.7525 88.5901 16.5285 88.5901ZM100.528 23.8688C98.9984 23.8688 98.2334 24.6338 98.2334 26.1639C98.2334 27.5409 98.9984 28.2295 100.528 28.2295C102.059 28.2295 102.824 27.5409 102.824 26.1639C102.824 24.6338 102.059 23.8688 100.528 23.8688ZM3.67604 14.459C1.22795 14.459 0.00390625 15.7595 0.00390625 18.3606C0.00390625 20.8087 1.22795 22.0327 3.67604 22.0327C6.12412 22.0327 7.34817 20.8087 7.34817 18.3606C7.34817 15.7595 6.12412 14.459 3.67604 14.459ZM12.1678 0.688477C10.9438 0.688477 9.87276 1.14749 8.95473 2.06553C8.03669 2.98356 7.57768 4.1311 7.57768 5.50815C7.57768 6.73219 8.03669 7.80323 8.95473 8.72126C9.87276 9.6393 10.9438 10.0983 12.1678 10.0983C13.5449 10.0983 14.6924 9.6393 15.6105 8.72126C16.5285 7.80323 16.9875 6.73219 16.9875 5.50815C16.9875 4.1311 16.5285 2.98356 15.6105 2.06553C14.6924 1.14749 13.5449 0.688477 12.1678 0.688477ZM4.82358 29.836C3.29352 29.836 2.5285 30.6775 2.5285 32.3606C2.5285 33.8907 3.29352 34.6557 4.82358 34.6557C6.50664 34.6557 7.34817 33.8907 7.34817 32.3606C7.34817 30.6775 6.50664 29.836 4.82358 29.836Z" fill="#5B5E71"/>
</svg>
