<svg width="112" height="112" viewBox="0 0 112 112" fill="none" xmlns="http://www.w3.org/2000/svg">
<path d="M32.0461 14.6582L31.0626 16.4082L9.1876 54.5792L8.2041 56.3292L9.1876 58.0792L31.0626 96.2502L32.0461 98.0002H79.9541L80.9376 96.2502L102.813 58.0792L103.796 56.3292L102.813 54.5792L80.9376 16.4082L79.9541 14.6582H32.0461ZM40.5791 21.6582H62.0166L46.0461 27.3457L40.5791 21.6582ZM72.5166 21.6582L56.4376 38.0627L48.7796 30.0792L72.5166 21.6582ZM35.9801 21.9802L42.5426 28.6547L35.8716 31.0592V22.2042L35.9801 21.9802ZM76.3386 22.6382L85.5331 38.5002L71.4281 53.4837L58.9576 40.5792L76.3386 22.6382ZM32.3751 28.3292V32.2667L29.5296 33.2502L32.3751 28.3292ZM45.1711 31.3917L54.0296 40.5792L41.0166 53.8127L35.8751 48.3422V34.7832L45.1711 31.3917ZM32.3751 35.9802V44.6217L26.5791 38.3882L26.7961 37.9507L32.3751 35.9802ZM24.7171 41.5592L32.3751 49.7632V62.7797L24.6086 70.7597L16.2961 56.3257L24.7171 41.5592ZM87.0626 42.0002L82.2501 64.6417L73.8291 56.0002L87.0626 42.0002ZM56.4376 43.0957L69.0166 56.0002L56.0001 69.7832L43.4211 56.4377L56.4376 43.0957ZM89.7961 46.0462L95.7041 56.3292L87.7171 70.2172L85.3126 67.7042L89.7961 46.0462ZM35.8751 53.4837L38.6086 56.3292L35.8751 59.1712V53.4837ZM71.4211 58.5167L81.4836 68.7962L80.2831 74.3752H60.2631L58.4081 72.4047L71.4211 58.5167ZM41.0166 58.9542L53.5956 72.4047L51.6251 74.3752H35.8751V64.0922L41.0166 58.9542ZM32.3751 67.7042V74.3752H26.6876L26.3586 73.9377L32.3751 67.7042ZM84.4376 71.8587L85.8586 73.3917L85.3126 74.3752H83.8916L84.4376 71.8587ZM28.6546 77.8752H32.3751V84.3292L28.6546 77.8752ZM35.8751 77.8752H48.3456L36.0956 90.8917L35.8751 90.4542V77.8752ZM53.1581 77.8752H58.7336L70.9836 91.0002H40.7961L53.1581 77.8752ZM63.5461 77.8752H79.5166L77.3291 88.3752L75.7961 91.0002L63.5461 77.8752ZM83.1251 77.8752H83.3456L83.0166 78.4212L83.1251 77.8752Z" fill="#5B5E71"/>
</svg>
