<svg width="57" height="57" viewBox="0 0 57 57" fill="none" xmlns="http://www.w3.org/2000/svg">
<path d="M55.0253 54.8531V56.7239H56.896V54.8531H55.0253ZM55.0253 2.47113H56.896V0.600342H55.0253V2.47113ZM32.5758 2.47113V0.600342H31.8013L31.2513 1.14661L32.5758 2.47113ZM2.64325 32.4037L1.31873 31.0792L0.772461 31.6292V32.4037H2.64325ZM2.64325 54.8531H0.772461V56.7239H2.64325V54.8531ZM17.6095 39.8868L16.7714 41.5593L16.8425 41.5967L16.9173 41.6229L17.6095 39.8868ZM17.6095 17.4374V15.5666C17.1134 15.5666 16.6375 15.7637 16.2867 16.1146C15.9359 16.4654 15.7387 16.9413 15.7387 17.4374H17.6095ZM40.059 17.4374L41.7951 16.7415L41.7651 16.6704L41.7314 16.5993L40.059 17.4374ZM56.896 54.8531V2.47113H53.1545V54.8531H56.896ZM55.0253 0.600342H32.5758V4.34191H55.0253V0.600342ZM31.2513 1.14661L1.31873 31.0792L3.96776 33.7282L33.9003 3.79564L31.2513 1.14661ZM0.772461 32.4037V54.8531H4.51403V32.4037H0.772461ZM2.64325 56.7239H55.0253V52.9824H2.64325V56.7239ZM53.7007 1.14661L1.31873 53.5286L3.96776 56.1777L56.3498 3.79564L53.7007 1.14661ZM19.4803 39.8868V17.4374H15.7387V39.8868H19.4803ZM17.6095 19.3082H40.059V15.5666H17.6095V19.3082ZM16.9136 41.6229L54.3293 56.5892L55.7212 53.1171L18.3055 38.1508L16.9136 41.6229ZM38.3229 18.1333L53.2892 55.5491L56.7613 54.1572L41.7951 16.7415L38.3229 18.1333ZM30.9033 3.30924L38.3865 18.2755L41.7314 16.5993L34.2483 1.63302L30.9033 3.30924ZM1.80513 34.0762L16.7714 41.5593L18.4476 38.2144L3.48136 30.7312L1.80513 34.0762Z" fill="#1E1E1E"/>
</svg>
