<svg width="112" height="112" viewBox="0 0 112 112" fill="none" xmlns="http://www.w3.org/2000/svg">
<path fill-rule="evenodd" clip-rule="evenodd" d="M14 14.0002C14 11.4228 16.0893 9.3335 18.6667 9.3335H28C30.5773 9.3335 32.6667 11.4228 32.6667 14.0002V18.9883L93.6658 23.3454C94.9574 23.4376 96.1525 24.0623 96.9655 25.0702C97.7785 26.078 98.1362 27.3783 97.9531 28.6601L93.2864 61.3268C92.958 63.6258 90.989 65.3335 88.6667 65.3335H32.6667V74.6668H79.3333C87.0653 74.6668 93.3333 80.9348 93.3333 88.6668C93.3333 96.3988 87.0653 102.667 79.3333 102.667C71.6013 102.667 65.3333 96.3988 65.3333 88.6668C65.3333 87.0305 65.6141 85.4598 66.13 84.0002H41.2034C41.7193 85.4598 42 87.0305 42 88.6668C42 96.3988 35.732 102.667 28 102.667C20.268 102.667 14 96.3988 14 88.6668C14 82.5711 17.8958 77.3854 23.3333 75.4635V60.6698C23.3333 60.6688 23.3333 60.6678 23.3333 60.6668C23.3333 60.6658 23.3333 60.6648 23.3333 60.6638V23.3818C23.3331 23.3529 23.3331 23.3239 23.3333 23.2949V18.6668H18.6667C16.0893 18.6668 14 16.5775 14 14.0002ZM32.6667 28.3454V56.0002H84.6193L88.0053 32.2981L32.6667 28.3454ZM28 84.0002C25.4227 84.0002 23.3333 86.0895 23.3333 88.6668C23.3333 91.2442 25.4227 93.3335 28 93.3335C30.5773 93.3335 32.6667 91.2442 32.6667 88.6668C32.6667 86.0895 30.5773 84.0002 28 84.0002ZM79.3333 84.0002C76.756 84.0002 74.6667 86.0895 74.6667 88.6668C74.6667 91.2442 76.756 93.3335 79.3333 93.3335C81.9107 93.3335 84 91.2442 84 88.6668C84 86.0895 81.9107 84.0002 79.3333 84.0002Z" fill="#5B5E71"/>
</svg>
