<svg width="52" height="54" viewBox="0 0 52 54" fill="none" xmlns="http://www.w3.org/2000/svg">
<path fill-rule="evenodd" clip-rule="evenodd" d="M26 7.29534L25.0442 7.00374C23.9083 6.6564 22.7034 6.59979 21.5399 6.83908C20.3764 7.07838 19.2917 7.60594 18.385 8.37337C17.4784 9.14081 16.7789 10.1236 16.3508 11.2315C15.9226 12.3395 15.7795 13.5373 15.9344 14.7149L16.4474 18.6083C16.7042 20.5563 17.6602 22.3445 19.1374 23.64C20.6147 24.9354 22.5124 25.6498 24.4772 25.6499H27.5201C29.4853 25.6497 31.3834 24.9349 32.8607 23.639C34.338 22.343 35.2938 20.5541 35.5499 18.6056L36.0629 14.7122C36.2174 13.5348 36.0739 12.3374 35.6455 11.2298C35.2171 10.1222 34.5176 9.1398 33.611 8.37269C32.7045 7.60559 31.6199 7.07829 30.4567 6.83911C29.2934 6.59994 28.0888 6.65654 26.9531 7.00374L25.9973 7.29534H26ZM22.7465 12.1067C22.9867 12.0761 23.2307 12.0973 23.462 12.1688L25.9946 12.9437L28.5299 12.1661C28.8015 12.0832 29.0895 12.0698 29.3675 12.1271C29.6456 12.1844 29.9048 12.3106 30.1214 12.4942C30.338 12.6777 30.505 12.9127 30.6072 13.1776C30.7094 13.4425 30.7434 13.7288 30.7061 14.0102L30.1931 17.9009C30.108 18.5504 29.7896 19.1468 29.2973 19.579C28.8051 20.0111 28.1725 20.2496 27.5174 20.2499H24.4772C23.8222 20.2496 23.1896 20.0111 22.6973 19.579C22.2051 19.1468 21.8867 18.5504 21.8015 17.9009L21.2885 14.0102C21.2295 13.5645 21.3499 13.1135 21.6234 12.7566C21.8968 12.3996 22.3008 12.1659 22.7465 12.1067Z" fill="url(#paint0_linear_174_189)"/>
<path fill-rule="evenodd" clip-rule="evenodd" d="M31.3838 21.6001H19.9709C18.5132 21.5994 17.0823 21.9921 15.8291 22.7368C11.2445 25.4638 7.85601 28.5337 5.66361 31.9438C4.96162 33.0346 4.25422 34.0309 3.59002 34.9597C0.701015 39.007 -1.30508 41.8123 2.25352 45.8704C6.62752 50.8681 15.902 54.0001 25.001 54.0001C34.1 54.0001 43.1612 52.1506 49.0445 45.8731C53.3996 41.221 51.5906 39.1501 48.7745 35.9236C47.7863 34.7923 46.6739 33.5206 45.6614 31.9438C43.3853 28.4014 39.9806 25.318 35.4473 22.6909C34.2125 21.9757 32.8107 21.5994 31.3838 21.6001ZM41.1146 34.8625C41.9226 36.1111 42.8224 37.2979 43.8065 38.413C44.5679 39.3148 45.5507 40.4758 46.0286 41.086C45.7407 41.4684 45.4306 41.8335 45.0998 42.1795C41.0039 46.5535 34.2107 48.6001 25.001 48.6001C17.1494 48.6001 9.45712 45.892 6.31702 42.3091C5.79051 41.7124 5.75001 41.6989 5.75001 41.6881L5.75271 41.6854C5.83371 41.3668 6.14691 40.7593 6.81651 39.763L7.61031 38.6344C8.33931 37.6003 9.35991 36.1558 9.80272 35.4862C9.94041 35.2783 10.0781 35.0704 10.2077 34.8652C11.9141 32.2138 14.6843 29.7028 18.5912 27.3781C19.0096 27.1299 19.4872 26.9993 19.9736 27.0001H31.3865C31.8625 27 32.3301 27.1257 32.7419 27.3646C36.5678 29.5813 39.3353 32.0896 41.1173 34.8625H41.1146Z" fill="url(#paint1_linear_174_189)"/>
<path d="M14.6708 3.4533C14.4707 2.9549 14.4767 2.39741 14.6876 1.90347C14.8985 1.40953 15.297 1.01959 15.7954 0.819449C16.2938 0.619304 16.8513 0.625342 17.3452 0.836236C17.8391 1.04713 18.2291 1.4456 18.4292 1.944L21.1292 8.694C21.3161 9.18973 21.3012 9.73894 21.0879 10.2238C20.8745 10.7087 20.4796 11.0907 19.9878 11.2878C19.4961 11.485 18.9467 11.4815 18.4575 11.2783C17.9682 11.075 17.5781 10.6881 17.3708 10.2006L14.6708 3.4506V3.4533ZM33.5708 1.9467C33.7781 1.45917 34.1682 1.07228 34.6575 0.86903C35.1467 0.665777 35.6961 0.662342 36.1878 0.85946C36.6796 1.05658 37.0745 1.43855 37.2878 1.92346C37.5012 2.40836 37.5161 2.95757 37.3292 3.4533L34.6292 10.2033C34.4219 10.6908 34.0318 11.0777 33.5426 11.281C33.0534 11.4842 32.504 11.4877 32.0122 11.2905C31.5205 11.0934 31.1256 10.7114 30.9122 10.2265C30.6988 9.74164 30.684 9.19243 30.8708 8.6967L33.5708 1.9467ZM24.65 33.75C24.65 33.392 24.7923 33.0486 25.0454 32.7954C25.2986 32.5422 25.642 32.4 26 32.4C26.3581 32.4 26.7014 32.5422 26.9546 32.7954C27.2078 33.0486 27.35 33.392 27.35 33.75V44.55C27.35 44.908 27.2078 45.2514 26.9546 45.5046C26.7014 45.7578 26.3581 45.9 26 45.9C25.642 45.9 25.2986 45.7578 25.0454 45.5046C24.7923 45.2514 24.65 44.908 24.65 44.55V33.75ZM18.0431 33.1479C18.1174 32.9815 18.2245 32.8319 18.3581 32.7081C18.4917 32.5842 18.649 32.4887 18.8205 32.4272C18.9919 32.3658 19.1741 32.3396 19.3559 32.3504C19.5378 32.3612 19.7156 32.4087 19.8786 32.4901C20.0416 32.5714 20.1865 32.6848 20.3045 32.8236C20.4225 32.9624 20.5111 33.1237 20.5652 33.2976C20.6192 33.4716 20.6375 33.6547 20.6189 33.8359C20.6003 34.0172 20.5452 34.1927 20.4569 34.3521L16.4069 42.4737C16.2404 42.7825 15.9602 43.0143 15.6257 43.1201C15.2913 43.2259 14.9287 43.1973 14.6149 43.0404C14.3012 42.8835 14.0608 42.6106 13.9447 42.2796C13.8286 41.9485 13.846 41.5853 13.9931 41.2668L18.0431 33.1479ZM33.9569 33.1452C33.8783 32.9853 33.7689 32.8425 33.6349 32.7251C33.5008 32.6078 33.3449 32.518 33.1761 32.4612C33.0072 32.4044 32.8288 32.3815 32.651 32.3939C32.4733 32.4064 32.2998 32.4539 32.1405 32.5337C31.9812 32.6135 31.8393 32.7241 31.723 32.859C31.6066 32.9939 31.5181 33.1506 31.4626 33.3199C31.4071 33.4891 31.3856 33.6677 31.3994 33.8454C31.4132 34.023 31.4621 34.1961 31.5431 34.3548L35.5931 42.4548C35.6717 42.6147 35.7812 42.7575 35.9152 42.8748C36.0492 42.9922 36.2051 43.0819 36.374 43.1388C36.5428 43.1956 36.7213 43.2185 36.899 43.206C37.0767 43.1936 37.2502 43.1461 37.4095 43.0663C37.5688 42.9865 37.7107 42.8759 37.8271 42.741C37.9434 42.6061 38.0319 42.4494 38.0875 42.2801C38.143 42.1109 38.1645 41.9322 38.1506 41.7546C38.1368 41.577 38.088 41.4039 38.0069 41.2452L33.9569 33.1452Z" fill="url(#paint2_linear_174_189)"/>
<defs>
<linearGradient id="paint0_linear_174_189" x1="25.9985" y1="6.6936" x2="25.9985" y2="25.6499" gradientUnits="userSpaceOnUse">
<stop stop-color="#C6CED3"/>
<stop offset="1" stop-color="#C6CED3"/>
</linearGradient>
<linearGradient id="paint1_linear_174_189" x1="26.0019" y1="21.6001" x2="26.0019" y2="54.0001" gradientUnits="userSpaceOnUse">
<stop stop-color="#C6CED3"/>
<stop offset="1" stop-color="#C6CED3"/>
</linearGradient>
<linearGradient id="paint2_linear_174_189" x1="26.0117" y1="0.673584" x2="26.0117" y2="45.9" gradientUnits="userSpaceOnUse">
<stop stop-color="#C6CED3"/>
<stop offset="1" stop-color="#C6CED3"/>
</linearGradient>
</defs>
</svg>
