<svg width="55" height="53" viewBox="0 0 55 53" fill="none" xmlns="http://www.w3.org/2000/svg">
<path d="M52.4941 23.2284C54.5159 23.2284 55.3599 20.6309 53.7177 19.4335L28.7301 1.25713C28.3732 0.995683 27.9424 0.854736 27.5 0.854736C27.0576 0.854736 26.6268 0.995683 26.2699 1.25713L1.28232 19.4335C-0.359962 20.6243 0.484081 23.2284 2.5124 23.2284H6.5625V47.6991H1.85156C1.56367 47.6991 1.32812 47.9347 1.32812 48.2226V51.6249C1.32812 51.9128 1.56367 52.1483 1.85156 52.1483H53.1484C53.4363 52.1483 53.6718 51.9128 53.6718 51.6249V48.2226C53.6718 47.9347 53.4363 47.6991 53.1484 47.6991H48.4375V23.2284H52.4941ZM27.5 5.86992L45.238 18.7727H9.762L27.5 5.86992ZM11.2734 23.2284H18.9287V47.6991H11.2734V23.2284ZM23.6396 23.2284H31.2949V47.6991H23.6396V23.2284ZM43.7265 47.6991H36.0058V23.2284H43.7265V47.6991Z" fill="url(#paint0_linear_174_168)"/>
<defs>
<linearGradient id="paint0_linear_174_168" x1="27.5001" y1="0.854736" x2="27.5001" y2="52.1483" gradientUnits="userSpaceOnUse">
<stop stop-color="#C6CED3"/>
<stop offset="1" stop-color="#C6CED3"/>
</linearGradient>
</defs>
</svg>
