<svg width="83" height="145" viewBox="0 0 83 145" fill="none" xmlns="http://www.w3.org/2000/svg">
<path d="M23.8984 77.7656L3.87891 72.6875L10.8125 0.8125H77.8047V22.7852H31.418L28.5859 55.1094C30.2786 54.0026 32.6224 52.8307 35.6172 51.5938C38.612 50.2917 41.9974 49.6406 45.7734 49.6406C51.5677 49.6406 56.7109 50.7474 61.2031 52.9609C65.7604 55.1094 69.569 58.2344 72.6289 62.3359C75.7539 66.4375 78.1302 71.4505 79.7578 77.375C81.3854 83.2995 82.1992 89.9727 82.1992 97.3945C82.1992 103.84 81.3529 109.927 79.6602 115.656C78.0326 121.32 75.4935 126.366 72.043 130.793C68.5924 135.22 64.2956 138.703 59.1523 141.242C54.0742 143.716 48.0846 144.953 41.1836 144.953C36.1055 144.953 31.1576 144.074 26.3398 142.316C21.5872 140.493 17.3229 137.824 13.5469 134.309C9.77083 130.793 6.71094 126.496 4.36719 121.418C2.08854 116.34 0.884115 110.513 0.753906 103.938H25.3633C25.7539 108.169 26.6328 111.783 28 114.777C29.3672 117.772 31.1576 120.083 33.3711 121.711C35.5846 123.273 38.1562 124.055 41.0859 124.055C43.8854 124.055 46.2943 123.371 48.3125 122.004C50.3958 120.572 52.056 118.618 53.293 116.145C54.5951 113.671 55.5391 110.741 56.125 107.355C56.776 103.97 57.1016 100.259 57.1016 96.2227C57.1016 92.3164 56.7435 88.7357 56.0273 85.4805C55.3112 82.2253 54.1719 79.4258 52.6094 77.082C51.112 74.7383 49.224 72.9479 46.9453 71.7109C44.7318 70.4089 42.0299 69.7578 38.8398 69.7578C34.6732 69.7578 31.5482 70.5716 29.4648 72.1992C27.3815 73.8268 25.526 75.6823 23.8984 77.7656Z" fill="url(#paint0_linear_1404_66)"/>
<defs>
<linearGradient id="paint0_linear_1404_66" x1="40.5" y1="0" x2="40.5" y2="137.127" gradientUnits="userSpaceOnUse">
<stop stop-color="#5B5E71" stop-opacity="0.28"/>
<stop offset="1" stop-color="#5B5E71" stop-opacity="0.01"/>
</linearGradient>
</defs>
</svg>
