<svg width="45" height="57" viewBox="0 0 45 57" fill="none" xmlns="http://www.w3.org/2000/svg">
<path d="M18.3125 31.2916H11.3333V22.9166H18.3125V15.9374H26.6875V22.9166H33.6667V31.2916H26.6875V38.2707H18.3125V31.2916ZM22.5 0.583252L0.166664 8.95825V25.9595C0.166664 40.0574 9.68625 53.2062 22.5 56.4166C35.3137 53.2062 44.8333 40.0574 44.8333 25.9595V8.95825L22.5 0.583252ZM39.25 25.9595C39.25 37.1262 32.1312 47.4553 22.5 50.6099C12.8687 47.4553 5.75 37.1541 5.75 25.9595V12.8387L22.5 6.55742L39.25 12.8387V25.9595Z" fill="url(#paint0_linear_174_187)"/>
<defs>
<linearGradient id="paint0_linear_174_187" x1="22.5" y1="0.583252" x2="22.5" y2="56.4166" gradientUnits="userSpaceOnUse">
<stop stop-color="#C6CED3"/>
<stop offset="1" stop-color="#C6CED3"/>
</linearGradient>
</defs>
</svg>
