<svg width="53" height="71" viewBox="0 0 53 71" fill="none" xmlns="http://www.w3.org/2000/svg">
<path d="M6.24966 0H9.41246V3.1248H12.3063V0H15.4691V9.45916H12.3063V6.29344H9.41246V9.45916H6.25259V0H6.24966ZM19.6258 3.13649H16.843V0H25.5743V3.13649H22.7886V9.45916H19.6258V3.13649ZM26.9598 0H30.2571L32.2857 3.32357L34.3115 0H37.6087V9.45916H34.4605V4.7705L32.2857 8.135H32.2302L30.0525 4.77343V9.45916H26.9598V0ZM39.1813 0H42.3471V6.33436H46.7902V9.46208H39.1813V0Z" fill="#1E1E1E"/>
<path fill-rule="evenodd" clip-rule="evenodd" d="M6.15029 64.5188L0.169617 13.7883H52.7855L46.8019 64.5129L26.4483 70.1545L6.15029 64.5188ZM18.2432 36.7493L17.6761 30.3769H41.4848L42.0401 24.1566H10.8799L12.5577 42.9726H34.1215L33.3995 51.0404L26.46 52.917H26.4542L19.5264 51.0462L19.0821 46.0857H12.8325L13.7036 55.8547L26.4483 59.3917L39.2135 55.8547L40.7686 38.4213L40.9206 36.7522H18.2432V36.7493Z" fill="#1E1E1E"/>
</svg>
