<svg width="102" height="84" viewBox="0 0 102 84" fill="none" xmlns="http://www.w3.org/2000/svg">
<path d="M4.59459 77.0701L33.0053 48.3701L48.3586 63.0701L67.1232 46.6667L77.5766 56.8587M97.6666 11.6667C97.6666 9.81023 96.9291 8.02975 95.6163 6.717C94.3036 5.40425 92.5231 4.66675 90.6666 4.66675H11.3333C9.47674 4.66675 7.69626 5.40425 6.3835 6.717C5.07075 8.02975 4.33325 9.81023 4.33325 11.6667V32.6667H97.6666V11.6667Z" stroke="#5B5E71" strokeWidth="8" strokeLinecap="round" strokeLinejoin="round"/>
<path d="M97.6666 28.0001V72.3334C97.6666 74.1899 96.9291 75.9704 95.6163 77.2832C94.3036 78.5959 92.5231 79.3334 90.6666 79.3334H22.9999M39.5946 18.6667H81.5946M20.9233 18.6667H25.5899M4.33325 28.0001V49.0001" stroke="#5B5E71" strokeWidth="8" strokeLinecap="round" strokeLinejoin="round"/>
</svg>
