<svg width="112" height="112" viewBox="0 0 112 112" fill="none" xmlns="http://www.w3.org/2000/svg">
<path d="M23.3333 97.9998C20.7667 97.9998 18.5687 97.0867 16.7393 95.2605C14.9131 93.4312 14 91.2332 14 88.6665V23.3332C14 20.7665 14.9131 18.5685 16.7393 16.7392C18.5687 14.9129 20.7667 13.9998 23.3333 13.9998H42.8167C43.6722 11.2776 45.3444 9.04073 47.8333 7.28917C50.3222 5.54073 53.0444 4.6665 56 4.6665C59.1111 4.6665 61.8924 5.54073 64.344 7.28917C66.7924 9.04073 68.4444 11.2776 69.3 13.9998H88.6667C91.2333 13.9998 93.4313 14.9129 95.2607 16.7392C97.0869 18.5685 98 20.7665 98 23.3332V46.6665H88.6667V23.3332H79.3333V37.3332H32.6667V23.3332H23.3333V88.6665H46.6667V97.9998H23.3333ZM100.8 107.333L88.2 94.7332C86.4889 95.7443 84.7 96.5407 82.8333 97.1225C80.9667 97.7074 79.0222 97.9998 77 97.9998C71.1667 97.9998 66.2076 95.9589 62.1227 91.8772C58.0409 87.7923 56 82.8332 56 76.9998C56 71.1665 58.0409 66.2074 62.1227 62.1225C66.2076 58.0407 71.1667 55.9998 77 55.9998C82.8333 55.9998 87.7924 58.0407 91.8773 62.1225C95.9591 66.2074 98 71.1665 98 76.9998C98 79.0221 97.7076 80.9665 97.1227 82.8332C96.5409 84.6998 95.7444 86.4887 94.7333 88.1998L107.333 100.8L100.8 107.333ZM77 88.6665C80.2667 88.6665 83.0278 87.5387 85.2833 85.2832C87.5389 83.0276 88.6667 80.2665 88.6667 76.9998C88.6667 73.7332 87.5389 70.9721 85.2833 68.7165C83.0278 66.4609 80.2667 65.3332 77 65.3332C73.7333 65.3332 70.9722 66.4609 68.7167 68.7165C66.4611 70.9721 65.3333 73.7332 65.3333 76.9998C65.3333 80.2665 66.4611 83.0276 68.7167 85.2832C70.9722 87.5387 73.7333 88.6665 77 88.6665ZM56 23.3332C57.3222 23.3332 58.4313 22.8852 59.3273 21.9892C60.2202 21.0963 60.6667 19.9887 60.6667 18.6665C60.6667 17.3443 60.2202 16.2352 59.3273 15.3392C58.4313 14.4463 57.3222 13.9998 56 13.9998C54.6778 13.9998 53.5702 14.4463 52.6773 15.3392C51.7813 16.2352 51.3333 17.3443 51.3333 18.6665C51.3333 19.9887 51.7813 21.0963 52.6773 21.9892C53.5702 22.8852 54.6778 23.3332 56 23.3332Z" fill="#5B5E71"/>
</svg>
