<svg width="30" height="30" viewBox="0 0 30 30" fill="none" xmlns="http://www.w3.org/2000/svg">
<path d="M19.5 15.0001C19.5 16.1936 19.0259 17.3382 18.182 18.1821C17.3381 19.026 16.1935 19.5001 15 19.5001C13.8065 19.5001 12.6619 19.026 11.818 18.1821C10.9741 17.3382 10.5 16.1936 10.5 15.0001C10.5 14.7436 10.527 14.4931 10.5735 14.2501H9.00001V20.2456C9.00001 20.6626 9.33751 21.0001 9.75451 21.0001H20.247C20.4469 20.9997 20.6384 20.92 20.7795 20.7786C20.9207 20.6371 21 20.4454 21 20.2456V14.2501H19.4265C19.473 14.4931 19.5 14.7436 19.5 15.0001ZM15 18.0001C15.3941 18 15.7843 17.9223 16.1483 17.7714C16.5123 17.6205 16.8431 17.3994 17.1216 17.1207C17.4002 16.842 17.6212 16.5111 17.7719 16.147C17.9226 15.7829 18.0001 15.3927 18 14.9986C17.9999 14.6045 17.9222 14.2143 17.7713 13.8503C17.6204 13.4863 17.3993 13.1555 17.1206 12.877C16.8419 12.5984 16.511 12.3774 16.1469 12.2267C15.7828 12.076 15.3926 11.9985 14.9985 11.9986C14.2027 11.9988 13.4395 12.3151 12.8769 12.878C12.3143 13.4409 11.9983 14.2043 11.9985 15.0001C11.9987 15.7959 12.315 16.5591 12.8779 17.1217C13.4408 17.6843 14.2042 18.0003 15 18.0001ZM18.6 11.8501H20.3985C20.518 11.8501 20.6326 11.8027 20.7172 11.7184C20.8019 11.634 20.8496 11.5196 20.85 11.4001V9.6016C20.85 9.48185 20.8024 9.36701 20.7178 9.28234C20.6331 9.19767 20.5183 9.1501 20.3985 9.1501H18.6C18.4803 9.1501 18.3654 9.19767 18.2807 9.28234C18.1961 9.36701 18.1485 9.48185 18.1485 9.6016V11.4001C18.15 11.6476 18.3525 11.8501 18.6 11.8501ZM15 0.600098C11.1809 0.600098 7.51819 2.11724 4.81767 4.81776C2.11714 7.51828 0.600006 11.181 0.600006 15.0001C0.600006 18.8192 2.11714 22.4819 4.81767 25.1824C7.51819 27.883 11.1809 29.4001 15 29.4001C16.891 29.4001 18.7636 29.0276 20.5106 28.304C22.2577 27.5803 23.8452 26.5196 25.1823 25.1824C26.5195 23.8453 27.5802 22.2578 28.3039 20.5107C29.0275 18.7637 29.4 16.8911 29.4 15.0001C29.4 13.1091 29.0275 11.2365 28.3039 9.48946C27.5802 7.74237 26.5195 6.15492 25.1823 4.81776C23.8452 3.4806 22.2577 2.4199 20.5106 1.69623C18.7636 0.972565 16.891 0.600098 15 0.600098ZM22.5 20.8336C22.5 21.7501 21.75 22.5001 20.8335 22.5001H9.16651C8.25001 22.5001 7.50001 21.7501 7.50001 20.8336V9.1666C7.50001 8.2501 8.25001 7.5001 9.16651 7.5001H20.8335C21.75 7.5001 22.5 8.2501 22.5 9.1666V20.8336Z" fill="#FFE100"/>
</svg>
