<svg width="54" height="60" viewBox="0 0 54 60" fill="none" xmlns="http://www.w3.org/2000/svg">
<path d="M34.3207 38.3043C32.123 38.5186 29.9091 38.1157 27.9279 37.1409C27.4788 36.7819 27.1081 36.3348 26.8386 35.827C26.5692 35.3192 26.4066 34.7616 26.3611 34.1885C26.3603 34.1028 26.3426 34.0181 26.3089 33.9393C26.2752 33.8604 26.2262 33.7891 26.1648 33.7293C26.1034 33.6695 26.0307 33.6225 25.951 33.5909C25.8713 33.5594 25.7862 33.5439 25.7005 33.5455C24.7748 33.5361 23.8491 33.5361 22.9235 33.5455C22.7621 33.529 22.6007 33.5769 22.4743 33.6787C22.3479 33.7804 22.2667 33.9279 22.2483 34.0891C22.1958 35.0942 22.3659 36.0985 22.7464 37.0303C23.1269 37.962 23.7084 38.7983 24.4494 39.4794C26.3202 40.9404 28.5922 41.796 30.962 41.9318C33.4313 42.2178 35.9303 42.1112 38.3663 41.6161C40.2365 41.2674 41.9512 40.3436 43.2712 38.9737C44.0011 38.0739 44.4903 37.0033 44.6928 35.8625C44.8953 34.7218 44.8044 33.5482 44.4288 32.4522C44.1137 31.6795 43.6258 30.9893 43.0026 30.4345C42.3794 29.8796 41.6373 29.4749 40.8334 29.2514C37.0918 27.936 33.0462 28.0383 29.2286 27.0386C28.5651 26.834 27.7554 26.606 27.4602 25.9045C27.2894 25.4108 27.2777 24.876 27.4266 24.3753C27.5755 23.8745 27.8776 23.4331 28.2903 23.1129C29.4897 22.4272 30.8556 22.0873 32.2365 22.1307C34.1078 21.9553 35.9941 22.2258 37.7407 22.92C38.2658 23.2287 38.7174 23.6479 39.0642 24.1487C39.4109 24.6494 39.6446 25.2196 39.7489 25.8197C39.7537 25.9972 39.8247 26.1664 39.9481 26.2941C40.0714 26.4218 40.2382 26.4986 40.4154 26.5095C41.3332 26.5271 42.2511 26.5125 43.1718 26.5154C43.3311 26.5341 43.4918 26.4948 43.6245 26.4046C43.7571 26.3144 43.8527 26.1793 43.8938 26.0243C43.9018 24.7849 43.5859 23.5648 42.9773 22.4851C42.3687 21.4053 41.4886 20.5032 40.4241 19.8683C37.4867 18.5122 34.2262 18.0126 31.0176 18.4272C28.6666 18.524 26.4205 19.4272 24.6569 20.9849C23.8477 21.8578 23.2998 22.9403 23.0755 24.1092C22.8512 25.2781 22.9596 26.4866 23.3883 27.5969C23.7221 28.341 24.2133 29.0038 24.8279 29.5397C25.4426 30.0756 26.1661 30.4719 26.9486 30.7013C30.6814 32.0488 34.7708 31.6162 38.5358 32.8088C39.2724 33.0573 40.126 33.4402 40.351 34.2558C40.4719 34.7455 40.4627 35.2583 40.3242 35.7434C40.1858 36.2284 39.923 36.6689 39.5618 37.021C37.9954 37.9946 36.1597 38.4441 34.3207 38.3043ZM51.3302 13.6187C44.0459 9.49903 36.7586 5.38233 29.4683 1.26855C28.7372 0.859691 27.9135 0.64502 27.0758 0.64502C26.2381 0.64502 25.4144 0.859691 24.6832 1.26855L2.90318 13.569C2.19661 13.9534 1.60579 14.5199 1.19202 15.2097C0.778245 15.8995 0.5566 16.6874 0.550079 17.4918V42.2651C0.562037 43.0844 0.795515 43.8851 1.22575 44.5825C1.65598 45.2798 2.26693 45.8477 2.99379 46.2259C5.07797 47.36 7.10368 48.6111 9.22877 49.6722C10.4544 50.3271 11.8156 50.6879 13.2046 50.7259C14.5937 50.764 15.9726 50.4783 17.2322 49.8914C18.175 49.3012 18.9421 48.4689 19.4537 47.4812C19.9653 46.4935 20.2025 45.3867 20.1407 44.2762C20.1553 36.1002 20.1407 27.9243 20.1466 19.7513C20.1611 19.6618 20.1565 19.5703 20.1332 19.4827C20.1098 19.3951 20.0682 19.3134 20.0111 19.243C19.9539 19.1726 19.8826 19.1151 19.8016 19.0743C19.7207 19.0334 19.632 19.0101 19.5415 19.0059C18.6129 18.9953 17.6843 18.9953 16.7558 19.0059C16.6701 18.9986 16.5838 19.0092 16.5026 19.0373C16.4213 19.0654 16.3468 19.1103 16.284 19.169C16.2212 19.2277 16.1714 19.2989 16.1378 19.3781C16.1043 19.4572 16.0877 19.5426 16.0893 19.6286C16.0776 27.7519 16.0922 35.8752 16.0834 44.0014C16.0851 44.5622 15.9152 45.11 15.5965 45.5714C15.2777 46.0328 14.8254 46.3856 14.3004 46.5825C13.6961 46.7612 13.0608 46.8103 12.4362 46.7267C11.8116 46.6431 11.2117 46.4286 10.6757 46.0973L4.88212 42.8234C4.754 42.763 4.64749 42.6647 4.57693 42.5419C4.50637 42.4191 4.47516 42.2776 4.4875 42.1365V17.6204C4.47424 17.4615 4.51146 17.3025 4.59387 17.1661C4.67627 17.0296 4.79965 16.9226 4.94643 16.8604C12.1821 12.7836 19.4168 8.70395 26.6505 4.62135C26.7761 4.53513 26.9249 4.48898 27.0772 4.48898C27.2296 4.48898 27.3784 4.53513 27.504 4.62135L49.211 16.8575C49.3564 16.9212 49.4784 17.0286 49.5601 17.1648C49.6418 17.301 49.6791 17.4591 49.667 17.6175V42.1365C49.6793 42.2784 49.6486 42.4207 49.5787 42.5448C49.5088 42.669 49.403 42.7691 49.2753 42.8321C42.1507 46.8621 35.0213 50.8863 27.8869 54.9046C27.5479 55.0916 27.1445 55.3986 26.7469 55.1676C24.8761 54.1095 23.0346 53.0104 21.1696 51.9435C21.0744 51.8704 20.9595 51.8275 20.8397 51.8202C20.72 51.8129 20.6007 51.8416 20.4973 51.9025C19.6773 52.3834 18.8142 52.7866 17.9192 53.1069C17.5158 53.2706 17.0188 53.3173 16.7411 53.6915C17.096 54.0763 17.5257 54.3847 18.0039 54.5976L24.54 58.3772C25.2609 58.8297 26.0897 59.0808 26.9405 59.1044C27.7913 59.128 28.6328 58.9234 29.3777 58.5117C36.6387 54.4193 43.8997 50.3231 51.1607 46.2229C51.8865 45.8442 52.4967 45.2766 52.9268 44.58C53.3569 43.8834 53.591 43.0836 53.6044 42.2651V17.4918C53.5976 16.7036 53.384 15.931 52.9849 15.2513C52.5858 14.5716 52.0152 14.0086 51.3302 13.6187Z" fill="#1E1E1E"/>
</svg>
