<svg width="112" height="112" viewBox="0 0 112 112" fill="none" xmlns="http://www.w3.org/2000/svg">
<path d="M95.6663 18.6665H16.333C12.467 18.6665 9.33301 21.8005 9.33301 25.6665V86.3332C9.33301 90.1992 12.467 93.3332 16.333 93.3332H95.6663C99.5323 93.3332 102.666 90.1992 102.666 86.3332V25.6665C102.666 21.8005 99.5323 18.6665 95.6663 18.6665Z" stroke="#5B5E71" stroke-width="9.33333" stroke-linejoin="round"/>
<path d="M9.33301 25.6665C9.33301 23.81 10.0705 22.0295 11.3833 20.7168C12.696 19.404 14.4765 18.6665 16.333 18.6665H95.6663C97.5229 18.6665 99.3033 19.404 100.616 20.7168C101.929 22.0295 102.666 23.81 102.666 25.6665V46.6665H9.33301V25.6665Z" stroke="#5B5E71" stroke-width="9.33333"/>
<path d="M18.6667 32.6663C18.6667 30.089 20.756 27.9997 23.3333 27.9997C25.9107 27.9997 28 30.089 28 32.6663C28 35.2437 25.9107 37.333 23.3333 37.333C20.756 37.333 18.6667 35.2437 18.6667 32.6663Z" fill="#5B5E71"/>
<path d="M32.6667 32.6663C32.6667 30.089 34.756 27.9997 37.3333 27.9997C39.9107 27.9997 42 30.089 42 32.6663C42 35.2437 39.9107 37.333 37.3333 37.333C34.756 37.333 32.6667 35.2437 32.6667 32.6663Z" fill="#5B5E71"/>
</svg>
