<svg width="31" height="30" viewBox="0 0 31 30" fill="none" xmlns="http://www.w3.org/2000/svg">
<path d="M26.3114 25.5618H21.8664V18.6005C21.8664 16.9406 21.8367 14.8037 19.5545 14.8037C17.2393 14.8037 16.8851 16.6123 16.8851 18.4797V25.5614H12.4402V11.2462H16.7073V13.2025H16.7671C17.1941 12.4723 17.8112 11.8716 18.5526 11.4644C19.2941 11.0572 20.1321 10.8587 20.9774 10.8901C25.4827 10.8901 26.3133 13.8535 26.3133 17.7087L26.3114 25.5618ZM7.42453 9.28953C5.99988 9.28976 4.84477 8.135 4.84453 6.71035C4.8443 5.2857 5.99895 4.13058 7.42359 4.13035C8.84824 4.13 10.0034 5.28476 10.0036 6.70941C10.0037 7.39356 9.73207 8.04973 9.2484 8.53359C8.76474 9.01746 8.10868 9.28937 7.42453 9.28953ZM9.64711 25.5619H5.19738V11.2462H9.64699V25.5618L9.64711 25.5619ZM28.5274 0.00218342H2.96379C1.75559 -0.0114103 0.764766 0.956441 0.75 2.16464V27.8349C0.764297 29.0437 1.755 30.0125 2.96367 29.9998H28.5274C29.7387 30.0148 30.7332 29.0461 30.75 27.8349V2.16265C30.7328 0.952105 29.7381 -0.0156291 28.5274 0.000191237" fill="#0A66C2"/>
</svg>
