<svg width="180" height="37" viewBox="0 0 180 37" fill="none" xmlns="http://www.w3.org/2000/svg">
<g clip-path="url(#clip0_1986_2213)">
<path fill-rule="evenodd" clip-rule="evenodd" d="M55.2893 0H5.65971C2.51818 0 -0.0239437 2.56744 0.000665458 5.68331V24.6278C0.000665458 27.7686 2.54349 30.3114 5.68432 30.3114H29.1906L39.9343 36.2939L37.4913 30.3114H55.2893C58.4301 30.3114 60.9726 27.769 60.9726 24.6281V5.68331C60.9726 2.54248 58.4298 0 55.2893 0ZM4.61277 4.38746C3.91457 4.43668 3.3911 4.68629 3.04235 5.15984C2.69326 5.60843 2.56845 6.18182 2.64333 6.82974C4.11426 16.1777 5.48499 22.4843 6.75657 25.7496C7.25473 26.946 7.82813 27.5194 8.50136 27.4698C9.54831 27.3949 10.7946 25.9489 12.2652 23.1322C13.0379 21.5369 14.2346 19.1442 15.8546 15.9534C17.201 20.6643 19.0453 24.2045 21.3635 26.5723C22.0118 27.2451 22.6847 27.5443 23.3326 27.4944C23.9063 27.4448 24.3549 27.1456 24.6537 26.5972C24.9033 26.1237 25.0028 25.5749 24.9529 24.9519C24.8035 22.6837 25.0278 19.5179 25.6511 15.4549C26.299 11.2671 27.0967 8.25074 28.0688 6.45603C28.2685 6.08233 28.343 5.70827 28.3184 5.25968C28.2685 4.68629 28.0192 4.21273 27.5457 3.83868C27.0718 3.46497 26.5483 3.29024 25.9749 3.34016C25.2521 3.39009 24.7037 3.73918 24.3296 4.43703C22.7845 7.25372 21.6876 11.8156 21.0397 18.1468C20.0923 15.7537 19.2942 12.9374 18.6716 9.62218C18.3974 8.15161 17.7242 7.45341 16.6273 7.52829C15.8795 7.57821 15.2562 8.07672 14.7581 9.02382L9.29905 19.418C8.40152 15.804 7.55391 11.3919 6.78118 6.18182C6.60681 4.88562 5.88401 4.28727 4.61277 4.38711V4.38746ZM52.647 6.18182C54.4167 6.55588 55.7379 7.50298 56.6354 9.07339C57.4331 10.4199 57.8318 12.0399 57.8318 13.984C57.8318 16.5514 57.1838 18.8949 55.8876 21.0384C54.3918 23.5309 52.4476 24.7775 50.0296 24.7775C49.606 24.7775 49.1574 24.7276 48.6835 24.6278C46.9138 24.2541 45.5926 23.307 44.6951 21.7366C43.8977 20.3655 43.4987 18.7202 43.4987 16.8007C43.4987 14.2336 44.147 11.8901 45.4428 9.77159C46.9637 7.27904 48.9078 6.03241 51.3009 6.03241C51.7248 6.03241 52.1734 6.08233 52.647 6.18182ZM51.6 19.6676C52.5225 18.845 53.1455 17.6233 53.4946 15.9784C53.5944 15.405 53.669 14.7817 53.669 14.1337C53.669 13.4109 53.5196 12.6382 53.2204 11.8655C52.8463 10.8931 52.3478 10.3696 51.7494 10.2448C50.8523 10.0704 49.9797 10.5693 49.1574 11.7906C48.4842 12.7377 48.0605 13.7347 47.8362 14.7567C47.7114 15.3301 47.6615 15.9534 47.6615 16.5767C47.6615 17.2995 47.8109 18.0723 48.1101 18.845C48.4842 19.817 48.9827 20.3405 49.581 20.4653C50.204 20.5898 50.8772 20.3156 51.6 19.6673V19.6676ZM41.0065 9.07304C40.109 7.50263 38.7629 6.55553 37.0181 6.18147C36.5442 6.08198 36.0959 6.03205 35.6716 6.03205C33.2789 6.03205 31.3348 7.27833 29.8143 9.77124C28.5177 11.8897 27.8702 14.2332 27.8702 16.8007C27.8702 18.7202 28.2688 20.3651 29.0662 21.7362C29.9637 23.3066 31.2848 24.2537 33.0546 24.6274C33.5281 24.7273 33.9767 24.7772 34.4011 24.7772C36.8187 24.7772 38.7629 23.5309 40.2584 21.038C41.5549 18.8946 42.2025 16.5511 42.2025 13.9836C42.2025 12.0395 41.8038 10.4192 41.0065 9.07304ZM37.8653 15.9777C37.5166 17.623 36.8933 18.8446 35.9711 19.6669C35.2483 20.3152 34.5754 20.5894 33.9521 20.465C33.3538 20.3402 32.8553 19.8167 32.4812 18.8443C32.1824 18.0719 32.0326 17.2992 32.0326 16.5764C32.0326 15.9531 32.0825 15.3297 32.2073 14.7563C32.4316 13.7344 32.8553 12.7373 33.5281 11.7902C34.3508 10.5689 35.2234 10.0701 36.1205 10.2448C36.7189 10.3692 37.2174 10.8927 37.5915 11.8651C37.8903 12.6379 38.0401 13.4106 38.0401 14.1334C38.0401 14.7813 37.9901 15.4046 37.8653 15.978V15.9777Z" fill="#7F54B3"/>
<path fill-rule="evenodd" clip-rule="evenodd" d="M67.2792 8.8487C65.6089 10.494 64.7866 12.5879 64.7866 15.1307C64.7866 17.8476 65.6089 20.0663 67.2542 21.7365C68.8995 23.4064 71.043 24.2537 73.7102 24.2537C74.483 24.2537 75.3555 24.1292 76.3026 23.855V19.8166C75.4304 20.0663 74.6823 20.1907 74.0344 20.1907C72.7132 20.1907 71.6663 19.7421 70.8686 18.8695C70.0709 17.9724 69.6719 16.7757 69.6719 15.2555C69.6719 13.8345 70.0709 12.6628 70.8436 11.7656C71.6413 10.8431 72.6134 10.3945 73.8101 10.3945C74.5828 10.3945 75.4051 10.519 76.3026 10.7682V6.7302C75.48 6.50591 74.5579 6.40606 73.5854 6.40606C71.043 6.38146 68.9491 7.2041 67.2792 8.84905V8.8487ZM84.5783 6.3811C82.2851 6.3811 80.4904 7.15383 79.1942 8.67433C77.898 10.1952 77.2747 12.3386 77.2747 15.0808C77.2747 18.0472 77.923 20.3155 79.1942 21.8859C80.4655 23.4563 82.335 24.254 84.778 24.254C87.1458 24.254 88.9655 23.456 90.2367 21.8859C91.5079 20.3155 92.1562 18.0968 92.1562 15.2555C92.1562 12.4135 91.5079 10.2201 90.2121 8.67433C88.8909 7.15383 87.0213 6.3811 84.5783 6.3811ZM86.5478 19.3431C86.0988 20.0413 85.426 20.3904 84.5783 20.3904C83.7807 20.3904 83.1827 20.0413 82.7587 19.3431C82.335 18.6453 82.1357 17.2492 82.1357 15.1307C82.1357 11.8651 82.9584 10.2447 84.6283 10.2447C86.3731 10.2447 87.2706 11.89 87.2706 15.2052C87.2456 17.2492 86.9964 18.6453 86.5478 19.3431ZM104.47 6.85465L103.573 10.6687C103.348 11.6408 103.124 12.6378 102.925 13.6598L102.426 16.3021C101.953 13.6598 101.304 10.519 100.482 6.85465H94.699L92.5299 23.83H96.8674L98.0388 12.1393L101.005 23.83H104.096L106.938 12.1643L108.16 23.83H112.696L110.403 6.85465H104.47H104.47ZM125.234 6.85465L124.337 10.6687C124.113 11.6408 123.888 12.6378 123.689 13.6598L123.19 16.3021C122.717 13.6598 122.069 10.519 121.246 6.85465H115.463L113.294 23.83H117.632L118.803 12.1393L121.769 23.83H124.86L127.677 12.1643L128.899 23.83H133.436L131.142 6.85465H125.234ZM139.343 17.1248H143.406V13.6099H139.343V10.494H144.029V6.87997H134.757V23.855H144.054V20.241H139.343V17.1244V17.1248ZM156.966 14.4325C157.44 13.6598 157.689 12.8621 157.689 12.0398C157.689 10.4444 157.066 9.17319 155.82 8.2507C154.573 7.32856 152.854 6.85501 150.71 6.85501H145.375V23.83H149.962V16.1028H150.037L153.751 23.83H158.587L154.922 16.1777C155.794 15.7786 156.493 15.2052 156.966 14.4325H156.966ZM149.937 14.1583V10.1203C151.034 10.1449 151.807 10.3196 152.28 10.6687C152.754 11.0175 152.978 11.5659 152.978 12.3636C152.978 13.5353 151.956 14.1337 149.937 14.1583ZM160.381 8.84905C158.711 10.4943 157.889 12.5879 157.889 15.1307C157.889 17.8476 158.711 20.0663 160.357 21.7365C162.002 23.4064 164.145 24.2537 166.813 24.2537C167.586 24.2537 168.458 24.1292 169.405 23.855V19.8166C168.533 20.0663 167.785 20.1907 167.136 20.1907C165.816 20.1907 164.769 19.7421 163.971 18.8695C163.173 17.9724 162.775 16.7757 162.775 15.2555C162.775 13.8345 163.173 12.6628 163.946 11.7656C164.744 10.8431 165.715 10.3945 166.912 10.3945C167.684 10.3945 168.508 10.519 169.405 10.7682V6.7302C168.583 6.50591 167.661 6.40606 166.689 6.40606C164.17 6.38146 162.052 7.2041 160.381 8.84905ZM175.263 20.1907V17.0998H179.325V13.5853H175.263V10.4694H179.974V6.85465H170.701V23.83H179.999V20.2157H175.263V20.1911V20.1907Z" fill="black"/>
</g>
<defs>
<clipPath id="clip0_1986_2213">
<rect width="180" height="36.5621" fill="white"/>
</clipPath>
</defs>
</svg>
