<svg width="112" height="112" viewBox="0 0 112 112" fill="none" xmlns="http://www.w3.org/2000/svg">
<path d="M103.975 67.5255L93.4745 57.0255C92.8182 56.3694 91.9281 56.0007 91 56.0007C90.0719 56.0007 89.1818 56.3694 88.5255 57.0255L56 89.551V105H71.449L103.975 72.4745C104.631 71.8182 104.999 70.9281 104.999 70C104.999 69.0719 104.631 68.1818 103.975 67.5255ZM68.551 98H63V92.449L80.5 74.949L86.051 80.5L68.551 98ZM91 75.551L85.449 70L91 64.449L96.551 70L91 75.551ZM70 45.5V38.5H62.503C62.177 37.2472 61.6763 36.0466 61.0155 34.9335L66.325 29.624L61.376 24.675L56.0665 29.9845C54.9533 29.3239 53.7527 28.8232 52.5 28.497V21H45.5V28.497C44.2473 28.8232 43.0467 29.3239 41.9335 29.9845L36.624 24.675L31.675 29.624L36.9845 34.9335C36.3237 36.0466 35.823 37.2472 35.497 38.5H28V45.5H35.497C35.823 46.7528 36.3237 47.9534 36.9845 49.0665L31.675 54.376L36.624 59.325L41.9335 54.0155C43.0467 54.6761 44.2473 55.1768 45.5 55.503V63H52.5V55.503C53.7527 55.1768 54.9533 54.6761 56.0665 54.0155L61.376 59.325L66.325 54.376L61.0155 49.0665C61.6763 47.9534 62.177 46.7528 62.503 45.5H70ZM49 49C47.6155 49 46.2622 48.5895 45.111 47.8203C43.9599 47.0511 43.0627 45.9579 42.5328 44.6788C42.003 43.3997 41.8644 41.9922 42.1345 40.6344C42.4046 39.2765 43.0713 38.0292 44.0503 37.0503C45.0292 36.0713 46.2765 35.4046 47.6344 35.1345C48.9922 34.8644 50.3997 35.003 51.6788 35.5328C52.9579 36.0627 54.0511 36.9599 54.8203 38.111C55.5895 39.2622 56 40.6155 56 42C55.9981 43.8559 55.2601 45.6353 53.9477 46.9477C52.6353 48.2601 50.8559 48.9981 49 49Z" fill="#5B5E71"/>
<path d="M42 105H21C19.1441 104.998 17.3647 104.26 16.0523 102.948C14.7399 101.635 14.0019 99.8559 14 98V14C14.0019 12.1441 14.7399 10.3647 16.0523 9.0523C17.3647 7.73995 19.1441 7.00185 21 7H77C78.8559 7.00185 80.6354 7.73995 81.9477 9.0523C83.2601 10.3647 83.9981 12.1441 84 14V49H77V14H21V98H42V105Z" fill="#5B5E71"/>
</svg>
