<svg width="112" height="112" viewBox="0 0 112 112" fill="none" xmlns="http://www.w3.org/2000/svg">
<path d="M66.5 35H91V42H66.5V35ZM66.5 52.5H91V59.5H66.5V52.5ZM66.5 70H91V77H66.5V70ZM21 35H45.5V42H21V35ZM21 52.5H45.5V59.5H21V52.5ZM21 70H45.5V77H21V70Z" fill="#5B5E71"/>
<path d="M98 17.5H14C12.1441 17.5019 10.3647 18.2399 9.0523 19.5523C7.73995 20.8647 7.00185 22.6441 7 24.5V87.5C7.00185 89.3559 7.73995 91.1354 9.0523 92.4477C10.3647 93.7601 12.1441 94.4981 14 94.5H98C99.8559 94.4981 101.635 93.7601 102.948 92.4477C104.26 91.1354 104.998 89.3559 105 87.5V24.5C104.998 22.6441 104.26 20.8647 102.948 19.5523C101.635 18.2399 99.8559 17.5019 98 17.5ZM14 24.5H52.5V87.5H14V24.5ZM59.5 87.5V24.5H98V87.5H59.5Z" fill="#5B5E71"/>
</svg>
