<svg width="71" height="49" viewBox="0 0 71 49" fill="none" xmlns="http://www.w3.org/2000/svg">
<path d="M48.7536 5.68034C48.4174 5.68034 48.1894 5.72127 47.9527 5.7768V5.81481H47.9936C48.1514 6.11881 48.4204 6.34096 48.6191 6.61281C48.777 6.92559 48.9114 7.23836 49.0693 7.54821L49.1102 7.50436C49.385 7.31143 49.5194 7.00159 49.5194 6.53097C49.4025 6.39358 49.385 6.25619 49.2856 6.12173C49.1687 5.92588 48.9173 5.82942 48.7594 5.6745L48.7536 5.68034ZM17.6664 44.2478H14.9567C14.8805 39.9414 14.6171 35.6404 14.1674 31.3569H14.144L10.0225 44.2478H7.96168L3.86934 31.3569H3.84011C3.52001 35.6471 3.32992 39.946 3.2701 44.2478H0.800079C0.96085 38.5009 1.36132 33.1107 1.99855 28.083H5.36012L9.26246 39.9625H9.28585L13.2233 28.083H16.4241C17.1315 33.9731 17.5465 39.3662 17.6752 44.2478H17.6664ZM29.4085 32.3215C28.3036 38.2992 26.8479 42.6488 25.0472 45.3585C23.6383 47.4515 22.0949 48.495 20.4199 48.495C19.9727 48.495 19.4261 48.3606 18.7655 48.0916V46.6476C19.087 46.6973 19.467 46.7236 19.8938 46.7236C20.6772 46.7236 21.3056 46.5044 21.785 46.0747C22.3609 45.5485 22.6474 44.9581 22.6474 44.3062C22.6474 43.8531 22.4223 42.9324 21.975 41.5468L19.011 32.3215H21.671L23.7961 39.22C24.2755 40.7868 24.4772 41.8801 24.3954 42.5027C25.5646 39.3925 26.3772 35.9929 26.8362 32.3215H29.4085ZM65.4357 44.2478H57.748V28.083H60.3349V42.2601H65.4357V44.2478ZM55.731 44.6424L52.7612 43.1808C53.0242 42.9587 53.2786 42.719 53.5066 42.4501C54.7723 40.971 55.4007 38.7728 55.4007 35.8643C55.4007 30.515 53.3019 27.8375 49.1014 27.8375C47.0436 27.8375 45.4359 28.5156 44.2783 29.8749C43.0214 31.3598 42.39 33.5463 42.39 36.4372C42.39 39.2785 42.9454 41.3656 44.0679 42.6927C45.0909 43.8911 46.6314 44.4904 48.6951 44.4904C49.4668 44.4904 50.1742 44.3939 50.8144 44.2039L54.6875 46.4606L55.7398 44.6424H55.731ZM46.1082 41.0119C45.4505 39.9596 45.1231 38.2642 45.1231 35.9374C45.1231 31.8655 46.3625 29.8281 48.8354 29.8281C50.1304 29.8281 51.0862 30.3163 51.6913 31.2896C52.3461 32.3478 52.6735 34.0257 52.6735 36.3262C52.6735 40.4302 51.4341 42.4881 48.9611 42.4881C47.6603 42.4881 46.7103 41.9999 46.1023 41.0265L46.1082 41.0119ZM41.2617 39.7696C41.2617 41.1434 40.7589 42.2717 39.7534 43.1487C38.7478 44.0256 37.4061 44.4641 35.7078 44.4641C34.1205 44.4641 32.5976 43.9613 31.1097 42.9587L31.8025 41.5673C33.0828 42.2104 34.2375 42.5261 35.281 42.5261C36.2515 42.5261 37.0144 42.3127 37.5698 41.883C37.8474 41.6737 38.0715 41.4018 38.2239 41.0893C38.3763 40.7769 38.4527 40.4328 38.4467 40.0853C38.4467 39.1206 37.7744 38.3022 36.5526 37.6152C35.4184 36.9926 33.153 35.6948 33.153 35.6948C31.9194 34.7974 31.3056 33.8357 31.3056 32.2543C31.3056 30.9389 31.7645 29.8866 32.6794 29.0827C33.6002 28.2701 34.7841 27.8696 36.2456 27.8696C37.7423 27.8696 39.1103 28.2672 40.338 29.0681L39.7154 30.4595C38.7344 30.0286 37.6766 29.7999 36.6052 29.7872C35.7779 29.7872 35.1378 29.9859 34.6935 30.3893C34.468 30.5761 34.2862 30.8101 34.161 31.0747C34.0357 31.3394 33.97 31.6283 33.9685 31.921C33.9685 32.8798 34.6525 33.7041 35.9153 34.4057C37.0641 35.0341 39.385 36.3642 39.385 36.3642C40.6507 37.2557 41.2792 38.2057 41.2792 39.7783L41.2617 39.7696ZM68.6862 22.6636C67.1224 22.6226 65.9093 22.7805 64.895 23.2131C64.6027 23.33 64.135 23.33 64.094 23.7013C64.2548 23.8562 64.2782 24.1105 64.4156 24.3268C64.6494 24.7185 65.0528 25.2417 65.427 25.5165C65.8362 25.8381 66.2454 26.1479 66.6751 26.4227C67.4351 26.8904 68.2975 27.1681 69.0429 27.6387C69.4667 27.9135 69.8993 28.2613 70.329 28.5536C70.5424 28.6998 70.6798 28.9629 70.9546 29.0564V28.9979C70.8201 28.8225 70.7792 28.5682 70.6476 28.3724C70.4518 28.1765 70.2559 28.0012 70.063 27.8082C69.4891 27.0519 68.8042 26.3867 68.0315 25.8351C67.4059 25.4084 66.0379 24.8121 65.7807 24.0959L65.7427 24.055C66.1694 24.017 66.6781 23.862 67.0873 23.7451C67.7508 23.5697 68.3588 23.6077 69.0458 23.4353C69.3556 23.3563 69.6684 23.2599 69.9812 23.1605V22.9851C69.6304 22.6343 69.3673 22.1579 69.0049 21.8305C67.9931 20.9461 66.9142 20.1418 65.7777 19.4248C65.1639 19.0331 64.3863 18.7817 63.7403 18.4485C63.5065 18.3315 63.1148 18.2731 62.9803 18.0772C62.6296 17.6504 62.4249 17.0834 62.1765 16.5747C61.6025 15.4613 61.0692 14.3274 60.5775 13.1752C60.2268 12.4093 60.0134 11.6464 59.5837 10.9449C57.5667 7.62128 55.3832 5.60727 52.0245 3.63709C51.3025 3.22786 50.4373 3.05247 49.5224 2.83616C49.0342 2.81278 48.546 2.7777 48.0608 2.75724C47.7393 2.61985 47.4294 2.24862 47.1547 2.07031C46.0439 1.36877 43.1675 -0.151249 42.3491 1.85985C41.8229 3.12847 43.1295 4.37956 43.5826 5.02264C43.9188 5.46988 44.3426 5.98142 44.5765 6.4842C44.7139 6.82328 44.7519 7.17113 44.8892 7.52482C45.1991 8.38421 45.4943 9.34299 45.9036 10.1468C46.117 10.5561 46.3508 10.9858 46.6256 11.3541C46.7834 11.5675 47.0523 11.6669 47.1137 12.0176C46.839 12.4152 46.8214 12.9939 46.6636 13.4792C45.962 15.692 46.2368 18.428 47.2307 20.0562C47.5434 20.5414 48.2888 21.6171 49.2856 21.2049C50.1625 20.8542 49.9696 19.7434 50.221 18.7642C50.2794 18.5303 50.2414 18.3754 50.3613 18.2175V18.2614C50.6361 18.8109 50.9108 19.3342 51.1622 19.8837C51.7644 20.8425 52.8167 21.8363 53.6966 22.4999C54.1643 22.8507 54.5355 23.4587 55.1201 23.675V23.6165H55.0763C54.9506 23.447 54.784 23.3651 54.6261 23.2277C54.2555 22.8649 53.9134 22.474 53.603 22.0585C52.7794 20.9331 52.0491 19.7424 51.4195 18.4981C51.0979 17.8843 50.829 17.2237 50.5718 16.6186C50.4548 16.3847 50.4548 16.034 50.259 15.9171C49.9667 16.3438 49.537 16.7151 49.3236 17.2412C48.9524 18.0831 48.9144 19.1178 48.7741 20.1935C48.6951 20.214 48.7331 20.1935 48.6951 20.2345C48.0696 20.0825 47.8562 19.4335 47.6223 18.8898C47.0377 17.5014 46.9413 15.271 47.447 13.6721C47.5844 13.2629 48.169 11.9709 47.9351 11.5792C47.8124 11.2079 47.4265 10.9945 47.2131 10.6935C46.9386 10.3016 46.7036 9.8835 46.5116 9.4453C46.0439 8.35206 45.81 7.14189 45.3014 6.04865C45.0676 5.54296 44.6583 5.01388 44.3251 4.5491C43.9539 4.02294 43.5446 3.65171 43.2494 3.02909C43.1529 2.8157 43.0155 2.46201 43.1705 2.22816C43.2114 2.07031 43.2932 2.00893 43.4452 1.96508C43.7025 1.75462 44.4245 2.02939 44.6788 2.14631C45.4008 2.43862 46.0088 2.71339 46.6139 3.12263C46.8886 3.31555 47.1839 3.68679 47.5347 3.78325H47.9439C48.5694 3.92064 49.2739 3.82417 49.8585 3.99664C50.8962 4.32987 51.8316 4.8151 52.6706 5.34126C55.2556 6.99256 57.3581 9.29783 58.7652 12.0235C58.9991 12.4736 59.1014 12.8858 59.3148 13.3535C59.724 14.3181 60.2297 15.2915 60.6448 16.224C61.054 17.1448 61.4486 18.0831 62.0362 18.846C62.3285 19.2552 63.5036 19.4686 64.0297 19.682C64.4185 19.8574 65.0236 20.0182 65.3744 20.2316C66.0467 20.6408 66.7014 21.1085 67.3328 21.5586C67.6544 21.7808 68.6278 22.269 68.6862 22.6636Z" fill="#1E1E1E"/>
</svg>
