<svg width="71" height="71" viewBox="0 0 71 71" fill="none" xmlns="http://www.w3.org/2000/svg">
<path d="M52.8657 66.5809C52.6048 66.719 52.6267 66.7628 52.8766 66.6357C52.9537 66.6042 53.0242 66.5589 53.0849 66.502C53.0849 66.4559 53.0849 66.4559 52.8657 66.5809ZM53.3918 66.2959C53.2669 66.3989 53.2669 66.3989 53.4159 66.331C53.471 66.3052 53.5214 66.2703 53.565 66.2279C53.565 66.1687 53.5299 66.1819 53.3918 66.2959ZM53.7338 66.0898C53.6089 66.1928 53.6089 66.1928 53.7579 66.1249C53.8133 66.0985 53.8637 66.0629 53.907 66.0196C53.907 65.9648 53.8719 65.9758 53.7338 66.0898ZM54.0802 65.8859C53.9552 65.989 53.9553 65.989 54.0999 65.9188C54.1811 65.8749 54.249 65.8289 54.249 65.8158C54.249 65.7609 54.2139 65.7719 54.0802 65.8859ZM54.5472 65.5768C54.3082 65.7368 54.2249 65.8399 54.4441 65.7259C54.591 65.636 54.841 65.4387 54.7971 65.4387C54.7028 65.4738 54.6239 65.533 54.545 65.5768H54.5472ZM33.582 0.824219C33.4219 0.835181 32.9418 0.879027 32.5209 0.914105C22.5502 1.81734 13.2218 7.18416 7.3091 15.4514C4.04158 19.9857 1.91764 25.2422 1.11797 30.7736C0.835157 32.7029 0.800079 33.2729 0.800079 35.8883C0.800079 38.5016 0.835157 39.0628 1.11797 40.992C3.02748 54.1701 12.4019 65.2326 25.1086 69.3323C27.3952 70.0623 29.7914 70.5665 32.5209 70.8756C33.582 70.9897 38.1705 70.9897 39.2316 70.8756C43.9495 70.3495 47.9329 69.1854 51.8747 67.175C52.4798 66.8681 52.5938 66.787 52.5127 66.719C50.5898 64.1772 48.6832 61.623 46.7929 59.0568L41.1871 51.4867L34.1651 41.0841C31.8294 37.6011 29.4696 34.1342 27.0861 30.6837C27.062 30.6837 27.0313 35.3073 27.0181 40.946C26.994 50.8224 26.994 51.2236 26.869 51.4516C26.7492 51.7271 26.5345 51.9503 26.264 52.0808C26.0469 52.1839 25.8518 52.2058 24.8148 52.2058H23.6288L23.3197 52.0129C23.1261 51.8887 22.9687 51.7155 22.8637 51.5108L22.7146 51.2017L22.7255 37.4536L22.7497 23.7055L22.9667 23.4315C23.1053 23.263 23.276 23.1237 23.4687 23.0215C23.7559 22.8834 23.8699 22.8615 25.056 22.8615C26.4481 22.8615 26.6783 22.9163 27.0444 23.3175C29.889 27.5484 32.7092 31.7958 35.5046 36.0593C40.0625 42.9695 46.2843 52.3987 49.3426 57.0245L54.9045 65.4409L55.1786 65.2589C57.8516 63.4826 60.2738 61.3553 62.3804 58.934C66.7991 53.8765 69.6664 47.6525 70.6389 41.0074C70.9217 39.0781 70.9567 38.5059 70.9567 35.8927C70.9567 33.2772 70.9217 32.7182 70.6389 30.7889C68.7293 17.6109 59.355 6.54839 46.6482 2.44654C44.2734 1.6944 41.8292 1.18248 39.3522 0.918489C38.6879 0.850527 34.1542 0.769411 33.5841 0.828604L33.582 0.824219ZM47.9351 22.0394C48.0982 22.1195 48.2437 22.2313 48.363 22.3683C48.4824 22.5054 48.5732 22.6648 48.6301 22.8374C48.6893 23.0215 48.7002 26.834 48.6893 35.4213L48.6652 47.751L46.497 44.4186L44.3156 41.0841V32.1328C44.3156 26.3298 44.3397 23.0763 44.3704 22.9163C44.4777 22.5493 44.7239 22.2387 45.0566 22.0503C45.3284 21.9122 45.4337 21.9013 46.5189 21.9013C47.5339 21.9013 47.7049 21.9122 47.9329 22.0394H47.9351Z" fill="#1E1E1E"/>
</svg>
