<svg width="180" height="36" viewBox="0 0 180 36" fill="none" xmlns="http://www.w3.org/2000/svg">
<path d="M17.8421 18.4053C17.8421 21.0941 17.0427 23.3588 15.4382 25.1922C13.7637 27.1132 11.5879 28.0775 8.92441 28.0775C6.25395 28.0775 4.08516 27.1132 2.41066 25.1922C0.80543 23.3588 0 21.0941 0 18.4053C0 15.7092 0.80543 13.4451 2.41066 11.6184C4.10379 9.71539 6.27961 8.76441 8.92441 8.76441C11.5879 8.76441 13.7637 9.71539 15.4382 11.6184C17.0427 13.4451 17.8421 15.7092 17.8421 18.4053ZM12.5392 18.4053C12.5392 17.1875 12.2477 16.1595 11.6641 15.3284C11.0113 14.3838 10.0976 13.9145 8.92441 13.9145C7.7509 13.9145 6.83754 14.3838 6.18398 15.3284C5.59441 16.1595 5.30262 17.1875 5.30262 18.4053C5.30262 19.6164 5.59441 20.6567 6.18398 21.5128C6.83754 22.4574 7.7509 22.9275 8.92441 22.9275C10.0976 22.9275 11.0113 22.4574 11.6641 21.5128C12.2477 20.6567 12.5392 19.6164 12.5392 18.4053ZM37.016 18.4053C37.016 20.9169 36.2929 23.1113 34.8402 24.9887C33.2863 27.0436 31.282 28.0775 28.8464 28.0775C27.1273 28.0775 25.669 27.5765 24.4765 26.5872C24.4765 26.815 24.5018 27.367 24.5528 28.2494C24.6034 29.1364 24.6284 29.8596 24.6284 30.4305C24.6284 33.5837 23.6897 35.1562 21.8127 35.1562C21.0449 35.1562 20.4173 34.8834 19.916 34.3441C19.4214 33.7992 19.1739 33.1446 19.1739 32.3718V11.8659C19.1739 11.1174 19.4277 10.4702 19.935 9.92527C20.4423 9.38598 21.0705 9.11387 21.819 9.11387C22.9475 9.11387 23.7723 9.67707 24.2926 10.8007C25.4025 9.44328 26.9184 8.76441 28.8401 8.76441C31.282 8.76441 33.28 9.77867 34.8402 11.8153C36.2865 13.6993 37.016 15.8938 37.016 18.4053ZM31.713 18.4053C31.713 17.1875 31.4156 16.1595 30.832 15.3284C30.1781 14.3838 29.2651 13.9145 28.0916 13.9145C26.9184 13.9145 26.0051 14.3838 25.3515 15.3284C24.7679 16.1595 24.4765 17.1875 24.4765 18.4053C24.4765 19.6164 24.7679 20.6567 25.3515 21.5128C26.0051 22.4574 26.9184 22.9275 28.0916 22.9275C29.2651 22.9275 30.1781 22.4574 30.832 21.5128C31.4156 20.6567 31.713 19.6164 31.713 18.4053ZM56.3101 17.8351C56.3101 18.7221 56.1006 19.331 55.6819 19.6741C55.2635 20.0098 54.6103 20.1811 53.7286 20.1811H44.1573C44.1573 21.196 44.6333 21.9758 45.5846 22.5207C46.3521 22.9464 47.2908 23.1627 48.4007 23.1627C49.2638 23.1627 50.2973 22.8761 51.5088 22.3126C52.7203 21.7413 53.5001 21.4618 53.8369 21.4618C54.4518 21.4618 54.9717 21.684 55.4031 22.1407C55.8278 22.5914 56.044 23.1366 56.044 23.7649C56.044 25.2165 54.9594 26.3468 52.7896 27.1582C51.1344 27.7667 49.4536 28.0775 47.7352 28.0775C44.9698 28.0775 42.737 27.1582 41.0309 25.3255C39.3244 23.4921 38.4687 21.1897 38.4687 18.4053C38.4687 15.7535 39.3564 13.4894 41.1321 11.6001C42.9015 9.70906 45.103 8.76441 47.7285 8.76441C50.1704 8.76441 52.2127 9.65879 53.8495 11.4472C55.4854 13.2363 56.3101 15.3671 56.3101 17.8351ZM51.0079 16.5023C50.9822 15.6902 50.6081 14.9547 49.885 14.2882C49.1618 13.6227 48.3947 13.2932 47.5826 13.2932C46.7455 13.2932 45.965 13.6227 45.2422 14.2882C44.5194 14.9547 44.1573 15.6902 44.1573 16.5023H51.0079ZM74.1266 24.9437C74.1266 25.7182 73.8791 26.371 73.3848 26.9166C72.8835 27.4563 72.2556 27.7291 71.4881 27.7291C69.6361 27.7291 68.7097 26.2575 68.7097 23.3209C68.7097 22.7563 68.748 21.8686 68.824 20.6444C68.9066 19.4263 68.9449 18.5322 68.9449 17.9676C68.9449 14.8528 67.9363 13.2932 65.9257 13.2932C63.9148 13.2932 62.9128 14.8528 62.9128 17.9676C62.9128 18.5322 62.9445 19.4263 63.0014 20.6444C63.065 21.8686 63.0967 22.7563 63.0967 23.3209C63.0967 26.2575 62.1833 27.7291 60.357 27.7291C59.5891 27.7291 58.9616 27.4563 58.4666 26.9166C57.9656 26.371 57.7181 25.7182 57.7181 24.9437V11.8603C57.7181 11.0914 57.9656 10.4393 58.4666 9.91262C58.9616 9.37965 59.5958 9.11387 60.3633 9.11387C61.6317 9.11387 62.5131 9.67707 63.0077 10.8007C63.8641 9.44328 65.3797 8.76441 67.5492 8.76441C69.5598 8.76441 71.1584 9.29668 72.3315 10.3559C73.5303 11.4922 74.1266 13.0517 74.1266 15.0373V24.9437ZM90.7625 24.3801C90.7625 25.5786 89.9842 26.5296 88.4229 27.2281C87.1866 27.7918 85.8431 28.0816 84.4843 28.0775C81.8135 28.0775 79.6447 27.1132 77.9702 25.1922C76.3657 23.3588 75.5603 21.0941 75.5603 18.4053C75.5603 15.7092 76.3784 13.4328 78.0209 11.5678C79.6637 9.69711 81.8135 8.76441 84.4843 8.76441C86.0256 8.76441 87.3513 8.99258 88.4552 9.44328C89.9954 10.0522 90.7625 11.0032 90.7625 12.2973C90.7625 12.9501 90.5607 13.5274 90.154 14.0287C89.7486 14.5234 89.228 14.7772 88.5941 14.7772C88.162 14.7772 87.5408 14.6313 86.7291 14.3465C85.9177 14.054 85.2711 13.9145 84.7955 13.9145C83.533 13.9145 82.5497 14.3648 81.8459 15.2652C81.192 16.0773 80.8625 17.1175 80.8625 18.4053C80.8625 19.6164 81.1543 20.6444 81.7446 21.4752C82.3971 22.4458 83.3171 22.9275 84.4903 22.9275C85.011 22.9275 85.7208 22.7752 86.6275 22.4637C87.5352 22.1604 88.1888 22.0018 88.5941 22.0018C89.1847 22.0018 89.691 22.2549 90.123 22.7499C90.5481 23.2509 90.7625 23.7895 90.7625 24.3801ZM110.038 24.9437C110.038 25.7182 109.792 26.371 109.296 26.9166C108.796 27.4563 108.162 27.7291 107.393 27.7291C106.239 27.7291 105.415 27.1641 104.92 26.0416C103.81 27.3993 102.294 28.0775 100.372 28.0775C97.9123 28.0775 95.895 27.0436 94.3337 24.9887C92.913 23.1113 92.1976 20.9169 92.1976 18.4053C92.1976 15.8938 92.913 13.6993 94.3337 11.8153C95.9203 9.77867 97.9305 8.76441 100.372 8.76441C102.294 8.76441 103.81 9.44328 104.92 10.8007C105.415 9.67707 106.239 9.11387 107.393 9.11387C108.142 9.11387 108.77 9.38598 109.278 9.92527C109.785 10.4702 110.038 11.1111 110.038 11.8603V24.9437ZM104.736 18.4053C104.736 17.1875 104.445 16.1595 103.861 15.3284C103.182 14.3838 102.269 13.9145 101.121 13.9145C99.9475 13.9145 99.0345 14.3838 98.3806 15.3284C97.7917 16.1595 97.4999 17.1875 97.4999 18.4053C97.4999 19.6164 97.7843 20.6567 98.3486 21.5128C99.0218 22.4574 99.9475 22.9275 101.121 22.9275C102.294 22.9275 103.207 22.4574 103.861 21.5128C104.445 20.6567 104.736 19.6164 104.736 18.4053ZM123.568 11.5105C123.568 12.6457 123.016 13.4258 121.912 13.8505C120.891 14.1936 119.875 14.543 118.862 14.9034C117.751 15.5383 117.199 16.7178 117.199 18.4306V24.9437C117.199 25.7182 116.945 26.371 116.452 26.9166C115.95 27.4563 115.315 27.7291 114.548 27.7291C113.775 27.7291 113.14 27.4563 112.646 26.9166C112.144 26.371 111.897 25.7182 111.897 24.9437V11.8603C111.897 11.0914 112.144 10.4393 112.639 9.91262C113.14 9.37965 113.775 9.11387 114.543 9.11387C115.81 9.11387 116.691 9.67707 117.187 10.8007C118.323 9.44328 119.54 8.76441 120.853 8.76441C121.601 8.76441 122.242 9.03652 122.775 9.57582C123.301 10.1214 123.568 10.7683 123.568 11.5105ZM137.401 11.7516C137.401 12.9311 136.938 13.6733 136.019 13.9911C135.567 14.1493 134.622 14.2316 133.183 14.2316V24.9437C133.183 25.7182 132.929 26.371 132.435 26.9166C131.933 27.4563 131.299 27.7291 130.532 27.7291C129.784 27.7291 129.149 27.4563 128.641 26.9166C128.135 26.371 127.881 25.7182 127.881 24.9437V14.2316C126.789 14.2316 125.997 14.092 125.496 13.8199C124.812 13.4391 124.474 12.7476 124.474 11.7516C124.474 10.7564 124.823 10.0775 125.527 9.71539C126.002 9.44891 126.789 9.31004 127.881 9.31004V7.0393C127.881 4.36918 128.762 3.03746 130.532 3.03746C132.295 3.03746 133.183 4.36918 133.183 7.0393V9.31004C134.622 9.31004 135.567 9.3923 136.019 9.55051C136.938 9.86762 137.401 10.6041 137.401 11.7516ZM180 8.53098C179.986 6.90289 176.977 6.16391 169.19 6.16391C150.917 6.16391 146.281 5.38344 141.32 0.163086C143.407 3.29762 144.549 9.1768 163.863 8.8843C184.013 8.57387 171.72 14.08 168.144 20.3009C174.594 14.5437 179.981 10.749 180 8.55453V8.53098ZM154.323 25.2488C154.323 25.9805 154.032 26.682 153.514 27.1993C152.997 27.7167 152.296 28.0074 151.564 28.0075C150.035 28.0075 148.799 26.7714 148.799 25.2488C148.799 24.8856 148.87 24.5259 149.009 24.1903C149.148 23.8547 149.351 23.5497 149.608 23.2929C149.865 23.0361 150.17 22.8324 150.505 22.6935C150.841 22.5546 151.201 22.4832 151.564 22.4834C153.087 22.4834 154.323 23.7199 154.323 25.2488ZM166.906 25.2488C166.906 25.9805 166.615 26.682 166.098 27.1993C165.581 27.7167 164.879 28.0074 164.147 28.0075C162.62 28.0075 161.383 26.7714 161.383 25.2488C161.382 24.8857 161.454 24.526 161.593 24.1904C161.731 23.8548 161.935 23.5499 162.192 23.293C162.449 23.0362 162.753 22.8325 163.089 22.6936C163.425 22.5547 163.784 22.4833 164.147 22.4834C165.671 22.4834 166.906 23.7199 166.906 25.2488Z" fill="url(#paint0_linear_1986_2222)"/>
<defs>
<linearGradient id="paint0_linear_1986_2222" x1="90" y1="27.844" x2="90" y2="0.163086" gradientUnits="userSpaceOnUse">
<stop stop-color="#04B6F0"/>
<stop offset="1" stop-color="#3ECAF0"/>
</linearGradient>
</defs>
</svg>
