<svg width="41" height="41" viewBox="0 0 41 41" fill="none" xmlns="http://www.w3.org/2000/svg">
<path d="M23.8961 20.8729L23.8924 20.8741L22.258 21.3921C21.9686 21.0109 21.7019 20.6125 21.4596 20.1988C21.2211 19.768 21.0077 19.3242 20.8205 18.8696L21.3756 18.3567H21.3804L22.0992 17.6913C23.1408 16.7271 23.8722 15.4749 24.2004 14.0939C24.5285 12.7136 24.4388 11.2668 23.9429 9.93754C23.9427 9.93697 23.9424 9.9364 23.9422 9.93583L22.9442 7.2516C22.9438 7.25073 22.9435 7.24985 22.9432 7.24898C22.3165 5.55466 21.0657 4.16404 19.4469 3.36201C17.8273 2.55956 15.962 2.40712 14.2336 2.93593L14.2336 2.93592L14.2283 2.93755C9.53723 4.38414 5.26239 8.82442 6.15843 14.7671L6.1591 14.7715C6.79704 18.9521 8.21424 22.9757 10.337 26.6333C12.4339 30.2763 15.1825 33.5029 18.446 36.152L18.4507 36.1558C23.1298 39.9355 29.1213 38.443 32.7165 35.071L32.7183 35.0693C34.0317 33.835 34.8275 32.1481 34.9448 30.3496C35.0622 28.551 34.4924 26.775 33.3505 25.3805L33.3503 25.3802L31.5296 23.1572C31.529 23.1564 31.5283 23.1556 31.5277 23.1548C30.6304 22.0549 29.4238 21.2493 28.0638 20.8424C26.7028 20.4351 25.2509 20.4457 23.8961 20.8729Z" fill="white" stroke="#1E1E1E" strokeWidth="5"/>
</svg>
