<svg width="71" height="38" viewBox="0 0 71 38" fill="none" xmlns="http://www.w3.org/2000/svg">
<path d="M35.0772 2.05518C53.8655 2.05518 68.3129 9.96948 68.3129 18.6621C68.3129 27.3546 53.8545 35.2689 35.0772 35.2689C16.289 35.2689 1.84155 27.3546 1.84155 18.6621C1.84155 9.96948 16.3 2.05518 35.0772 2.05518ZM35.0772 0.213623C15.708 0.213623 0 8.46774 0 18.6621C0 28.8564 15.708 37.1105 35.0772 37.1105C54.4465 37.1105 70.1545 28.8564 70.1545 18.6621C70.1545 8.46774 54.4465 0.213623 35.0772 0.213623ZM23.9183 17.1822C23.0523 21.6217 19.994 21.1613 16.2342 21.1613L17.7359 13.4224C21.9014 13.4224 24.7295 12.973 23.9183 17.1822ZM10.6766 28.9989H14.6996L15.6532 24.0881C20.1585 24.0881 22.9537 24.4169 25.5406 21.9944C28.4016 19.3636 29.147 14.683 27.1081 12.3372C26.0449 11.1095 24.3348 10.5066 22.011 10.5066H14.2611L10.6766 28.9989ZM31.0324 5.58482H35.0334L34.0797 10.4956C37.5326 10.4956 40.7334 10.2435 42.279 11.6685C43.9014 13.1593 43.1231 15.0666 41.3692 24.0661H37.3134C39.0015 15.3626 39.3194 14.6391 38.7055 13.9814C38.1136 13.3457 36.7653 13.4772 33.5097 13.4772L31.4489 24.0661H27.4479L31.0324 5.58482ZM55.3563 17.1822C54.4793 21.6875 51.3333 21.1613 47.6722 21.1613L49.1739 13.4224C53.3613 13.4224 56.1674 12.973 55.3563 17.1822ZM42.1146 28.9989H46.1485L47.1022 24.0881C51.8376 24.0881 54.4574 24.3621 56.9896 21.9944C59.8505 19.3636 60.5959 14.683 58.5571 12.3372C57.4938 11.1095 55.7838 10.5066 53.4599 10.5066H45.71L42.1146 28.9989Z" fill="#1E1E1E"/>
</svg>
