<svg width="30" height="30" viewBox="0 0 30 30" fill="none" xmlns="http://www.w3.org/2000/svg">
<path d="M15 0.600098C7.04701 0.600098 0.600006 7.0471 0.600006 15.0001C0.600006 22.9531 7.04701 29.4001 15 29.4001C22.953 29.4001 29.4 22.9531 29.4 15.0001C29.4 7.0471 22.953 0.600098 15 0.600098ZM15.9855 18.4126C15.0615 18.3421 14.6745 17.8846 13.9515 17.4466C13.554 19.5331 13.068 21.5341 11.628 22.5796C11.1825 19.4236 12.279 17.0566 12.789 14.5411C11.9205 13.0786 12.8925 10.1371 14.7255 10.8601C16.98 11.7541 12.7725 16.2976 15.597 16.8661C18.546 17.4571 19.7505 11.7481 17.922 9.8941C15.279 7.2136 10.2315 9.8326 10.8525 13.6696C11.0025 14.6071 11.973 14.8921 11.2395 16.1866C9.54901 15.8116 9.04351 14.4781 9.10951 12.7006C9.21301 9.7906 11.724 7.7521 14.241 7.4716C17.4255 7.1176 20.4135 8.6401 20.8275 11.6371C21.291 15.0181 19.389 18.6766 15.9855 18.4126Z" fill="#FFE100"/>
</svg>
