<svg width="62" height="56" viewBox="0 0 62 56" fill="none" xmlns="http://www.w3.org/2000/svg">
<path d="M50.6083 18.4311L48.6352 17.7734C48.6352 17.3349 48.8544 16.8965 48.8544 16.458C50.389 9.22333 49.2929 3.30405 46.0044 1.33095C42.7159 -0.42291 37.4543 1.33095 32.1927 5.93484C31.7543 6.3733 31.0966 6.81177 30.6581 7.25024C30.2196 7.031 30.0004 6.59254 29.5619 6.3733C24.3003 1.55018 18.8195 -0.42291 15.531 1.55018C12.2425 3.30405 11.3656 9.0041 12.681 15.8003C12.9002 16.458 12.9002 17.1157 13.1195 17.7734C12.2425 17.9926 11.5848 18.2119 10.9271 18.4311C4.35016 20.6234 0.184738 24.3504 0.184738 27.8581C0.184738 31.5851 4.56939 35.5313 11.3656 37.7236C11.8041 37.9428 12.4618 38.1621 13.1195 38.1621C12.9002 38.8198 12.681 39.6967 12.681 40.3544C11.3656 47.1506 12.4618 52.4122 15.531 54.3853C18.8195 56.3584 24.3003 54.3853 29.7812 49.5622C30.2196 49.1237 30.6581 48.6852 31.0966 48.466C31.535 48.9045 32.1927 49.5622 32.8504 50.0006C38.112 54.6045 43.1544 56.3584 46.4428 54.3853C49.7313 52.4122 50.8275 46.7121 49.5121 39.6967C49.5121 39.2582 49.2929 38.6005 49.0736 37.9428C49.5121 37.7236 49.9506 37.7236 50.1698 37.5044C57.1853 35.0928 61.7891 31.3658 61.7891 27.6389C61.5699 24.3504 57.1853 20.8427 50.6083 18.4311ZM34.1658 8.12717C38.7697 4.18098 42.9351 2.64635 44.9082 3.74251C46.8813 4.83868 47.7582 9.6618 46.4428 16.0195C46.4428 16.458 46.2236 16.8965 46.2236 17.3349C43.5928 16.6772 40.7428 16.2388 38.112 16.0195C36.5774 13.8272 34.8235 11.6349 32.8504 9.44256L34.1658 8.12717ZM18.3811 31.1466C19.0388 32.2428 19.4772 33.3389 20.1349 34.4351C20.7926 35.5313 21.4503 36.6274 22.108 37.5044C20.1349 37.2851 18.3811 37.0659 16.408 36.6274C16.8464 34.8736 17.5041 33.1197 18.3811 31.1466ZM18.3811 25.0081C17.5041 23.2542 17.0657 21.5004 16.408 19.7465C18.1618 19.308 20.1349 19.0888 21.8888 18.8696C21.2311 19.9657 20.5734 20.8427 19.9157 21.9388C19.4772 22.8158 18.8195 23.9119 18.3811 25.0081ZM19.6965 28.0773C20.5734 26.3235 21.4503 24.7889 22.3272 23.035C23.2042 21.5004 24.3003 19.7465 25.3965 18.2119C27.1504 17.9926 29.1235 17.9926 31.0966 17.9926C33.0697 17.9926 34.8235 17.9926 36.7966 18.2119C37.8928 19.7465 38.7697 21.2811 39.6466 23.035C40.5236 24.5696 41.4005 26.3235 42.2774 28.0773C41.4005 29.8312 40.5236 31.3658 39.6466 33.1197C38.7697 34.6543 37.6735 36.4082 36.7966 37.9428C35.0427 38.1621 33.0697 38.1621 31.0966 38.1621C29.1235 38.1621 27.3696 38.1621 25.6157 37.9428C24.5196 36.4082 23.6426 34.8736 22.5465 33.1197C21.4503 31.3658 20.5734 29.8312 19.6965 28.0773ZM41.6197 34.4351C42.2774 33.3389 42.9351 32.2428 43.3736 31.1466C44.2505 32.9005 44.9082 34.6543 45.3467 36.6274C43.3736 37.0659 41.6197 37.2851 39.6466 37.5044C40.5236 36.4082 41.1813 35.312 41.6197 34.4351ZM43.3736 25.0081C42.7159 23.9119 42.2774 22.8158 41.6197 21.7196C40.962 20.6234 40.3043 19.7465 39.8659 18.6503C41.839 18.8696 43.5928 19.308 45.5659 19.5273C44.9082 21.5004 44.2505 23.2542 43.3736 25.0081ZM30.8773 11.1964C32.1927 12.5118 33.2889 14.0465 34.385 15.5811C31.9735 15.3618 29.5619 15.3618 27.1504 15.5811C28.4658 14.0465 29.7812 12.5118 30.8773 11.1964ZM16.8464 3.74251C18.8195 2.64635 23.4234 4.18098 28.2465 8.56563L29.1235 9.44256C27.1504 11.4157 25.3965 13.608 23.8619 16.0195C21.0119 16.2388 18.3811 16.6772 15.7503 17.3349C15.531 16.6772 15.531 16.0195 15.3118 15.3618C13.9964 9.44256 14.8733 4.83868 16.8464 3.74251ZM13.7772 35.9697C13.3387 35.7505 12.681 35.7505 12.2425 35.5313C9.17328 34.4351 6.76172 33.1197 5.00786 31.8043C3.47323 30.4889 2.81553 29.1735 2.81553 28.0773C2.81553 25.885 6.10402 23.035 11.8041 21.0619C12.4618 20.8427 13.1195 20.6234 13.9964 20.4042C14.6541 23.035 15.531 25.6658 16.8464 28.0773C15.531 30.7081 14.6541 33.3389 13.7772 35.9697ZM28.0273 48.0275C25.6157 50.2199 23.2042 51.5353 21.2311 52.4122C19.258 53.0699 17.9426 53.0699 16.8464 52.6314C14.8733 51.5353 13.9964 47.1506 15.0926 41.4505C15.3118 40.5736 15.531 39.9159 15.531 39.039C18.1618 39.6967 21.0119 40.1351 23.8619 40.1351C25.3965 42.3275 27.1504 44.5198 29.1235 46.7121C28.685 47.1506 28.4658 47.5891 28.0273 48.0275ZM30.8773 44.9583C29.5619 43.6429 28.4658 42.1082 27.1504 40.5736H34.385C33.5081 42.1082 32.1927 43.6429 30.8773 44.9583ZM46.8813 48.6852C46.4428 50.6583 45.7851 51.9737 44.9082 52.4122C42.9351 53.5083 38.7697 51.9737 34.385 48.2468C33.9466 47.8083 33.2889 47.3698 32.8504 46.9314C34.6043 44.9583 36.3581 42.7659 37.8928 40.3544C40.7428 40.1351 43.3736 39.6967 46.2236 39.039C46.4428 39.4774 46.4428 40.1351 46.6621 40.5736C47.3198 43.6429 47.3198 46.4929 46.8813 48.6852ZM49.0736 35.5313C48.6352 35.5313 48.4159 35.7505 47.9775 35.7505C47.1005 33.1197 46.0044 30.4889 44.9082 27.8581C46.0044 25.4466 47.1005 22.8158 47.9775 20.185C48.6352 20.4042 49.2929 20.6234 49.7313 20.8427C55.4314 22.8158 58.9391 25.6658 58.9391 27.8581C58.9391 30.4889 55.2122 33.5582 49.0736 35.5313Z" fill="#1E1E1E"/>
</svg>
