<svg width="71" height="71" viewBox="0 0 71 71" fill="none" xmlns="http://www.w3.org/2000/svg">
<path d="M48.5485 21.2615C46.1955 14.3484 41.1356 9.56909 35.2777 9.56909C27.169 9.56909 20.5949 17.2627 20.5949 28.5576C20.5949 34.2752 25.2193 42.3751 27.9377 46.0845" stroke="#1E1E1E" stroke-width="6.5" stroke-linecap="round" stroke-linejoin="round"/>
<path d="M13.9712 35.8157C9.1305 41.3023 7.4994 48.0489 10.4313 53.0941C14.4856 60.0804 25.4502 61.3694 35.2806 55.7249C40.2586 52.8632 43.6845 45.8975 45.5582 41.6999" stroke="#1E1E1E" stroke-width="6.5" stroke-linecap="round" stroke-linejoin="round"/>
<path d="M44.0879 59.2325C51.4278 59.2325 57.3091 57.9522 60.127 53.094C64.1813 46.1078 59.4985 35.8682 49.6652 30.2237C44.6901 27.362 36.9292 26.6136 32.34 27.0959" stroke="#1E1E1E" stroke-width="6.5" stroke-linecap="round" stroke-linejoin="round"/>
<path d="M30.8725 29.6275C32.2756 30.4342 34.0733 29.9548 34.883 28.5576C35.0755 28.2254 35.2005 27.8585 35.2508 27.4778C35.301 27.0972 35.2756 26.7104 35.1759 26.3396C35.0762 25.9688 34.9043 25.6214 34.6699 25.3173C34.4355 25.0132 34.1434 24.7584 33.8102 24.5676C33.1358 24.179 32.3348 24.0734 31.5827 24.2739C30.8305 24.4744 30.1884 24.9647 29.7968 25.6374C29.6044 25.9698 29.4796 26.3369 29.4296 26.7176C29.3795 27.0984 29.4052 27.4853 29.5052 27.8561C29.6052 28.2268 29.7774 28.5742 30.0121 28.8782C30.2467 29.1822 30.5391 29.4368 30.8725 29.6275V29.6275Z" stroke="#1E1E1E" stroke-width="6.5" stroke-linecap="round" stroke-linejoin="round"/>
<path d="M30.893 46.1079C30.893 46.1079 29.5843 46.1079 27.9699 46.1079C26.3555 46.1079 25.0468 46.1079 25.0468 46.1079C25.0468 46.1079 26.3555 46.1079 27.9699 46.1079C29.5843 46.1079 30.893 46.1079 30.893 46.1079Z" stroke="#1E1E1E" stroke-width="6.5" stroke-linecap="round" stroke-linejoin="round"/>
<path d="M48.4316 41.7231C48.4316 41.7231 47.1229 41.7231 45.5085 41.7231C43.8941 41.7231 42.5854 41.7231 42.5854 41.7231C42.5854 41.7231 43.8941 41.7231 45.5085 41.7231C47.1229 41.7231 48.4316 41.7231 48.4316 41.7231Z" stroke="#1E1E1E" stroke-width="6.5" stroke-linecap="round" stroke-linejoin="round"/>
</svg>
