<svg width="112" height="112" viewBox="0 0 112 112" fill="none" xmlns="http://www.w3.org/2000/svg">
<path d="M14 70V77H30.051L7 100.051L11.949 105L35 81.949V98H42V70H14ZM98 42H77C75.1441 41.9981 73.3646 41.2601 72.0523 39.9477C70.7399 38.6353 70.0019 36.8559 70 35V14C70.0019 12.1441 70.7399 10.3647 72.0523 9.0523C73.3646 7.73995 75.1441 7.00185 77 7H98C99.8559 7.00185 101.635 7.73995 102.948 9.0523C104.26 10.3647 104.998 12.1441 105 14V35C104.998 36.8559 104.26 38.6353 102.948 39.9477C101.635 41.2601 99.8559 41.9981 98 42ZM77 14V35H98V14H77Z" fill="#5B5E71"/>
<path d="M84 91H56V84H84V59.5H28C26.1441 59.4981 24.3647 58.7601 23.0523 57.4477C21.7399 56.1353 21.0019 54.3559 21 52.5V28C21.0019 26.1441 21.7399 24.3647 23.0523 23.0523C24.3647 21.7399 26.1441 21.0019 28 21H63V28H28V52.5H84C85.8559 52.5019 87.6354 53.2399 88.9477 54.5523C90.2601 55.8647 90.9981 57.6441 91 59.5V84C90.9981 85.8559 90.2601 87.6354 88.9477 88.9477C87.6354 90.2601 85.8559 90.9981 84 91Z" fill="#5B5E71"/>
</svg>
