<svg width="112" height="112" viewBox="0 0 112 112" fill="none" xmlns="http://www.w3.org/2000/svg">
<path d="M14 7H7V98C7 99.8565 7.7375 101.637 9.05025 102.95C10.363 104.262 12.1435 105 14 105H105V98H14V7Z" fill="#5B5E71"/>
<path d="M105 31.5H80.5V38.5H93.065L66.5 65.065L51.485 50.015C51.1596 49.687 50.7725 49.4266 50.346 49.2489C49.9195 49.0712 49.462 48.9797 49 48.9797C48.538 48.9797 48.0805 49.0712 47.654 49.2489C47.2275 49.4266 46.8404 49.687 46.515 50.015L21 75.565L25.935 80.5L49 57.435L64.015 72.485C64.3404 72.813 64.7275 73.0734 65.154 73.2511C65.5805 73.4288 66.038 73.5203 66.5 73.5203C66.962 73.5203 67.4195 73.4288 67.846 73.2511C68.2725 73.0734 68.6596 72.813 68.985 72.485L98 43.435V56H105V31.5Z" fill="#5B5E71"/>
</svg>
