<svg width="67" height="71" viewBox="0 0 67 71" fill="none" xmlns="http://www.w3.org/2000/svg">
<path d="M25.125 31.223C25.8654 31.223 26.5754 30.9238 27.099 30.3912C27.6225 29.8586 27.9166 29.1362 27.9166 28.383C27.9166 27.6298 27.6225 26.9074 27.099 26.3748C26.5754 25.8422 25.8654 25.543 25.125 25.543C24.3846 25.543 23.6745 25.8422 23.151 26.3748C22.6274 26.9074 22.3333 27.6298 22.3333 28.383C22.3333 29.1362 22.6274 29.8586 23.151 30.3912C23.6745 30.9238 24.3846 31.223 25.125 31.223ZM39.0833 36.8973C39.0833 37.6505 38.7892 38.3729 38.2656 38.9055C37.7421 39.4381 37.032 39.7373 36.2916 39.7373C35.5512 39.7373 34.8412 39.4381 34.3176 38.9055C33.7941 38.3729 33.5 37.6505 33.5 36.8973C33.5 36.1441 33.7941 35.4217 34.3176 34.8891C34.8412 34.3565 35.5512 34.0573 36.2916 34.0573C37.032 34.0573 37.7421 34.3565 38.2656 34.8891C38.7892 35.4217 39.0833 36.1441 39.0833 36.8973ZM25.125 48.2516C25.8654 48.2516 26.5754 47.9524 27.099 47.4198C27.6225 46.8872 27.9166 46.1648 27.9166 45.4116C27.9166 44.6584 27.6225 43.9361 27.099 43.4034C26.5754 42.8708 25.8654 42.5716 25.125 42.5716C24.3846 42.5716 23.6745 42.8708 23.151 43.4034C22.6274 43.9361 22.3333 44.6584 22.3333 45.4116C22.3333 46.1648 22.6274 46.8872 23.151 47.4198C23.6745 47.9524 24.3846 48.2516 25.125 48.2516ZM13.9583 13.2458C13.9583 8.99715 17.3921 5.28243 21.8308 5.72831C36.284 7.18494 49.6744 14.1035 59.3564 25.117C62.3435 28.5051 61.4139 33.5348 58.0192 36.0368C53.1015 39.6631 48.1853 43.2917 43.2708 46.9225C43.2652 48.1636 43.2652 48.9702 43.268 50.021V51.8073C43.2684 52.5338 43.1122 53.2515 42.8105 53.91C42.5088 54.5684 42.0688 55.1516 41.5216 55.6184C40.9744 56.0851 40.3333 56.4242 39.6433 56.6117C38.9534 56.7992 38.2315 56.8305 37.5284 56.7035C36.9589 59.0493 34.9265 61.0401 32.1014 61.0401C30.1472 61.0401 28.5783 60.0887 27.6096 58.7255L23.9106 61.4406C19.7566 64.4936 13.9444 61.4747 13.9471 56.2576L13.9583 13.2458ZM21.4176 9.96843C19.7175 9.79803 18.1402 11.2266 18.1402 13.2515V14.7283C25.1484 15.0263 32.0118 16.8526 38.2659 20.0835C44.52 23.3144 50.0188 27.8746 54.39 33.4552L55.5597 32.5919C57.1733 31.3991 57.3799 29.2605 56.2353 27.9627C47.2535 17.7428 34.8303 11.3218 21.4204 9.96843H21.4176ZM18.1319 56.2604C18.1319 58.0013 20.0693 59.0096 21.4539 57.9928L27.3946 53.6334C27.7076 53.4044 28.0767 53.2676 28.4612 53.2384C28.8457 53.2091 29.2307 53.2885 29.5737 53.4677C29.9167 53.6468 30.2044 53.9189 30.4051 54.2538C30.6058 54.5888 30.7117 54.9736 30.7111 55.3658C30.7111 56.1326 31.2946 56.7858 32.0986 56.7858C32.2826 56.7877 32.4653 56.7523 32.6358 56.6817C32.8063 56.6111 32.9612 56.5066 33.0917 56.3745C33.2221 56.2423 33.3254 56.0851 33.3955 55.9119C33.4656 55.7387 33.5011 55.5531 33.5 55.3658V51.8016C33.5 51.2367 33.7206 50.6949 34.1132 50.2955C34.5059 49.896 35.0384 49.6716 35.5937 49.6716C36.149 49.6716 36.6816 49.896 37.0742 50.2955C37.4669 50.6949 37.6875 51.2367 37.6875 51.8016C37.6875 52.2021 37.9974 52.5145 38.3798 52.5145C38.5649 52.5145 38.7424 52.4397 38.8733 52.3065C39.0042 52.1734 39.0777 51.9928 39.0777 51.8045V50.038C39.0749 48.7032 39.0721 47.7433 39.0917 45.8092C39.0943 45.4766 39.1734 45.1493 39.3227 44.8534C39.472 44.5575 39.6874 44.3012 39.9515 44.1052C42.4696 42.2422 46.9195 38.9591 50.9954 35.9544C47.015 30.917 42.0265 26.7989 36.3614 23.8737C30.6962 20.9485 24.484 19.2831 18.1374 18.9883V56.2604H18.1319Z" fill="url(#paint0_linear_174_173)"/>
<defs>
<linearGradient id="paint0_linear_174_173" x1="37.5513" y1="5.69189" x2="37.5513" y2="62.6623" gradientUnits="userSpaceOnUse">
<stop stop-color="#C6CED3"/>
<stop offset="1" stop-color="#C6CED3"/>
</linearGradient>
</defs>
</svg>
