<svg width="112" height="112" viewBox="0 0 112 112" fill="none" xmlns="http://www.w3.org/2000/svg">
<path fill-rule="evenodd" clip-rule="evenodd" d="M4.66699 42.0002C4.66699 39.4228 6.75633 37.3335 9.33366 37.3335H39.667C42.2443 37.3335 44.3337 39.4228 44.3337 42.0002V98.0002C44.3337 100.577 42.2443 102.667 39.667 102.667H9.33366C6.75633 102.667 4.66699 100.577 4.66699 98.0002V42.0002ZM14.0003 46.6668V93.3335H35.0003V46.6668H14.0003Z" fill="#5B5E71"/>
<path fill-rule="evenodd" clip-rule="evenodd" d="M35 14.0002C35 11.4228 37.0893 9.3335 39.6667 9.3335H70C72.5773 9.3335 74.6667 11.4228 74.6667 14.0002V98.0002C74.6667 100.577 72.5773 102.667 70 102.667H39.6667C37.0893 102.667 35 100.577 35 98.0002V14.0002ZM44.3333 18.6668V93.3335H65.3333V18.6668H44.3333Z" fill="#5B5E71"/>
<path fill-rule="evenodd" clip-rule="evenodd" d="M65.334 60.6667C65.334 58.0893 67.4233 56 70.0007 56H100.334C102.911 56 105.001 58.0893 105.001 60.6667V98C105.001 100.577 102.911 102.667 100.334 102.667H70.0007C67.4233 102.667 65.334 100.577 65.334 98V60.6667ZM74.6673 65.3333V93.3333H95.6673V65.3333H74.6673Z" fill="#5B5E71"/>
</svg>
