<svg width="23" height="22" viewBox="0 0 23 22" fill="none" xmlns="http://www.w3.org/2000/svg">
<g clipPath="url(#clip0_486_3024)">
<path d="M6.25094 17.126H9.72304V15.0633H6.25094C4.35125 15.0633 2.8127 13.5248 2.8127 11.6251V10.9379C2.8127 9.03823 4.35125 7.49967 6.25094 7.49967H21.7193H22.75V5.43823H6.25094C5.18887 5.43823 4.19702 5.73917 3.35564 6.2608C1.79201 7.23134 0.75 8.96425 0.75 10.9392V11.6263C0.75 14.6646 3.2127 17.1273 6.25094 17.1273V17.126Z" fill="#5B5E71"/>
<path d="M17.2503 8.87646L16.6773 8.87145L12.7337 8.83884L10.671 8.82129V17.126H12.7337V10.884L16.6773 10.9304L17.2503 10.9379C19.1462 10.9379 20.6886 12.4802 20.6886 14.3749V15.0633C20.6886 16.9605 19.15 18.5003 17.2503 18.5003H0.75V20.563H1.78072H17.2491C18.3124 20.563 19.303 20.262 20.1444 19.7404C21.708 18.7699 22.75 17.0395 22.75 15.0645V14.3761C22.75 11.3442 20.2835 8.87772 17.2491 8.87772L17.2503 8.87646Z" fill="#5B5E71"/>
<path d="M1.78072 4.0627H22.75V3.03448V3.03197V3.02947V2H1.78197H0.75V4.0627H1.78072Z" fill="#5B5E71"/>
</g>
<defs>
<clipPath id="clip0_486_3024">
<rect width="22" height="18.563" fill="white" transform="translate(0.75 2)"/>
</clipPath>
</defs>
</svg>
