<svg width="180" height="64" viewBox="0 0 180 64" fill="none" xmlns="http://www.w3.org/2000/svg">
<path d="M48.9508 12.4095C48.9288 12.2724 48.8618 12.1464 48.7604 12.0515C48.659 11.9566 48.5289 11.898 48.3906 11.8851C48.1668 11.8493 43.2535 11.5092 43.2535 11.5092L39.5072 7.7629C39.1707 7.38702 38.4225 7.498 38.1397 7.57675C38.1039 7.57675 37.3915 7.80049 36.2298 8.17816C35.0986 4.90976 33.0975 1.90985 29.5749 1.90985H29.2742C28.2629 0.603205 27.0278 0 25.9807 0C17.7757 0.0357985 13.863 10.2706 12.6279 15.5007L6.89299 17.2602C5.1335 17.8205 5.06727 17.8617 4.83458 19.5388L0 56.8283L36.2424 63.6121L55.885 59.3772C55.885 59.3414 48.9884 12.7675 48.9526 12.4131L48.9508 12.4095ZM34.2197 8.80822C33.3069 9.10893 32.2508 9.40963 31.1482 9.74793V9.07313C31.184 7.38702 30.9281 5.70807 30.4001 4.1043C32.2365 4.38711 33.4716 6.4491 34.2197 8.80822ZM28.1877 4.53746C28.7873 6.30411 29.0827 8.16564 29.0075 10.0325V10.369L22.6712 12.338C23.9116 7.70742 26.1973 5.4181 28.1841 4.55715L28.1877 4.53746ZM25.7534 2.25888C26.1293 2.26783 26.4927 2.38418 26.8023 2.59539C24.1586 3.82686 21.3645 6.93417 20.1653 13.1559L15.1535 14.6917C16.5675 9.96988 19.8664 2.24815 25.7498 2.24815L25.7534 2.25888Z" fill="#95BF47"/>
<path d="M48.3924 11.8833C48.1686 11.8475 43.2553 11.5074 43.2553 11.5074L39.509 7.76109C39.3711 7.6179 39.1832 7.53914 38.9845 7.53735L36.2495 63.6049L55.8921 59.3699L48.9544 12.4417C48.9079 12.1554 48.6823 11.9262 48.3942 11.8815L48.3924 11.8833Z" fill="#5E8E3E"/>
<path d="M29.5739 22.7519L27.136 29.9474C25.6629 29.2314 24.0502 28.8501 22.4142 28.8197C18.5892 28.8197 18.4048 31.2182 18.4048 31.8196C18.4048 35.0952 26.9875 36.3553 26.9875 44.077C26.9875 50.1484 23.1266 54.0469 17.9537 54.0469C11.732 54.0469 8.5459 50.186 8.5459 50.186L10.1998 44.6731C10.1998 44.6731 13.4574 47.4832 16.2354 47.4832C16.5674 47.4964 16.8987 47.4418 17.209 47.323C17.5193 47.2042 17.8023 47.0236 18.0407 46.7921C18.279 46.5605 18.4679 46.283 18.5957 45.9763C18.7235 45.6696 18.7877 45.3401 18.7843 45.0078C18.7843 40.6941 11.7373 40.5079 11.7373 33.4628C11.7373 27.5381 16.0081 21.7656 24.5926 21.7656C27.9666 21.8157 29.5793 22.7501 29.5793 22.7501L29.5739 22.7519Z" fill="white"/>
<path d="M72.9391 33.4702C71.5376 32.7185 70.8127 32.0687 70.8127 31.1791C70.8127 30.0515 71.7971 29.323 73.3955 29.323C74.582 29.3487 75.7522 29.6046 76.8411 30.0766L78.1335 26.1495C78.1335 26.1495 76.9485 25.233 73.4761 25.233C68.6325 25.233 65.2675 28.0074 65.2675 31.9059C65.2675 34.111 66.8283 35.8079 68.9261 37.0179C70.6211 38.0023 71.2172 38.6539 71.2172 39.6813C71.2172 40.7087 70.3831 41.5661 68.7954 41.5661C66.456 41.5661 64.249 40.3561 64.249 40.3561L62.8779 44.2832C62.8779 44.2832 64.9238 45.6543 68.3408 45.6543C73.3168 45.6543 76.8966 43.2056 76.8966 38.781C76.9235 36.386 75.1192 34.7178 72.9588 33.4524L72.9391 33.4702ZM92.7965 25.2098C90.3479 25.2098 88.4112 26.3678 86.9291 28.156L86.8468 28.1291L88.9732 17.0029H83.4334L78.0511 45.3375H83.5945L85.4507 35.6504C86.1774 31.9918 88.0693 29.7293 89.836 29.7293C91.071 29.7293 91.5579 30.5634 91.5579 31.7752C91.5579 32.5986 91.4756 33.4166 91.3163 34.2238L89.2185 45.3106H94.7619L96.942 33.8551C97.18 32.6684 97.3179 31.4637 97.3447 30.2573C97.3179 27.1357 95.6765 25.2527 92.7983 25.2527L92.7965 25.2098ZM109.854 25.2098C103.182 25.2098 98.7677 31.2382 98.7677 37.9182C98.7677 42.2248 101.431 45.6686 106.411 45.6686C112.956 45.6686 117.39 39.8012 117.39 32.9601C117.39 28.9775 115.051 25.2098 109.863 25.2098H109.854ZM107.134 41.4354C105.249 41.4354 104.444 39.8245 104.444 37.8377C104.444 34.6623 106.08 29.4698 109.101 29.4698C111.064 29.4698 111.72 31.1648 111.72 32.808C111.712 36.2178 110.073 41.4354 107.137 41.4354H107.134ZM131.566 25.2098C127.807 25.2098 125.699 28.4817 125.699 28.4817H125.617L125.944 25.5355H121.034L119.907 32.8832L116.058 53.1737H121.577L123.112 44.9651H123.22C123.22 44.9651 124.348 45.6919 126.478 45.6919C132.989 45.6919 137.24 39.019 137.24 32.2746C137.267 28.5605 135.604 25.2259 131.563 25.2259L131.566 25.2098ZM126.265 41.516C125.428 41.5326 124.614 41.2451 123.973 40.7069L124.89 35.5126C125.545 32.0669 127.338 29.7526 129.275 29.7526C130.97 29.7526 131.48 31.3134 131.48 32.7954C131.489 36.4057 129.368 41.5177 126.272 41.5177L126.265 41.516ZM145.184 17.2446C144.336 17.2392 143.519 17.5757 142.923 18.1789C142.327 18.7821 141.996 19.6001 142.028 20.4486C142.028 22.0845 143.079 23.2229 144.647 23.2229H144.729C145.157 23.2399 145.584 23.1691 145.983 23.0148C146.382 22.8604 146.746 22.6259 147.051 22.3257C147.356 22.0254 147.596 21.6659 147.757 21.2691C147.918 20.8724 147.995 20.4469 147.985 20.019C147.985 18.408 146.908 17.2446 145.211 17.2446H145.184ZM137.441 45.2838H142.984L146.75 25.6483H141.187M160.876 25.6214H157.005L157.194 24.705C157.522 22.8202 158.648 21.1251 160.466 21.1251C161.069 21.1254 161.668 21.2159 162.244 21.3936L163.314 17.0566C163.314 17.0566 162.33 16.5734 160.3 16.5734C158.325 16.5242 156.397 17.1825 154.864 18.4295C152.979 20.0404 152.09 22.3566 151.642 24.6996L151.463 25.6161H148.88L148.071 29.7866H150.654L147.708 45.2873H153.271L156.217 29.7866H160.04L160.792 25.6161L160.876 25.6214ZM174.226 25.6483L169.192 39.1568H169.11L167.739 25.6483H161.897L165.235 43.6764C165.315 43.9845 165.277 44.3116 165.127 44.5928C164.402 45.9299 163.37 47.0737 162.113 47.931C161.15 48.5933 160.099 49.1196 158.992 49.4919L160.527 54.1994C162.558 53.6558 164.422 52.6171 165.953 51.1762C168.482 48.8063 170.821 45.1477 173.22 40.1681L180 25.6375H174.224L174.226 25.6483Z" fill="black"/>
</svg>
