<svg width="83" height="146" viewBox="0 0 83 146" fill="none" xmlns="http://www.w3.org/2000/svg">
<path d="M61.3984 0.542969H64.5234V22.0273H63.1562C56.5156 22.0273 50.819 23.1992 46.0664 25.543C41.3789 27.8867 37.5378 31.1745 34.543 35.4062C31.5482 39.638 29.3346 44.6836 27.9023 50.543C26.5352 56.3372 25.8516 62.6849 25.8516 69.5859V92.8281C25.8516 98.1016 26.2422 102.757 27.0234 106.793C27.8698 110.829 29.0091 114.182 30.4414 116.852C31.9388 119.521 33.6315 121.539 35.5195 122.906C37.4727 124.208 39.5885 124.859 41.8672 124.859C44.3411 124.859 46.5872 124.208 48.6055 122.906C50.6237 121.539 52.3164 119.618 53.6836 117.145C55.1159 114.671 56.1901 111.773 56.9062 108.453C57.6875 105.133 58.0781 101.52 58.0781 97.6133C58.0781 93.707 57.6875 90.0938 56.9062 86.7734C56.1901 83.4531 55.1484 80.556 53.7812 78.082C52.4141 75.6081 50.7214 73.6875 48.7031 72.3203C46.6849 70.888 44.4062 70.1719 41.8672 70.1719C38.3516 70.1719 35.2917 71.2135 32.6875 73.2969C30.1484 75.3802 28.1628 78.082 26.7305 81.4023C25.2982 84.7227 24.4844 88.2057 24.2891 91.8516L15.9883 87.2617C16.3789 81.793 17.4206 76.7799 19.1133 72.2227C20.8711 67.6654 23.1823 63.6615 26.0469 60.2109C28.9115 56.6953 32.2643 53.9935 36.1055 52.1055C40.0117 50.2174 44.3086 49.2734 48.9961 49.2734C54.7253 49.2734 59.7383 50.5755 64.0352 53.1797C68.332 55.7188 71.8802 59.2018 74.6797 63.6289C77.4792 68.056 79.5625 73.1667 80.9297 78.9609C82.2969 84.6901 82.9805 90.7773 82.9805 97.2227C82.9805 104.059 82.0365 110.439 80.1484 116.363C78.3255 122.288 75.6562 127.464 72.1406 131.891C68.6901 136.318 64.4258 139.768 59.3477 142.242C54.3346 144.716 48.6706 145.953 42.3555 145.953C35.8451 145.953 30.0182 144.553 24.875 141.754C19.7318 138.889 15.3372 134.918 11.6914 129.84C8.11068 124.762 5.3763 118.837 3.48828 112.066C1.66536 105.23 0.753906 97.8086 0.753906 89.8008V79.4492C0.753906 68.3164 1.95833 57.9648 4.36719 48.3945C6.77604 38.8242 10.4544 30.4583 15.4023 23.2969C20.3503 16.1354 26.6328 10.569 34.25 6.59766C41.8672 2.5612 50.9167 0.542969 61.3984 0.542969Z" fill="url(#paint0_linear_1404_527)"/>
<defs>
<linearGradient id="paint0_linear_1404_527" x1="40.5" y1="1" x2="40.5" y2="138.127" gradientUnits="userSpaceOnUse">
<stop stop-color="#5B5E71" stop-opacity="0.28"/>
<stop offset="1" stop-color="#5B5E71" stop-opacity="0.01"/>
</linearGradient>
</defs>
</svg>
