<svg width="55" height="55" viewBox="0 0 55 55" fill="none" xmlns="http://www.w3.org/2000/svg">
<path d="M27.5 0.416748C12.55 0.416748 0.416664 12.5501 0.416664 27.5001C0.416664 42.4501 12.55 54.5834 27.5 54.5834C42.45 54.5834 54.5833 42.4501 54.5833 27.5001C54.5833 12.5501 42.45 0.416748 27.5 0.416748ZM30.2083 9.35425L33.8646 6.78133C38.7638 8.29949 42.9666 11.5044 45.7271 15.8272L44.6708 19.4563L41.0146 20.7022L30.2083 13.1459V9.35425ZM21.1354 6.78133L24.7917 9.35425V13.1459L13.9854 20.7022L10.3292 19.4563L9.27291 15.8272C12.0495 11.5192 16.2463 8.31891 21.1354 6.78133ZM14.175 41.3397L11.0875 41.6105C7.69245 37.6942 5.82655 32.6831 5.83333 27.5001C5.83333 27.1751 5.86041 26.8772 5.8875 26.5522L8.59583 24.5751L12.3333 25.8751L16.2875 37.6292L14.175 41.3397ZM34.2708 48.0563C32.1312 48.7605 29.8562 49.1668 27.5 49.1668C25.1437 49.1668 22.8687 48.7605 20.7292 48.0563L18.8604 44.0209L20.5937 41.0418H34.4333L36.1667 44.048L34.2708 48.0563ZM33.6479 35.6251H21.3521L17.6958 24.7376L27.5 17.8584L37.3312 24.7376L33.6479 35.6251ZM43.9125 41.6105L40.825 41.3397L38.6854 37.6292L42.6396 25.8751L46.4042 24.6022L49.1125 26.5792C49.1396 26.8772 49.1667 27.1751 49.1667 27.5001C49.1667 32.8897 47.1896 37.8188 43.9125 41.6105Z" fill="url(#paint0_linear_174_185)"/>
<defs>
<linearGradient id="paint0_linear_174_185" x1="27.5" y1="0.416748" x2="27.5" y2="54.5834" gradientUnits="userSpaceOnUse">
<stop stop-color="#C6CED3"/>
<stop offset="1" stop-color="#C6CED3"/>
</linearGradient>
</defs>
</svg>
