<svg width="180" height="27" viewBox="0 0 180 27" fill="none" xmlns="http://www.w3.org/2000/svg">
<path fill-rule="evenodd" clip-rule="evenodd" d="M6.6806 13.7925L16.7703 3.58059C17.4558 2.88678 18.3679 2.50528 19.3402 2.50528C20.3117 2.50528 21.2238 2.88642 21.9086 3.58023L22.6947 4.37585L24.2673 2.78425L23.4812 1.98863C22.3768 0.870925 20.9063 0.255371 19.3395 0.255371C17.7734 0.255733 16.3025 0.871287 15.1981 1.98936L5.1084 12.2009L6.6806 13.7925Z" fill="black"/>
<path fill-rule="evenodd" clip-rule="evenodd" d="M20.1807 6.97269L18.6007 5.38345L8.46359 15.5802C7.04004 17.0121 4.72381 17.0124 3.30063 15.5809C1.87708 14.1491 1.87708 11.8189 3.30063 10.3871L12.048 1.58888L10.468 0L1.72099 8.79817C-0.573662 11.1062 -0.573662 14.8621 1.72099 17.1698C2.83055 18.2859 4.30804 18.9009 5.88157 18.9009C7.45545 18.9009 8.93367 18.2855 10.0432 17.1695L20.1807 6.97269Z" fill="black"/>
<path fill-rule="evenodd" clip-rule="evenodd" d="M30.2104 8.88234C29.1012 7.76626 27.6237 7.15161 26.0494 7.15161C24.4755 7.15197 22.9973 7.76663 21.8878 8.88306L11.751 19.0797L13.3303 20.6689L23.4678 10.472C24.8917 9.04007 27.2076 9.04043 28.6307 10.4716C29.3191 11.164 29.6982 12.0858 29.6982 13.0681C29.6982 14.0506 29.3191 14.9728 28.6307 15.6652L19.8837 24.4636L21.4637 26.0525L30.2104 17.2545C32.5054 14.9464 32.5054 11.1905 30.2104 8.88234Z" fill="black"/>
<path fill-rule="evenodd" clip-rule="evenodd" d="M25.2503 12.26L15.1607 22.4719C13.7436 23.9055 11.4386 23.9063 10.0222 22.4723L9.2361 21.6766L7.66357 23.2682L8.44966 24.0639C9.55397 25.1816 11.0245 25.7971 12.5916 25.7971C14.1577 25.7968 15.6282 25.1812 16.7329 24.0631L26.8225 13.8516L25.2503 12.26Z" fill="black"/>
<path fill-rule="evenodd" clip-rule="evenodd" d="M41.249 15.6854C41.3791 16.337 41.6841 16.8471 42.1632 17.2147C42.642 17.583 43.272 17.7668 44.0532 17.7668C44.822 17.7668 45.4162 17.5859 45.8363 17.2238C46.2565 16.8621 46.4663 16.3855 46.4663 15.7941C46.4663 15.5046 46.4102 15.2602 46.2979 15.0612C46.1853 14.8621 46.0287 14.6932 45.8278 14.5543C45.6261 14.4161 45.378 14.298 45.0823 14.2017C44.7866 14.1051 44.4551 14.0026 44.0883 13.894L43.1304 13.6227C42.5622 13.4659 42.0534 13.2759 41.604 13.0524C41.1542 12.8292 40.7698 12.5667 40.4505 12.2651C40.1313 11.9636 39.8885 11.6168 39.7229 11.2245C39.5574 10.8325 39.4744 10.3767 39.4744 9.85817C39.4744 9.31522 39.581 8.81458 39.7941 8.35586C40.0068 7.89788 40.3086 7.50517 40.699 7.17955C41.0895 6.85393 41.5625 6.59759 42.1189 6.41017C42.6745 6.22384 43.3013 6.13013 43.9996 6.13013C45.3129 6.13013 46.3537 6.44663 47.1232 7.08C47.8919 7.71374 48.3413 8.56116 48.4718 9.62298L46.3423 9.80383C46.2118 9.26089 45.9518 8.83864 45.5614 8.53709C45.1709 8.23553 44.6267 8.08458 43.9288 8.08458C43.2781 8.08458 42.7693 8.23845 42.4028 8.5462C42.0356 8.85396 41.8521 9.24922 41.8521 9.73164C41.8521 10.0091 41.9058 10.241 42.0123 10.4281C42.1189 10.6155 42.2723 10.7781 42.4736 10.9167C42.6745 11.0556 42.9201 11.1792 43.2098 11.2875C43.4997 11.3962 43.828 11.5114 44.1948 11.6318L45.1001 11.9213C45.6676 12.1021 46.1796 12.2921 46.6348 12.4912C47.0903 12.6903 47.4779 12.9288 47.7971 13.2063C48.1168 13.4837 48.3624 13.8156 48.5337 14.2017C48.7053 14.5879 48.7911 15.0644 48.7911 15.6314C48.7911 16.2349 48.6728 16.787 48.4364 17.2873C48.1994 17.7883 47.8687 18.2134 47.4425 18.5631C47.0166 18.9132 46.511 19.1848 45.925 19.3774C45.3393 19.5702 44.6918 19.6672 43.9821 19.6672C42.6688 19.6672 41.5743 19.3537 40.699 18.7261C39.8234 18.0986 39.2853 17.1516 39.084 15.8845L41.249 15.6854Z" fill="black"/>
<path fill-rule="evenodd" clip-rule="evenodd" d="M57.9523 8.33094C57.3139 8.33094 56.7431 8.45108 56.2406 8.69063C55.7377 8.93054 55.312 9.26301 54.9635 9.68839C54.6143 10.1141 54.348 10.6179 54.1647 11.1987C53.9817 11.7805 53.8902 12.4127 53.8902 13.0958C53.8902 13.7793 53.9845 14.4144 54.174 15.0021C54.3627 15.5893 54.6322 16.0985 54.981 16.5305C55.3295 16.9617 55.7556 17.3003 56.2585 17.5464C56.7606 17.7917 57.3314 17.9144 57.9702 17.9144C58.6089 17.9144 59.1793 17.7979 59.6822 17.5642C60.1844 17.3304 60.6105 17.0038 60.9593 16.5838C61.3082 16.1646 61.5773 15.6579 61.7664 15.0649C61.9554 14.4714 62.0502 13.821 62.0502 13.114C62.0502 12.4185 61.9554 11.7772 61.7664 11.1899C61.5773 10.603 61.3082 10.0993 60.9593 9.67968C60.6105 9.26047 60.1815 8.93054 59.6729 8.69063C59.1647 8.45108 58.591 8.33094 57.9523 8.33094ZM57.9702 6.3855C58.9281 6.3855 59.8034 6.55064 60.5958 6.88093C61.3879 7.21122 62.062 7.67326 62.6181 8.26779C63.1736 8.86267 63.605 9.57406 63.9131 10.4027C64.2205 11.2313 64.3741 12.138 64.3741 13.1227C64.3741 14.144 64.2115 15.0656 63.8866 15.888C63.5606 16.7109 63.0971 17.4222 62.4937 18.0226L64.1969 20.0584V20.6888H62.0327L60.8439 19.212C60.43 19.404 59.986 19.5539 59.5135 19.662C59.0403 19.7702 58.5317 19.8243 57.988 19.8243C57.0062 19.8243 56.1223 19.6588 55.3359 19.3289C54.5492 18.9986 53.8809 18.5362 53.3311 17.9416C52.7811 17.3471 52.3554 16.639 52.0541 15.8158C51.7524 14.9933 51.6016 14.0958 51.6016 13.1227C51.6016 12.138 51.7524 11.2346 52.0541 10.4114C52.3554 9.58931 52.7839 8.88045 53.3401 8.28593C53.8955 7.69141 54.5668 7.2261 55.3535 6.88964C56.1401 6.55391 57.0123 6.3855 57.9702 6.3855Z" fill="black"/>
<path fill-rule="evenodd" clip-rule="evenodd" d="M73.0592 17.8034C73.9668 17.8034 74.6738 17.5172 75.1806 16.9441C75.6871 16.3709 75.9407 15.4934 75.9407 14.311V6.3855H78.1683V14.3653C78.1683 15.3063 78.0504 16.1113 77.8146 16.7811C77.5784 17.4505 77.2429 17.9996 76.8069 18.4279C76.371 18.8563 75.8346 19.1699 75.1984 19.369C74.5619 19.568 73.8489 19.6672 73.0592 19.6672C72.2575 19.6672 71.5416 19.568 70.9115 19.369C70.2807 19.1699 69.7475 18.8563 69.3115 18.4279C68.8756 17.9996 68.5397 17.4505 68.3035 16.7811C68.0677 16.1113 67.9502 15.3063 67.9502 14.3653V6.3855H70.1777V14.311C70.1777 15.4934 70.431 16.3709 70.9378 16.9441C71.4447 17.5172 72.1517 17.8034 73.0592 17.8034Z" fill="black"/>
<path fill-rule="evenodd" clip-rule="evenodd" d="M84.5499 13.8445H88.8123L88.1108 11.8168C87.8347 11.0227 87.6133 10.3762 87.4455 9.87838C87.2774 9.38025 87.1273 8.9416 86.9958 8.56209H86.4385C86.3664 8.76349 86.2943 8.96526 86.2225 9.16666C86.1504 9.36842 86.0696 9.59384 85.9798 9.84255C85.8895 10.0916 85.791 10.3762 85.683 10.6965C85.575 11.0162 85.4431 11.39 85.2873 11.8168L84.5499 13.8445ZM80.4673 18.7893L85.0536 6.64087H88.4528L92.9844 18.7893V19.4117H90.7545L89.4598 15.7653H83.8665L82.5718 19.4117H80.4673V18.7893Z" fill="black"/>
<path fill-rule="evenodd" clip-rule="evenodd" d="M98.0029 12.4749H99.9444C100.8 12.4749 101.473 12.319 101.966 12.008C102.459 11.6965 102.706 11.1884 102.706 10.4827C102.706 9.76594 102.456 9.26672 101.957 8.98467C101.459 8.70299 100.788 8.56179 99.9444 8.56179H98.0029V12.4749ZM105.502 19.4117H103.346L99.4456 14.3959H98.0029V19.4117H95.7944V6.64087H99.9444C100.597 6.64087 101.218 6.68531 101.806 6.77419C102.393 6.86306 102.925 7.0677 103.4 7.38773C104.409 8.05145 104.914 9.05348 104.914 10.3927C104.914 10.974 104.828 11.4808 104.655 11.9137C104.483 12.3463 104.255 12.7136 103.97 13.0161C103.685 13.3186 103.355 13.5644 102.982 13.7536C102.607 13.9436 102.218 14.0859 101.815 14.1805L105.502 18.7889V19.4117Z" fill="black"/>
<path fill-rule="evenodd" clip-rule="evenodd" d="M108.312 6.64087H116.617V8.59721H110.509V11.9412H116.188V13.862H110.509V17.455H116.742V19.4117H108.312V6.64087Z" fill="black"/>
<path fill-rule="evenodd" clip-rule="evenodd" d="M121.717 15.6854C121.847 16.337 122.152 16.8471 122.631 17.2147C123.11 17.583 123.74 17.7668 124.521 17.7668C125.29 17.7668 125.884 17.5859 126.304 17.2238C126.724 16.8621 126.934 16.3855 126.934 15.7941C126.934 15.5046 126.878 15.2602 126.765 15.0612C126.653 14.8621 126.496 14.6932 126.295 14.5543C126.094 14.4161 125.846 14.298 125.55 14.2017C125.254 14.1051 124.923 14.0026 124.556 13.894L123.598 13.6227C123.03 13.4659 122.521 13.2759 122.072 13.0524C121.622 12.8292 121.238 12.5667 120.919 12.2651C120.599 11.9636 120.356 11.6168 120.191 11.2245C120.025 10.8325 119.942 10.3767 119.942 9.85817C119.942 9.31522 120.049 8.81458 120.262 8.35586C120.475 7.89788 120.776 7.50517 121.167 7.17955C121.557 6.85393 122.03 6.59759 122.587 6.41017C123.142 6.22384 123.769 6.13013 124.467 6.13013C125.78 6.13013 126.821 6.44663 127.591 7.08C128.359 7.71374 128.809 8.56116 128.939 9.62298L126.81 9.80383C126.68 9.26089 126.419 8.83864 126.029 8.53709C125.639 8.23553 125.094 8.08458 124.396 8.08458C123.746 8.08458 123.237 8.23845 122.87 8.5462C122.504 8.85396 122.32 9.24922 122.32 9.73164C122.32 10.0091 122.373 10.241 122.48 10.4281C122.587 10.6155 122.74 10.7781 122.941 10.9167C123.142 11.0556 123.388 11.1792 123.678 11.2875C123.968 11.3962 124.296 11.5114 124.662 11.6318L125.568 11.9213C126.135 12.1021 126.647 12.2921 127.103 12.4912C127.558 12.6903 127.946 12.9288 128.265 13.2063C128.584 13.4837 128.83 13.8156 129.001 14.2017C129.173 14.5879 129.259 15.0644 129.259 15.6314C129.259 16.2349 129.141 16.787 128.904 17.2873C128.667 17.7883 128.336 18.2134 127.91 18.5631C127.484 18.9132 126.979 19.1848 126.393 19.3774C125.807 19.5702 125.159 19.6672 124.45 19.6672C123.137 19.6672 122.042 19.3537 121.167 18.7261C120.291 18.0986 119.753 17.1516 119.552 15.8845L121.717 15.6854Z" fill="black"/>
<path fill-rule="evenodd" clip-rule="evenodd" d="M134.843 12.5816H137.016C137.414 12.5816 137.779 12.5493 138.111 12.4845C138.443 12.4199 138.733 12.3114 138.98 12.1583C139.228 12.0057 139.421 11.8 139.56 11.5412C139.699 11.2828 139.768 10.9653 139.768 10.589C139.768 10.2013 139.699 9.87552 139.56 9.61104C139.421 9.34656 139.231 9.13799 138.989 8.98497C138.748 8.83194 138.461 8.72336 138.13 8.65885C137.797 8.59434 137.438 8.56173 137.052 8.56173H134.843V12.5816ZM132.58 6.64087H137.324C138.205 6.64087 138.944 6.74157 139.542 6.94333C140.139 7.14474 140.622 7.42319 140.99 7.77941C141.358 8.13491 141.624 8.55277 141.787 9.03335C141.95 9.5132 142.031 10.0321 142.031 10.5894C142.031 11.2538 141.92 11.8315 141.696 12.3235C141.473 12.8156 141.15 13.2216 140.728 13.542C140.305 13.862 139.792 14.1021 139.189 14.2623C138.585 14.4225 137.903 14.5024 137.143 14.5024H134.843V19.4117H132.58V6.64087Z" fill="black"/>
<path fill-rule="evenodd" clip-rule="evenodd" d="M146.625 13.8445H150.887L150.185 11.8168C149.909 11.0227 149.688 10.3762 149.52 9.87838C149.352 9.38025 149.202 8.9416 149.071 8.56209H148.513C148.441 8.76349 148.369 8.96526 148.297 9.16666C148.225 9.36842 148.144 9.59384 148.054 9.84255C147.964 10.0916 147.866 10.3762 147.758 10.6965C147.65 11.0162 147.518 11.39 147.362 11.8168L146.625 13.8445ZM142.542 18.7893L147.128 6.64087H150.527L155.059 18.7893V19.4117H152.829L151.535 15.7653H145.941L144.646 19.4117H142.542V18.7893Z" fill="black"/>
<path fill-rule="evenodd" clip-rule="evenodd" d="M168.598 16.0352C168.395 16.5338 168.129 17.003 167.801 17.4432C167.472 17.8833 167.075 18.2689 166.609 18.5982C166.143 18.9275 165.602 19.188 164.987 19.3795C164.372 19.5711 163.688 19.6672 162.935 19.6672C161.979 19.6672 161.11 19.5008 160.328 19.1682C159.546 18.8364 158.878 18.3762 158.325 17.789C157.771 17.201 157.344 16.5012 157.043 15.688C156.742 14.8752 156.592 13.9938 156.592 13.0439C156.592 12.0948 156.742 11.2134 157.043 10.4002C157.344 9.58737 157.774 8.88393 158.333 8.29026C158.892 7.69731 159.564 7.23098 160.346 6.89308C161.128 6.55445 162.003 6.3855 162.971 6.3855C164.381 6.3855 165.561 6.71229 166.51 7.36478C167.46 8.01728 168.132 8.88393 168.527 9.96402L166.251 10.4088C165.94 9.75632 165.507 9.24265 164.951 8.86887C164.396 8.49509 163.724 8.3082 162.935 8.3082C162.302 8.3082 161.738 8.42944 161.242 8.67193C160.746 8.91442 160.328 9.24838 159.988 9.67418C159.647 10.0996 159.387 10.6022 159.208 11.1818C159.029 11.7612 158.939 12.3817 158.939 13.0439C158.939 13.7179 159.032 14.3417 159.217 14.9153C159.402 15.4893 159.671 15.9854 160.023 16.4054C160.376 16.8251 160.803 17.153 161.305 17.3894C161.806 17.6261 162.38 17.7445 163.025 17.7445C163.861 17.7445 164.551 17.5425 165.095 17.139C165.638 16.7354 166.059 16.2429 166.358 15.6611L168.598 16.0352Z" fill="black"/>
<mask id="mask0_1988_2376" style="mask-type:alpha" maskUnits="userSpaceOnUse" x="171" y="6" width="9" height="14">
<path d="M171.522 6.48657H180V19.3811H171.522V6.48657Z" fill="black"/>
</mask>
<g mask="url(#mask0_1988_2376)">
<path fill-rule="evenodd" clip-rule="evenodd" d="M171.522 6.48657H179.875V8.46186H173.732V11.8382H179.444V13.7777H173.732V17.4055H180V19.3811H171.522V6.48657Z" fill="black"/>
</g>
</svg>
