<svg width="13" height="13" viewBox="0 0 13 13" fill="none" xmlns="http://www.w3.org/2000/svg">
<path d="M5.59652 0.927052C5.89587 0.00574088 7.19928 0.00574088 7.49863 0.927052L8.32232 3.46212C8.4562 3.87414 8.84015 4.1531 9.27338 4.1531H11.9389C12.9076 4.1531 13.3104 5.39272 12.5267 5.96212L10.3702 7.52888C10.0197 7.78353 9.87309 8.23489 10.007 8.64692L10.8307 11.182C11.13 12.1033 10.0755 12.8694 9.29182 12.3L7.13536 10.7333C6.78487 10.4786 6.31027 10.4786 5.95979 10.7333L3.80333 12.3C3.01961 12.8694 1.96513 12.1033 2.26449 11.182L3.08818 8.64692C3.22205 8.23489 3.0754 7.78353 2.72491 7.52888L0.568449 5.96212C-0.215265 5.39272 0.18751 4.1531 1.15623 4.1531H3.82176C4.25499 4.1531 4.63895 3.87414 4.77282 3.46212L5.59652 0.927052Z" fill="#5B5E71"/>
</svg>
