<svg width="112" height="112" viewBox="0 0 112 112" fill="none" xmlns="http://www.w3.org/2000/svg">
<path d="M98.3502 66.1502L45.8502 13.6502C37.1002 4.55016 22.7502 4.55015 13.6502 13.3002C4.5502 22.0502 4.5502 36.7502 13.6502 45.5002L14.0002 45.8502L23.8002 56.0002L28.7002 51.1002L18.5502 40.9502C12.6002 35.0002 12.6002 24.8502 18.5502 18.9002C24.5002 12.9502 34.6502 12.6002 40.6002 18.5502L40.9502 18.9002L93.1002 71.0501C99.4002 77.0002 99.4002 87.1502 93.4502 93.1002C87.5002 99.4002 77.3502 99.4002 71.4002 93.4502L71.0502 93.1002L45.1502 67.2002C41.6502 63.7002 42.0002 58.1002 45.1502 54.9502C48.6502 51.8002 53.9002 51.8002 57.4002 54.9502L71.7502 69.3001L76.6502 64.4002L61.9502 49.7002C55.6502 43.7502 45.8502 44.1002 39.9002 50.4002C34.3002 56.3502 34.3002 65.8002 39.9002 72.1002L66.1502 98.3502C74.9002 107.45 89.2502 107.45 98.3502 98.7002C107.45 89.9502 107.45 75.2502 98.3502 66.1502C98.3502 66.1502 98.3502 66.5002 98.3502 66.1502Z" fill="#5B5E71"/>
</svg>
