<svg width="84" height="147" viewBox="0 0 84 147" fill="none" xmlns="http://www.w3.org/2000/svg">
<path d="M26.9961 62.1875H39.7891C43.5651 62.1875 46.6901 61.3411 49.1641 59.6484C51.638 57.8906 53.4609 55.4818 54.6328 52.4219C55.8047 49.2969 56.3906 45.6836 56.3906 41.582C56.3906 37.5456 55.8372 34.0625 54.7305 31.1328C53.6237 28.138 51.9635 25.8268 49.75 24.1992C47.6016 22.5716 44.8346 21.7578 41.4492 21.7578C38.7799 21.7578 36.306 22.5065 34.0273 24.0039C31.7487 25.4362 29.9583 27.487 28.6562 30.1562C27.3542 32.8255 26.7031 35.9831 26.7031 39.6289H1.60547C1.60547 31.9466 3.33073 25.2083 6.78125 19.4141C10.2318 13.5547 14.9193 8.9974 20.8438 5.74219C26.7682 2.42188 33.4414 0.761719 40.8633 0.761719C48.8711 0.761719 55.9023 2.29167 61.957 5.35156C68.0768 8.41146 72.8294 12.9688 76.2148 19.0234C79.6654 25.013 81.3906 32.4349 81.3906 41.2891C81.3906 45.5859 80.5768 49.8503 78.9492 54.082C77.3216 58.2487 74.9128 62.0247 71.7227 65.4102C68.5977 68.7956 64.6914 71.4974 60.0039 73.5156C55.3815 75.5339 50.0104 76.543 43.8906 76.543H26.9961V62.1875ZM26.9961 82.6953V68.6328H43.8906C50.8568 68.6328 56.8138 69.5443 61.7617 71.3672C66.7747 73.1901 70.8438 75.7617 73.9688 79.082C77.1589 82.4023 79.4701 86.276 80.9023 90.7031C82.3997 95.1302 83.1484 99.9479 83.1484 105.156C83.1484 111.797 82.0742 117.721 79.9258 122.93C77.8424 128.073 74.8477 132.435 70.9414 136.016C67.1003 139.596 62.6081 142.331 57.4648 144.219C52.3867 146.042 46.8529 146.953 40.8633 146.953C35.6549 146.953 30.6094 146.139 25.7266 144.512C20.9089 142.819 16.5794 140.312 12.7383 136.992C8.96224 133.607 5.96745 129.375 3.75391 124.297C1.60547 119.154 0.53125 113.164 0.53125 106.328H25.5312C25.5312 110.169 26.1823 113.587 27.4844 116.582C28.8516 119.512 30.707 121.823 33.0508 123.516C35.4596 125.208 38.2266 126.055 41.3516 126.055C44.8021 126.055 47.7643 125.208 50.2383 123.516C52.7773 121.823 54.6979 119.414 56 116.289C57.3672 113.099 58.0508 109.323 58.0508 104.961C58.0508 99.6875 57.3346 95.4232 55.9023 92.168C54.4701 88.9128 52.3867 86.5365 49.6523 85.0391C46.9831 83.4766 43.7279 82.6953 39.8867 82.6953H26.9961Z" fill="url(#paint0_linear_1404_520)"/>
<defs>
<linearGradient id="paint0_linear_1404_520" x1="43.5" y1="2" x2="43.5" y2="139.127" gradientUnits="userSpaceOnUse">
<stop stop-color="#5B5E71" stop-opacity="0.28"/>
<stop offset="1" stop-color="#5B5E71" stop-opacity="0.01"/>
</linearGradient>
</defs>
</svg>
