<svg width="66" height="66" viewBox="0 0 66 66" fill="none" xmlns="http://www.w3.org/2000/svg">
<g clipPath="url(#clip0_174_175)">
<path d="M65.5783 14.9599C65.4379 14.0677 65.0295 13.2392 64.4074 12.5844C63.7853 11.9295 62.9789 11.4793 62.095 11.2932L51.3333 8.92824C50.1793 8.67655 48.9846 8.6756 47.8302 8.92547C46.6757 9.17534 45.5884 9.6702 44.6417 10.3766L12.8333 33.5499L3.92334 33.1832C3.20709 33.1576 2.50096 33.3583 1.90526 33.7568C1.30956 34.1553 0.85457 34.7314 0.604918 35.4033C0.355266 36.0751 0.323643 36.8085 0.514542 37.4993C0.705441 38.1901 1.10915 38.8033 1.66834 39.2516L10.835 46.4566C11.935 47.7949 12.6683 47.5382 30.8733 37.6199L32.5783 54.8899C32.6067 55.361 32.7682 55.8144 33.0441 56.1974C33.3199 56.5803 33.6988 56.8771 34.1367 57.0532C34.4517 57.1777 34.7879 57.24 35.1267 57.2366C35.8085 57.2157 36.4598 56.9487 36.96 56.4849L41.3417 52.4882C41.778 52.084 42.0735 51.5508 42.185 50.9666L46.2 29.1499C52.745 25.4832 58.9417 22.0366 63.36 19.5249C64.1505 19.0803 64.7864 18.4049 65.1828 17.5892C65.5792 16.7735 65.7172 15.8562 65.5783 14.9599ZM61.545 16.3349C56.9617 18.9382 50.545 22.5866 43.6517 26.3632L42.9 26.7849L38.6283 50.0132L35.9333 52.4699L33.9167 31.7532L31.4783 32.9999C18.3333 40.3332 13.9517 42.4599 12.4483 43.1199L4.56501 36.8682L13.8783 37.2716L46.8783 13.3282C47.397 12.9404 47.9918 12.6665 48.6236 12.5243C49.2555 12.3822 49.9102 12.375 50.545 12.5032L61.27 14.8132C61.4353 14.8432 61.5867 14.9252 61.7021 15.0472C61.8175 15.1692 61.8909 15.3249 61.9117 15.4916C61.9494 15.6529 61.9341 15.8221 61.8681 15.974C61.802 16.1259 61.6887 16.2525 61.545 16.3349Z" fill="url(#paint0_linear_174_175)"/>
<path d="M12.8333 22.99L19.36 24.8233L22.3667 22.6416L15.0333 20.515L18.3333 18.4983L28.3617 18.205L32.5783 15.1433L18.3333 15.5833C17.8843 15.559 17.4379 15.6674 17.05 15.895L12.2283 18.7C11.8297 18.9361 11.5099 19.285 11.3092 19.7026C11.1086 20.1202 11.036 20.5879 11.1007 21.0467C11.1654 21.5054 11.3645 21.9348 11.6728 22.2806C11.9812 22.6265 12.385 22.8733 12.8333 22.99Z" fill="url(#paint1_linear_174_175)"/>
</g>
<defs>
<linearGradient id="paint0_linear_174_175" x1="33.0111" y1="8.73877" x2="33.0111" y2="57.2367" gradientUnits="userSpaceOnUse">
<stop stop-color="#C6CED3"/>
<stop offset="1" stop-color="#C6CED3"/>
</linearGradient>
<linearGradient id="paint1_linear_174_175" x1="21.828" y1="15.1433" x2="21.828" y2="24.8233" gradientUnits="userSpaceOnUse">
<stop stop-color="#C6CED3"/>
<stop offset="1" stop-color="#C6CED3"/>
</linearGradient>
<clipPath id="clip0_174_175">
<rect width="66" height="66" fill="white"/>
</clipPath>
</defs>
</svg>
