<svg width="30" height="30" viewBox="0 0 30 30" fill="none" xmlns="http://www.w3.org/2000/svg">
<path d="M15 0.600098C7.04701 0.600098 0.600006 7.0471 0.600006 15.0001C0.600006 22.9531 7.04701 29.4001 15 29.4001C22.953 29.4001 29.4 22.9531 29.4 15.0001C29.4 7.0471 22.953 0.600098 15 0.600098ZM20.8575 12.3961C20.8635 12.5191 20.865 12.6421 20.865 12.7621C20.865 16.5121 18.0135 20.8336 12.7965 20.8336C11.2549 20.8362 9.74546 20.3934 8.44951 19.5586C8.67001 19.5856 8.89651 19.5961 9.12601 19.5961C10.455 19.5961 11.6775 19.1446 12.648 18.3826C12.0566 18.371 11.4835 18.1751 11.0087 17.8224C10.5338 17.4696 10.1809 16.9775 9.99901 16.4146C10.4237 16.4954 10.8613 16.4784 11.2785 16.3651C10.6366 16.2353 10.0593 15.8875 9.64457 15.3806C9.22983 14.8737 9.00317 14.239 9.00301 13.5841V13.5496C9.38551 13.7611 9.82351 13.8901 10.2885 13.9051C9.6867 13.5045 9.26068 12.8891 9.09757 12.1848C8.93446 11.4805 9.04658 10.7405 9.41101 10.1161C10.1234 10.9921 11.0119 11.7087 12.0189 12.2196C13.0258 12.7304 14.1288 13.0241 15.2565 13.0816C15.1131 12.4731 15.1748 11.8342 15.432 11.2644C15.6892 10.6945 16.1274 10.2256 16.6786 9.93049C17.2298 9.6354 17.863 9.53068 18.4798 9.63261C19.0967 9.73453 19.6626 10.0374 20.0895 10.4941C20.7243 10.3685 21.333 10.1357 21.8895 9.8056C21.6779 10.4628 21.235 11.0209 20.643 11.3761C21.2053 11.3084 21.7543 11.1572 22.272 10.9276C21.8917 11.4974 21.4127 11.9948 20.8575 12.3961Z" fill="#FFE100"/>
</svg>
