<svg width="37" height="30" viewBox="0 0 37 30" fill="none" xmlns="http://www.w3.org/2000/svg">
<path d="M36.7484 3.65328C35.3723 4.26287 33.9128 4.663 32.4183 4.84037C33.975 3.90735 35.1703 2.42989 35.7331 0.669504C34.2533 1.54766 32.6342 2.16638 30.9459 2.49893C29.5706 1.03381 27.6114 0.118164 25.443 0.118164C21.2794 0.118164 17.9038 3.49367 17.9038 7.65692C17.9038 8.24788 17.9705 8.82319 18.099 9.3751C11.8334 9.0606 6.27841 6.05931 2.55999 1.49816C1.91119 2.61161 1.53942 3.90678 1.53942 5.28821C1.53942 7.90381 2.87047 10.2112 4.89324 11.5632C3.69604 11.5257 2.52518 11.2024 1.47841 10.6202C1.47798 10.6518 1.47798 10.6833 1.47798 10.7151C1.47798 14.3677 4.07664 17.4148 7.52535 18.1074C6.41519 18.4093 5.2507 18.4535 4.12085 18.2366C5.08013 21.2317 7.86439 23.4112 11.1632 23.4722C8.5831 25.4941 5.33234 26.6995 1.80037 26.6995C1.19176 26.6995 0.591762 26.6637 0.00195312 26.5941C3.33827 28.7331 7.301 29.9812 11.5584 29.9812C25.4254 29.9812 33.0083 18.4935 33.0083 8.53123C33.0083 8.20424 33.0011 7.87912 32.9865 7.55587C34.4624 6.48891 35.7363 5.16737 36.7484 3.65328Z" fill="#55ACEE"/>
</svg>
