<svg width="86" height="145" viewBox="0 0 86 145" fill="none" xmlns="http://www.w3.org/2000/svg">
<path d="M85.7852 124.102V145H2.97266V127.031L41.6445 77.4219C45.5508 72.0182 48.6107 67.3307 50.8242 63.3594C53.0378 59.3229 54.6003 55.7096 55.5117 52.5195C56.4232 49.2643 56.8789 46.1393 56.8789 43.1445C56.8789 38.9128 56.3255 35.2018 55.2188 32.0117C54.112 28.7565 52.4844 26.25 50.3359 24.4922C48.2526 22.6693 45.681 21.7578 42.6211 21.7578C38.7799 21.7578 35.6224 22.832 33.1484 24.9805C30.6745 27.1289 28.819 30.0911 27.582 33.8672C26.4102 37.6432 25.8242 41.9401 25.8242 46.7578H0.726562C0.726562 38.3594 2.38672 30.6771 5.70703 23.7109C9.09245 16.7448 13.9102 11.1784 20.1602 7.01172C26.4753 2.84505 34.0599 0.761719 42.9141 0.761719C51.3776 0.761719 58.5065 2.38932 64.3008 5.64453C70.0951 8.83464 74.4896 13.4245 77.4844 19.4141C80.5443 25.3385 82.0742 32.4023 82.0742 40.6055C82.0742 45.1628 81.4557 49.6549 80.2188 54.082C78.9818 58.5091 77.2565 62.9036 75.043 67.2656C72.8294 71.6276 70.1276 76.0547 66.9375 80.5469C63.8125 84.974 60.2643 89.5312 56.293 94.2188L34.8086 124.102H85.7852Z" fill="url(#paint0_linear_1404_513)"/>
<defs>
<linearGradient id="paint0_linear_1404_513" x1="43.5" y1="2" x2="43.5" y2="139.127" gradientUnits="userSpaceOnUse">
<stop stop-color="#5B5E71" stop-opacity="0.28"/>
<stop offset="1" stop-color="#5B5E71" stop-opacity="0.01"/>
</linearGradient>
</defs>
</svg>
