<svg width="112" height="112" viewBox="0 0 112 112" fill="none" xmlns="http://www.w3.org/2000/svg">
<path d="M101.313 40.6465C107.146 34.8132 104.486 27.9998 101.313 24.6865L87.3132 10.6865C81.4332 4.85316 74.6665 7.51316 71.3532 10.6865L63.4198 18.6665H51.3332C42.4665 18.6665 37.3332 23.3332 34.7198 28.6998L13.9998 49.4198V68.0865L10.6865 71.3532C4.85316 77.2332 7.51316 83.9998 10.6865 87.3132L24.6865 101.313C27.2065 103.833 29.9132 104.767 32.4798 104.767C35.7932 104.767 38.8265 103.133 40.6465 101.313L53.2465 88.6665H69.9998C77.9332 88.6665 81.9465 83.7198 83.3932 78.8665C88.6665 77.4665 91.5598 73.4532 92.7265 69.5332C99.9598 67.6665 102.666 60.8065 102.666 55.9998V41.9998H99.9132L101.313 40.6465ZM93.3332 55.9998C93.3332 58.0998 92.4465 60.6665 88.6665 60.6665H83.9998V65.3332C83.9998 67.4332 83.1132 69.9998 79.3332 69.9998H74.6665V74.6665C74.6665 76.7665 73.7798 79.3332 69.9998 79.3332H49.4198L34.1132 94.6398C32.6665 95.9932 31.8265 95.1998 31.3132 94.6865L17.3598 80.7798C16.0065 79.3332 16.7998 78.4932 17.3132 77.9798L23.3332 71.9132V53.2465L32.6665 43.9132V51.3332C32.6665 56.9798 36.3998 65.3332 46.6665 65.3332C56.9332 65.3332 60.6665 56.9798 60.6665 51.3332H93.3332V55.9998ZM94.6865 34.0198L86.7532 41.9998H51.3332V51.3332C51.3332 53.4332 50.4465 55.9998 46.6665 55.9998C42.8865 55.9998 41.9998 53.4332 41.9998 51.3332V37.3332C41.9998 35.1865 42.7932 27.9998 51.3332 27.9998H67.2465L77.8865 17.3598C79.3332 16.0065 80.1732 16.7998 80.6865 17.3132L94.6398 31.2198C95.9932 32.6665 95.1998 33.5065 94.6865 34.0198Z" fill="#5B5E71"/>
</svg>
