<svg width="65" height="53" viewBox="0 0 65 53" fill="none" xmlns="http://www.w3.org/2000/svg">
<path fill-rule="evenodd" clip-rule="evenodd" d="M5.12498 4.1665C4.84871 4.1665 4.58376 4.27625 4.38841 4.4716C4.19306 4.66695 4.08331 4.9319 4.08331 5.20817V47.7915C4.08331 48.0678 4.19306 48.3327 4.38841 48.5281C4.58376 48.7234 4.84871 48.8332 5.12498 48.8332H59.875C60.1512 48.8332 60.4162 48.7234 60.6115 48.5281C60.8069 48.3327 60.9166 48.0678 60.9166 47.7915V5.20817C60.9166 4.9319 60.8069 4.66695 60.6115 4.4716C60.4162 4.27625 60.1512 4.1665 59.875 4.1665H5.12498ZM1.55998 1.64317C2.50548 0.697679 3.78785 0.166504 5.12498 0.166504H59.875C61.2121 0.166504 62.4945 0.697678 63.44 1.64317C64.3855 2.58867 64.9166 3.87104 64.9166 5.20817V47.7915C64.9166 49.1286 64.3855 50.411 63.44 51.3565C62.4945 52.302 61.2121 52.8332 59.875 52.8332H5.12498C3.78785 52.8332 2.50548 52.302 1.55998 51.3565C0.614486 50.411 0.083313 49.1286 0.083313 47.7915V5.20817C0.083313 3.87104 0.614487 2.58867 1.55998 1.64317Z" fill="url(#paint0_linear_174_194)"/>
<path fill-rule="evenodd" clip-rule="evenodd" d="M7.68748 2.1665C7.68748 1.06193 8.58291 0.166504 9.68748 0.166504H18.8125C19.917 0.166504 20.8125 1.06193 20.8125 2.1665C20.8125 3.27107 19.917 4.1665 18.8125 4.1665H16.25V48.8332H18.8125C19.917 48.8332 20.8125 49.7286 20.8125 50.8332C20.8125 51.9377 19.917 52.8332 18.8125 52.8332H9.68748C8.58291 52.8332 7.68748 51.9377 7.68748 50.8332C7.68748 49.7286 8.58291 48.8332 9.68748 48.8332H12.25V37.3325C11.9466 37.518 11.5899 37.6248 11.2083 37.6248H4.08331V38.6665C4.08331 39.7711 3.18788 40.6665 2.08331 40.6665C0.978743 40.6665 0.083313 39.7711 0.083313 38.6665V32.5832C0.083313 31.4786 0.978743 30.5832 2.08331 30.5832C3.18788 30.5832 4.08331 31.4786 4.08331 32.5832V33.6248H11.2083C11.5899 33.6248 11.9466 33.7317 12.25 33.9172V19.0825C11.9466 19.268 11.5899 19.3748 11.2083 19.3748H4.08331V20.4165C4.08331 21.5211 3.18788 22.4165 2.08331 22.4165C0.978743 22.4165 0.083313 21.5211 0.083313 20.4165V14.3332C0.083313 13.2286 0.978743 12.3332 2.08331 12.3332C3.18788 12.3332 4.08331 13.2286 4.08331 14.3332V15.3748H11.2083C11.5899 15.3748 11.9466 15.4817 12.25 15.6672V4.1665H9.68748C8.58291 4.1665 7.68748 3.27107 7.68748 2.1665ZM44.1875 2.1665C44.1875 1.06193 45.0829 0.166504 46.1875 0.166504H55.3125C56.417 0.166504 57.3125 1.06193 57.3125 2.1665C57.3125 3.27107 56.417 4.1665 55.3125 4.1665H52.75V15.6672C53.0534 15.4817 53.41 15.3748 53.7916 15.3748H60.9166V14.3332C60.9166 13.2286 61.8121 12.3332 62.9166 12.3332C64.0212 12.3332 64.9166 13.2286 64.9166 14.3332V20.4165C64.9166 21.5211 64.0212 22.4165 62.9166 22.4165C61.8121 22.4165 60.9166 21.5211 60.9166 20.4165V19.3748H53.7916C53.41 19.3748 53.0534 19.268 52.75 19.0825V33.9172C53.0534 33.7317 53.41 33.6248 53.7916 33.6248H60.9166V32.5832C60.9166 31.4786 61.8121 30.5832 62.9166 30.5832C64.0212 30.5832 64.9166 31.4786 64.9166 32.5832V38.6665C64.9166 39.7711 64.0212 40.6665 62.9166 40.6665C61.8121 40.6665 60.9166 39.7711 60.9166 38.6665V37.6248H53.7916C53.41 37.6248 53.0534 37.518 52.75 37.3325V48.8332H55.3125C56.417 48.8332 57.3125 49.7286 57.3125 50.8332C57.3125 51.9377 56.417 52.8332 55.3125 52.8332H46.1875C45.0829 52.8332 44.1875 51.9377 44.1875 50.8332C44.1875 49.7286 45.0829 48.8332 46.1875 48.8332H48.75V4.1665H46.1875C45.0829 4.1665 44.1875 3.27107 44.1875 2.1665Z" fill="url(#paint1_linear_174_194)"/>
<path fill-rule="evenodd" clip-rule="evenodd" d="M26.968 17.1462C27.6039 16.7938 28.381 16.8142 28.9975 17.1995L41.1642 24.8037C41.7489 25.1692 42.1042 25.8101 42.1042 26.4997C42.1042 27.1893 41.7489 27.8302 41.1642 28.1957L28.9975 35.7998C28.381 36.1852 27.6039 36.2056 26.968 35.8531C26.3321 35.5007 25.9375 34.8309 25.9375 34.1038V18.8955C25.9375 18.1685 26.3321 17.4987 26.968 17.1462ZM29.9375 22.504V30.4953L36.3306 26.4997L29.9375 22.504Z" fill="url(#paint2_linear_174_194)"/>
<defs>
<linearGradient id="paint0_linear_174_194" x1="32.5" y1="0.166504" x2="32.5" y2="52.8332" gradientUnits="userSpaceOnUse">
<stop stop-color="#C6CED3"/>
<stop offset="1" stop-color="#C6CED3"/>
</linearGradient>
<linearGradient id="paint1_linear_174_194" x1="32.5" y1="0.166504" x2="32.5" y2="52.8332" gradientUnits="userSpaceOnUse">
<stop stop-color="#C6CED3"/>
<stop offset="1" stop-color="#C6CED3"/>
</linearGradient>
<linearGradient id="paint2_linear_174_194" x1="34.0208" y1="16.8955" x2="34.0208" y2="36.1038" gradientUnits="userSpaceOnUse">
<stop stop-color="#C6CED3"/>
<stop offset="1" stop-color="#C6CED3"/>
</linearGradient>
</defs>
</svg>
