<svg width="30" height="30" viewBox="0 0 30 30" fill="none" xmlns="http://www.w3.org/2000/svg">
<g clip-path="url(#clip0_400_969)">
<path d="M0.635392 14.8204C0.634695 17.341 1.2933 19.8021 2.54562 21.9714L0.515625 29.3833L8.10074 27.3944C10.1987 28.5365 12.5493 29.135 14.938 29.1351H14.9442C22.8297 29.1351 29.2486 22.7185 29.252 14.8316C29.2535 11.0099 27.7666 7.41618 25.0649 4.71246C22.3638 2.00897 18.7713 0.519322 14.9436 0.517578C7.05725 0.517578 0.638765 6.93386 0.635509 14.8204" fill="url(#paint0_linear_400_969)"/>
<path d="M0.124419 14.8158C0.123605 17.4271 0.805814 19.9763 2.10279 22.2233L0 29.9008L7.85709 27.8407C10.022 29.021 12.4594 29.6434 14.9397 29.6443H14.946C23.1144 29.6443 29.764 22.9969 29.7674 14.8277C29.7688 10.8686 28.2284 7.1457 25.4302 4.34512C22.6317 1.54488 18.9108 0.00162791 14.946 0C6.77628 0 0.127791 6.64651 0.124535 14.8158H0.124419ZM4.80349 21.8363L4.51012 21.3706C3.27686 19.4097 2.62593 17.1436 2.62686 14.8167C2.62953 8.02663 8.15558 2.50233 14.9507 2.50233C18.2414 2.50372 21.334 3.78651 23.66 6.11395C25.9859 8.44163 27.2658 11.5358 27.265 14.8267C27.262 21.6169 21.7358 27.1419 14.946 27.1419H14.9412C12.7303 27.1407 10.5621 26.547 8.67116 25.425L8.22116 25.1581L3.5586 26.3806L4.80349 21.8362V21.8363Z" fill="url(#paint1_linear_400_969)"/>
<path d="M11.2418 8.62189C10.9643 8.00526 10.6724 7.99282 10.4085 7.982C10.1925 7.9727 9.9455 7.9734 9.69876 7.9734C9.45178 7.9734 9.0505 8.06631 8.71132 8.43666C8.37178 8.80735 7.41504 9.70317 7.41504 11.5251C7.41504 13.3472 8.74213 15.1081 8.92713 15.3554C9.11236 15.6022 11.4891 19.4608 15.2533 20.9453C18.3817 22.1789 19.0183 21.9335 19.6972 21.8717C20.3763 21.81 21.8884 20.9761 22.1969 20.1113C22.5056 19.2467 22.5056 18.5055 22.4131 18.3506C22.3205 18.1963 22.0735 18.1036 21.7032 17.9185C21.3327 17.7333 19.512 16.8374 19.1726 16.7137C18.8331 16.5903 18.5862 16.5286 18.3392 16.8994C18.0922 17.2697 17.3831 18.1036 17.1669 18.3506C16.951 18.5982 16.7348 18.629 16.3646 18.4437C15.994 18.2579 14.8013 17.8674 13.3863 16.6058C12.2854 15.6242 11.5421 14.412 11.3261 14.0412C11.11 13.671 11.3029 13.4703 11.4886 13.2857C11.655 13.1198 11.8591 12.8533 12.0445 12.6371C12.2291 12.4208 12.2907 12.2665 12.4142 12.0196C12.5378 11.7724 12.476 11.5561 12.3835 11.3708C12.2907 11.1856 11.5711 9.35421 11.2418 8.62201" fill="white"/>
</g>
<defs>
<linearGradient id="paint0_linear_400_969" x1="14.8838" y1="29.3833" x2="14.8838" y2="0.517578" gradientUnits="userSpaceOnUse">
<stop stop-color="#1FAF38"/>
<stop offset="1" stop-color="#60D669"/>
</linearGradient>
<linearGradient id="paint1_linear_400_969" x1="14.8837" y1="29.9008" x2="14.8837" y2="0" gradientUnits="userSpaceOnUse">
<stop stop-color="#F9F9F9"/>
<stop offset="1" stop-color="white"/>
</linearGradient>
<clipPath id="clip0_400_969">
<rect width="29.7674" height="30" fill="white"/>
</clipPath>
</defs>
</svg>
