<svg width="60" height="60" viewBox="0 0 60 60" fill="none" xmlns="http://www.w3.org/2000/svg">
<path d="M30.0772 0.846191C13.9709 0.846191 0.846207 13.9709 0.846207 30.0772C0.846207 46.1835 13.9709 59.3083 30.0772 59.3083C46.1835 59.3083 59.3083 46.1835 59.3083 30.0772C59.3083 13.9709 46.1835 0.846191 30.0772 0.846191ZM3.79854 30.0772C3.79854 26.2772 4.61701 22.6525 6.07856 19.3787L18.6187 53.7251C9.84936 49.4574 3.79854 40.4835 3.79854 30.0772ZM30.0772 56.3559C27.5049 56.3559 25.0203 55.9759 22.6526 55.2744L30.5449 32.3572L38.6127 54.4851C38.6712 54.6021 38.7296 54.7482 38.7881 54.8359C36.0696 55.8298 33.1465 56.3559 30.0772 56.3559ZM33.7019 17.7417C35.2804 17.654 36.7127 17.4786 36.7127 17.4786C38.1158 17.3033 37.9696 15.2279 36.5373 15.3156C36.5373 15.3156 32.2696 15.6371 29.5219 15.6371C26.9495 15.6371 22.5941 15.3156 22.5941 15.3156C21.191 15.2571 21.0156 17.4202 22.4479 17.5079C22.4479 17.5079 23.7926 17.6833 25.1957 17.771L29.288 28.9957L23.5295 46.242L13.9709 17.7417C15.5494 17.6833 16.9817 17.5079 16.9817 17.5079C18.3848 17.3325 18.2387 15.2571 16.8064 15.3448C16.8064 15.3448 12.5386 15.6663 9.7909 15.6663C9.29397 15.6663 8.70935 15.6663 8.0955 15.6371C12.8309 8.50472 20.8987 3.79853 30.0772 3.79853C36.9173 3.79853 43.1435 6.40009 47.8205 10.697C47.7036 10.697 47.5866 10.6678 47.4697 10.6678C44.8974 10.6678 43.0558 12.9186 43.0558 15.3448C43.0558 17.5079 44.3128 19.3494 45.6281 21.5125C46.622 23.2664 47.7912 25.5172 47.7912 28.7618C47.7912 31.0126 46.9143 33.6142 45.8035 37.2681L43.1727 46.0374L33.7019 17.7417ZM53.1405 17.4786C56.4238 23.4875 57.2314 30.5407 55.3915 37.1362C53.5515 43.7317 49.2093 49.3483 43.2897 52.7897L51.3282 29.5803C52.819 25.8387 53.3159 22.8279 53.3159 20.1679C53.3159 19.2033 53.2574 18.2971 53.1405 17.4786Z" fill="#1E1E1E"/>
</svg>
