<svg width="23" height="22" viewBox="0 0 23 22" fill="none" xmlns="http://www.w3.org/2000/svg">
<path d="M2.58337 2.74996H9.91671C9.91671 2.26373 10.1099 1.79741 10.4537 1.4536C10.7975 1.10978 11.2638 0.916626 11.75 0.916626C12.2363 0.916626 12.7026 1.10978 13.0464 1.4536C13.3902 1.79741 13.5834 2.26373 13.5834 2.74996H20.9167V4.58329H20V14.6666H14.7292L16.3334 20.1666H14.5L12.8959 14.6666H10.6042L9.00004 20.1666H7.16671L8.77087 14.6666H3.50004V4.58329H2.58337V2.74996ZM5.33337 4.58329V12.8333H18.1667V4.58329H5.33337ZM11.6125 10.8625C11.5709 10.9056 11.5211 10.94 11.466 10.9636C11.4109 10.9873 11.3517 10.9996 11.2917 11C11.1701 11 11.0536 10.9517 10.9676 10.8657C10.8817 10.7798 10.8334 10.6632 10.8334 10.5416V6.87496C10.8334 6.7534 10.8817 6.63682 10.9676 6.55087C11.0536 6.46491 11.1701 6.41663 11.2917 6.41663C11.42 6.41663 11.53 6.47163 11.6125 6.55413L12.8959 7.82829C13.1892 8.12163 13.4825 8.41496 13.4825 8.70829C13.4825 9.00163 13.1892 9.29496 12.8959 9.58829L11.6125 10.8625Z" fill="#5B5E71"/>
</svg>
