<svg width="133" height="110" viewBox="0 0 133 110" fill="none" xmlns="http://www.w3.org/2000/svg">
<path d="M7.41846 108.48C3.88891 108.48 1.01714 105.608 1.01714 102.079V31.38H115.275V102.079C115.275 105.608 112.403 108.48 108.874 108.48H7.41846V108.48Z" fill="#DDDDDD"/>
<path d="M114.278 32.3784V102.08C114.278 105.06 111.855 107.483 108.875 107.483H7.41845C4.43887 107.483 2.01553 105.06 2.01553 102.08V32.3784H114.278ZM116.274 30.3832H0.0202942V102.079C0.0202942 106.172 3.32485 109.477 7.41845 109.477H108.874C112.968 109.477 116.272 106.172 116.272 102.079V30.3832H116.274Z" fill="#212121"/>
<path d="M0.996819 35.9736V29.5723C0.996819 26.0428 3.86858 23.171 7.39813 23.171H108.874C112.403 23.171 115.275 26.0428 115.275 29.5723C115.275 29.5723 115.275 33.955 115.275 35.9736H0.996819Z" fill="#617686"/>
<path d="M108.874 24.1694C111.854 24.1694 114.277 26.5927 114.277 29.5723C114.277 29.5723 114.277 32.7847 114.277 34.9752H1.99367V29.5723C1.99367 26.5927 4.41702 24.1694 7.39659 24.1694H108.874M108.874 22.1741H7.39815C3.32487 22.1741 0 25.4787 0 29.5723V36.9704H116.272V29.5723C116.272 25.4787 112.968 22.1741 108.874 22.1741V22.1741Z" fill="#212121"/>
<path d="M28.0552 30.9863C27.2755 30.9863 26.6412 30.352 26.6412 29.5723C26.6412 28.7926 27.2755 28.1583 28.0552 28.1583C28.8348 28.1583 29.4692 28.7926 29.4692 29.5723C29.4692 30.352 28.8348 30.9863 28.0552 30.9863ZM20.4492 30.9863C19.6696 30.9863 19.0352 30.352 19.0352 29.5723C19.0352 28.7926 19.6696 28.1583 20.4492 28.1583C21.2289 28.1583 21.8632 28.7926 21.8632 29.5723C21.8632 30.352 21.2289 30.9863 20.4492 30.9863ZM12.8433 30.9863C12.0636 30.9863 11.4293 30.352 11.4293 29.5723C11.4293 28.7926 12.0636 28.1583 12.8433 28.1583C13.6229 28.1583 14.2573 28.7926 14.2573 29.5723C14.2573 30.352 13.6229 30.9863 12.8433 30.9863ZM58.3556 30.3207C57.9431 30.3207 57.6072 29.9848 57.6072 29.5723C57.6072 29.1598 57.9431 28.8239 58.3556 28.8239H104.096C104.509 28.8239 104.844 29.1598 104.844 29.5723C104.844 29.9848 104.509 30.3207 104.096 30.3207H58.354H58.3556Z" fill="#E5E8EA"/>
<path d="M28.0552 29.1567C28.2849 29.1567 28.4708 29.3426 28.4708 29.5723C28.4708 29.802 28.2849 29.9879 28.0552 29.9879C27.8255 29.9879 27.6396 29.802 27.6396 29.5723C27.6396 29.3426 27.8255 29.1567 28.0552 29.1567ZM20.4492 29.1567C20.6789 29.1567 20.8648 29.3426 20.8648 29.5723C20.8648 29.802 20.6789 29.9879 20.4492 29.9879C20.2195 29.9879 20.0336 29.802 20.0336 29.5723C20.0336 29.3426 20.2195 29.1567 20.4492 29.1567ZM12.8433 29.1567C13.0729 29.1567 13.2589 29.3426 13.2589 29.5723C13.2589 29.802 13.0729 29.9879 12.8433 29.9879C12.6136 29.9879 12.4276 29.802 12.4276 29.5723C12.4276 29.3426 12.6136 29.1567 12.8433 29.1567ZM28.0552 27.1614C26.7255 27.1614 25.6443 28.2426 25.6443 29.5723C25.6443 30.9019 26.7255 31.9831 28.0552 31.9831C29.3848 31.9831 30.466 30.9019 30.466 29.5723C30.466 28.2426 29.3848 27.1614 28.0552 27.1614ZM20.4492 27.1614C19.1196 27.1614 18.0384 28.2426 18.0384 29.5723C18.0384 30.9019 19.1196 31.9831 20.4492 31.9831C21.7788 31.9831 22.8601 30.9019 22.8601 29.5723C22.8601 28.2426 21.7788 27.1614 20.4492 27.1614ZM12.8433 27.1614C11.5136 27.1614 10.4324 28.2426 10.4324 29.5723C10.4324 30.9019 11.5136 31.9831 12.8433 31.9831C14.1729 31.9831 15.2541 30.9019 15.2541 29.5723C15.2541 28.2426 14.1729 27.1614 12.8433 27.1614ZM104.094 27.827H58.354C57.3978 27.827 56.6088 28.5958 56.6088 29.5723C56.6088 30.5488 57.3775 31.3175 58.354 31.3175H104.094C105.071 31.3175 105.84 30.5285 105.84 29.5723C105.84 28.6161 105.071 27.827 104.094 27.827V27.827Z" fill="#212121"/>
<path d="M97.3213 49.3559H18.9322V60.1633H97.3213V49.3559Z" fill="#ECF0F3"/>
<path d="M96.3229 50.3543V59.1665H19.9289V50.3543H96.3229ZM98.3181 48.3591H17.9337V61.1601H98.3165V48.3591H98.3181Z" fill="#212121"/>
<path d="M62.8851 99.2541C61.8429 99.2541 60.9945 98.4056 60.9945 97.3635V73.216C60.9945 72.1738 61.8429 71.3254 62.8851 71.3254H103.305C104.348 71.3254 105.196 72.1738 105.196 73.216V97.3854C105.196 98.4166 104.348 99.2556 103.305 99.2556H62.8851V99.2541Z" fill="#ECF0F3"/>
<path d="M103.305 72.3207C103.807 72.3207 104.199 72.7129 104.199 73.2144V97.3838C104.199 97.8572 103.79 98.2572 103.305 98.2572H62.8851C62.3835 98.2572 61.9914 97.865 61.9914 97.3635V73.216C61.9914 72.7144 62.3835 72.3223 62.8851 72.3223H103.305M103.305 70.327H62.8851C61.2851 70.327 59.9961 71.616 59.9961 73.216V97.3635C59.9961 98.9634 61.2851 100.252 62.8851 100.252H103.305C104.885 100.252 106.194 98.9634 106.194 97.3854V73.216C106.194 71.616 104.905 70.327 103.305 70.327Z" fill="#212121"/>
<path d="M77.9424 93.1512C77.7174 93.1512 77.4721 92.9731 77.4721 92.6871V77.8705C77.4721 77.569 77.7471 77.4096 77.9455 77.4096C78.0268 77.4096 78.1018 77.433 78.1752 77.4799L89.3826 84.675C89.5763 84.7968 89.606 84.9687 89.6076 85.0624C89.6076 85.1531 89.5841 85.3218 89.4091 85.4374L78.2002 93.0699C78.1189 93.1262 78.0314 93.1543 77.9424 93.1543V93.1512Z" fill="#E66454"/>
<path d="M78.4704 78.8533L88.1638 85.0764L78.4704 91.6778V78.8548M77.9455 76.4127C77.1877 76.4127 76.4752 77.0205 76.4752 77.8705V92.6871C76.4752 93.5417 77.1799 94.1495 77.9423 94.1495C78.2189 94.1495 78.5017 94.0699 78.761 93.8933L89.9622 86.267C90.8356 85.6858 90.8137 84.3968 89.92 83.8359L78.7189 76.6455C78.4736 76.4862 78.2064 76.4127 77.9455 76.4127V76.4127Z" fill="#212121"/>
<path d="M12.9885 99.2322C11.9464 99.2322 11.098 98.3931 11.098 97.3619V73.2144C11.098 72.1723 11.9464 71.3239 12.9885 71.3239H53.4088C54.44 71.3239 55.2791 72.1723 55.2791 73.2144V97.3619C55.2791 98.3931 54.44 99.2322 53.4088 99.2322H12.9885Z" fill="#ECF0F3"/>
<path d="M53.4089 72.3207C53.8901 72.3207 54.2823 72.7222 54.2823 73.2144V97.3619C54.2823 97.8431 53.8901 98.2353 53.4089 98.2353H12.9885C12.5042 98.2353 12.0948 97.8353 12.0948 97.3619V73.2144C12.0948 72.7128 12.487 72.3207 12.9885 72.3207H53.4089ZM53.4089 70.3254H12.9885C11.4089 70.3254 10.0996 71.5926 10.0996 73.2144V97.3619C10.0996 98.9415 11.4089 100.231 12.9885 100.231H53.4089C54.9885 100.231 56.2759 98.9415 56.2759 97.3619V73.2144C56.2759 71.6145 54.9869 70.3254 53.4089 70.3254Z" fill="#212121"/>
<path d="M17.676 99.254L27.5756 82.6828L37.458 99.254H17.676Z" fill="#4ABEA1"/>
<path d="M27.5755 84.6296L35.7018 98.2572H19.4336L27.5755 84.6296ZM27.5755 80.7375L15.9166 100.251H39.2126L27.5755 80.7375V80.7375Z" fill="#212121"/>
<path d="M30.1207 99.254L40.6703 81.5219L51.2371 99.254H30.1207Z" fill="#3DAF8F"/>
<path d="M40.6703 83.4718L49.4809 98.2556H31.8738L40.6703 83.4718ZM40.6703 79.5735L28.3677 100.251H52.9933L40.6703 79.5735Z" fill="#212121"/>
<path d="M20.2821 80.9032C22.3712 80.9032 24.0648 79.2096 24.0648 77.1205C24.0648 75.0314 22.3712 73.3378 20.2821 73.3378C18.193 73.3378 16.4995 75.0314 16.4995 77.1205C16.4995 79.2096 18.193 80.9032 20.2821 80.9032Z" fill="#FAAA52"/>
<path d="M20.282 74.3362C21.8179 74.3362 23.0663 75.5861 23.0663 77.1204C23.0663 78.6548 21.8163 79.9047 20.282 79.9047C18.7477 79.9047 17.4978 78.6548 17.4978 77.1204C17.4978 75.5861 18.7477 74.3362 20.282 74.3362M20.282 72.3409C17.6431 72.3409 15.5025 74.4815 15.5025 77.1204C15.5025 79.7594 17.6431 81.9 20.282 81.9C22.921 81.9 25.0615 79.7594 25.0615 77.1204C25.0615 74.4815 22.921 72.3409 20.282 72.3409Z" fill="#212121"/>
<path d="M105.832 53.3058C98.8728 53.3058 92.3231 50.6028 87.392 45.6951C82.4578 40.7859 79.7251 34.2456 79.697 27.2818C79.658 20.2883 82.3454 13.7026 87.2624 8.73874C92.1778 3.77643 98.7322 1.02654 105.721 0.998413H105.871C112.821 0.998413 119.364 3.70143 124.295 8.6075C129.229 13.5167 131.967 20.0571 132.006 27.0224C132.045 34.0143 129.358 40.6 124.441 45.5654C119.525 50.5278 112.971 53.2777 105.982 53.3058H105.832V53.3058Z" fill="#4ABEA1"/>
<path d="M105.871 0V1.99524C112.555 1.99524 118.847 4.59514 123.591 9.31527C128.336 14.0385 130.97 20.3289 131.006 27.0286C131.043 33.755 128.459 40.0875 123.73 44.8639C119.002 49.6372 112.697 52.2808 105.974 52.3089H105.832C99.1368 52.3089 92.8386 49.7106 88.095 44.9905C83.3499 40.2688 80.7219 33.9784 80.6938 27.2771C80.6563 20.5508 83.2405 14.2182 87.97 9.44182C92.698 4.66857 99.0024 2.02492 105.726 1.9968H105.868L105.871 0.00156248M105.868 0.00156248C105.818 0.00156248 105.765 0.00156248 105.715 0.00156248C90.7106 0.0640601 78.6157 12.2839 78.6985 27.288C78.761 42.2421 90.8965 54.3042 105.83 54.3042C105.88 54.3042 105.933 54.3042 105.983 54.3042C120.988 54.2417 133.082 42.0218 133 27.0177C132.917 12.0636 120.781 3.57963e-08 105.866 0.00156248H105.868Z" fill="#212121"/>
<path d="M101.684 39.0078C100.851 39.0078 100.068 38.6828 99.4791 38.0938L90.3138 28.9285C89.0983 27.713 89.0983 25.7349 90.3138 24.5209C90.8998 23.935 91.6825 23.6131 92.5184 23.6131C93.3544 23.6131 94.1371 23.935 94.7231 24.5209L101.684 31.4816L116.957 16.1868C117.541 15.6025 118.324 15.2791 119.16 15.2791C119.996 15.2791 120.778 15.6009 121.364 16.1868C121.95 16.7727 122.272 17.5555 122.272 18.3914C122.272 19.2273 121.95 20.0101 121.364 20.596L103.887 38.0954C103.318 38.6782 102.518 39.0078 101.684 39.0078V39.0078Z" fill="#E5E5E5"/>
<path d="M119.161 16.2775C119.73 16.2775 120.263 16.4962 120.66 16.8931C121.486 17.7196 121.486 19.0649 120.66 19.8914L103.182 37.3892L103.173 37.3986L103.163 37.4079C102.791 37.7907 102.251 38.0095 101.684 38.0095C101.117 38.0095 100.585 37.7892 100.185 37.3892L91.02 28.2239C90.1935 27.3974 90.1935 26.0521 91.02 25.2256C91.4169 24.8287 91.9497 24.61 92.5184 24.61C93.0871 24.61 93.6199 24.8287 94.0168 25.2256L100.273 31.4816L101.684 32.8925L103.095 31.48L117.661 16.8931C118.058 16.4962 118.591 16.2775 119.16 16.2775M119.16 14.2823C118.105 14.2823 117.05 14.6822 116.25 15.4822L101.682 30.0707L95.4261 23.8147C94.6261 23.0147 93.5715 22.6147 92.5168 22.6147C91.4622 22.6147 90.4075 23.0147 89.6076 23.8147C88.0076 25.4146 88.0076 28.0333 89.6076 29.6332L98.7729 38.7985C99.5416 39.5672 100.581 40.0031 101.682 40.0031C102.784 40.0031 103.823 39.5875 104.591 38.7985L122.069 21.3007C123.669 19.7008 123.669 17.0821 122.069 15.4822C121.269 14.6822 120.214 14.2823 119.16 14.2823V14.2823Z" fill="#212121"/>
</svg>
