<svg width="133" height="126" viewBox="0 0 133 126" fill="none" xmlns="http://www.w3.org/2000/svg">
<path d="M1.38489 17.7757H131.617V98.3664C131.617 101.939 128.721 104.837 125.146 104.837H7.85542C4.28266 104.837 1.38489 101.941 1.38489 98.3664V17.7757Z" fill="#C0C7E6"/>
<path d="M14.1597 17.7757H118.842V94.0987C118.842 97.6714 115.946 100.569 112.371 100.569H20.6286C17.0558 100.569 14.158 97.6731 14.158 94.0987V17.7757H14.1597Z" fill="#DCEBF8"/>
<path d="M33.7492 17.7757H99.2525V68.8433C99.2525 71.7128 96.9266 74.0387 94.0571 74.0387H38.9446C36.075 74.0387 33.7492 71.7128 33.7492 68.8433V17.7757Z" fill="white"/>
<path d="M131.617 17.7757V7.85543C131.617 4.28267 128.721 1.38489 125.146 1.38489H7.85542C4.28266 1.38489 1.38489 4.28101 1.38489 7.85543V17.7757H131.617Z" fill="#6578BA"/>
<path d="M118.842 17.7757V7.85543C118.842 4.28101 116.514 1.38489 113.647 1.38489H19.3966C16.5288 1.38489 14.2012 4.28101 14.2012 7.85543V17.7757H118.842Z" fill="#7298CF"/>
<path d="M99.2525 17.7757V8.68669C99.2608 4.66172 96.0039 1.3932 91.979 1.38489C91.974 1.38489 91.969 1.38489 91.9657 1.38489H41.036C37.011 1.38489 33.7492 4.64677 33.7492 8.67173C33.7492 8.67672 33.7492 8.6817 33.7492 8.68502V17.774H99.2525V17.7757Z" fill="#83BEE8"/>
<path d="M22.8879 29.2055H110.17V57.8424H22.8879V29.2055Z" fill="#01B396"/>
<path d="M104.627 34.7617V52.3146H28.4291V34.7617H104.627Z" fill="#4EBD8E"/>
<path d="M22.8879 65.2955H29.8988V104.835H22.8879V65.2955Z" fill="#7382BF"/>
<path d="M22.8879 65.2955H29.8988V83.5134H22.8879V65.2955Z" fill="#7298CF"/>
<path d="M109.63 87.6564C109.63 95.2757 115.864 98.7404 119.078 92.9631C119.54 92.1153 120.426 91.5849 121.392 91.5783H122.044C123.477 91.555 124.659 92.6938 124.691 94.1269V104.546C124.691 107.201 122.538 109.354 119.883 109.354H110.185C108.752 109.354 107.588 110.511 107.58 111.944V112.596C107.588 113.565 108.119 114.455 108.965 114.923C114.797 118.165 111.209 124.358 103.673 124.358C96.1369 124.358 92.5891 118.137 98.3946 114.923C99.2425 114.455 99.7712 113.565 99.7795 112.596V111.944C99.7712 110.511 98.6074 109.354 97.1744 109.354H87.4769C84.8301 109.354 82.6838 107.208 82.6838 104.561C82.6838 104.556 82.6838 104.551 82.6838 104.548V94.1286C82.6838 92.6905 83.8493 91.5234 85.289 91.5234H85.9257C86.895 91.5317 87.7844 92.062 88.2533 92.9083C91.5085 98.7271 97.7014 95.1111 97.7014 87.6165C97.7014 80.1218 91.4669 76.5325 88.2533 82.3247C87.7861 83.1742 86.895 83.7045 85.9257 83.7095H85.289C83.8559 83.7095 82.6921 82.5524 82.6838 81.1194V70.7834C82.6838 68.1334 84.8285 65.9837 87.4769 65.9754H97.1744C98.6058 65.9837 99.7712 64.83 99.7795 63.3985C99.7795 63.3935 99.7795 63.3885 99.7795 63.3852V62.7335C99.7546 61.7693 99.2292 60.8881 98.3946 60.406C92.5625 57.1774 96.1369 50.9845 103.673 50.9845C111.209 50.9845 114.757 57.1907 108.965 60.406C108.13 60.8881 107.605 61.7693 107.58 62.7335V63.3852C107.58 64.8166 108.741 65.9754 110.17 65.9754C110.175 65.9754 110.18 65.9754 110.184 65.9754H119.881C122.536 65.9754 124.689 68.1284 124.689 70.7834V81.2157C124.681 82.6488 123.517 83.806 122.084 83.806H121.432C120.466 83.801 119.578 83.2706 119.118 82.4211C115.806 76.5474 109.628 80.1767 109.628 87.658L109.63 87.6564Z" fill="#FAAB5A"/>
<path d="M125.146 0H7.84211C3.50792 0.0083126 0 3.52288 0 7.85541V98.3664C0 102.699 3.50792 106.213 7.84211 106.222H81.6165C82.3613 108.888 84.7902 110.736 87.56 110.739H97.2575C97.9258 110.739 98.4694 111.276 98.4761 111.944V112.596C98.4412 113.071 98.1635 113.495 97.7413 113.718C90.8135 117.57 94.4295 125.743 103.698 125.743C112.967 125.743 116.541 117.527 109.655 113.718C109.239 113.492 108.967 113.068 108.935 112.596V111.944C108.935 111.279 109.475 110.739 110.14 110.739C110.145 110.739 110.15 110.739 110.154 110.739H119.851C122.638 110.739 125.081 108.88 125.823 106.195C129.883 105.843 133 102.443 133 98.368V7.85707C133 3.5179 129.484 0.00166414 125.145 0.00166414L125.146 0ZM2.77142 7.85541C2.77142 5.0524 5.0391 2.77808 7.84211 2.77143H125.146C127.951 2.77974 130.224 5.05074 130.23 7.85541V16.4041H2.77142V7.85541ZM24.2462 103.45V84.885H28.4856V103.45H24.2462ZM28.4856 82.1152H24.2462V66.682H28.4856V82.1152ZM119.813 107.967H110.115C107.918 107.967 106.134 109.745 106.125 111.944V112.596C106.159 114.076 106.977 115.427 108.273 116.142C113.025 118.747 109.409 122.972 103.66 122.972C97.9108 122.972 94.3497 118.719 99.0463 116.142C100.348 115.43 101.171 114.079 101.208 112.596V111.944C101.199 109.746 99.4154 107.967 97.2176 107.967H87.5201C85.6381 107.952 84.1202 106.426 84.1119 104.546V94.1269C84.1036 93.4619 84.6373 92.915 85.3039 92.9083C85.3139 92.9083 85.3222 92.9083 85.3322 92.9083H85.9689C86.4444 92.9432 86.8684 93.2208 87.0911 93.6431C90.9282 100.473 99.1311 96.9815 99.1311 87.6714C99.1311 78.3613 90.8185 74.8833 87.0911 81.6996C86.8783 82.1269 86.4461 82.4045 85.9689 82.4194H85.3322C84.6672 82.4278 84.1202 81.8941 84.1136 81.2274C84.1136 81.2224 84.1136 81.2174 84.1136 81.2141V70.7818C84.1136 68.8965 85.6364 67.367 87.5217 67.3604H97.2192C99.4154 67.3687 101.201 65.5947 101.209 63.3986C101.209 63.3936 101.209 63.3886 101.209 63.3852V62.7336C101.184 61.2689 100.375 59.9305 99.0896 59.2289C98.9516 59.091 96.8734 58.1068 96.8734 56.3328C96.8734 52.8698 104.466 50.8881 108.732 53.7277C109.716 54.2431 110.368 55.2256 110.465 56.3328C110.465 58.1201 108.373 59.1043 108.233 59.2289C106.965 59.9472 106.167 61.2772 106.127 62.7336V63.3852C106.127 65.5814 107.908 67.362 110.104 67.362C110.109 67.362 110.114 67.362 110.117 67.362H119.815C121.711 67.3321 123.274 68.845 123.306 70.7419C123.306 70.7552 123.306 70.7702 123.306 70.7835V81.2158C123.298 81.8841 122.754 82.4211 122.087 82.4211H121.367C120.892 82.4062 120.465 82.1285 120.258 81.7013C116.435 74.7735 108.218 78.3629 108.218 87.6581C108.218 96.9532 116.531 100.418 120.258 93.6431C120.466 93.2142 120.89 92.9316 121.367 92.9083H122.019C122.692 92.9083 123.238 93.4536 123.238 94.1269V104.546C123.229 106.433 121.703 107.961 119.816 107.967H119.813ZM108.729 50.5972C102.716 47.9654 94.0987 50.7501 94.0987 56.3328C94.0987 56.5274 99.4886 56.4575 24.2179 56.4575V30.6053H108.729V50.5972ZM130.23 98.3664C130.232 100.82 128.486 102.928 126.074 103.382V94.1269C126.074 91.9241 124.287 90.1369 122.084 90.1369H121.364C119.889 90.1751 118.544 90.9914 117.831 92.2849C115.226 96.9682 110.987 93.4486 110.987 87.6581C110.987 81.8675 115.254 78.3895 117.831 83.0579C118.548 84.3447 119.891 85.156 121.364 85.1909H122.016C124.219 85.2291 126.036 83.4735 126.074 81.2707C126.074 81.2524 126.074 81.2341 126.074 81.2141V70.7818C126.074 67.362 123.301 64.5889 119.881 64.5889H110.184C109.519 64.5972 108.972 64.0636 108.965 63.3969C108.965 63.3919 108.965 63.3869 108.965 63.3836V62.7319C108.987 62.2597 109.261 61.8341 109.685 61.623C113.841 59.3088 114.312 55.1674 111.568 52.4243V29.2188C111.568 28.454 110.948 27.8339 110.184 27.8339H22.9012C22.1365 27.8339 21.5163 28.454 21.5163 29.2188V57.8424C21.5163 58.6072 22.1365 59.2273 22.9012 59.2273H95.0264C96.634 61.6097 98.4628 61.4168 98.4628 62.7319V63.3836C98.4545 64.0519 97.9108 64.5889 97.2442 64.5889H87.5467C84.1319 64.5972 81.3671 67.367 81.3671 70.7818V71.5848H64.0353C63.2706 71.5848 62.6504 72.2049 62.6504 72.9697C62.6504 73.7345 63.2706 74.3546 64.0353 74.3546H81.3804V81.2823C81.3887 83.4802 83.1726 85.259 85.3704 85.259H86.0072C87.4852 85.2291 88.8351 84.4161 89.5533 83.126C92.1302 78.4427 96.3979 81.9207 96.3979 87.7395C96.3979 93.5583 92.1452 97.0081 89.5533 92.353C88.8385 91.0562 87.4868 90.2383 86.0072 90.205H85.3704C83.1676 90.205 81.3804 91.9923 81.3804 94.1951V103.519H31.2554V65.2939C31.2554 64.5291 30.6353 63.909 29.8705 63.909H22.8597C22.0949 63.909 21.4748 64.5291 21.4748 65.2939V103.449H7.84211C5.0391 103.44 2.77142 101.166 2.77142 98.3647V19.1738H130.23V98.3647V98.3664Z" fill="#302D3D"/>
<path d="M111.417 8.20288H110.835C110.071 8.20288 109.45 8.82301 109.45 9.58777C109.45 10.3525 110.071 10.9726 110.835 10.9726H111.404C112.169 10.9726 112.789 10.3525 112.789 9.58777C112.789 8.82301 112.169 8.20288 111.404 8.20288H111.417ZM117.457 8.20288H116.889C116.124 8.20288 115.504 8.82301 115.504 9.58777C115.504 10.3525 116.124 10.9726 116.889 10.9726H117.457C118.222 10.9726 118.842 10.3525 118.842 9.58777C118.842 8.82301 118.222 8.20288 117.457 8.20288ZM123.497 8.20288H122.928C122.164 8.20288 121.544 8.82301 121.544 9.58777C121.544 10.3525 122.164 10.9726 122.928 10.9726H123.497C124.262 10.9726 124.882 10.3525 124.882 9.58777C124.882 8.82301 124.262 8.20288 123.497 8.20288ZM44.499 8.20288H9.86373C9.09897 8.20288 8.47885 8.82301 8.47885 9.58777C8.47885 10.3525 9.09897 10.9726 9.86373 10.9726H44.499C45.2638 10.9726 45.8839 10.3525 45.8839 9.58777C45.8839 8.82301 45.2638 8.20288 44.499 8.20288ZM37.1839 66.682H75.4502C76.2149 66.682 76.8351 66.0619 76.8351 65.2972C76.8351 64.5324 76.2149 63.9123 75.4502 63.9123H37.1856C36.4208 63.9123 35.8007 64.5324 35.8007 65.2972C35.8007 66.0619 36.4208 66.682 37.1856 66.682H37.1839ZM37.1839 97.3273H64.712C65.4767 97.3273 66.0968 96.7072 66.0968 95.9424C66.0968 95.1777 65.4767 94.5575 64.712 94.5575H37.1856C36.4208 94.5575 35.8007 95.1777 35.8007 95.9424C35.8007 96.7072 36.4208 97.3273 37.1856 97.3273H37.1839ZM37.1839 89.708H56.3162C57.081 89.708 57.7011 89.0878 57.7011 88.3231C57.7011 87.5583 57.081 86.9382 56.3162 86.9382H37.1839C36.4192 86.9382 35.7991 87.5583 35.7991 88.3231C35.7991 89.0878 36.4192 89.708 37.1839 89.708ZM37.1839 74.3579H55.5964C56.3611 74.3579 56.9812 73.7378 56.9812 72.973C56.9812 72.2083 56.3611 71.5882 55.5964 71.5882H37.1839C36.4192 71.5882 35.7991 72.2083 35.7991 72.973C35.7991 73.7378 36.4192 74.3579 37.1839 74.3579ZM37.1839 82.0338H41.4782C42.243 82.0338 42.8631 81.4137 42.8631 80.6489C42.8631 79.8841 42.243 79.264 41.4782 79.264H37.1839C36.4192 79.264 35.7991 79.8841 35.7991 80.6489C35.7991 81.4137 36.4192 82.0338 37.1839 82.0338ZM75.4502 94.5575H70.6571C69.8924 94.5575 69.2723 95.1777 69.2723 95.9424C69.2723 96.7072 69.8924 97.3273 70.6571 97.3273H75.4651C76.2299 97.3273 76.85 96.7072 76.85 95.9424C76.85 95.1777 76.2299 94.5575 75.4651 94.5575H75.4518H75.4502ZM47.6445 80.6472C47.6445 81.412 48.2646 82.0321 49.0294 82.0321H73.0395C73.8043 82.0321 74.4244 81.412 74.4244 80.6472C74.4244 79.8825 73.8043 79.2623 73.0395 79.2623H49.0294C48.2646 79.2623 47.6445 79.8825 47.6445 80.6472ZM62.6488 88.3231C62.6488 89.0878 63.2689 89.708 64.0336 89.708H79.648C80.4128 89.708 81.0329 89.0878 81.0329 88.3231C81.0329 87.5583 80.4128 86.9382 79.648 86.9382H64.0336C63.2689 86.9382 62.6488 87.5583 62.6488 88.3231Z" fill="#302D3D"/>
</svg>
