<?xml version="1.0" encoding="UTF-8"?>
<svg id="Layer_1" data-name="Layer 1" xmlns="http://www.w3.org/2000/svg" xmlns:xlink="http://www.w3.org/1999/xlink" viewBox="0 0 1000 1000">
  <defs>
    <clipPath id="clippath">
      <path d="M568.17,181.53l8.93-22.3-53.99-25.15h-123.98l-15.75,61.45c-129.59,47.68-222.03,172.22-222.03,318.36,0,187.29,151.83,339.12,339.12,339.12s339.12-151.83,339.12-339.12c0-164.11-116.57-300.98-271.42-332.35Z" style="fill: none;"/>
    </clipPath>
  </defs>
  <path d="M500,34c257.36,0,466,208.64,466,466s-208.64,466-466,466S34,757.36,34,500,242.64,34,500,34" style="fill: #f7f7f7; stroke: #353535; stroke-miterlimit: 10; stroke-width: 5.88px;"/>
  <g>
    <g>
      <path d="M500.47,174.77c187.29,0,339.12,151.83,339.12,339.12s-151.83,339.12-339.12,339.12-339.12-151.83-339.12-339.12S313.18,174.77,500.47,174.77" style="fill: #fff;"/>
      <path d="M500.47,173.09c243-.92,408.78,247.39,316.04,471.7-69.98,173.12-275.05,258.54-447.06,185.4-224.38-93.12-282.73-386.32-110.54-557.86,63.26-63.36,152.06-99.87,241.56-99.24,0,0,0,3.35,0,3.35-12.91,1.18-28.37,2.76-40.97,5.33,0,0-8.07,1.55-8.07,1.55-.67,.13-1.34,.25-2.01,.4-1.73,.41-4.32,1.07-5.99,1.47-223.81,52.32-332.72,309.33-201.79,501.6,69.79,102.31,197.73,154.66,319.18,130.29,168.16-32.45,279.51-196.71,250.42-365.05-23.46-139.43-134.9-247.13-273.84-271.06-11.13-2.04-25.55-3.51-36.93-4.54,0,0,0-3.35,0-3.35h0Z" style="fill: #353535;"/>
    </g>
    <g style="clip-path: url(#clippath);">
      <g>
        <path d="M396.86,656.23s-19.64,85.96-20.4,126.38c-.76,40.42,1.46,186.13,2.22,217.4,.76,31.27,14.49,132.71,14.49,141.86s2.29,26.69,2.29,26.69l-6.1,32.8s-5.34,4.58-19.07,12.2c-13.73,7.63-29.75,17.54-34.32,22.88h0c-2.37,2.77-1.32,7.07,2.09,8.37,4.31,1.65,10.35,3.44,16.98,3.83,12.97,.76,34.32,.76,45.76-2.29,11.44-3.05,20.59-12.97,25.93-16.78l5.34-3.81,.76,8.39s.76,0,7.63-1.53c6.86-1.53,16.02-6.86,16.02-6.86,0,0,.76-12.97,.76-20.59s-3.81-21.36-4.58-24.41c-.76-3.05,0-30.51-2.29-39.66-2.29-9.15-3.81-6.86-5.34-23.64-1.53-16.78,12.2-175.42,11.44-180-.76-4.58,19.43-142.1,19.43-142.1,0,0,38.54,179.47,50.74,213.79,12.2,34.32,18.3,100.68,18.3,105.25s6.86,58.73,9.91,66.35c3.05,7.63,11.44,31.27,11.44,31.27,0,0,12.2,18.3,17.54,27.46,5.34,9.15,23.64,16.78,37.37,19.07,13.73,2.29,24.41,3.05,25.17-15.25,.76-18.3-6.1-30.51-17.54-38.9-11.44-8.39-13.73-16.02-13.73-16.02,0,0,1.53-20.59,0-33.56-1.53-12.97-9.92-22.88-10.68-49.58-.76-26.69-6.1-167.03-10.68-189.15-4.58-22.12-10.61-170.11-9.85-190.7,.76-20.59-1.92-77.97-1.92-77.97l-185.71-2.12,.57,10.9Z" style="fill: #353535; stroke: #353535; stroke-miterlimit: 10; stroke-width: 2.1px;"/>
        <g>
          <path d="M469.75,348.94s-28.33,16.72-48.41,26.76c-20.08,10.04-44.56,15.69-47.07,21.34-2.51,5.65-45.81,97.9-53.97,110.45s-27.61,37.03-23.85,50.83c3.77,13.81,19.46,32.63,29.5,31.38,10.04-1.26,30.12-6.9,38.28-21.34,8.16-14.43,27.61-60.88,27.61-60.88,0,0,3.14,43.3,2.51,64.64-.63,21.34-.63,38.91-1.88,49.58-1.26,10.67-6.9,23.85-4.39,27.61s5.65,7.53,8.79,6.9c3.14-.63,50.21-1.26,64.64-.63,14.43,.63,79.7,0,93.51,.63,13.81,.63,25.73-6.28,26.99-8.79s3.77-6.28,2.51-20.08c-1.26-13.81,1.26-55.85,5.02-72.17,3.77-16.32,26.36-79.08,26.36-79.08,0,0,59.62,47.07,72.17,50.83,12.55,3.77,46.44-1.88,57.74-15.69,11.3-13.81,15.06-24.48,8.16-33.89-6.9-9.41-32.01-18.2-58.37-46.44-26.36-28.24-36.4-41.42-54.6-50.21-18.2-8.79-55.23-20.71-64.01-24.48s-11.3-5.65-16.94-8.16c-5.65-2.51-18.83-7.53-43.3-8.16-24.48-.63-46.98,9.01-46.98,9.01Z" style="fill: #fd0; stroke: #353535; stroke-miterlimit: 10; stroke-width: 2.1px;"/>
          <g>
            <path d="M379.21,463.03c.87,3.03,12.63,44.46,12.63,44.46l-17.39-34.51" style="fill: none; stroke: #353535; stroke-miterlimit: 10; stroke-width: 2.1px;"/>
            <path d="M615.89,476.11c-2.63-.1-27.29-13.95-27.29-13.95" style="fill: none; stroke: #353535; stroke-miterlimit: 10; stroke-width: 2.1px;"/>
            <path d="M576.05,460.44s9.95,12.98,18.6,15.57" style="fill: none; stroke: #353535; stroke-miterlimit: 10; stroke-width: 2.1px;"/>
          </g>
        </g>
        <path d="M466.25,387.44l7.88,29.75s-24.94,124.7-28.88,145.71c-3.94,21-4.81,38.5-4.81,38.5l21.88,43.32,27.57-46.82s-2.63-59.07-3.5-106.33c-.87-47.26,.88-70.01,.44-71.32-.44-1.31,27.57-21.88,27.57-21.88,0,0,16.19-17.94,17.06-21,.88-3.06-11.38,.87-14,3.5-2.63,2.63-10.5,7.44-21.88,5.25-11.38-2.19-26.25-14.88-28.44-8.75-2.19,6.13-.88,10.06-.88,10.06Z" style="fill: #353535; stroke: #353535; stroke-miterlimit: 10; stroke-width: 2.1px;"/>
        <path d="M485.07,336.69c-1.31,.87-11.81,3.5-15.31,12.25-3.5,8.75-21.44,49.01-26.69,55.57-5.25,6.56,3.06,3.94,10.06-.44,7-4.38,13.13-21.44,17.06-14,3.94,7.44,15.31,10.5,15.31,10.5,0,0,23.63-4.38,28.88-7.88,5.25-3.5,10.06-8.31,10.06-8.31,0,0,20.13,30.19,25.82,32.82,5.69,2.63,6.56-1.75,7-6.56,.44-4.81,4.38-33.25,10.06-52.07,5.69-18.81-5.25-24.94-12.25-32.82-7-7.88-14.88-2.63-22.75-1.75-7.88,.88-47.26,12.69-47.26,12.69Z" style="fill: #fd0; stroke: #353535; stroke-miterlimit: 10; stroke-width: 2.1px;"/>
        <g>
          <path d="M473.07,201.96s-13.67,20.76-11.14,25.82c2.53,5.06,2.53,11.65,0,15.19-2.53,3.54-5.57,8.1-4.56,16.71,1.01,8.61-4.05,52.15,3.54,57.21,7.59,5.06,15.7,7.59,15.7,7.59,0,0,8.61,72.91,11.65,70.88,3.04-2.03,46.58-46.58,51.64-56.2,5.06-9.62,11.14-23.29,11.14-23.29,0,0,17.21-32.91,27.34-46.58,10.13-13.67,21.77-38.99,18.23-52.15-3.54-13.16-21.77-22.78-30.38-29.87-8.61-7.09-3.04-23.29-15.19-31.39-12.15-8.1-26.83-10.13-36.45-6.58-9.62,3.54-10.13,11.14-21.77,3.54-11.65-7.59-22.78-15.19-40.5-6.58-17.72,8.61-21.27,38.99-10.63,47.09,10.63,8.1,31.39,8.61,31.39,8.61Z" style="fill: #fff; stroke: #353535; stroke-miterlimit: 10; stroke-width: 2.1px;"/>
          <path d="M566.23,187.28c-8.61-7.09-3.04-23.29-15.19-31.39-12.15-8.1-26.83-10.13-36.45-6.58-9.62,3.54-10.13,11.14-21.77,3.54-11.65-7.59-22.78-15.19-40.5-6.58-17.72,8.61-21.27,38.99-10.63,47.09,10.63,8.1,31.39,8.61,31.39,8.61,0,0,15.19-7.09,25.32-12.66,10.13-5.57,32.91,3.54,36.96,7.09,4.05,3.54-2.03,1.01-3.04,7.59-1.01,6.58,11.65,17.21,17.21,22.28,5.57,5.06-1.01,8.61-2.53,15.19-1.52,6.58,4.56,9.11,8.1,6.58,3.54-2.53,14.68-16.71,18.73-8.61,4.05,8.1,10.13,20.25-1.01,28.86-11.14,8.61-19.24,6.58-19.24,6.58,0,0-3.63,21.93,6.89,23.65,5.65-10.11,12.72-22.2,17.92-29.22,10.13-13.67,21.77-38.99,18.23-52.15-3.54-13.16-21.77-22.78-30.38-29.87Z" style="fill: #353535; stroke: #353535; stroke-miterlimit: 10; stroke-width: 2.1px;"/>
          <path d="M500.41,228.8s5.06-2.03,10.13-1.52" style="fill: none; stroke: #353535; stroke-miterlimit: 10; stroke-width: 1.4px;"/>
          <path d="M474.49,233.77s-4.42,.92-7.18,2.58" style="fill: none; stroke: #353535; stroke-miterlimit: 10; stroke-width: 1.4px;"/>
          <path d="M474.67,219.96s3.13,5.71,1.47,11.23c-1.66,5.52-17.31,17.86-17.13,20.26,.18,2.39,9.21,7.37,9.02,9.39s-.74,5.34-.74,5.34" style="fill: none; stroke: #353535; stroke-miterlimit: 10; stroke-width: 2.1px;"/>
          <ellipse cx="508.92" cy="231.74" rx="3.31" ry="4.05" style="fill: #353535; stroke: #353535; stroke-miterlimit: 10; stroke-width: 1.4px;"/>
          <path d="M502.48,238.37c.55-.18,8.65-3.5,13.99-3.13" style="fill: none; stroke: #353535; stroke-miterlimit: 10; stroke-width: 2.1px;"/>
          <path d="M490.78,213.98s10.86-10.08,19.27-8.04c8.41,2.04,11.6,10.12,10.26,10.15s-5.58-6.24-10.22-6.71c-4.64-.47-7.89,1.72-11.84,3.72-3.96,2-6.44,3.44-7.47,.88Z" style="fill: #353535; stroke: #353535; stroke-miterlimit: 10; stroke-width: 1.4px;"/>
          <path d="M475.41,221.98c0-.82-1.29-4.6-6.26-3.87-4.97,.74-8.74,9.76-7.22,9.67,1.51-.09,3.17-5.8,7.04-6.35,3.87-.55,6.45,5.52,6.45,.55Z" style="fill: #353535; stroke: #353535; stroke-miterlimit: 10; stroke-width: 1.4px;"/>
          <path d="M466.94,277.59s7.92-.92,18.23-2.21c10.31-1.29,24.86-3.31,27.25-10.68,2.39-7.37,1.84-11.23,1.84-11.23" style="fill: none; stroke: #353535; stroke-miterlimit: 10; stroke-width: 2.1px;"/>
          <path d="M508.74,252.92c.74-.18,6.63-.18,9.02,.55" style="fill: none; stroke: #353535; stroke-miterlimit: 10; stroke-width: 2.1px;"/>
          <path d="M551.24,289.31s-1.95,10.88-11.16,16.74c-9.21,5.86-76.74,12.56-74.51,13.39s11.04,5.04,11.04,5.04l2.64,23.98s12.84-12.28,35.16-23.72c22.32-11.44,36.28-15.35,36.84-35.44Z" style="fill: #353535; stroke: #353535; stroke-miterlimit: 10; stroke-width: 1.4px;"/>
        </g>
        <g>
          <path d="M588.9,616.69s-12.55-.63-15.69-1.26c-3.14-.63-13.18-10.04-17.57-9.41-4.39,.63-12.55,9.41-15.69,16.94-3.14,7.53-4.39,11.3-4.39,11.3,0,0-11.3,10.04-5.65,16.94,5.65,6.9,11.92,4.39,11.92,4.39,0,0,3.77,6.28,8.79,6.9,5.02,.63,11.3,.63,11.3,.63,0,0,6.28,1.88,10.04,1.26,3.77-.63,7.53-3.14,7.53-3.14,0,0,4.39,.63,7.53-1.88,2.31-1.85,13.45-13.21,19.18-19.08,2.06-2.11,3.41-3.51,3.41-3.51l-20.71-20.08Z" style="fill: #fff; stroke: #353535; stroke-miterlimit: 10; stroke-width: 2.1px;"/>
          <g>
            <path d="M693.71,487.41s-23.22,25.73-30.75,38.28c-7.53,12.55-30.75,45.19-39.54,55.23-8.79,10.04-39.54,34.52-39.54,34.52,0,0,9.41,20.08,16.32,23.22,6.9,3.14,12.55,4.39,12.55,4.39l25.1-18.83s47.7-36.4,72.8-57.11c25.1-20.71,60.25-48.32,62.76-60.25,2.51-11.92,.63-18.2-11.92-27.61-12.55-9.41-25.73-13.18-25.73-13.18" style="fill: #fd0; stroke: #353535; stroke-miterlimit: 10; stroke-width: 2.1px;"/>
            <path d="M603.34,599.75s5.65,27.61,25.1,27.61" style="fill: none; stroke: #353535; stroke-miterlimit: 10; stroke-width: 2.1px;"/>
          </g>
        </g>
        <g>
          <path d="M329.89,396.41s2.6,22.06,3.89,32.01c1.3,9.95,4.33,14.28,4.33,14.28,0,0-20.33,45.43-21.2,46.72-.87,1.3-22.06,41.1-25.53,45.86-3.46,4.76-11.68,19.9-6.49,29.42,5.19,9.52,13.41,28.99,24.23,29.42,10.82,.43,25.96-6.06,36.34-12.11,10.38-6.06,13.84-9.95,14.71-27.26,.87-17.31,.43-48.45,3.46-64.89,3.03-16.44,5.19-33.75,7.35-40.23,2.16-6.49,14.71-4.33,19.04-6.92,4.33-2.6,8.22-8.22,16.01-11.68,7.79-3.46,18.6-2.6,21.2-1.73,2.6,.87,7.35-3.03,6.06-7.79-1.3-4.76-9.95-7.35-18.6-6.49-8.65,.87-16.44,3.46-18.6,2.16-2.16-1.3-4.33-24.23-4.33-24.23,0,0-30.72,2.6-41.53,3.03-10.82,.43-20.33,.43-20.33,.43Z" style="fill: #fff; stroke: #353535; stroke-miterlimit: 10; stroke-width: 2.1px;"/>
          <g>
            <path d="M377.48,379.53s.43,28.55,.43,31.15,2.6,4.76,4.76,4.33c2.16-.43,7.79,1.73,9.09-4.76,1.3-6.49,3.89-24.66,2.6-28.99-1.3-4.33-12.98-6.06-16.87-1.73Z" style="fill: #fff; stroke: #353535; stroke-miterlimit: 10; stroke-width: 2.1px;"/>
            <path d="M377.48,379.53s-13.84-3.46-17.74-1.3c-3.89,2.16,2.16,32.88,2.6,35.48s6.49,3.89,9.09,3.03c2.6-.87,6.49-2.6,6.49-6.06s-.43-31.15-.43-31.15Z" style="fill: #fff; stroke: #353535; stroke-miterlimit: 10; stroke-width: 2.1px;"/>
            <path d="M356.71,379.1s-9.09-1.73-11.68,1.3-3.46,7.35-2.6,15.14c.87,7.79,5.19,19.47,6.92,22.06,1.73,2.6,7.35,3.03,10.82,1.73,3.46-1.3,2.16-5.62,2.16-5.62,0,0-1.73-1.73-2.16-15.14-.43-13.41-.43-20.33-.43-20.33l-3.03,.87Z" style="fill: #fff; stroke: #353535; stroke-miterlimit: 10; stroke-width: 2.1px;"/>
            <path d="M341.57,384.29c-1.73,.43-12.55,.87-12.98,5.19-.43,4.33,3.46,24.66,5.19,26.82,1.73,2.16,6.49,1.3,8.22,.43,1.73-.87,4.76-2.16,4.33-4.76-.43-2.6-4.76-27.69-4.76-27.69Z" style="fill: #fff; stroke: #353535; stroke-miterlimit: 10; stroke-width: 2.1px;"/>
          </g>
          <path d="M345.03,469.95c-7.67-.79-11.93-6.75-14.1-11.27-5.95,13.22-13.5,29.96-14.03,30.74-.87,1.3-22.06,41.1-25.53,45.86-3.46,4.76-11.68,19.9-6.49,29.42,5.19,9.52,13.41,28.99,24.23,29.42,10.82,.43,25.96-6.06,36.34-12.11,10.38-6.06,13.84-9.95,14.71-27.26,.86-17.31,.43-48.45,3.46-64.89,1.49-8.06,2.76-16.33,3.93-23.43-6.69,2.09-15.65,4.24-22.54,3.53Z" style="fill: #fd0; stroke: #353535; stroke-miterlimit: 10; stroke-width: 2.1px;"/>
          <path d="M364.93,422.36s-7.35,6.49-8.22,12.11c-.87,5.62,2.16,10.38,2.16,10.38" style="fill: #fff; stroke: #353535; stroke-miterlimit: 10; stroke-width: 2.1px;"/>
        </g>
      </g>
    </g>
  </g>
  <g>
    <text transform="translate(142.85 350.8) rotate(-63.25)" style="fill: #353535; font-family: ClashDisplayVariable-Regular, &apos;Clash Display Variable&apos;; font-size: 78.7px; font-variation-settings: &apos;wght&apos; 400;"><tspan x="0" y="0">Hire an </tspan></text>
    <text transform="translate(339.6 147.91) rotate(-20.8)" style="fill: #353535; font-family: ClashDisplayVariable-Semibold, &apos;Clash Display Variable&apos;; font-size: 78.7px; font-variation-settings: &apos;wght&apos; 600; font-weight: 700;"><tspan x="0" y="0">Expert</tspan></text>
    <text transform="translate(614.54 131.21) rotate(18.32)" style="fill: #353535; font-family: ClashDisplayVariable-Regular, &apos;Clash Display Variable&apos;; font-size: 78.7px; font-variation-settings: &apos;wght&apos; 400;"><tspan x="0" y="0" xml:space="preserve"> for your</tspan></text>
  </g>
  <text transform="translate(84.93 473.02) rotate(93.05)" style="fill: #353535; font-family: ClashDisplayVariable-Bold, &apos;Clash Display Variable&apos;; font-size: 60.15px; font-variation-settings: &apos;wght&apos; 700;"><tspan x="0" y="0">ECOMMERCE DEVELOPMENT PROJECT</tspan></text>
  <circle cx="106.28" cy="420.7" r="21.02" style="fill: #353535;"/>
  <circle cx="893.72" cy="420.7" r="21.02" style="fill: #353535;"/>
  <g>
    <path d="M568.51,474.73c0,14.03-12.57,24.98-28.09,24.46-15.51-.53-27.49-13.53-26.75-29.04s13.31-26.46,28.09-24.46c14.77,2,26.75,15.01,26.75,29.04Z" style="fill: #353535;"/>
    <g>
      <path d="M534.4,478.71l4.12,.29,.06-2.39-4.11-.31c-2.25-.17-4.01-2.11-3.94-4.34l.03-.81c.08-2.23,1.95-3.87,4.18-3.66l18.19,1.67h0s0,0,0,0l1.21,.11,.03-2.32-1.21-.12h0s-18.15-1.75-18.15-1.75c-1.25-.12-2.42,.12-3.43,.64-1.88,.97-3.17,2.9-3.26,5.23l-.03,.81c-.13,3.58,2.69,6.69,6.3,6.95Z" style="fill: #ffe100;"/>
      <path d="M547.64,470.24l-.67-.07-4.64-.45-2.43-.24-.25,9.59,2.45,.17,.17-7.17,4.65,.45,.68,.07c2.24,.19,4.03,2.08,4,4.22v.78c-.05,2.14-1.9,3.76-4.16,3.6l-19.63-1.33-.09,2.43,1.23,.08h0s0,0,0,0l18.44,1.17c1.27,.08,2.45-.18,3.47-.71,1.88-.97,3.14-2.84,3.17-5.06v-.77c.06-3.41-2.81-6.44-6.38-6.76Z" style="fill: #ffe100;"/>
      <polygon points="529.62 462.96 529.62 462.96 552.98 465.28 554.19 465.4 554.21 464.25 554.21 464.24 554.21 464.24 554.22 463.08 553.02 462.96 529.71 460.53 529.71 460.53 529.71 460.53 528.5 460.41 528.42 462.84 529.62 462.96 529.62 462.96" style="fill: #ffe100;"/>
    </g>
  </g>
</svg>