<svg width="133" height="121" viewBox="0 0 133 121" fill="none" xmlns="http://www.w3.org/2000/svg">
<path d="M126.323 15.3497V106.924H6.64825V15.3497C6.64825 11.1419 10.0497 7.74051 14.2574 7.74051H118.741C122.922 7.76711 126.325 11.1685 126.325 15.3497H126.323Z" fill="white"/>
<path d="M126.35 15.3763V106.951H118.766V15.3763C118.766 11.1685 115.364 7.76709 111.157 7.76709H118.741C122.949 7.76709 126.35 11.1685 126.35 15.3763Z" fill="#EDEDEE"/>
<path d="M14.2059 99.3664V15.3497C14.2059 14.181 15.1402 13.2466 16.3089 13.2466H116.636C117.805 13.2466 118.739 14.181 118.739 15.3497V99.3398H14.2059V99.3664Z" fill="#D3EFFC"/>
<path d="M86.6916 45.5552V48.438C86.6916 49.088 86.1729 49.6333 85.4963 49.6333H76.8481C76.1981 49.6333 75.6528 49.1146 75.6528 48.438V45.5552C75.6528 44.9052 76.1715 44.3599 76.8481 44.3599H85.5229C86.1729 44.3865 86.6916 44.9052 86.6916 45.5552Z" fill="#F48A8B"/>
<path d="M86.6916 45.5552V48.438C86.6916 49.088 86.1729 49.6333 85.4963 49.6333H83.1073C83.7573 49.6333 84.3026 49.1146 84.3026 48.438V45.5552C84.3026 44.9052 83.7839 44.3599 83.1073 44.3599H85.4963C86.1712 44.3865 86.6916 44.9052 86.6916 45.5552Z" fill="#F16465"/>
<path d="M79.2388 49.6317H76.8498C76.1997 49.6317 75.6544 49.113 75.6544 48.4629V45.5802C75.6544 44.9302 76.1731 44.3849 76.8498 44.3849H79.2388C78.5887 44.3849 78.0434 44.9036 78.0434 45.5802V48.4629C78.07 49.0864 78.5887 49.6317 79.2388 49.6317Z" fill="#F8AFB1"/>
<path d="M40.3334 88.4073C40.3334 90.7714 38.4116 92.6932 36.0475 92.6932C33.6835 92.6932 31.7617 90.7714 31.7617 88.4073C31.7617 86.0433 33.6835 84.1215 36.0475 84.1215C38.4116 84.1481 40.3334 86.0699 40.3334 88.4073ZM63.1094 88.4073C63.1094 90.7714 61.1875 92.6932 58.8235 92.6932C56.4594 92.6932 54.5376 90.7714 54.5376 88.4073C54.5376 86.0433 56.4594 84.1215 58.8235 84.1215C61.1875 84.1481 63.1094 86.0699 63.1094 88.4073Z" fill="#A9B2B4"/>
<path d="M40.3334 88.4073C40.3334 90.7714 38.4116 92.6932 36.0475 92.6932C34.2288 92.6932 32.6195 91.5511 32.0226 89.8371C34.2554 90.6168 36.6975 89.4481 37.4772 87.2137C37.8147 86.3043 37.7881 85.2919 37.4772 84.3575C39.1913 85.0076 40.3334 86.6169 40.3334 88.409V88.4073ZM63.1093 88.4073C63.1093 90.7714 61.1875 92.6932 58.8235 92.6932C57.0047 92.6932 55.3954 91.5511 54.7986 89.8371C57.0313 90.6168 59.4735 89.4481 60.2532 87.2137C60.5907 86.2794 60.5907 85.2919 60.2532 84.3575C61.9672 85.0076 63.1093 86.6169 63.1093 88.409V88.4073Z" fill="#7C8B8F"/>
<path d="M69.7843 52.541L61.7844 78.2529H35.9711C34.9054 78.2529 33.9445 77.5513 33.6336 76.5123L27.1666 55.7346C26.7776 54.4362 27.5041 53.0597 28.8025 52.6441C29.0369 52.566 29.2696 52.541 29.529 52.541H69.7843Z" fill="#87CB99"/>
<path d="M69.7842 52.541L61.7861 78.2529H57.319L65.3438 52.541H69.7842Z" fill="#64BF7D"/>
<path d="M40.4382 78.2529H35.9977C34.932 78.2529 33.9711 77.5513 33.6602 76.5123L27.1932 55.7346C26.7776 54.4362 27.5041 53.0597 28.8291 52.6441C29.0635 52.566 29.3228 52.541 29.5556 52.541H33.9961C32.6461 52.541 31.5289 53.6582 31.5289 55.0081C31.5289 55.2425 31.5555 55.5019 31.632 55.7346L38.0991 76.5123C38.41 77.5513 39.3459 78.2529 40.4365 78.2529H40.4382Z" fill="#AEDABA"/>
<path d="M85.5229 43.3209H76.8481C75.6279 43.3209 74.6154 44.3084 74.6154 45.5536V45.9692H73.4982C71.8623 45.9692 70.4077 47.0349 69.9139 48.6175L69.0045 51.5269H29.504C27.5822 51.5269 25.9979 53.0846 25.9979 55.0331C25.9979 55.3971 26.0494 55.7346 26.1541 56.0721L32.6212 76.8498C33.0634 78.3044 34.4399 79.3169 35.9711 79.3169H60.358L59.2408 82.9012C59.1893 83.0309 59.0596 83.1356 58.9299 83.1356H36.0492C33.1149 83.1356 30.726 85.5246 30.726 88.4589C30.726 91.3931 33.1149 93.7821 36.0492 93.7821C38.9835 93.7821 41.3725 91.3931 41.3725 88.4589C41.3725 87.2901 40.9569 86.148 40.2303 85.212H54.644C53.9175 86.1464 53.5269 87.2635 53.5019 88.4589C53.5019 91.3931 55.866 93.7821 58.8002 93.8087C61.7345 93.8087 64.1235 91.4447 64.1501 88.5104C64.1501 86.4589 63.008 84.6152 61.1626 83.7058C61.1892 83.6543 61.2142 83.5762 61.2408 83.5246L71.9155 49.2692C72.1234 48.5677 72.7734 48.0739 73.5265 48.0739H74.6437V48.4895C74.6437 49.7098 75.6312 50.7223 76.8764 50.7223H85.5246C86.7449 50.7223 87.7573 49.7347 87.7573 48.4895V45.6068C87.7307 44.335 86.7449 43.3475 85.5246 43.3209H85.5229ZM34.6195 76.1997L28.1524 55.4221C27.918 54.669 28.3336 53.8643 29.0868 53.6299C29.2164 53.5784 29.3727 53.5784 29.5024 53.5784H68.3811L61.0313 77.2122H35.996C35.346 77.2122 34.8007 76.7966 34.6195 76.1997ZM36.0476 91.6525C34.2554 91.6525 32.8007 90.1978 32.8007 88.4057C32.8007 86.6135 34.2554 85.1588 36.0476 85.1588C37.8397 85.1588 39.2944 86.6135 39.2944 88.4057C39.2944 90.1978 37.8397 91.6525 36.0476 91.6525ZM58.8235 91.6525C57.0314 91.6525 55.5767 90.1978 55.5767 88.4057C55.5767 86.6135 57.0314 85.1588 58.8235 85.1588C60.6157 85.1588 62.0703 86.6135 62.0703 88.4057C62.0703 90.1978 60.6157 91.6525 58.8235 91.6525ZM85.6775 48.4363C85.6775 48.5145 85.5994 48.5926 85.5213 48.5926H76.8731C76.7949 48.5926 76.7168 48.5411 76.7168 48.4363V45.5536C76.7168 45.4755 76.7949 45.3973 76.8731 45.3973H85.5479C85.626 45.3973 85.7041 45.4755 85.7041 45.5536L85.6775 48.4363Z" fill="#333333"/>
<path d="M48.4114 73.4733C47.8395 73.4733 47.3724 73.0062 47.3724 72.4343V58.358C47.3724 57.7862 47.8395 57.319 48.4114 57.319C48.9833 57.319 49.4505 57.7862 49.4505 58.358V72.4343C49.4505 73.0062 48.9833 73.4733 48.4114 73.4733ZM56.5143 73.4733C56.4628 73.4733 56.4113 73.4733 56.3331 73.4467C55.7612 73.3436 55.3722 72.8233 55.4753 72.2514L57.8127 58.1752C57.8909 57.6033 58.4096 57.2143 58.9815 57.2658C59.5534 57.3439 59.9424 57.8626 59.8908 58.4345V58.5127L57.5534 72.5889C57.4503 73.1076 57.0081 73.4716 56.5143 73.4716V73.4733ZM40.3351 73.4733C39.8164 73.4733 39.4008 73.1092 39.3226 72.5905L37.0118 58.5143C36.9337 57.9424 37.3493 57.4237 37.9212 57.3456C38.4665 57.2675 38.9602 57.6315 39.0633 58.1768L41.3741 72.253C41.4772 72.8249 41.0882 73.3436 40.5163 73.4484C40.4382 73.475 40.3866 73.475 40.3351 73.475V73.4733ZM105.938 59.3971H84.4074C83.8355 59.3971 83.3684 58.9299 83.3684 58.358C83.3684 57.7862 83.8355 57.319 84.4074 57.319H105.938C106.51 57.319 106.977 57.7862 106.977 58.358C106.977 58.9299 106.51 59.3971 105.938 59.3971ZM105.938 67.9938H79.9669C79.395 67.9938 78.9279 67.5266 78.9279 66.9547C78.9279 66.3828 79.395 65.9157 79.9669 65.9157H105.938C106.51 65.9157 106.977 66.3828 106.977 66.9547C106.977 67.5266 106.51 67.9938 105.938 67.9938ZM105.938 76.5905H75.5265C74.9546 76.5905 74.4874 76.1233 74.4874 75.5514C74.4874 74.9795 74.9546 74.5124 75.5265 74.5124H105.938C106.51 74.5124 106.977 74.9795 106.977 75.5514C106.977 76.1233 106.51 76.5905 105.938 76.5905ZM105.938 85.1871H71.0594C70.4875 85.1871 70.0203 84.72 70.0203 84.1481C70.0203 83.5762 70.4875 83.109 71.0594 83.109H105.913C106.485 83.109 106.952 83.5762 106.952 84.1481C106.952 84.72 106.51 85.1871 105.94 85.1871H105.938Z" fill="#333333"/>
<path d="M132.194 106.951V112.041C132.194 116.327 128.714 119.807 124.428 119.807H8.54513C4.25926 119.78 0.779694 116.3 0.779694 112.015V106.924H132.194V106.951Z" fill="#D4DADA"/>
<path d="M16.1277 119.78H8.54346C4.25758 119.78 0.778015 116.3 0.778015 112.015V106.924H8.38718V112.015C8.38718 116.3 11.8418 119.78 16.126 119.78H16.1277Z" fill="#EDEDEE"/>
<path d="M132.194 106.951V112.041C132.194 116.327 128.714 119.807 124.428 119.807H116.819C121.105 119.807 124.585 116.327 124.585 112.041V106.951H132.194Z" fill="#A9B2B5"/>
<path d="M85.3417 106.951V110.613C85.3417 111.885 84.3027 112.924 83.0309 112.924H49.9176C48.6458 112.924 47.6068 111.885 47.6068 110.613V106.951H85.3434H85.3417Z" fill="white"/>
<path d="M85.3683 106.951V110.613C85.3683 111.885 84.3293 112.899 83.0575 112.899H76.903C78.1748 112.899 79.1889 111.86 79.1889 110.613V106.951H85.37H85.3683Z" fill="#EDEDEE"/>
<path d="M19.7652 24.4401H38.4648V28.3619C38.4648 33.5305 34.2836 37.7117 29.115 37.7117C23.9463 37.7117 19.7652 33.5305 19.7652 28.3619V24.4401ZM113.21 24.4401V28.3619C113.236 33.5305 109.08 37.7383 103.912 37.7632C98.7429 37.7898 94.5352 33.6336 94.5103 28.465V24.4401H113.21ZM57.1377 24.4401H75.8373V28.3619C75.8373 33.5305 71.6562 37.7117 66.4875 37.7117C61.3189 37.7117 57.1377 33.5305 57.1377 28.3619V24.4401Z" fill="#FEDD8F"/>
<path d="M1.06564 24.4401H19.7652V28.3619C19.7652 33.5306 15.5841 37.7117 10.4154 37.7117C5.24678 37.7117 1.06564 33.5306 1.06564 28.3619V24.4401ZM75.8373 24.4401H94.5369V28.3619C94.5369 33.5306 90.3557 37.7117 85.1871 37.7117C80.0184 37.7117 75.8373 33.5306 75.8373 28.3619V24.4401ZM38.4382 24.4401H57.1377V28.3619C57.1377 33.5306 52.9566 37.7117 47.788 37.7117C42.6193 37.7117 38.4382 33.5306 38.4382 28.3619V24.4401ZM131.908 24.4401V28.3619C131.908 33.5306 127.727 37.7117 122.558 37.7117C117.389 37.7117 113.208 33.5306 113.208 28.3619V24.4401H131.908ZM25.6853 0.781372L19.7635 24.4418H1.06564L7.89677 5.04065C8.80615 2.4954 11.1951 0.781372 13.9216 0.781372H25.687H25.6853Z" fill="#F48A8B"/>
<path d="M42.0225 0.781372L38.4382 24.4401H19.7652L25.6853 0.781372H42.0225Z" fill="#FEDD8F"/>
<path d="M58.3314 0.781372L57.1377 24.4401H38.4382L42.0225 0.781372H58.3314Z" fill="#F48A8B"/>
<path d="M74.642 0.781372L75.8356 24.4401H57.1377L58.3314 0.781372H74.642Z" fill="#FEDD8F"/>
<path d="M90.9509 0.781372L94.5352 24.4401H75.8357L74.642 0.781372H90.9509Z" fill="#F48A8B"/>
<path d="M107.288 0.781372L113.208 24.4401H94.5352L90.9509 0.781372H107.288Z" fill="#FEDD8F"/>
<path d="M125.103 5.04065L131.934 24.4418H113.235L107.288 0.781372H119.078C121.78 0.781372 124.196 2.4954 125.103 5.04065Z" fill="#F48A8B"/>
<path d="M31.3743 37.4257C30.6212 37.6069 29.8681 37.6851 29.115 37.6851C23.9463 37.6851 19.7652 33.5039 19.7652 28.3353V24.4401H24.2838V28.3619C24.2838 32.6478 27.1932 36.3867 31.3743 37.4257ZM106.146 37.4257C105.393 37.6069 104.64 37.6851 103.887 37.6851C98.718 37.6851 94.5369 33.5039 94.5369 28.3353V24.4401H99.0555V28.3619C99.0555 32.6478 101.965 36.3867 106.146 37.4257ZM68.7468 37.4257C67.9937 37.6069 67.2406 37.6851 66.4875 37.6851C61.3189 37.6851 57.1377 33.5039 57.1377 28.3353V24.4401H61.6563V28.3619C61.6563 32.6478 64.5906 36.3867 68.7468 37.4257Z" fill="#FEE8B4"/>
<path d="M12.6747 37.4257C11.9216 37.6069 11.1685 37.6851 10.4154 37.6851C5.24678 37.6851 1.06564 33.504 1.06564 28.3353V24.4401H5.58426V28.3619C5.58426 32.6478 8.4936 36.3867 12.6747 37.4257ZM87.4464 37.4257C86.6933 37.6069 85.9402 37.6851 85.1871 37.6851C80.0184 37.6851 75.8373 33.504 75.8373 28.3353V24.4401H80.3559V28.3619C80.3559 32.6478 83.2902 36.3867 87.4464 37.4257ZM50.0473 37.4257C49.2942 37.6069 48.5411 37.6851 47.788 37.6851C42.6193 37.6851 38.4382 33.504 38.4382 28.3353V24.4401H42.9568V28.3619C42.9568 32.6478 45.8911 36.3867 50.0473 37.4257ZM124.844 37.4257C124.091 37.6069 123.338 37.6851 122.585 37.6851C117.416 37.6851 113.235 33.504 113.235 28.3353V24.4401H117.753V28.3619C117.753 32.6478 120.663 36.3867 124.844 37.4257ZM13.895 0.781372L5.58426 24.4418H1.06564L7.89677 5.04065C8.77955 2.4954 11.1951 0.781372 13.8967 0.781372H13.895Z" fill="#F8AFB1"/>
<path d="M30.2056 0.781372L24.2838 24.4401H19.7652L25.6853 0.781372H30.2056Z" fill="#FEE8B4"/>
<path d="M46.5145 0.781372L42.9568 24.4401H38.4382L42.0225 0.781372H46.5145Z" fill="#F8AFB1"/>
<path d="M62.85 0.781372L61.6563 24.4401H57.1377L58.3314 0.781372H62.85Z" fill="#FEE8B4"/>
<path d="M80.3559 24.4401H75.8357L74.642 0.781372H79.1606L80.3559 24.4401Z" fill="#F8AFB1"/>
<path d="M99.0539 24.4401H94.5352L90.9775 0.781372H95.4712L99.0539 24.4401Z" fill="#FEE8B4"/>
<path d="M117.728 24.4401H113.208L107.288 0.781372H111.807L117.728 24.4401Z" fill="#F8AFB1"/>
<path d="M38.4382 24.4401V28.3619C38.4382 33.5305 34.2571 37.7117 29.0884 37.7117C28.3353 37.7117 27.5822 37.6335 26.8291 37.4523C28.465 37.0367 29.9712 36.1805 31.1665 34.9852C32.9321 33.2446 33.9196 30.8556 33.9196 28.3885V24.4401H38.4382ZM113.21 24.4401V28.3619C113.21 33.5305 109.029 37.7117 103.86 37.7117C103.107 37.7117 102.354 37.6335 101.601 37.4523C103.237 37.0367 104.743 36.1805 105.938 34.9852C107.704 33.2446 108.691 30.8556 108.691 28.3885V24.4401H113.21ZM75.8373 24.4401V28.3619C75.8373 33.5305 71.6562 37.7117 66.4875 37.7117C65.7344 37.7117 64.9813 37.6335 64.2282 37.4523C65.8641 37.0367 67.3703 36.1805 68.5656 34.9852C70.3312 33.2446 71.3187 30.8556 71.3187 28.3885V24.4401H75.8373Z" fill="#FCD268"/>
<path d="M19.7652 24.4401V28.3619C19.7652 33.5305 15.5841 37.7117 10.4154 37.7117C9.66233 37.7117 8.90923 37.6335 8.15613 37.4523C9.79201 37.0367 11.2982 36.1805 12.4935 34.9852C14.2591 33.2446 15.2466 30.8556 15.2466 28.3885V24.4401H19.7652ZM94.5369 24.4401V28.3619C94.5369 33.5305 90.3557 37.7117 85.1871 37.7117C84.434 37.7117 83.6809 37.6335 82.9278 37.4523C84.5637 37.0367 86.0699 36.1805 87.2652 34.9852C89.0307 33.2446 90.0183 30.8556 90.0183 28.3885V24.4401H94.5369ZM57.1377 24.4401V28.3619C57.1377 33.5305 52.9566 37.7117 47.788 37.7117C47.0349 37.7117 46.2818 37.6335 45.5287 37.4523C47.1645 37.0367 48.6707 36.1805 49.8661 34.9852C51.6316 33.2446 52.6191 30.8556 52.6191 28.3885V24.4401H57.1377ZM131.909 24.4401V28.3619C131.909 33.5305 127.728 37.7117 122.56 37.7117C121.807 37.7117 121.053 37.6335 120.3 37.4523C121.936 37.0367 123.442 36.1805 124.638 34.9852C126.403 33.2446 127.391 30.8556 127.391 28.3885V24.4401H131.909Z" fill="#F16465"/>
<path d="M25.6853 0.781372L19.7652 24.4401H15.2449L21.1667 0.781372H25.6853Z" fill="#F16465"/>
<path d="M42.0225 0.781372L38.4382 24.4401H33.9196L37.5022 0.781372H42.0225Z" fill="#FCD268"/>
<path d="M58.3314 0.781372L57.1377 24.4401H52.6175L53.8128 0.781372H58.3314Z" fill="#F16465"/>
<path d="M75.8357 24.4401H71.317L70.1234 0.781372H74.642L75.8357 24.4401Z" fill="#FCD268"/>
<path d="M94.5352 24.4401H90.0166L86.4589 0.781372H90.9509L94.5352 24.4401Z" fill="#F16465"/>
<path d="M113.208 24.4401H108.69L102.768 0.781372H107.288L113.208 24.4401Z" fill="#FCD268"/>
<path d="M131.908 24.4401H127.389L119.078 0.779694C121.78 0.779694 124.195 2.49371 125.103 5.03896L131.908 24.4401Z" fill="#F16465"/>
<path d="M132.194 106.171H127.103V37.3991C128.064 36.9054 128.947 36.2819 129.7 35.5288C131.622 33.6336 132.687 31.0618 132.661 28.3602V24.4384C132.661 24.3869 132.634 24.204 132.609 24.1791L125.805 4.77796C124.792 1.92182 122.091 0 119.052 0H13.8684C10.8294 0 8.12952 1.92182 7.11541 4.77796L0.310884 24.1791C0.310884 24.2057 0.284284 24.3869 0.259347 24.4384V28.3602C0.259347 32.1773 2.41558 35.6835 5.84361 37.3975V106.169H0.779703C0.337483 106.169 0 106.507 0 106.949V112.039C0 116.741 3.81705 120.558 8.54514 120.585H124.455C129.156 120.585 132.973 116.768 133 112.039V106.949C132.973 106.507 132.636 106.169 132.195 106.169L132.194 106.171ZM131.128 28.3619C131.128 33.0883 127.284 36.932 122.558 36.932C117.832 36.932 113.988 33.0883 113.988 28.3619V25.2198H131.128V28.3619ZM7.42796 106.146V38.0242C9.40132 38.6211 11.4794 38.6211 13.4528 37.9976V99.3414C13.4528 99.7837 13.7903 100.121 14.2325 100.121H118.766C119.208 100.121 119.546 99.7837 119.546 99.3414V38.0242C121.494 38.6477 123.597 38.6476 125.57 38.0508V106.173L7.42796 106.146ZM84.562 107.73V110.613C84.562 111.444 83.887 112.146 83.0292 112.146H49.9159C49.0847 112.146 48.3831 111.471 48.3831 110.613V107.73H84.5603H84.562ZM29.0884 38.4914C33.1665 38.4648 36.8538 36.0243 38.4382 32.2587C40.6194 37.4274 46.5411 39.843 51.7097 37.6867C54.1503 36.6477 56.0987 34.7259 57.1377 32.2587C59.3189 37.4274 65.2407 39.843 70.4093 37.6867C72.8498 36.6477 74.7983 34.7259 75.8373 32.2587C78.0185 37.4274 83.9402 39.843 89.1089 37.6867C91.5494 36.6477 93.4978 34.7259 94.5369 32.2587C96.718 37.4274 102.64 39.843 107.808 37.6867C110.249 36.6477 112.197 34.7259 113.236 32.2587C114.171 34.4665 115.86 36.2836 117.989 37.3759V98.59H14.9856V37.3759C15.9199 36.8821 16.8043 36.2587 17.5574 35.5056C18.4918 34.5713 19.2449 33.479 19.7652 32.2587C21.323 36.0243 25.012 38.4914 29.0884 38.4914ZM20.5433 28.3619V25.2198H37.6834V28.3619C37.6834 33.0883 33.8398 36.932 29.1133 36.932C24.3869 36.932 20.5433 33.0883 20.5433 28.3619ZM39.2162 28.3619V25.2198H56.3564V28.3619C56.3564 33.0883 52.5127 36.932 47.7863 36.932C43.0599 36.932 39.2412 33.0883 39.2162 28.3619ZM76.6153 28.3619V25.2198H93.7555V28.3619C93.7555 33.0883 89.9119 36.932 85.1854 36.932C80.459 36.932 76.6153 33.0883 76.6153 28.3619ZM95.3149 28.3619V25.2198H112.455V28.3619C112.455 33.0883 108.611 36.932 103.885 36.932C99.1586 36.932 95.3149 33.0883 95.3149 28.3619ZM119.078 1.55941C121.442 1.55941 123.572 3.06561 124.35 5.29998L130.817 23.6621H113.832L108.274 1.56106H119.078V1.55941ZM106.665 1.55941L112.222 23.6604H95.1852L91.8603 1.55941H106.665ZM90.3025 1.55941L93.6275 23.6604H76.5904L75.4732 1.55941H90.3025ZM59.0596 1.55941H73.8889L75.0061 23.6604H57.9424L59.0596 1.55941ZM57.9174 25.2198H75.0576V28.3619C75.0576 33.0883 71.214 36.932 66.4875 36.932C61.7611 36.932 57.9174 33.0883 57.9174 28.3619V25.2198ZM42.6725 1.55941H57.5018L56.3846 23.6604H39.3476L42.6725 1.55941ZM26.3104 1.55941H41.1148L37.7649 23.6604H20.7544L26.3121 1.55941H26.3104ZM8.62328 5.29998C9.40298 3.06727 11.5326 1.55941 13.895 1.55941H24.6995L19.1418 23.6604H2.15624L8.62328 5.29832V5.29998ZM1.84535 28.3619V25.2198H18.9855V28.3619C18.9855 33.0883 15.1419 36.932 10.4154 36.932C5.689 36.932 1.84535 33.0883 1.84535 28.3619ZM131.416 112.015C131.416 115.858 128.299 119 124.43 119H8.54514C4.67489 119 1.55941 115.883 1.55941 112.015V107.704H46.852V110.586C46.852 112.274 48.2285 113.65 49.9425 113.677H83.0824C84.7698 113.677 86.1463 112.3 86.1729 110.586V107.704H131.414V112.015H131.416Z" fill="#333333"/>
</svg>
