<?xml version="1.0" encoding="utf-8"?>
<!-- Generator: Adobe Illustrator 26.5.0, SVG Export Plug-In . SVG Version: 6.00 Build 0)  -->
<svg version="1.1" xmlns="http://www.w3.org/2000/svg" xmlns:xlink="http://www.w3.org/1999/xlink" x="0px" y="0px"
	 viewBox="0 0 1000 1000" style="enable-background:new 0 0 1000 1000;" xml:space="preserve">
<style type="text/css">
	.st0{fill:#F7F7F7;stroke:#353535;stroke-width:5.8797;stroke-miterlimit:10;}
	.st1{fill:#FFD738;}
	.st2{opacity:0.6;fill:#FFFFFF;}
	.st3{clip-path:url(#SVGID_00000160152775630133210400000001779539653344849540_);}
	.st4{fill:#353535;stroke:#353535;stroke-width:2.1394;stroke-miterlimit:10;}
	.st5{fill:#FFD738;stroke:#353535;stroke-width:2.1394;stroke-miterlimit:10;}
	.st6{fill:none;stroke:#353535;stroke-width:2.1394;stroke-miterlimit:10;}
	.st7{fill:#FFFFFF;stroke:#353535;stroke-width:2.1394;stroke-miterlimit:10;}
	.st8{fill:none;stroke:#353535;stroke-width:1.4263;stroke-miterlimit:10;}
	.st9{fill:#353535;stroke:#353535;stroke-width:1.4263;stroke-miterlimit:10;}
	.st10{fill:#FFFFFF;stroke:#353535;stroke-width:7;stroke-miterlimit:10;}
	.st11{clip-path:url(#SVGID_00000071527894418940690990000005155340239957488546_);}
	.st12{fill:#353535;stroke:#353535;stroke-width:2.4667;stroke-miterlimit:10;}
	.st13{fill:#FFDD00;stroke:#353535;stroke-width:2.4667;stroke-miterlimit:10;}
	.st14{fill:none;stroke:#353535;stroke-width:2.4667;stroke-miterlimit:10;}
	.st15{fill:#FFFFFF;stroke:#353535;stroke-width:2.4667;stroke-miterlimit:10;}
	.st16{fill:none;stroke:#353535;stroke-width:1.6445;stroke-miterlimit:10;}
	.st17{fill:#353535;stroke:#353535;stroke-width:1.6445;stroke-miterlimit:10;}
	.st18{fill:#FFFFFF;}
	.st19{fill:#353535;}
	.st20{clip-path:url(#SVGID_00000078027131658108665100000007992919599332335807_);}
	.st21{fill:#353535;stroke:#353535;stroke-width:1.9989;stroke-miterlimit:10;}
	.st22{fill:#FFDD00;stroke:#353535;stroke-width:1.9989;stroke-miterlimit:10;}
	.st23{fill:none;stroke:#353535;stroke-width:1.9989;stroke-miterlimit:10;}
	.st24{fill:#FFFFFF;stroke:#353535;stroke-width:1.9989;stroke-miterlimit:10;}
	.st25{fill:none;stroke:#353535;stroke-width:1.3326;stroke-miterlimit:10;}
	.st26{fill:#353535;stroke:#353535;stroke-width:1.3326;stroke-miterlimit:10;}
	.st27{clip-path:url(#SVGID_00000132083324587864912250000010467550711842717106_);}
	.st28{fill:#353535;stroke:#353535;stroke-width:2.1027;stroke-miterlimit:10;}
	.st29{fill:#FFDD00;stroke:#353535;stroke-width:2.1027;stroke-miterlimit:10;}
	.st30{fill:none;stroke:#353535;stroke-width:2.1027;stroke-miterlimit:10;}
	.st31{fill:#FFFFFF;stroke:#353535;stroke-width:2.1027;stroke-miterlimit:10;}
	.st32{fill:none;stroke:#353535;stroke-width:1.4018;stroke-miterlimit:10;}
	.st33{fill:#353535;stroke:#353535;stroke-width:1.4018;stroke-miterlimit:10;}
	.st34{fill:#FFE100;}
	.st35{display:none;}
	.st36{display:inline;}
	.st37{fill:#FFFFFF;stroke:#1A2E35;stroke-width:1.4889;stroke-miterlimit:10;}
	.st38{fill:#1A2E35;stroke:#1A2E35;stroke-width:1.4889;stroke-miterlimit:10;}
	.st39{fill:none;stroke:#1A2E35;stroke-width:1.4889;stroke-miterlimit:10;}
</style>
<g id="Layer_1">
	<path class="st0" d="M500,34c257.36,0,466,208.64,466,466S757.36,966,500,966S34,757.36,34,500S242.64,34,500,34"/>
	<g>
		<g>
			<path class="st18" d="M500.47,174.77c187.29,0,339.12,151.83,339.12,339.12S687.76,853,500.47,853S161.35,701.17,161.35,513.88
				S313.18,174.77,500.47,174.77"/>
			<path class="st19" d="M500.47,173.09c243-0.92,408.78,247.39,316.04,471.7c-69.98,173.12-275.05,258.54-447.06,185.4
				C145.07,737.07,86.72,443.87,258.91,272.33C322.18,208.97,410.98,172.45,500.47,173.09c0,0,0,3.35,0,3.35
				c-12.91,1.18-28.37,2.76-40.97,5.33c0,0-8.07,1.55-8.07,1.55c-0.67,0.13-1.34,0.25-2.01,0.4c-1.73,0.41-4.32,1.07-5.99,1.47
				c-223.81,52.32-332.72,309.33-201.79,501.6c69.79,102.31,197.73,154.66,319.18,130.29c168.16-32.45,279.51-196.71,250.42-365.05
				c-23.46-139.43-134.9-247.13-273.84-271.06c-11.13-2.04-25.55-3.51-36.93-4.54C500.47,176.44,500.47,173.09,500.47,173.09
				L500.47,173.09z"/>
		</g>
		<g>
			<defs>
				<path id="SVGID_00000078022953569111705680000005024816996438636469_" d="M568.17,181.53l8.93-22.3l-53.99-25.15H399.13
					l-15.75,61.45C253.79,243.2,161.35,367.75,161.35,513.88C161.35,701.17,313.18,853,500.47,853s339.12-151.83,339.12-339.12
					C839.59,349.78,723.02,212.9,568.17,181.53z"/>
			</defs>
			<clipPath id="SVGID_00000132790929511130176080000003017991210781527178_">
				<use xlink:href="#SVGID_00000078022953569111705680000005024816996438636469_"  style="overflow:visible;"/>
			</clipPath>
			<g style="clip-path:url(#SVGID_00000132790929511130176080000003017991210781527178_);">
				<path class="st28" d="M396.86,656.23c0,0-19.64,85.96-20.4,126.38c-0.76,40.42,1.46,186.13,2.22,217.4
					c0.76,31.27,14.49,132.71,14.49,141.86c0,9.15,2.29,26.69,2.29,26.69l-6.1,32.8c0,0-5.34,4.58-19.07,12.2
					c-13.73,7.63-29.75,17.54-34.32,22.88l0,0c-2.37,2.77-1.32,7.07,2.09,8.37c4.31,1.65,10.35,3.44,16.98,3.83
					c12.97,0.76,34.32,0.76,45.76-2.29c11.44-3.05,20.59-12.97,25.93-16.78c5.34-3.81,5.34-3.81,5.34-3.81l0.76,8.39
					c0,0,0.76,0,7.63-1.53c6.86-1.53,16.02-6.86,16.02-6.86s0.76-12.97,0.76-20.59c0-7.63-3.81-21.36-4.58-24.41
					c-0.76-3.05,0-30.51-2.29-39.66c-2.29-9.15-3.81-6.86-5.34-23.64c-1.53-16.78,12.2-175.42,11.44-180
					c-0.76-4.58,19.43-142.1,19.43-142.1s38.54,179.47,50.74,213.79c12.2,34.32,18.3,100.68,18.3,105.25
					c0,4.58,6.86,58.73,9.91,66.35c3.05,7.63,11.44,31.27,11.44,31.27s12.2,18.3,17.54,27.46c5.34,9.15,23.64,16.78,37.37,19.07
					c13.73,2.29,24.41,3.05,25.17-15.25c0.76-18.3-6.1-30.51-17.54-38.9c-11.44-8.39-13.73-16.02-13.73-16.02s1.53-20.59,0-33.56
					c-1.53-12.97-9.92-22.88-10.68-49.58c-0.76-26.69-6.1-167.03-10.68-189.15c-4.58-22.12-10.61-170.11-9.85-190.7
					c0.76-20.59-1.92-77.97-1.92-77.97l-185.71-2.12L396.86,656.23z"/>
				<g>
					<path class="st29" d="M469.75,348.94c0,0-28.33,16.72-48.41,26.76c-20.08,10.04-44.56,15.69-47.07,21.34
						c-2.51,5.65-45.81,97.9-53.97,110.45c-8.16,12.55-27.61,37.03-23.85,50.83c3.77,13.81,19.46,32.63,29.5,31.38
						c10.04-1.26,30.12-6.9,38.28-21.34c8.16-14.43,27.61-60.88,27.61-60.88s3.14,43.3,2.51,64.64
						c-0.63,21.34-0.63,38.91-1.88,49.58c-1.26,10.67-6.9,23.85-4.39,27.61c2.51,3.77,5.65,7.53,8.79,6.9
						c3.14-0.63,50.21-1.26,64.64-0.63c14.43,0.63,79.7,0,93.51,0.63c13.81,0.63,25.73-6.28,26.99-8.79
						c1.26-2.51,3.77-6.28,2.51-20.08c-1.26-13.81,1.26-55.85,5.02-72.17c3.77-16.32,26.36-79.08,26.36-79.08
						s59.62,47.07,72.17,50.83c12.55,3.77,46.44-1.88,57.74-15.69s15.06-24.48,8.16-33.89s-32.01-18.2-58.37-46.44
						c-26.36-28.24-36.4-41.42-54.6-50.21c-18.2-8.79-55.23-20.71-64.01-24.48c-8.79-3.77-11.3-5.65-16.94-8.16
						c-5.65-2.51-18.83-7.53-43.3-8.16C492.25,339.3,469.75,348.94,469.75,348.94z"/>
					<g>
						<path class="st30" d="M379.21,463.03c0.87,3.03,12.63,44.46,12.63,44.46l-17.39-34.51"/>
						<path class="st30" d="M615.89,476.11c-2.63-0.1-27.29-13.95-27.29-13.95"/>
						<path class="st30" d="M576.05,460.44c0,0,9.95,12.98,18.6,15.57"/>
					</g>
				</g>
				<path class="st28" d="M466.25,387.44l7.88,29.75c0,0-24.94,124.7-28.88,145.71c-3.94,21-4.81,38.5-4.81,38.5l21.88,43.32
					l27.57-46.82c0,0-2.63-59.07-3.5-106.33c-0.87-47.26,0.88-70.01,0.44-71.32c-0.44-1.31,27.57-21.88,27.57-21.88
					s16.19-17.94,17.06-21c0.88-3.06-11.38,0.88-14,3.5c-2.63,2.63-10.5,7.44-21.88,5.25c-11.38-2.19-26.25-14.88-28.44-8.75
					C464.94,383.5,466.25,387.44,466.25,387.44z"/>
				<path class="st29" d="M485.07,336.69c-1.31,0.87-11.81,3.5-15.31,12.25c-3.5,8.75-21.44,49.01-26.69,55.57
					c-5.25,6.56,3.06,3.94,10.06-0.44c7-4.38,13.13-21.44,17.06-14c3.94,7.44,15.31,10.5,15.31,10.5s23.63-4.38,28.88-7.88
					c5.25-3.5,10.06-8.31,10.06-8.31s20.13,30.19,25.82,32.82c5.69,2.63,6.56-1.75,7-6.56c0.44-4.81,4.38-33.25,10.06-52.07
					c5.69-18.81-5.25-24.94-12.25-32.82c-7-7.88-14.88-2.63-22.75-1.75C524.45,324.87,485.07,336.69,485.07,336.69z"/>
				<g>
					<path class="st31" d="M473.07,201.96c0,0-13.67,20.76-11.14,25.82c2.53,5.06,2.53,11.65,0,15.19
						c-2.53,3.54-5.57,8.1-4.56,16.71c1.01,8.61-4.05,52.15,3.54,57.21c7.59,5.06,15.7,7.59,15.7,7.59s8.61,72.91,11.65,70.88
						c3.04-2.03,46.58-46.58,51.64-56.2c5.06-9.62,11.14-23.29,11.14-23.29s17.21-32.91,27.34-46.58
						c10.13-13.67,21.77-38.99,18.23-52.15c-3.54-13.16-21.77-22.78-30.38-29.87c-8.61-7.09-3.04-23.29-15.19-31.39
						c-12.15-8.1-26.83-10.13-36.45-6.58c-9.62,3.54-10.13,11.14-21.77,3.54c-11.65-7.59-22.78-15.19-40.5-6.58
						c-17.72,8.61-21.27,38.99-10.63,47.09C452.31,201.46,473.07,201.96,473.07,201.96z"/>
					<path class="st28" d="M566.23,187.28c-8.61-7.09-3.04-23.29-15.19-31.39c-12.15-8.1-26.83-10.13-36.45-6.58
						c-9.62,3.54-10.13,11.14-21.77,3.54c-11.65-7.59-22.78-15.19-40.5-6.58c-17.72,8.61-21.27,38.99-10.63,47.09
						c10.63,8.1,31.39,8.61,31.39,8.61s15.19-7.09,25.32-12.66c10.13-5.57,32.91,3.54,36.96,7.09c4.05,3.54-2.03,1.01-3.04,7.59
						c-1.01,6.58,11.65,17.21,17.21,22.28c5.57,5.06-1.01,8.61-2.53,15.19c-1.52,6.58,4.56,9.11,8.1,6.58
						c3.54-2.53,14.68-16.71,18.73-8.61c4.05,8.1,10.13,20.25-1.01,28.86c-11.14,8.61-19.24,6.58-19.24,6.58s-3.63,21.93,6.89,23.65
						c5.65-10.11,12.72-22.2,17.92-29.22c10.13-13.67,21.77-38.99,18.23-52.15C593.06,203.99,574.83,194.37,566.23,187.28z"/>
					<path class="st32" d="M500.41,228.8c0,0,5.06-2.03,10.13-1.52"/>
					<path class="st32" d="M474.49,233.77c0,0-4.42,0.92-7.18,2.58"/>
					<path class="st30" d="M474.67,219.96c0,0,3.13,5.71,1.47,11.23c-1.66,5.52-17.31,17.86-17.13,20.26
						c0.18,2.39,9.21,7.37,9.02,9.39c-0.18,2.03-0.74,5.34-0.74,5.34"/>
					<ellipse class="st33" cx="508.92" cy="231.74" rx="3.31" ry="4.05"/>
					<path class="st30" d="M502.48,238.37c0.55-0.18,8.65-3.5,13.99-3.13"/>
					<path class="st33" d="M490.78,213.98c0,0,10.86-10.08,19.27-8.04c8.41,2.04,11.6,10.12,10.26,10.15
						c-1.34,0.03-5.58-6.24-10.22-6.71c-4.64-0.47-7.89,1.72-11.84,3.72C494.29,215.1,491.82,216.54,490.78,213.98z"/>
					<path class="st33" d="M475.41,221.98c0-0.82-1.29-4.6-6.26-3.87c-4.97,0.74-8.74,9.76-7.22,9.67c1.51-0.09,3.17-5.8,7.04-6.35
						C472.83,220.88,475.41,226.95,475.41,221.98z"/>
					<path class="st30" d="M466.94,277.59c0,0,7.92-0.92,18.23-2.21c10.31-1.29,24.86-3.31,27.25-10.68
						c2.39-7.37,1.84-11.23,1.84-11.23"/>
					<path class="st30" d="M508.74,252.92c0.74-0.18,6.63-0.18,9.02,0.55"/>
					<path class="st33" d="M551.24,289.31c0,0-1.95,10.88-11.16,16.74c-9.21,5.86-76.74,12.56-74.51,13.39
						c2.23,0.84,11.04,5.04,11.04,5.04l2.64,23.98c0,0,12.84-12.28,35.16-23.72C536.73,313.31,550.69,309.4,551.24,289.31z"/>
				</g>
				<g>
					<path class="st31" d="M588.9,616.69c0,0-12.55-0.63-15.69-1.26c-3.14-0.63-13.18-10.04-17.57-9.41
						c-4.39,0.63-12.55,9.41-15.69,16.94c-3.14,7.53-4.39,11.3-4.39,11.3s-11.3,10.04-5.65,16.94c5.65,6.9,11.92,4.39,11.92,4.39
						s3.77,6.28,8.79,6.9c5.02,0.63,11.3,0.63,11.3,0.63s6.28,1.88,10.04,1.26c3.77-0.63,7.53-3.14,7.53-3.14s4.39,0.63,7.53-1.88
						c2.31-1.85,13.45-13.21,19.18-19.08c2.06-2.11,3.41-3.51,3.41-3.51L588.9,616.69z"/>
					<g>
						<path class="st29" d="M693.71,487.41c0,0-23.22,25.73-30.75,38.28c-7.53,12.55-30.75,45.19-39.54,55.23
							c-8.79,10.04-39.54,34.52-39.54,34.52s9.41,20.08,16.32,23.22c6.9,3.14,12.55,4.39,12.55,4.39l25.1-18.83
							c0,0,47.7-36.4,72.8-57.11c25.1-20.71,60.25-48.32,62.76-60.25c2.51-11.92,0.63-18.2-11.92-27.61
							c-12.55-9.41-25.73-13.18-25.73-13.18"/>
						<path class="st30" d="M603.34,599.75c0,0,5.65,27.61,25.1,27.61"/>
					</g>
				</g>
				<g>
					<path class="st31" d="M329.89,396.41c0,0,2.6,22.06,3.89,32.01c1.3,9.95,4.33,14.28,4.33,14.28s-20.33,45.43-21.2,46.72
						c-0.87,1.3-22.06,41.1-25.53,45.86c-3.46,4.76-11.68,19.9-6.49,29.42c5.19,9.52,13.41,28.99,24.23,29.42
						c10.82,0.43,25.96-6.06,36.34-12.11c10.38-6.06,13.84-9.95,14.71-27.26c0.87-17.31,0.43-48.45,3.46-64.89
						c3.03-16.44,5.19-33.75,7.35-40.23c2.16-6.49,14.71-4.33,19.04-6.92c4.33-2.6,8.22-8.22,16.01-11.68
						c7.79-3.46,18.6-2.6,21.2-1.73c2.6,0.87,7.35-3.03,6.06-7.79c-1.3-4.76-9.95-7.35-18.6-6.49c-8.65,0.87-16.44,3.46-18.6,2.16
						c-2.16-1.3-4.33-24.23-4.33-24.23s-30.72,2.6-41.53,3.03C339.4,396.41,329.89,396.41,329.89,396.41z"/>
					<g>
						<path class="st31" d="M377.48,379.53c0,0,0.43,28.55,0.43,31.15c0,2.6,2.6,4.76,4.76,4.33c2.16-0.43,7.79,1.73,9.09-4.76
							c1.3-6.49,3.89-24.66,2.6-28.99C393.05,376.94,381.37,375.21,377.48,379.53z"/>
						<path class="st31" d="M377.48,379.53c0,0-13.84-3.46-17.74-1.3c-3.89,2.16,2.16,32.88,2.6,35.48s6.49,3.89,9.09,3.03
							c2.6-0.87,6.49-2.6,6.49-6.06C377.91,407.22,377.48,379.53,377.48,379.53z"/>
						<path class="st31" d="M356.71,379.1c0,0-9.09-1.73-11.68,1.3s-3.46,7.35-2.6,15.14c0.87,7.79,5.19,19.47,6.92,22.06
							c1.73,2.6,7.35,3.03,10.82,1.73c3.46-1.3,2.16-5.62,2.16-5.62s-1.73-1.73-2.16-15.14s-0.43-20.33-0.43-20.33L356.71,379.1z"/>
						<path class="st31" d="M341.57,384.29c-1.73,0.43-12.55,0.87-12.98,5.19c-0.43,4.33,3.46,24.66,5.19,26.82
							c1.73,2.16,6.49,1.3,8.22,0.43c1.73-0.87,4.76-2.16,4.33-4.76C345.89,409.39,341.57,384.29,341.57,384.29z"/>
					</g>
					<path class="st29" d="M345.03,469.95c-7.67-0.79-11.93-6.75-14.1-11.27c-5.95,13.22-13.5,29.96-14.03,30.74
						c-0.87,1.3-22.06,41.1-25.53,45.86c-3.46,4.76-11.68,19.9-6.49,29.42c5.19,9.52,13.41,28.99,24.23,29.42
						c10.82,0.43,25.96-6.06,36.34-12.11c10.38-6.06,13.84-9.95,14.71-27.26c0.86-17.31,0.43-48.45,3.46-64.89
						c1.49-8.06,2.76-16.33,3.93-23.43C360.87,468.51,351.92,470.67,345.03,469.95z"/>
					<path class="st31" d="M364.93,422.36c0,0-7.35,6.49-8.22,12.11c-0.87,5.62,2.16,10.38,2.16,10.38"/>
				</g>
			</g>
		</g>
	</g>
	<g>
		<g>
			<g>
				<path class="st19" d="M147.49,341.6l-2.52,4.99l-47.08-23.73l2.51-4.99L147.49,341.6z M165.27,306.32l-2.52,4.99l-47.08-23.73
					l2.52-4.99L165.27,306.32z M142.49,298.18l-18,35.7l-4.57-2.3l18-35.7L142.49,298.18z"/>
				<path class="st19" d="M137.51,268.9l-2.98,4.73l-7.53-4.74l2.98-4.73L137.51,268.9z M174.61,292.25l-2.98,4.73l-32.9-20.71
					l2.98-4.73L174.61,292.25z"/>
				<path class="st19" d="M184.08,277.98l-3.32,4.49l-31.26-23.11l2.99-4.05l8.8,6.5l0.64-0.21L184.08,277.98z M167.12,265.44
					l-0.94,1.27l-5.76-4.26l0.84-1.14c-1.47-1.54-2.57-3.28-3.29-5.22c-0.72-1.94-0.93-3.97-0.63-6.1s1.26-4.29,2.88-6.48
					c1.78-2.4,3.76-3.99,5.96-4.75c2.19-0.76,4.4-0.87,6.62-0.35c2.22,0.53,4.3,1.51,6.24,2.95l3.1,2.29l-3.32,4.49l-2.41-1.78
					c-2.66-1.96-5.08-2.84-7.26-2.62c-2.18,0.22-4.29,1.69-6.31,4.44c-2.34,3.16-3.1,6.18-2.27,9.04
					C161.39,260.08,163.57,262.82,167.12,265.44z"/>
				<path class="st19" d="M218.14,237.42c-2.82,3.04-5.89,5.13-9.21,6.27c-3.32,1.14-6.65,1.28-10.01,0.42
					c-3.35-0.86-6.53-2.68-9.53-5.47c-2.88-2.68-4.88-5.66-5.98-8.94c-1.1-3.28-1.25-6.64-0.42-10.06c0.82-3.43,2.64-6.66,5.46-9.69
					c2.61-2.8,5.42-4.79,8.44-5.96c3.02-1.17,6.09-1.45,9.21-0.84c3.12,0.61,6.11,2.24,8.95,4.88c0.5,0.46,0.94,0.93,1.33,1.4
					c0.39,0.47,0.74,0.92,1.05,1.35l-24.54,26.4l-2.54-2.36l22.23-23.92l0.37,2.6c-0.35-0.39-0.71-0.78-1.07-1.16
					c-0.37-0.38-0.76-0.76-1.18-1.15c-3-2.79-6.11-4-9.35-3.64c-3.24,0.36-6.42,2.23-9.57,5.61c-3.61,3.88-5.24,7.59-4.91,11.12
					c0.33,3.53,2.19,6.87,5.57,10.01l0.92,0.86c3.42,3.18,6.91,4.81,10.48,4.91c3.57,0.09,7.17-1.82,10.82-5.74
					c3.11-3.34,4.82-6.36,5.13-9.04c0.31-2.68-0.57-4.99-2.65-6.92l-0.4-0.38l3.8-4.09l0.4,0.38c2,1.86,3.19,4.08,3.58,6.66
					c0.39,2.58,0.04,5.32-1.06,8.2C222.39,232.01,220.6,234.77,218.14,237.42z"/>
				<path class="st19" d="M277.4,184.14l-3.98,3.09l-6.51-8.4l-0.5-0.01l-8.05-10.39c-2.31-2.99-4.67-4.57-7.08-4.77
					c-2.41-0.19-5.31,1.03-8.71,3.66c-3.28,2.54-5.3,5.09-6.07,7.65c-0.77,2.56-0.1,5.2,2.02,7.94l0.19,0.25l-4.42,3.42l-0.19-0.25
					c-1.7-2.2-2.66-4.63-2.86-7.29c-0.21-2.66,0.38-5.37,1.76-8.13c1.38-2.76,3.64-5.36,6.79-7.81c3.11-2.41,6.07-3.84,8.87-4.29
					c2.8-0.45,5.37-0.11,7.7,1c2.33,1.12,4.38,2.82,6.14,5.1L277.4,184.14z M259.22,199.23c-3.03,2.35-6.01,3.55-8.96,3.61
					c-2.94,0.06-5.36-1.14-7.26-3.58c-1.32-1.7-1.96-3.41-1.93-5.12c0.03-1.72,0.57-3.44,1.61-5.18c1.04-1.74,2.42-3.47,4.14-5.2
					l13.94-13.49l2.27,2.92l-12.67,12.31c-2.16,2.01-3.54,3.78-4.15,5.31c-0.61,1.53-0.28,3.11,0.97,4.72
					c1.19,1.53,2.64,2.29,4.34,2.26c1.71-0.03,3.72-0.94,6.04-2.74c2.53-1.96,4.49-4.1,5.89-6.41c1.4-2.31,2.08-4.72,2.06-7.23
					c-0.02-2.51-0.98-4.98-2.87-7.43l1.11-0.36l3.81,4.91l-0.87,0.67c1.27,3.53,1.25,7.05-0.08,10.56
					C265.29,193.27,262.83,196.43,259.22,199.23z"/>
				<path class="st19" d="M291.03,175.12l-4.8,2.86l-19.92-33.39l4.33-2.58l6.33,10.61l0.67,0.06L291.03,175.12z M319.15,158.35
					l-4.8,2.86l-11.21-18.79c-2.07-3.47-4.54-5.63-7.4-6.49c-2.86-0.86-6.21-0.14-10.04,2.14c-4.1,2.45-6.49,5.46-7.16,9.04
					c-0.68,3.58,0.28,7.53,2.86,11.86l-1.28,0.77l-4.1-6.72l1.22-0.73c-0.72-2.13-1.01-4.41-0.86-6.82
					c0.15-2.41,0.89-4.73,2.22-6.96c1.33-2.23,3.39-4.17,6.18-5.84c3.15-1.88,6.16-2.77,9.03-2.68c2.87,0.09,5.47,0.94,7.83,2.52
					c2.35,1.59,4.32,3.71,5.91,6.37L319.15,158.35z"/>
				<path class="st19" d="M353.58,142.6l-11.04,4.19L323.82,97.5l11.04-4.19L353.58,142.6z M369.31,91.58l-38.62,14.67l-3.77-9.93
					l38.62-14.67L369.31,91.58z M375.61,111.5l-37.52,14.25l-3.74-9.86l37.52-14.25L375.61,111.5z M384.26,130.94l-38.62,14.67
					l-3.77-9.93l38.62-14.67L384.26,130.94z"/>
				<path class="st19" d="M401.31,126.58l-13.87,3.24l10.93-22.36l-0.14-0.61l-19.77-15.42l14.02-3.28l13.22,10.57l0.61-0.14
					l6.86-15.26l13.87-3.24l-10.93,22.36l0.16,0.69l19.75,15.34L422,121.74l-13.2-10.49l-0.61,0.14L401.31,126.58z"/>
				<path class="st19" d="M453.29,130.12l-11.75,1.13l-5.05-52.56l10.89-1.05l1.12,11.67l0.96,0.94L453.29,130.12z M468.07,116.05
					c-4.54,0.44-8.18-0.25-10.91-2.07c-2.73-1.82-4.6-4.42-5.61-7.8l-2.04,0.2l-0.81-8.46l1.49-0.14c0.21,2.19,0.82,3.93,1.84,5.2
					c1.02,1.27,2.4,2.11,4.16,2.53c1.75,0.41,3.86,0.5,6.31,0.26c2.56-0.25,4.62-0.76,6.18-1.54c1.56-0.78,2.66-1.92,3.31-3.4
					s0.86-3.4,0.63-5.75c-0.24-2.45-0.81-4.34-1.73-5.65c-0.92-1.31-2.21-2.19-3.89-2.63c-1.68-0.44-3.77-0.55-6.28-0.31
					c-3.81,0.37-6.62,1.36-8.41,2.98c-1.79,1.62-2.52,4.18-2.19,7.68l-1.49,0.14l-1.71-8.77l2.27-0.22
					c0.32-3.83,1.67-6.84,4.07-9.05c2.4-2.21,5.89-3.53,10.49-3.97c4.02-0.39,7.51,0.12,10.46,1.52c2.95,1.4,5.31,3.56,7.07,6.48
					c1.75,2.92,2.83,6.46,3.24,10.64c0.4,4.13,0.02,7.79-1.12,10.98c-1.14,3.19-3,5.76-5.59,7.69
					C475.23,114.52,471.98,115.68,468.07,116.05z"/>
				<path class="st19" d="M513.66,115.02c-4.35-0.15-8.18-1.01-11.49-2.59c-3.31-1.58-5.83-3.92-7.56-7.03
					c-1.73-3.1-2.52-6.96-2.37-11.58c0.14-4.19,1.18-7.79,3.12-10.8c1.94-3.01,4.57-5.29,7.91-6.86c3.33-1.57,7.18-2.28,11.53-2.13
					c4.3,0.15,8.04,1.01,11.21,2.58c3.18,1.58,5.61,3.82,7.29,6.74c1.69,2.92,2.46,6.42,2.32,10.51c-0.02,0.68-0.07,1.31-0.14,1.88
					c-0.07,0.58-0.17,1.2-0.3,1.88l-35.39-1.19l0.21-6.21l27.06,0.91l-2.8,3.76c0.02-0.52,0.03-1.02,0.05-1.49
					c0.02-0.47,0.03-0.94,0.05-1.42c0.1-2.99-0.64-5.17-2.22-6.53c-1.58-1.37-4.21-2.11-7.88-2.23c-3.99-0.13-6.79,0.55-8.42,2.04
					c-1.62,1.49-2.49,3.92-2.61,7.27l-0.1,2.99c-0.11,3.36,0.59,5.83,2.11,7.43c1.52,1.6,4.3,2.47,8.34,2.6
					c3.46,0.12,5.91-0.25,7.36-1.09c1.45-0.84,2.2-2.1,2.25-3.78l0.03-0.79l11.8,0.4l-0.03,0.87c-0.1,2.83-1.04,5.32-2.85,7.46
					s-4.29,3.78-7.45,4.91C521.54,114.67,517.86,115.17,513.66,115.02z"/>
				<path class="st19" d="M553.21,117.59l-11.67-1.79l5.97-38.97l10.81,1.66l-1.71,11.12l0.8,0.52L553.21,117.59z M556.67,95.03
					l-2.33-0.36l0.93-6.07l2.18,0.33c0.69-2.07,1.69-3.87,3.02-5.39c1.32-1.52,2.96-2.62,4.93-3.31c1.96-0.68,4.24-0.82,6.83-0.43
					c2.96,0.45,5.24,1.43,6.84,2.92c1.6,1.49,2.66,3.33,3.18,5.5c0.51,2.18,0.58,4.54,0.19,7.08l-0.99,6.46l-11.67-1.79l0.62-4.04
					c0.33-2.18,0.09-3.82-0.72-4.93c-0.81-1.11-2.41-1.84-4.8-2.21c-2.59-0.4-4.51-0.08-5.76,0.95
					C557.87,90.79,557.05,92.54,556.67,95.03z"/>
				<path class="st19" d="M618.65,101.24l-29.79-7.7l2.44-9.45l29.79,7.7L618.65,101.24z M611.23,129.97l-9.45-2.44
					c-4.47-1.16-7.69-3.15-9.67-5.99c-1.98-2.84-2.34-6.67-1.09-11.5l8.21-31.77l11.43,2.95l-7.88,30.48
					c-0.5,1.93-0.41,3.32,0.26,4.17c0.67,0.85,2,1.53,3.98,2.05l6.86,1.77L611.23,129.97z"/>
				<path class="st19" d="M642.67,141.22l-5.18-2.09l13.89-34.45c1.29-3.21,2.99-5.64,5.1-7.28c2.1-1.64,4.55-2.52,7.34-2.64
					c2.79-0.12,5.84,0.49,9.15,1.82l3.94,1.59l-1.65,4.09l-4.67-1.88c-3.41-1.37-6.24-1.72-8.49-1.05
					c-2.25,0.68-3.97,2.84-5.16,6.49l-0.44,1.09L642.67,141.22z M669.93,115.47l-25.47-10.27l1.79-4.45l25.47,10.27L669.93,115.47z"
					/>
				<path class="st19" d="M680.37,159.54c-3.71-1.97-6.56-4.46-8.55-7.48c-1.99-3.02-3.05-6.28-3.17-9.79
					c-0.13-3.51,0.74-7.01,2.58-10.48c1.84-3.48,4.26-6.15,7.24-8.01c2.98-1.86,6.28-2.82,9.89-2.86c3.61-0.04,7.28,0.92,10.98,2.89
					c3.8,2.02,6.68,4.53,8.65,7.54c1.97,3.01,3.01,6.26,3.14,9.78c0.12,3.51-0.74,7.01-2.58,10.48c-1.84,3.48-4.26,6.15-7.24,8.01
					c-2.98,1.86-6.26,2.82-9.86,2.87S684.17,161.56,680.37,159.54z M682.74,155.09c4.77,2.53,8.9,3.2,12.4,1.99
					c3.49-1.21,6.34-3.89,8.56-8.06s2.84-8.04,1.89-11.61c-0.96-3.57-3.82-6.62-8.59-9.15c-4.68-2.49-8.78-3.13-12.29-1.94
					c-3.52,1.19-6.38,3.87-8.59,8.04s-2.83,8.05-1.85,11.63C675.23,149.57,678.06,152.6,682.74,155.09z"/>
				<path class="st19" d="M711.58,176.98l-4.6-3.17l22.08-32l4.15,2.86l-6.21,9l0.23,0.64L711.58,176.98z M723.56,159.62l-1.3-0.89
					l4.07-5.9l1.17,0.8c1.49-1.52,3.2-2.67,5.11-3.46c1.91-0.78,3.94-1.06,6.07-0.83s4.33,1.12,6.57,2.67
					c2.46,1.7,4.11,3.63,4.94,5.8c0.83,2.17,1.02,4.37,0.56,6.6c-0.46,2.23-1.37,4.35-2.74,6.33l-2.19,3.17l-4.6-3.17l1.7-2.46
					c1.88-2.72,2.67-5.17,2.39-7.34c-0.29-2.17-1.83-4.23-4.64-6.16c-3.24-2.23-6.27-2.89-9.1-1.98
					C728.73,153.72,726.06,155.99,723.56,159.62z"/>
				<path class="st19" d="M747.44,221.11l-3.54-3.36l3.52-3.71l4.28,4.06c1.41,1.34,2.69,2.1,3.85,2.29
					c1.16,0.19,2.56-0.05,4.21-0.72l6.5-2.51l-2.73,1.85l13.03-42.32l4.45,4.23l-7.65,24.64l-3.42,9.89l0.34,0.33l9.63-4.09
					l23.69-9.31l4.45,4.23l-45.8,17.62c-2.02,0.76-3.87,1.16-5.54,1.2s-3.25-0.3-4.73-1.02C750.52,223.69,749,222.59,747.44,221.11z
					"/>
				<path class="st19" d="M797.42,255.18c-2.67-3.24-4.34-6.63-5.03-10.19c-0.68-3.55-0.41-6.97,0.82-10.26
					c1.23-3.29,3.37-6.19,6.4-8.69c3.04-2.5,6.29-4.04,9.75-4.62c3.47-0.58,6.88-0.19,10.23,1.16c3.35,1.35,6.37,3.64,9.04,6.88
					c2.74,3.32,4.44,6.75,5.1,10.28c0.67,3.53,0.38,6.94-0.85,10.23c-1.23,3.29-3.37,6.19-6.4,8.69c-3.04,2.5-6.29,4.04-9.75,4.62
					c-3.47,0.58-6.87,0.2-10.21-1.12C803.19,260.82,800.15,258.5,797.42,255.18z M801.31,251.97c3.44,4.17,7,6.37,10.68,6.59
					c3.69,0.23,7.35-1.16,11-4.17c3.64-3,5.71-6.33,6.19-10c0.48-3.66-0.99-7.58-4.43-11.75c-3.37-4.09-6.91-6.26-10.61-6.5
					c-3.71-0.25-7.38,1.13-11.02,4.14c-3.64,3-5.7,6.34-6.17,10.03C796.48,244,797.94,247.88,801.31,251.97z"/>
				<path class="st19" d="M824.63,292.52c-1.96-3.11-2.93-6.11-2.92-8.99c0.01-2.89,0.77-5.54,2.29-7.95
					c1.52-2.41,3.56-4.43,6.14-6.05l19.24-12.13l2.98,4.73l-18.51,11.66c-3.37,2.13-5.47,4.66-6.29,7.59
					c-0.82,2.93-0.02,6.31,2.38,10.13c2.54,4.04,5.63,6.36,9.26,6.95c3.63,0.6,7.55-0.44,11.77-3.09l0.86,1.22l-6.72,4.24
					l-0.71-1.13c-2.09,0.82-4.33,1.16-6.71,1.02c-2.38-0.14-4.72-0.85-7.02-2.13C828.38,297.29,826.36,295.27,824.63,292.52z
					 M837.04,310.74l-2.69-4.26l10.39-6.54l0.04-0.68l22.17-13.97l2.98,4.73L837.04,310.74z"/>
				<path class="st19" d="M844.54,325.55l-2.41-5.04l35.07-16.78l2.17,4.54L869.5,313l-0.12,0.67L844.54,325.55z M863.57,316.45
					l-0.68-1.42l6.46-3.09l0.61,1.28c2.05-0.58,4.1-0.73,6.15-0.46c2.05,0.27,3.94,1.04,5.68,2.3s3.2,3.12,4.37,5.58
					c1.29,2.7,1.76,5.19,1.4,7.49c-0.36,2.29-1.29,4.3-2.8,6.01c-1.51,1.71-3.35,3.09-5.53,4.13l-3.48,1.66l-2.41-5.04l2.7-1.29
					c2.98-1.43,4.89-3.15,5.72-5.18c0.83-2.03,0.51-4.58-0.96-7.66c-1.7-3.55-4-5.63-6.91-6.25
					C870.99,313.9,867.54,314.55,863.57,316.45z"/>
			</g>
		</g>
	</g>
	<g>
		<g>
			<path class="st19" d="M83.12,507.85l-0.33-20.13l48.17-10.88l0.25,15.15l-24.53,4.44l-10.87,1.48l0.02,0.94l10.92,1.77l24.7,6.09
				l0.33,20.41l-24.5,6.31l-10.86,1.91l0.01,0.94l10.92,1.27l24.67,4.15l0.24,14.86l-48.51-10.25l-0.33-20.12l20.62-5.38l15.1-3.42
				l-0.02-0.94l-15.2-3.14L83.12,507.85z"/>
			<path class="st19" d="M88.8,583.43l-2.46-13.34l47.54-8.76l2.46,13.34L88.8,583.43z M94.12,612.31l-7.11-38.6L99,571.5l7.11,38.6
				L94.12,612.31z M111.88,607.94l-6.92-37.53l11.92-2.2l6.92,37.53L111.88,607.94z M129.67,605.76l-7.11-38.6l11.99-2.21l7.11,38.6
				L129.67,605.76z"/>
			<path class="st19" d="M107.53,655.67l-10.28-30.72l45.84-15.34l9.75,29.15c1.11,3.33,1.62,6.23,1.5,8.7s-0.8,4.53-2.08,6.17
				c-1.28,1.64-3.12,2.87-5.54,3.68c-2.92,0.98-5.62,0.93-8.11-0.14s-4.53-3.67-6.11-7.81l-0.68,0.23c1.36,4.67,1.43,8.44,0.21,11.3
				c-1.22,2.87-3.43,4.84-6.62,5.91c-2.56,0.86-4.96,1.08-7.23,0.67c-2.27-0.41-4.3-1.56-6.11-3.47
				C110.26,662.1,108.75,659.32,107.53,655.67z M119.45,631.75l-6.36,2.13l5.45,16.28c0.52,1.55,1.09,2.54,1.71,2.96
				c0.62,0.42,1.57,0.42,2.85,0c1.28-0.43,2.03-0.98,2.26-1.67c0.23-0.68,0.07-1.83-0.46-3.42L119.45,631.75z M135.8,626.27
				l-5.82,1.95L135,643.2c0.44,1.32,0.96,2.14,1.54,2.45c0.58,0.31,1.4,0.29,2.45-0.06c1.05-0.35,1.71-0.89,1.97-1.61
				c0.26-0.72,0.18-1.75-0.27-3.07L135.8,626.27z"/>
			<path class="st19" d="M131.14,709.38l-6.65-11.82l42.14-23.68l6.64,11.82L131.14,709.38z M136.47,718.88l-10.32-18.37l10.63-5.97
				l10.32,18.36c1.41,2.52,2.74,4.39,3.99,5.62c1.24,1.23,2.79,1.75,4.63,1.54c1.84-0.21,4.33-1.2,7.48-2.96
				c3.19-1.79,5.34-3.41,6.45-4.87c1.11-1.45,1.47-3.03,1.06-4.74c-0.41-1.7-1.31-3.81-2.73-6.33l-10.32-18.37l10.63-5.97
				l10.32,18.37c2.62,4.65,4.05,9.14,4.3,13.47c0.25,4.33-0.67,8.3-2.78,11.91c-2.11,3.61-5.38,6.67-9.83,9.17
				c-4.44,2.5-8.76,3.71-12.94,3.63c-4.18-0.08-8.06-1.35-11.62-3.81C142.18,727.09,139.09,723.53,136.47,718.88z"/>
			<path class="st19" d="M164.92,762.92l-8.27-10.75l38.3-29.48l8.27,10.75L164.92,762.92z M182.83,786.18l-23.94-31.1l9.66-7.44
				l23.94,31.1L182.83,786.18z M196.63,774.19l-23.28-30.24l9.61-7.39l23.28,30.24L196.63,774.19z M211.47,764.14l-23.94-31.1
				l9.66-7.44l23.94,31.1L211.47,764.14z"/>
			<path class="st19" d="M217.25,821.29l-14-13.54l19.66-48.23l11.77,11.39l-15.11,33.57l0.67,0.65l32.84-16.41l11.72,11.34
				L217.25,821.29z"/>
			<path class="st19" d="M250.92,849.22l-11.02-7.91l28.2-39.26l11.02,7.91L250.92,849.22z M274.77,866.35l-31.88-22.89l7.11-9.9
				l31.88,22.89L274.77,866.35z M284.54,850.89l-31-22.26l7.07-9.84l31,22.26L284.54,850.89z M295.86,836.99l-31.88-22.89l7.11-9.9
				l31.88,22.89L295.86,836.99z"/>
			<path class="st19" d="M297.54,879.38l-11.96-6.4l22.82-42.61l11.96,6.4L297.54,879.38z M322.15,892.56l-33.26-17.81l5.75-10.75
				l33.26,17.81L322.15,892.56z"/>
			<path class="st19" d="M358.09,907.7c-5.25-1.9-9.42-4.49-12.5-7.77c-3.08-3.29-4.99-7.04-5.71-11.27
				c-0.73-4.22-0.23-8.71,1.49-13.46c1.71-4.75,4.2-8.52,7.46-11.31c3.26-2.79,7.12-4.46,11.59-5.02c4.47-0.56,9.33,0.11,14.58,2
				c5.43,1.96,9.68,4.58,12.77,7.87c3.08,3.29,4.99,7.04,5.71,11.27c0.72,4.22,0.23,8.71-1.49,13.46s-4.2,8.52-7.46,11.31
				c-3.26,2.79-7.12,4.46-11.59,5.02C368.47,910.36,363.52,909.66,358.09,907.7z M362.5,895.48c3.08,1.11,5.58,1.67,7.52,1.68
				s3.55-0.67,4.84-2.05c1.29-1.38,2.47-3.56,3.55-6.54c1.09-3.03,1.58-5.48,1.46-7.34c-0.12-1.86-0.93-3.4-2.43-4.64
				c-1.5-1.23-3.79-2.4-6.86-3.51c-3.08-1.11-5.56-1.66-7.46-1.66c-1.89,0.01-3.46,0.7-4.7,2.06c-1.24,1.37-2.4,3.57-3.5,6.6
				c-1.08,2.99-1.58,5.41-1.51,7.28c0.07,1.87,0.83,3.41,2.28,4.62C357.16,893.21,359.43,894.37,362.5,895.48z"/>
			<path class="st19" d="M409.82,922.02l-13.3-2.65l9.45-47.4l13.3,2.65L409.82,922.02z M425.15,912.65l-21.79-4.35l2.38-11.96
				l20.31,4.05c2.36,0.47,4.11,0.45,5.27-0.05c1.15-0.51,1.98-1.98,2.47-4.44c0.48-2.41,0.28-4.06-0.59-4.97
				c-0.87-0.91-2.49-1.6-4.85-2.07l-20.31-4.05l2.38-11.96l21.79,4.35c3.77,0.75,6.89,2.1,9.35,4.04c2.46,1.94,4.17,4.36,5.13,7.28
				s1.07,6.26,0.32,10.03c-0.74,3.73-2.12,6.77-4.14,9.14c-2.02,2.37-4.53,3.98-7.55,4.82C432.32,913.35,428.92,913.4,425.15,912.65
				z"/>
			<path class="st19" d="M467.41,930.88l-13.56-0.45l1.6-48.31l18.39,0.61l8.21,20.34l4.35,12.63l0.94,0.03l4.96-12.32l9.1-19.77
				l18.39,0.61l-1.6,48.31l-13.56-0.45l0.66-19.97l0.77-8.06l-0.94-0.03l-3.01,7.99l-7.78,16.85l-16.44-0.54l-6.65-17.33l-2.47-8.17
				l-0.94-0.03l0.24,8.09L467.41,930.88z"/>
			<path class="st19" d="M545.8,929.31l-13.45,1.72l-6.14-47.95l13.45-1.72L545.8,929.31z M570.33,889.73l-38.93,4.98l-1.55-12.09
				l38.93-4.98L570.33,889.73z M571.53,907.61l-37.86,4.85l-1.54-12.02l37.86-4.85L571.53,907.61z M574.92,925.58l-38.93,4.98
				l-1.55-12.09l38.93-4.98L574.92,925.58z"/>
			<path class="st19" d="M600.88,919.57l-13.07,3.62l-12.88-46.59l13.91-3.85l17.76,13.88l9.78,8.82l0.9-0.25l-3.43-9.98
				l-4.98-18.01l13.07-3.62l12.88,46.59l-13.91,3.85l-18.73-14.13l-8.45-7.54l-0.9,0.25l3.02,8.75L600.88,919.57z"/>
			<path class="st19" d="M675.7,853.53l-43.61,19.3l-4.93-11.15l43.61-19.3L675.7,853.53z M674.75,893.48l-12.4,5.49l-19.56-44.2
				l12.4-5.49L674.75,893.48z"/>
			<path class="st19" d="M726.1,865.21l-11.24,7.59l-27.07-40.05l11.24-7.59L726.1,865.21z M730.21,847.72l-18.41,12.44l-6.83-10.1
				l17.16-11.59c1.99-1.35,3.21-2.61,3.67-3.79c0.45-1.18-0.02-2.8-1.42-4.87c-1.37-2.03-2.69-3.06-3.95-3.08
				c-1.26-0.02-2.89,0.65-4.88,1.99l-17.16,11.59l-6.83-10.1l18.41-12.44c3.19-2.15,6.33-3.42,9.44-3.81
				c3.11-0.39,6.03,0.1,8.78,1.46s5.2,3.64,7.36,6.83c2.13,3.15,3.33,6.27,3.59,9.37c0.27,3.1-0.36,6.02-1.88,8.76
				C735.75,843.12,733.4,845.56,730.21,847.72z"/>
			<path class="st19" d="M772.12,830.77l-10.06,9.1l-32.42-35.85l20.92-18.92c3.17-2.87,6.22-4.85,9.13-5.93
				c2.92-1.08,5.65-1.3,8.21-0.66c2.56,0.64,4.9,2.14,7.03,4.49c1.71,1.89,2.86,3.82,3.44,5.79c0.58,1.97,0.54,4.02-0.13,6.15
				c-0.67,2.13-2.02,4.37-4.04,6.72l0.48,0.54c2.27-1.21,4.22-1.73,5.85-1.54c1.63,0.18,3.39,0.65,5.29,1.39l12.57,4.97l-11.61,10.5
				l-12.22-4.9c-1.23-0.5-2.31-0.8-3.22-0.88c-0.92-0.08-1.84,0.12-2.76,0.6c-0.93,0.48-2.05,1.32-3.37,2.51l-4.12,3.73
				L772.12,830.77z M747.88,803.96l6.44,7.12l10.76-9.73c1.46-1.32,2.3-2.47,2.52-3.45c0.22-0.98-0.36-2.23-1.75-3.77
				c-1.29-1.43-2.45-2.1-3.47-2.01c-1.03,0.09-2.27,0.79-3.73,2.11L747.88,803.96z"/>
			<path class="st19" d="M823.53,778.82c-3.53,4.32-7.35,7.4-11.47,9.21c-4.12,1.82-8.3,2.37-12.52,1.66
				c-4.23-0.72-8.3-2.67-12.21-5.86c-3.91-3.19-6.65-6.79-8.2-10.78c-1.55-4-1.85-8.2-0.89-12.6c0.95-4.4,3.19-8.77,6.72-13.09
				c3.65-4.47,7.53-7.62,11.66-9.44c4.12-1.82,8.3-2.37,12.52-1.66c4.23,0.72,8.3,2.67,12.21,5.86c3.91,3.19,6.65,6.79,8.2,10.78
				c1.55,4,1.85,8.2,0.89,12.6C829.48,769.91,827.18,774.35,823.53,778.82z M813.47,770.61c2.07-2.53,3.43-4.71,4.08-6.54
				c0.65-1.83,0.54-3.58-0.33-5.25c-0.87-1.67-2.54-3.51-5-5.52c-2.5-2.04-4.64-3.31-6.44-3.81c-1.79-0.5-3.52-0.25-5.18,0.76
				c-1.66,1.01-3.52,2.78-5.59,5.31c-2.07,2.54-3.41,4.7-4.03,6.49c-0.62,1.79-0.49,3.5,0.39,5.11c0.88,1.62,2.57,3.45,5.07,5.49
				c2.46,2.01,4.58,3.29,6.36,3.84c1.78,0.55,3.49,0.35,5.12-0.62S811.4,773.15,813.47,770.61z"/>
			<path class="st19" d="M858.68,728.68c-2.8,4.71-5.75,8.08-8.86,10.09c-3.1,2.02-6.39,2.84-9.87,2.48
				c-3.48-0.36-7.22-1.74-11.23-4.12l-1.61-0.96l7.38-12.4l1.49,0.88c1.86,1.11,3.39,1.85,4.59,2.23c1.2,0.38,2.31,0.21,3.32-0.5
				c1.01-0.71,2.18-2.19,3.51-4.42c1.33-2.23,2.09-3.96,2.29-5.19c0.2-1.23-0.11-2.26-0.92-3.11c-0.81-0.85-2.06-1.77-3.76-2.78
				l-24.24-14.42l7.38-12.4l24.37,14.49c3.84,2.29,6.71,4.86,8.59,7.71c1.88,2.86,2.66,6.11,2.33,9.78
				C863.09,719.72,861.51,723.93,858.68,728.68z"/>
			<path class="st19" d="M880.82,684.63l-5.3,12.49l-44.5-18.87l5.3-12.49L880.82,684.63z M859.01,643.48l-15.32,36.13l-11.22-4.76
				l15.32-36.13L859.01,643.48z M875.06,651.47l-14.9,35.14L849,681.87l14.9-35.14L875.06,651.47z M892.28,657.6l-15.32,36.13
				l-11.22-4.76l15.32-36.13L892.28,657.6z"/>
			<path class="st19" d="M904.06,620.23c-1.41,5.4-3.6,9.77-6.59,13.12c-2.99,3.35-6.55,5.58-10.69,6.68
				c-4.14,1.11-8.65,1.02-13.54-0.25c-4.89-1.27-8.87-3.41-11.94-6.39c-3.07-2.99-5.09-6.67-6.07-11.05
				c-0.97-4.38-0.75-9.27,0.66-14.67c1.37-5.26,3.34-9.55,5.9-12.89c2.56-3.33,5.59-5.61,9.09-6.84c3.5-1.22,7.34-1.29,11.53-0.2
				l1.19,0.31l-3.82,14.66l-1.19-0.31c-2.65-0.69-4.74-0.44-6.27,0.75c-1.53,1.19-2.8,3.72-3.8,7.58c-0.83,3.17-1.15,5.7-0.98,7.61
				s1,3.43,2.46,4.56c1.47,1.13,3.77,2.1,6.88,2.91c3.07,0.8,5.54,1.07,7.39,0.81c1.86-0.26,3.33-1.18,4.41-2.76
				c1.08-1.58,2.04-3.95,2.86-7.12c1.01-3.86,1.13-6.69,0.38-8.47c-0.75-1.79-2.45-3.03-5.11-3.72l-1.19-0.31l3.82-14.66l1.19,0.31
				c4.14,1.08,7.45,3.01,9.93,5.8c2.48,2.78,4.02,6.26,4.63,10.41C905.82,610.26,905.43,614.97,904.06,620.23z"/>
			<path class="st19" d="M880.96,531.79l-5.02,47.42l-12.12-1.28l5.02-47.42L880.96,531.79z M915.11,552.53l-1.43,13.49l-48.07-5.09
				l1.43-13.49L915.11,552.53z"/>
			<path class="st19" d="M917.18,499.76c0.17,4.9-0.3,9.15-1.41,12.75c-1.11,3.6-2.91,6.4-5.42,8.41c-2.51,2.01-5.8,3.08-9.89,3.22
				l-0.43,0.01l-0.46-13.56l1.51-0.05c1.06-0.04,1.88-0.29,2.46-0.77c0.59-0.48,0.97-1.44,1.17-2.89c0.19-1.45,0.24-3.69,0.13-6.72
				c-0.09-2.74-0.24-4.76-0.46-6.05c-0.21-1.29-0.53-2.11-0.95-2.46c-0.42-0.35-0.99-0.51-1.71-0.48c-0.87,0.03-1.5,0.38-1.91,1.04
				c-0.41,0.66-0.7,1.99-0.88,3.96l-1.51,15.21c-0.33,3-1.05,5.52-2.16,7.58c-1.11,2.06-2.61,3.62-4.5,4.7
				c-1.89,1.07-4.13,1.66-6.73,1.74c-1.92,0.07-3.84-0.28-5.74-1.03c-1.9-0.75-3.64-2.02-5.22-3.79c-1.58-1.78-2.87-4.14-3.88-7.09
				c-1.01-2.95-1.59-6.61-1.74-10.99c-0.17-5.14,0.39-9.41,1.7-12.8c1.31-3.39,3.24-5.96,5.8-7.7c2.56-1.75,5.65-2.68,9.25-2.8
				l0.43-0.01l0.46,13.56l-1.08,0.04c-1.15,0.04-2.06,0.32-2.71,0.85c-0.66,0.53-1.1,1.55-1.34,3.08s-0.3,3.8-0.2,6.83
				c0.08,2.31,0.25,4.06,0.5,5.25s0.61,2.01,1.06,2.45c0.45,0.44,1.03,0.65,1.75,0.63c0.48-0.02,0.9-0.14,1.25-0.37
				c0.35-0.23,0.62-0.6,0.79-1.11c0.18-0.51,0.32-1.2,0.44-2.07l1.72-15.22c0.44-3.96,1.34-7.05,2.68-9.26
				c1.35-2.21,2.96-3.78,4.86-4.71s3.87-1.43,5.94-1.5c2.74-0.09,5.33,0.58,7.76,2.01c2.43,1.43,4.44,3.78,6.01,7.05
				C916.11,489.98,916.99,494.33,917.18,499.76z"/>
		</g>
	</g>
	<circle class="st19" cx="106.28" cy="420.7" r="21.02"/>
	<circle class="st19" cx="893.72" cy="420.7" r="21.02"/>
	<g>
		<g>
			<path class="st19" d="M568.51,474.73c0,14.03-12.57,24.98-28.09,24.46s-27.49-13.53-26.75-29.04
				c0.74-15.51,13.31-26.46,28.09-24.46C556.54,447.69,568.51,460.69,568.51,474.73z"/>
			<g>
				<g>
					<path class="st34" d="M534.4,478.71l4.12,0.29l0.06-2.39l-4.11-0.31c-2.25-0.17-4.01-2.11-3.94-4.34l0.03-0.81
						c0.08-2.23,1.95-3.87,4.18-3.66l18.19,1.67c0,0,0,0,0,0v0l1.21,0.11l0.03-2.32l-1.21-0.12l0,0c0,0,0,0,0,0l-18.15-1.75
						c-1.25-0.12-2.42,0.12-3.43,0.64c-1.88,0.97-3.17,2.9-3.26,5.23l-0.03,0.81C527.97,475.34,530.79,478.45,534.4,478.71z"/>
					<path class="st34" d="M547.64,470.24l-0.67-0.07l-4.64-0.45l-2.43-0.24l-0.25,9.59l2.45,0.17l0.17-7.17l4.65,0.45l0.68,0.07
						c2.24,0.19,4.03,2.08,4,4.22l-0.01,0.78c-0.03,2.14-1.89,3.76-4.15,3.6l-19.63-1.33l-0.09,2.43l1.23,0.08v0c0,0,0,0,0,0
						l18.44,1.17c1.27,0.08,2.45-0.18,3.47-0.71c1.88-0.97,3.14-2.84,3.17-5.06l0.01-0.77
						C554.08,473.59,551.22,470.56,547.64,470.24z"/>
					<polygon class="st34" points="529.62,462.96 529.62,462.96 552.98,465.28 554.19,465.4 554.21,464.25 554.21,464.24 
						554.21,464.24 554.22,463.08 553.02,462.96 529.71,460.53 529.71,460.53 529.71,460.53 528.5,460.41 528.42,462.84 
						529.62,462.96 					"/>
				</g>
			</g>
		</g>
	</g>
</g>
<g id="hands" class="st35">
</g>
<g id="Layer_2">
</g>
</svg>
