<svg width="130" height="64" viewBox="0 0 130 64" fill="none" xmlns="http://www.w3.org/2000/svg">
<path d="M56.0445 24.2484H61.6087V20.9428H56.0445C53.0001 20.9428 50.5325 18.4752 50.5325 15.4308V14.3296C50.5325 11.2852 53.0001 8.8176 56.0445 8.8176H80.8406H82.4934V5.51196H56.0445C54.3413 5.51196 52.7524 5.99387 51.4034 6.82996C48.8971 8.38601 47.2269 11.1633 47.2269 14.3296V15.4308C47.2269 20.3022 51.1731 24.2484 56.0445 24.2484Z" fill="#FFE100"/>
<path d="M73.6778 11.024L72.7584 11.0162L66.4355 10.964L63.1299 10.9349V24.2484H66.4355V14.2425L72.7584 14.318L73.6778 14.3296C76.7182 14.3296 79.1897 16.8011 79.1897 19.8377V20.9409C79.1897 23.9833 76.7221 26.449 73.6778 26.449H47.2269V29.7546H48.8797H73.6778C75.3828 29.7546 76.9698 29.2727 78.3188 28.4366C80.8251 26.8825 82.4954 24.1072 82.4954 20.9409V19.8377C82.4954 14.976 78.5414 11.022 73.6778 11.022V11.024Z" fill="#FFE100"/>
<path d="M48.8797 3.30757H82.4935V1.65862V1.65475V1.65088V0H48.8797H47.2269V3.30757H48.8797Z" fill="#FFE100"/>
<path d="M7.23787 63.9982C5.16278 63.9982 3.43755 63.3114 2.06402 61.9342C0.688653 60.5588 4.19617e-05 58.8336 4.19617e-05 56.7603C4.19617e-05 54.6871 0.686801 52.9619 2.06402 51.5865C3.4394 50.2111 5.16463 49.5244 7.23787 49.5244C9.01863 49.5244 10.4384 49.9297 11.4991 50.7424V52.3991L10.6198 51.8234L9.67393 51.3162C8.81686 51.0237 8.00422 50.8757 7.23972 50.8757C5.50338 50.8757 4.09469 51.4162 3.01179 52.4991C1.90668 53.6042 1.35505 55.024 1.35505 56.7603C1.35505 58.4967 1.90668 59.8831 3.01179 60.9883C4.1169 62.0934 5.52559 62.645 7.23972 62.645C8.86314 62.645 10.2829 62.1045 11.501 61.0216V62.7468C10.2385 63.5817 8.81686 63.9982 7.23972 63.9982H7.23787Z" fill="white"/>
<path d="M19.9883 51.8234C19.6273 51.5532 19.2441 51.3384 18.8387 51.1811C18.4333 51.0237 18.0039 50.9441 17.5541 50.9441C17.1709 50.9441 16.8099 51.0626 16.4712 51.2996C16.1324 51.5365 15.8399 51.829 15.5919 52.1788C15.3438 52.5287 15.1458 52.9174 14.9995 53.345C14.8533 53.7745 14.7792 54.1688 14.7792 54.5279V63.7279H13.3928V49.7613H14.7792V51.655C15.0717 51.1367 15.4549 50.6628 15.9288 50.2352C16.4027 49.8076 16.921 49.5928 17.4837 49.5928C18.1816 49.5928 18.7573 49.6724 19.2089 49.8298C19.6588 49.9871 20.1678 50.2703 20.7306 50.6757L19.9864 51.8253L19.9883 51.8234Z" fill="white"/>
<path d="M22.1541 56.4568C22.1541 58.3505 22.6613 59.8499 23.6757 60.955C24.7345 62.0823 26.1895 62.6469 28.0388 62.6469C28.9865 62.6469 29.8417 62.4895 30.6099 62.173C31.5799 61.7676 32.4481 60.9439 33.2144 59.7036L34.4658 60.2793C33.5865 61.949 32.2334 63.0745 30.4063 63.6613C29.7066 63.8871 28.918 64 28.0388 64C25.9415 64 24.2162 63.3133 22.8649 61.9361C21.4895 60.5607 20.8028 58.8355 20.8028 56.7622C20.8028 54.689 21.4784 52.9397 22.8316 51.5884C24.207 50.213 25.9433 49.5262 28.0406 49.5262C30.1379 49.5262 31.828 50.1686 33.1811 51.4532C34.5565 52.7379 35.2451 54.4076 35.2451 56.4586H22.1559L22.1541 56.4568ZM31.691 52.0271C30.6303 51.2607 29.4141 50.8776 28.0388 50.8776C25.1529 50.8776 23.2592 52.2974 22.3577 55.1388H33.6883C33.4625 53.8541 32.7979 52.8175 31.6928 52.0271H31.691Z" fill="white"/>
<path d="M50.1909 63.7279V61.327C48.7248 63.0855 46.8645 63.9648 44.6098 63.9648C42.581 63.9648 40.878 63.278 39.5026 61.9008C38.105 60.5032 37.4053 58.7891 37.4053 56.7603C37.4053 54.7315 38.0921 53.0285 39.4693 51.6531C40.8669 50.2555 42.581 49.5558 44.6098 49.5558C46.8423 49.5558 48.7026 50.4351 50.1909 52.1936V49.7594H51.5774V63.7279H50.1909ZM48.7359 52.6342C47.5864 51.4846 46.211 50.9089 44.6098 50.9089C43.0086 50.9089 41.611 51.4735 40.4837 52.6009C39.3342 53.7504 38.7585 55.1369 38.7585 56.7603C38.7585 58.3837 39.3342 59.7369 40.4837 60.8864C41.6332 62.0359 43.0086 62.6116 44.6098 62.6116C46.211 62.6116 47.6086 62.0489 48.7359 60.9197C49.8855 59.7702 50.4612 58.3837 50.4612 56.7603C50.4612 55.1369 49.8855 53.7837 48.7359 52.6342Z" fill="white"/>
<path d="M67.8116 63.7279V61.2252C66.3233 63.0522 64.4296 63.9648 62.1305 63.9648C60.1017 63.9648 58.3987 63.2781 57.0233 61.9008C55.6257 60.5033 54.926 58.7891 54.926 56.7603C54.926 54.7315 55.6128 53.0285 56.99 51.6531C58.3876 50.2555 60.1017 49.5558 62.1305 49.5558C64.363 49.5558 66.2566 50.4684 67.8116 52.2955V38.7009H69.1981V63.7279H67.8116ZM66.2566 52.6342C65.1071 51.4847 63.7317 50.909 62.1305 50.909C60.5293 50.909 59.1317 51.4736 58.0044 52.6009C56.8549 53.7504 56.2792 55.1369 56.2792 56.7603C56.2792 58.3837 56.8549 59.7369 58.0044 60.8864C59.1539 62.036 60.5293 62.6117 62.1305 62.6117C63.7317 62.6117 65.1293 62.0489 66.2566 60.9198C67.4062 59.7702 67.9819 58.3837 67.9819 56.7603C67.9819 55.1369 67.4062 53.7837 66.2566 52.6342Z" fill="white"/>
<path d="M74.2701 47.2568C74.022 47.2568 73.7629 47.155 73.4926 46.9532C73.289 46.7496 73.1761 46.4793 73.1539 46.1406C73.1539 45.5316 73.5259 45.1595 74.2701 45.0244C74.8328 45.0244 75.2049 45.3964 75.3863 46.1406C75.3863 46.8847 75.0142 47.2568 74.2701 47.2568ZM73.5593 63.7279V49.7613H74.9457V63.7298H73.5593V63.7279Z" fill="white"/>
<path d="M81.6432 51.1478V63.7298H80.2567V51.1478H78.363V49.7613H80.2567V43.6397H81.6432V49.7613H84.89V51.1478H81.6432Z" fill="white"/>
<path d="M88.2719 56.4568C88.2719 58.3505 88.7791 59.8499 89.7935 60.955C90.8524 62.0823 92.3073 62.6469 94.1566 62.6469C95.1044 62.6469 95.9596 62.4895 96.7278 62.173C97.6978 61.7676 98.5659 60.9439 99.3323 59.7036L100.584 60.2793C99.7044 61.949 98.3512 63.0745 96.5242 63.6613C95.8244 63.8871 95.0359 64 94.1566 64C92.0593 64 90.3359 63.3133 88.9827 61.9361C87.6074 60.5607 86.9188 58.8355 86.9188 56.7622C86.9188 54.689 87.5944 52.9397 88.9476 51.5884C90.3229 50.213 92.0593 49.5262 94.1566 49.5262C96.2539 49.5262 97.9439 50.1686 99.2971 51.4532C100.672 52.7379 101.361 54.4076 101.361 56.4586H88.2719V56.4568ZM97.8088 52.0271C96.7481 51.2607 95.532 50.8776 94.1566 50.8776C91.2707 50.8776 89.377 52.2974 88.4755 55.1388H99.8062C99.5803 53.8541 98.9158 52.8175 97.8107 52.0271H97.8088Z" fill="white"/>
<path d="M111.168 63.9982C109.093 63.9982 107.368 63.3114 105.994 61.9342C104.619 60.5588 103.932 58.8336 103.932 56.7603C103.932 54.6871 104.619 52.9619 105.994 51.5865C107.37 50.2111 109.095 49.5244 111.168 49.5244C112.949 49.5244 114.369 49.9297 115.43 50.7424V52.3991L114.55 51.8234L113.602 51.3162C112.745 51.0237 111.933 50.8757 111.168 50.8757C109.432 50.8757 108.023 51.4162 106.94 52.4991C105.835 53.6042 105.284 55.024 105.284 56.7603C105.284 58.4967 105.835 59.8831 106.94 60.9883C108.045 62.0934 109.454 62.645 111.168 62.645C112.792 62.645 114.212 62.1045 115.43 61.0216V62.7468C114.167 63.5817 112.745 63.9982 111.168 63.9982Z" fill="white"/>
<path d="M128.452 63.7631V55.3424C128.452 52.388 127.077 50.9108 124.326 50.9108C123.199 50.9108 122.229 51.2496 121.418 51.9252C120.583 52.6009 120.167 53.5042 120.167 54.6316V63.7297H118.78V38.7009H120.167V51.6198C121 50.2444 122.388 49.5577 124.326 49.5577C128 49.5577 129.839 51.4402 129.839 55.2054V63.7612H128.452V63.7631Z" fill="white"/>
</svg>
