<svg width="95" height="80" viewBox="0 0 95 80" fill="none" xmlns="http://www.w3.org/2000/svg">
<g clip-path="url(#clip0_214_3291)">
<path d="M23.7063 65.1904H38.6657V56.3003H23.7063C15.5207 56.3003 8.88987 49.6694 8.88987 41.4836V38.5237C8.88987 30.3379 15.5207 23.7069 23.7063 23.7069H90.3699H94.8148V14.8169H23.7063C19.1289 14.8169 14.8548 16.1103 11.2291 18.3625C4.48677 22.546 0 30.0137 0 38.5237V41.4836C0 54.5781 10.6121 65.1904 23.7063 65.1904Z" fill="#FFE100"/>
<path d="M71.1085 29.6335L68.6368 29.6161L51.6379 29.4766L42.7481 29.3999V65.1867H51.6379V38.29L68.6368 38.4922L71.1085 38.5235C79.2802 38.5235 85.9249 45.1684 85.9249 53.3333V56.3002C85.9249 64.479 79.2941 71.1099 71.1085 71.1099H0V80H4.44493H71.1085C75.6894 80 79.96 78.7066 83.5857 76.4544C90.3246 72.2744 94.8113 64.8137 94.8113 56.3002V53.3333C94.8113 40.2632 84.1818 29.6335 71.105 29.6335H71.1085Z" fill="#FFE100"/>
<path d="M4.44493 8.89005H94.8148V4.45897C94.8148 4.45897 94.8148 4.452 94.8148 4.44503C94.8148 4.43805 94.8148 4.43805 94.8148 4.43108V0H4.44493H0V8.89005H4.44493Z" fill="#FFE100"/>
</g>
<defs>
<clipPath id="clip0_214_3291">
<rect width="94.8148" height="80" fill="white"/>
</clipPath>
</defs>
</svg>
