<?xml version="1.0" encoding="UTF-8"?>
<svg id="Layer_1" data-name="Layer 1" xmlns="http://www.w3.org/2000/svg" xmlns:xlink="http://www.w3.org/1999/xlink" viewBox="0 0 1000 1000">
  <defs>
    <style>
      .cls-1, .cls-2, .cls-3, .cls-4, .cls-5, .cls-6, .cls-7 {
        stroke: #353535;
        stroke-miterlimit: 10;
      }

      .cls-1, .cls-3, .cls-8 {
        fill: none;
      }

      .cls-1, .cls-5, .cls-6, .cls-7 {
        stroke-width: 2.1px;
      }

      .cls-9, .cls-5 {
        fill: #fff;
      }

      .cls-2 {
        fill: #f7f7f7;
        stroke-width: 5.88px;
      }

      .cls-3, .cls-4 {
        stroke-width: 1.4px;
      }

      .cls-4, .cls-10, .cls-6 {
        fill: #353535;
      }

      .cls-11 {
        clip-path: url(#clippath);
      }

      .cls-12 {
        fill: #ffe100;
      }

      .cls-7 {
        fill: #fd0;
      }
    </style>
    <clipPath id="clippath">
      <path class="cls-8" d="M568.17,181.53l8.93-22.3-53.99-25.15h-123.98l-15.75,61.45c-129.59,47.68-222.03,172.22-222.03,318.36,0,187.29,151.83,339.12,339.12,339.12s339.12-151.83,339.12-339.12c0-164.11-116.57-300.98-271.42-332.35Z"/>
    </clipPath>
  </defs>
  <path class="cls-2" d="M500,34c257.36,0,466,208.64,466,466s-208.64,466-466,466S34,757.36,34,500,242.64,34,500,34"/>
  <g>
    <g>
      <path class="cls-9" d="M500.47,174.77c187.29,0,339.12,151.83,339.12,339.12s-151.83,339.12-339.12,339.12-339.12-151.83-339.12-339.12S313.18,174.77,500.47,174.77"/>
      <path class="cls-10" d="M500.47,173.09c243-.92,408.78,247.39,316.04,471.7-69.98,173.12-275.05,258.54-447.06,185.4-224.38-93.12-282.73-386.32-110.54-557.86,63.26-63.36,152.06-99.87,241.56-99.24,0,0,0,3.35,0,3.35-12.91,1.18-28.37,2.76-40.97,5.33,0,0-8.07,1.55-8.07,1.55-.67,.13-1.34,.25-2.01,.4-1.73,.41-4.32,1.07-5.99,1.47-223.81,52.32-332.72,309.33-201.79,501.6,69.79,102.31,197.73,154.66,319.18,130.29,168.16-32.45,279.51-196.71,250.42-365.05-23.46-139.43-134.9-247.13-273.84-271.06-11.13-2.04-25.55-3.51-36.93-4.54,0,0,0-3.35,0-3.35h0Z"/>
    </g>
    <g class="cls-11">
      <g>
        <path class="cls-6" d="M396.86,656.23s-19.64,85.96-20.4,126.38c-.76,40.42,1.46,186.13,2.22,217.4,.76,31.27,14.49,132.71,14.49,141.86s2.29,26.69,2.29,26.69l-6.1,32.8s-5.34,4.58-19.07,12.2c-13.73,7.63-29.75,17.54-34.32,22.88h0c-2.37,2.77-1.32,7.07,2.09,8.37,4.31,1.65,10.35,3.44,16.98,3.83,12.97,.76,34.32,.76,45.76-2.29,11.44-3.05,20.59-12.97,25.93-16.78l5.34-3.81,.76,8.39s.76,0,7.63-1.53c6.86-1.53,16.02-6.86,16.02-6.86,0,0,.76-12.97,.76-20.59s-3.81-21.36-4.58-24.41c-.76-3.05,0-30.51-2.29-39.66-2.29-9.15-3.81-6.86-5.34-23.64-1.53-16.78,12.2-175.42,11.44-180-.76-4.58,19.43-142.1,19.43-142.1,0,0,38.54,179.47,50.74,213.79,12.2,34.32,18.3,100.68,18.3,105.25s6.86,58.73,9.91,66.35c3.05,7.63,11.44,31.27,11.44,31.27,0,0,12.2,18.3,17.54,27.46,5.34,9.15,23.64,16.78,37.37,19.07,13.73,2.29,24.41,3.05,25.17-15.25,.76-18.3-6.1-30.51-17.54-38.9-11.44-8.39-13.73-16.02-13.73-16.02,0,0,1.53-20.59,0-33.56-1.53-12.97-9.92-22.88-10.68-49.58-.76-26.69-6.1-167.03-10.68-189.15-4.58-22.12-10.61-170.11-9.85-190.7,.76-20.59-1.92-77.97-1.92-77.97l-185.71-2.12,.57,10.9Z"/>
        <g>
          <path class="cls-7" d="M469.75,348.94s-28.33,16.72-48.41,26.76c-20.08,10.04-44.56,15.69-47.07,21.34-2.51,5.65-45.81,97.9-53.97,110.45s-27.61,37.03-23.85,50.83c3.77,13.81,19.46,32.63,29.5,31.38,10.04-1.26,30.12-6.9,38.28-21.34,8.16-14.43,27.61-60.88,27.61-60.88,0,0,3.14,43.3,2.51,64.64-.63,21.34-.63,38.91-1.88,49.58-1.26,10.67-6.9,23.85-4.39,27.61s5.65,7.53,8.79,6.9c3.14-.63,50.21-1.26,64.64-.63,14.43,.63,79.7,0,93.51,.63,13.81,.63,25.73-6.28,26.99-8.79,1.26-2.51,3.77-6.28,2.51-20.08-1.26-13.81,1.26-55.85,5.02-72.17,3.77-16.32,26.36-79.08,26.36-79.08,0,0,59.62,47.07,72.17,50.83,12.55,3.77,46.44-1.88,57.74-15.69,11.3-13.81,15.06-24.48,8.16-33.89-6.9-9.41-32.01-18.2-58.37-46.44-26.36-28.24-36.4-41.42-54.6-50.21-18.2-8.79-55.23-20.71-64.01-24.48s-11.3-5.65-16.94-8.16c-5.65-2.51-18.83-7.53-43.3-8.16-24.48-.63-46.98,9.01-46.98,9.01Z"/>
          <g>
            <path class="cls-1" d="M379.21,463.03c.87,3.03,12.63,44.46,12.63,44.46l-17.39-34.51"/>
            <path class="cls-1" d="M615.89,476.11c-2.63-.1-27.29-13.95-27.29-13.95"/>
            <path class="cls-1" d="M576.05,460.44s9.95,12.98,18.6,15.57"/>
          </g>
        </g>
        <path class="cls-6" d="M466.25,387.44l7.88,29.75s-24.94,124.7-28.88,145.71c-3.94,21-4.81,38.5-4.81,38.5l21.88,43.32,27.57-46.82s-2.63-59.07-3.5-106.33c-.87-47.26,.88-70.01,.44-71.32-.44-1.31,27.57-21.88,27.57-21.88,0,0,16.19-17.94,17.06-21,.88-3.06-11.38,.87-14,3.5-2.63,2.63-10.5,7.44-21.88,5.25-11.38-2.19-26.25-14.88-28.44-8.75-2.19,6.13-.88,10.06-.88,10.06Z"/>
        <path class="cls-7" d="M485.07,336.69c-1.31,.87-11.81,3.5-15.31,12.25-3.5,8.75-21.44,49.01-26.69,55.57-5.25,6.56,3.06,3.94,10.06-.44,7-4.38,13.13-21.44,17.06-14,3.94,7.44,15.31,10.5,15.31,10.5,0,0,23.63-4.38,28.88-7.88,5.25-3.5,10.06-8.31,10.06-8.31,0,0,20.13,30.19,25.82,32.82,5.69,2.63,6.56-1.75,7-6.56,.44-4.81,4.38-33.25,10.06-52.07,5.69-18.81-5.25-24.94-12.25-32.82-7-7.88-14.88-2.63-22.75-1.75-7.88,.88-47.26,12.69-47.26,12.69Z"/>
        <g>
          <path class="cls-5" d="M473.07,201.96s-13.67,20.76-11.14,25.82c2.53,5.06,2.53,11.65,0,15.19-2.53,3.54-5.57,8.1-4.56,16.71,1.01,8.61-4.05,52.15,3.54,57.21,7.59,5.06,15.7,7.59,15.7,7.59,0,0,8.61,72.91,11.65,70.88,3.04-2.03,46.58-46.58,51.64-56.2,5.06-9.62,11.14-23.29,11.14-23.29,0,0,17.21-32.91,27.34-46.58,10.13-13.67,21.77-38.99,18.23-52.15-3.54-13.16-21.77-22.78-30.38-29.87-8.61-7.09-3.04-23.29-15.19-31.39-12.15-8.1-26.83-10.13-36.45-6.58-9.62,3.54-10.13,11.14-21.77,3.54-11.65-7.59-22.78-15.19-40.5-6.58-17.72,8.61-21.27,38.99-10.63,47.09,10.63,8.1,31.39,8.61,31.39,8.61Z"/>
          <path class="cls-6" d="M566.23,187.28c-8.61-7.09-3.04-23.29-15.19-31.39-12.15-8.1-26.83-10.13-36.45-6.58-9.62,3.54-10.13,11.14-21.77,3.54-11.65-7.59-22.78-15.19-40.5-6.58-17.72,8.61-21.27,38.99-10.63,47.09,10.63,8.1,31.39,8.61,31.39,8.61,0,0,15.19-7.09,25.32-12.66,10.13-5.57,32.91,3.54,36.96,7.09,4.05,3.54-2.03,1.01-3.04,7.59-1.01,6.58,11.65,17.21,17.21,22.28,5.57,5.06-1.01,8.61-2.53,15.19-1.52,6.58,4.56,9.11,8.1,6.58,3.54-2.53,14.68-16.71,18.73-8.61,4.05,8.1,10.13,20.25-1.01,28.86-11.14,8.61-19.24,6.58-19.24,6.58,0,0-3.63,21.93,6.89,23.65,5.65-10.11,12.72-22.2,17.92-29.22,10.13-13.67,21.77-38.99,18.23-52.15-3.54-13.16-21.77-22.78-30.38-29.87Z"/>
          <path class="cls-3" d="M500.41,228.8s5.06-2.03,10.13-1.52"/>
          <path class="cls-3" d="M474.49,233.77s-4.42,.92-7.18,2.58"/>
          <path class="cls-1" d="M474.67,219.96s3.13,5.71,1.47,11.23c-1.66,5.52-17.31,17.86-17.13,20.26,.18,2.39,9.21,7.37,9.02,9.39s-.74,5.34-.74,5.34"/>
          <ellipse class="cls-4" cx="508.92" cy="231.74" rx="3.31" ry="4.05"/>
          <path class="cls-1" d="M502.48,238.37c.55-.18,8.65-3.5,13.99-3.13"/>
          <path class="cls-4" d="M490.78,213.98s10.86-10.08,19.27-8.04c8.41,2.04,11.6,10.12,10.26,10.15s-5.58-6.24-10.22-6.71c-4.64-.47-7.89,1.72-11.84,3.72-3.96,2-6.44,3.44-7.47,.88Z"/>
          <path class="cls-4" d="M475.41,221.98c0-.82-1.29-4.6-6.26-3.87-4.97,.74-8.74,9.76-7.22,9.67,1.51-.09,3.17-5.8,7.04-6.35,3.87-.55,6.45,5.52,6.45,.55Z"/>
          <path class="cls-1" d="M466.94,277.59s7.92-.92,18.23-2.21c10.31-1.29,24.86-3.31,27.25-10.68,2.39-7.37,1.84-11.23,1.84-11.23"/>
          <path class="cls-1" d="M508.74,252.92c.74-.18,6.63-.18,9.02,.55"/>
          <path class="cls-4" d="M551.24,289.31s-1.95,10.88-11.16,16.74c-9.21,5.86-76.74,12.56-74.51,13.39s11.04,5.04,11.04,5.04l2.64,23.98s12.84-12.28,35.16-23.72c22.32-11.44,36.28-15.35,36.84-35.44Z"/>
        </g>
        <g>
          <path class="cls-5" d="M588.9,616.69s-12.55-.63-15.69-1.26c-3.14-.63-13.18-10.04-17.57-9.41-4.39,.63-12.55,9.41-15.69,16.94-3.14,7.53-4.39,11.3-4.39,11.3,0,0-11.3,10.04-5.65,16.94,5.65,6.9,11.92,4.39,11.92,4.39,0,0,3.77,6.28,8.79,6.9,5.02,.63,11.3,.63,11.3,.63,0,0,6.28,1.88,10.04,1.26,3.77-.63,7.53-3.14,7.53-3.14,0,0,4.39,.63,7.53-1.88,2.31-1.85,13.45-13.21,19.18-19.08,2.06-2.11,3.41-3.51,3.41-3.51l-20.71-20.08Z"/>
          <g>
            <path class="cls-7" d="M693.71,487.41s-23.22,25.73-30.75,38.28c-7.53,12.55-30.75,45.19-39.54,55.23-8.79,10.04-39.54,34.52-39.54,34.52,0,0,9.41,20.08,16.32,23.22,6.9,3.14,12.55,4.39,12.55,4.39l25.1-18.83s47.7-36.4,72.8-57.11c25.1-20.71,60.25-48.32,62.76-60.25,2.51-11.92,.63-18.2-11.92-27.61-12.55-9.41-25.73-13.18-25.73-13.18"/>
            <path class="cls-1" d="M603.34,599.75s5.65,27.61,25.1,27.61"/>
          </g>
        </g>
        <g>
          <path class="cls-5" d="M329.89,396.41s2.6,22.06,3.89,32.01c1.3,9.95,4.33,14.28,4.33,14.28,0,0-20.33,45.43-21.2,46.72-.87,1.3-22.06,41.1-25.53,45.86-3.46,4.76-11.68,19.9-6.49,29.42,5.19,9.52,13.41,28.99,24.23,29.42,10.82,.43,25.96-6.06,36.34-12.11,10.38-6.06,13.84-9.95,14.71-27.26,.87-17.31,.43-48.45,3.46-64.89,3.03-16.44,5.19-33.75,7.35-40.23,2.16-6.49,14.71-4.33,19.04-6.92,4.33-2.6,8.22-8.22,16.01-11.68,7.79-3.46,18.6-2.6,21.2-1.73,2.6,.87,7.35-3.03,6.06-7.79-1.3-4.76-9.95-7.35-18.6-6.49-8.65,.87-16.44,3.46-18.6,2.16-2.16-1.3-4.33-24.23-4.33-24.23,0,0-30.72,2.6-41.53,3.03-10.82,.43-20.33,.43-20.33,.43Z"/>
          <g>
            <path class="cls-5" d="M377.48,379.53s.43,28.55,.43,31.15,2.6,4.76,4.76,4.33c2.16-.43,7.79,1.73,9.09-4.76,1.3-6.49,3.89-24.66,2.6-28.99-1.3-4.33-12.98-6.06-16.87-1.73Z"/>
            <path class="cls-5" d="M377.48,379.53s-13.84-3.46-17.74-1.3c-3.89,2.16,2.16,32.88,2.6,35.48s6.49,3.89,9.09,3.03c2.6-.87,6.49-2.6,6.49-6.06s-.43-31.15-.43-31.15Z"/>
            <path class="cls-5" d="M356.71,379.1s-9.09-1.73-11.68,1.3-3.46,7.35-2.6,15.14c.87,7.79,5.19,19.47,6.92,22.06,1.73,2.6,7.35,3.03,10.82,1.73,3.46-1.3,2.16-5.62,2.16-5.62,0,0-1.73-1.73-2.16-15.14-.43-13.41-.43-20.33-.43-20.33l-3.03,.87Z"/>
            <path class="cls-5" d="M341.57,384.29c-1.73,.43-12.55,.87-12.98,5.19-.43,4.33,3.46,24.66,5.19,26.82,1.73,2.16,6.49,1.3,8.22,.43,1.73-.87,4.76-2.16,4.33-4.76-.43-2.6-4.76-27.69-4.76-27.69Z"/>
          </g>
          <path class="cls-7" d="M345.03,469.95c-7.67-.79-11.93-6.75-14.1-11.27-5.95,13.22-13.5,29.96-14.03,30.74-.87,1.3-22.06,41.1-25.53,45.86-3.46,4.76-11.68,19.9-6.49,29.42,5.19,9.52,13.41,28.99,24.23,29.42,10.82,.43,25.96-6.06,36.34-12.11,10.38-6.06,13.84-9.95,14.71-27.26,.86-17.31,.43-48.45,3.46-64.89,1.49-8.06,2.76-16.33,3.93-23.43-6.69,2.09-15.65,4.24-22.54,3.53Z"/>
          <path class="cls-5" d="M364.93,422.36s-7.35,6.49-8.22,12.11c-.87,5.62,2.16,10.38,2.16,10.38"/>
        </g>
      </g>
    </g>
  </g>
  <g>
    <path class="cls-10" d="M147.49,341.6l-2.52,4.99-47.08-23.73,2.51-4.99,47.08,23.73Zm17.78-35.28l-2.52,4.99-47.08-23.73,2.52-4.99,47.08,23.73Zm-22.78-8.13l-18,35.7-4.57-2.3,18-35.7,4.57,2.3Z"/>
    <path class="cls-10" d="M137.51,268.9l-2.98,4.73-7.53-4.74,2.98-4.73,7.53,4.74Zm37.1,23.35l-2.98,4.73-32.9-20.71,2.98-4.73,32.9,20.71Z"/>
    <path class="cls-10" d="M184.08,277.98l-3.32,4.49-31.26-23.11,2.99-4.05,8.8,6.5,.64-.21,22.15,16.37Zm-16.96-12.54l-.94,1.27-5.76-4.26,.84-1.14c-1.47-1.54-2.57-3.28-3.29-5.22-.72-1.94-.93-3.97-.63-6.1s1.26-4.29,2.88-6.48c1.78-2.4,3.76-3.99,5.96-4.75,2.19-.76,4.4-.87,6.62-.35,2.22,.53,4.3,1.51,6.24,2.95l3.1,2.29-3.32,4.49-2.41-1.78c-2.66-1.96-5.08-2.84-7.26-2.62-2.18,.22-4.29,1.69-6.31,4.44-2.34,3.16-3.1,6.18-2.27,9.04,.82,2.86,3.01,5.6,6.55,8.22Z"/>
    <path class="cls-10" d="M218.14,237.42c-2.82,3.04-5.89,5.13-9.21,6.27-3.32,1.14-6.65,1.28-10.01,.42-3.35-.86-6.53-2.68-9.53-5.47-2.88-2.68-4.88-5.66-5.98-8.94-1.1-3.28-1.25-6.64-.42-10.06,.82-3.43,2.64-6.66,5.46-9.69,2.61-2.81,5.42-4.79,8.44-5.96,3.02-1.17,6.09-1.45,9.21-.84,3.12,.61,6.11,2.24,8.95,4.88,.5,.46,.94,.93,1.33,1.4,.39,.47,.74,.92,1.05,1.35l-24.54,26.4-2.54-2.36,22.23-23.92,.37,2.6c-.35-.39-.71-.78-1.07-1.16-.37-.38-.76-.76-1.18-1.15-3-2.79-6.11-4-9.35-3.64-3.24,.36-6.42,2.23-9.57,5.61-3.61,3.88-5.24,7.59-4.91,11.12,.33,3.53,2.19,6.87,5.57,10.01l.92,.86c3.42,3.18,6.92,4.81,10.48,4.91,3.57,.09,7.17-1.82,10.82-5.74,3.11-3.34,4.82-6.36,5.13-9.04,.31-2.68-.57-4.99-2.65-6.92l-.4-.38,3.8-4.09,.4,.38c2,1.86,3.19,4.08,3.59,6.66,.39,2.58,.04,5.32-1.06,8.2-1.1,2.88-2.88,5.65-5.35,8.3Z"/>
    <path class="cls-10" d="M277.4,184.14l-3.98,3.09-6.51-8.4h-.5s-8.05-10.4-8.05-10.4c-2.31-2.99-4.67-4.57-7.08-4.77-2.41-.19-5.31,1.03-8.71,3.66-3.28,2.54-5.3,5.09-6.07,7.65-.77,2.56-.1,5.2,2.02,7.94l.19,.25-4.42,3.42-.19-.25c-1.7-2.2-2.66-4.63-2.86-7.29-.21-2.66,.38-5.37,1.76-8.13,1.38-2.76,3.64-5.36,6.79-7.81,3.11-2.41,6.07-3.84,8.87-4.29,2.8-.45,5.37-.11,7.7,1,2.33,1.12,4.37,2.82,6.14,5.1l14.9,19.22Zm-18.18,15.09c-3.03,2.35-6.01,3.55-8.96,3.61-2.94,.06-5.36-1.14-7.26-3.58-1.32-1.7-1.96-3.41-1.93-5.12,.03-1.72,.57-3.44,1.61-5.18,1.04-1.74,2.42-3.47,4.14-5.2l13.94-13.49,2.27,2.92-12.67,12.31c-2.16,2.01-3.54,3.78-4.15,5.31-.61,1.53-.28,3.11,.97,4.72,1.19,1.53,2.64,2.29,4.34,2.26,1.71-.03,3.72-.94,6.04-2.74,2.53-1.96,4.49-4.1,5.89-6.41,1.4-2.31,2.08-4.72,2.06-7.23-.02-2.51-.98-4.98-2.87-7.43l1.11-.36,3.81,4.91-.87,.68c1.27,3.53,1.25,7.05-.08,10.56-1.32,3.52-3.79,6.67-7.4,9.47Z"/>
    <path class="cls-10" d="M291.03,175.12l-4.8,2.86-19.92-33.39,4.33-2.58,6.33,10.61,.67,.06,13.38,22.44Zm28.12-16.77l-4.8,2.86-11.21-18.79c-2.07-3.47-4.54-5.63-7.4-6.49-2.86-.86-6.21-.14-10.04,2.14-4.1,2.45-6.49,5.46-7.16,9.04-.68,3.58,.28,7.53,2.86,11.86l-1.28,.77-4.1-6.72,1.22-.73c-.72-2.13-1.01-4.41-.86-6.82,.15-2.41,.89-4.73,2.22-6.96,1.33-2.23,3.39-4.17,6.18-5.84,3.15-1.88,6.16-2.77,9.03-2.68,2.87,.09,5.47,.94,7.83,2.52,2.35,1.59,4.32,3.71,5.91,6.37l11.61,19.47Z"/>
    <path class="cls-10" d="M353.58,142.6l-11.04,4.19-18.72-49.29,11.04-4.19,18.72,49.29Zm15.73-51.01l-38.62,14.67-3.77-9.93,38.62-14.67,3.77,9.93Zm6.3,19.92l-37.52,14.25-3.75-9.86,37.52-14.25,3.74,9.86Zm8.65,19.44l-38.62,14.67-3.77-9.93,38.62-14.67,3.77,9.93Z"/>
    <path class="cls-10" d="M401.31,126.58l-13.87,3.24,10.93-22.36-.14-.61-19.77-15.42,14.02-3.28,13.22,10.57,.61-.14,6.86-15.26,13.87-3.24-10.93,22.36,.16,.69,19.75,15.34-14.02,3.28-13.2-10.49-.61,.14-6.87,15.19Z"/>
    <path class="cls-10" d="M453.29,130.12l-11.75,1.13-5.05-52.56,10.89-1.05,1.12,11.67,.96,.94,3.83,39.87Zm14.78-14.07c-4.54,.44-8.18-.25-10.91-2.07-2.73-1.82-4.6-4.42-5.61-7.8l-2.04,.2-.81-8.46,1.49-.14c.21,2.19,.82,3.93,1.84,5.2,1.02,1.27,2.4,2.11,4.16,2.53,1.75,.41,3.86,.5,6.31,.26,2.56-.25,4.62-.76,6.18-1.54,1.56-.78,2.66-1.92,3.31-3.4s.86-3.4,.63-5.75c-.24-2.45-.81-4.34-1.73-5.65-.92-1.31-2.21-2.19-3.89-2.63-1.68-.44-3.77-.55-6.28-.31-3.81,.37-6.62,1.36-8.41,2.98-1.79,1.62-2.52,4.18-2.19,7.68l-1.49,.14-1.71-8.77,2.27-.22c.32-3.83,1.67-6.84,4.07-9.05,2.4-2.21,5.89-3.53,10.49-3.97,4.02-.39,7.51,.12,10.46,1.52,2.95,1.4,5.31,3.56,7.07,6.48,1.75,2.92,2.83,6.46,3.24,10.64,.4,4.13,.02,7.79-1.12,10.98-1.14,3.19-3,5.76-5.59,7.69-2.58,1.94-5.83,3.09-9.75,3.47Z"/>
    <path class="cls-10" d="M513.66,115.02c-4.35-.15-8.18-1.01-11.49-2.59-3.31-1.58-5.83-3.92-7.56-7.03-1.73-3.1-2.52-6.96-2.37-11.58,.14-4.19,1.18-7.79,3.12-10.8,1.94-3.01,4.57-5.29,7.91-6.86,3.33-1.57,7.18-2.28,11.53-2.13,4.3,.15,8.04,1.01,11.21,2.58,3.18,1.58,5.61,3.82,7.29,6.74,1.69,2.92,2.46,6.42,2.32,10.51-.02,.68-.07,1.31-.14,1.88-.07,.58-.17,1.2-.3,1.88l-35.39-1.19,.21-6.21,27.06,.91-2.8,3.76c.02-.52,.03-1.02,.05-1.49,.02-.47,.03-.94,.05-1.42,.1-2.99-.64-5.17-2.22-6.53-1.58-1.37-4.21-2.11-7.88-2.23-3.99-.13-6.79,.55-8.42,2.04-1.62,1.49-2.49,3.92-2.61,7.27l-.1,2.99c-.11,3.36,.59,5.83,2.11,7.43,1.52,1.6,4.3,2.47,8.34,2.6,3.46,.12,5.91-.25,7.36-1.09,1.45-.84,2.2-2.1,2.25-3.78l.03-.79,11.8,.4-.03,.87c-.1,2.83-1.04,5.32-2.85,7.46s-4.29,3.78-7.45,4.91c-3.16,1.13-6.84,1.62-11.03,1.48Z"/>
    <path class="cls-10" d="M553.21,117.59l-11.67-1.79,5.97-38.97,10.81,1.66-1.71,11.12,.8,.52-4.21,27.46Zm3.46-22.56l-2.33-.36,.93-6.07,2.18,.33c.69-2.07,1.69-3.87,3.02-5.39,1.32-1.52,2.96-2.62,4.93-3.31,1.96-.68,4.24-.82,6.83-.43,2.96,.45,5.24,1.43,6.84,2.92,1.6,1.49,2.66,3.33,3.18,5.5,.51,2.18,.58,4.54,.19,7.08l-.99,6.46-11.67-1.79,.62-4.04c.33-2.18,.09-3.82-.72-4.93-.81-1.11-2.41-1.84-4.8-2.21-2.59-.4-4.51-.08-5.76,.95-1.25,1.03-2.06,2.79-2.44,5.28Z"/>
    <path class="cls-10" d="M618.65,101.24l-29.79-7.7,2.44-9.45,29.79,7.7-2.44,9.45Zm-7.42,28.73l-9.45-2.44c-4.47-1.16-7.69-3.15-9.67-5.99-1.98-2.84-2.34-6.67-1.09-11.5l8.21-31.77,11.43,2.95-7.88,30.48c-.5,1.93-.41,3.32,.26,4.17,.67,.85,2,1.53,3.98,2.05l6.86,1.77-2.66,10.29Z"/>
    <path class="cls-10" d="M642.67,141.22l-5.18-2.09,13.89-34.45c1.29-3.21,2.99-5.64,5.1-7.28,2.1-1.64,4.55-2.52,7.34-2.64,2.79-.12,5.84,.49,9.15,1.82l3.94,1.59-1.65,4.09-4.67-1.88c-3.41-1.37-6.24-1.72-8.49-1.05-2.25,.68-3.97,2.84-5.16,6.49l-.44,1.09-13.83,34.31Zm27.27-25.75l-25.47-10.27,1.79-4.45,25.47,10.27-1.79,4.45Z"/>
    <path class="cls-10" d="M680.37,159.54c-3.71-1.97-6.56-4.46-8.55-7.48-1.99-3.02-3.05-6.28-3.17-9.79-.13-3.51,.74-7.01,2.58-10.48,1.84-3.48,4.26-6.15,7.24-8.01,2.98-1.86,6.28-2.82,9.89-2.86,3.61-.04,7.28,.92,10.98,2.89,3.8,2.02,6.68,4.53,8.65,7.54,1.97,3.01,3.01,6.26,3.14,9.78,.12,3.51-.74,7.01-2.58,10.48-1.84,3.48-4.26,6.15-7.24,8.01-2.98,1.86-6.26,2.82-9.86,2.87s-7.29-.93-11.09-2.95Zm2.36-4.45c4.77,2.53,8.9,3.2,12.4,1.99,3.49-1.21,6.34-3.89,8.56-8.06s2.84-8.04,1.89-11.61c-.96-3.57-3.82-6.62-8.59-9.15-4.68-2.49-8.78-3.13-12.29-1.94-3.52,1.19-6.38,3.87-8.59,8.04s-2.83,8.05-1.85,11.63c.98,3.58,3.81,6.61,8.49,9.1Z"/>
    <path class="cls-10" d="M711.58,176.98l-4.6-3.17,22.08-32,4.15,2.86-6.21,9,.23,.64-15.64,22.67Zm11.98-17.36l-1.3-.89,4.07-5.9,1.17,.8c1.49-1.52,3.2-2.67,5.11-3.46,1.91-.78,3.94-1.06,6.07-.83s4.33,1.12,6.57,2.67c2.46,1.7,4.11,3.63,4.94,5.8,.83,2.17,1.02,4.37,.56,6.6-.46,2.23-1.37,4.35-2.74,6.33l-2.19,3.17-4.6-3.17,1.7-2.46c1.88-2.72,2.67-5.17,2.39-7.34-.29-2.17-1.83-4.23-4.64-6.16-3.24-2.23-6.27-2.89-9.1-1.98-2.83,.92-5.5,3.19-8,6.81Z"/>
    <path class="cls-10" d="M747.44,221.11l-3.54-3.36,3.52-3.71,4.28,4.06c1.41,1.34,2.69,2.1,3.85,2.29,1.16,.19,2.56-.05,4.21-.72l6.5-2.51-2.73,1.85,13.03-42.32,4.45,4.23-7.65,24.64-3.42,9.89,.34,.33,9.63-4.09,23.69-9.31,4.45,4.23-45.8,17.62c-2.02,.76-3.87,1.16-5.54,1.2s-3.25-.3-4.73-1.02c-1.49-.72-3.01-1.82-4.57-3.3Z"/>
    <path class="cls-10" d="M797.42,255.18c-2.67-3.24-4.34-6.63-5.03-10.19-.68-3.55-.41-6.97,.82-10.26,1.23-3.29,3.37-6.19,6.4-8.69,3.04-2.5,6.29-4.04,9.75-4.62,3.47-.58,6.88-.19,10.23,1.16,3.35,1.35,6.37,3.64,9.04,6.88,2.74,3.32,4.44,6.75,5.1,10.28,.67,3.53,.38,6.94-.85,10.23-1.23,3.29-3.37,6.19-6.4,8.69-3.04,2.5-6.29,4.04-9.75,4.62-3.47,.58-6.87,.2-10.21-1.12-3.34-1.33-6.38-3.65-9.11-6.97Zm3.89-3.2c3.44,4.17,7,6.37,10.68,6.59,3.69,.23,7.35-1.16,11-4.17,3.64-3,5.71-6.33,6.19-10,.48-3.66-.99-7.58-4.43-11.75-3.37-4.09-6.91-6.26-10.61-6.5-3.71-.25-7.38,1.13-11.02,4.14-3.64,3-5.7,6.34-6.17,10.03-.47,3.68,.98,7.57,4.35,11.66Z"/>
    <path class="cls-10" d="M824.63,292.52c-1.96-3.11-2.93-6.11-2.92-8.99,0-2.89,.77-5.54,2.29-7.95,1.52-2.41,3.56-4.43,6.14-6.05l19.24-12.13,2.98,4.73-18.51,11.66c-3.37,2.13-5.47,4.66-6.29,7.59-.82,2.93-.02,6.31,2.38,10.13,2.54,4.04,5.63,6.36,9.26,6.95,3.63,.6,7.55-.44,11.77-3.09l.86,1.22-6.72,4.24-.71-1.13c-2.09,.82-4.33,1.16-6.71,1.02-2.38-.14-4.72-.85-7.02-2.13-2.3-1.28-4.31-3.3-6.05-6.05Zm12.41,18.22l-2.69-4.26,10.39-6.54,.04-.68,22.17-13.97,2.98,4.73-32.89,20.73Z"/>
    <path class="cls-10" d="M844.54,325.55l-2.41-5.04,35.07-16.78,2.17,4.54-9.87,4.72-.12,.67-24.85,11.89Zm19.03-9.1l-.68-1.42,6.46-3.09,.61,1.28c2.05-.58,4.1-.73,6.15-.46,2.05,.27,3.94,1.04,5.68,2.3s3.2,3.12,4.37,5.58c1.29,2.7,1.76,5.19,1.4,7.49-.36,2.29-1.29,4.3-2.8,6.01-1.51,1.71-3.35,3.09-5.53,4.13l-3.48,1.66-2.41-5.04,2.7-1.29c2.98-1.43,4.89-3.15,5.72-5.18,.83-2.03,.51-4.58-.96-7.66-1.7-3.55-4-5.63-6.91-6.25-2.91-.61-6.35,.03-10.33,1.93Z"/>
  </g>
  <g>
    <path class="cls-10" d="M74.78,501.04l.21-12.81,45.65,.74-.21,12.81-45.65-.74Zm11.31,12.66l.34-20.99,11.52,.19-.32,19.55c-.04,2.27,.28,3.9,.94,4.89,.67,.99,2.18,1.5,4.54,1.54,2.32,.04,3.82-.43,4.52-1.39s1.06-2.58,1.1-4.85l.32-19.56,11.52,.19-.34,20.99c-.06,3.63-.78,6.76-2.16,9.37-1.38,2.61-3.35,4.61-5.89,6-2.54,1.39-5.63,2.06-9.27,2-3.59-.06-6.66-.82-9.2-2.3s-4.46-3.54-5.76-6.19c-1.3-2.66-1.92-5.8-1.86-9.43Z"/>
    <path class="cls-10" d="M76.24,553.92l-1.48-12.73,45.35-5.26,1.48,12.73-45.35,5.26Zm3.93,33.85l-1.48-12.73,45.35-5.26,1.48,12.73-45.35,5.26Zm16.34-8.14l-4.3-37.09,11.44-1.33,4.3,37.09-11.44,1.33Z"/>
    <path class="cls-10" d="M85.47,611.18l-3.12-12.43,44.28-11.12,3.12,12.43-44.28,11.12Zm14.21,9.29l-5.11-20.36,11.17-2.81,4.76,18.97c.55,2.2,1.28,3.69,2.18,4.48,.9,.78,2.49,.88,4.79,.31,2.25-.56,3.58-1.4,4-2.52s.36-2.77-.2-4.97l-4.76-18.97,11.17-2.81,5.11,20.36c.89,3.52,1,6.73,.34,9.61-.66,2.88-2.04,5.32-4.13,7.33s-4.91,3.45-8.43,4.33c-3.48,.88-6.64,.93-9.48,.17s-5.23-2.26-7.17-4.49c-1.94-2.23-3.36-5.11-4.24-8.63Z"/>
    <path class="cls-10" d="M111.02,687.65l-8.09-17.2,37.25-28.07,6.09,12.95-19.4,13.34-8.79,5.49,.38,.8,10.09-2.71,23.64-4.34,8.21,17.45-18.65,14.95-8.62,5.86,.38,.8,9.89-3.15,22.85-6.01,5.98,12.7-45.75,10-8.09-17.2,15.67-12.64,11.67-8.8-.38-.8-14.31,3.19-20.02,3.39Z"/>
    <path class="cls-10" d="M144.99,749.54l-7.25-10.56,37.64-25.84,7.25,10.56-37.64,25.84Zm15.7,22.87l-20.98-30.56,9.49-6.52,20.98,30.56-9.5,6.52Zm13.64-10.6l-20.4-29.72,9.44-6.48,20.4,29.72-9.44,6.48Zm14.51-8.72l-20.98-30.56,9.49-6.52,20.98,30.56-9.5,6.52Z"/>
    <path class="cls-10" d="M187.38,803.6l-20.32-22.88,34.14-30.32,19.28,21.71c2.2,2.48,3.71,4.81,4.53,7,.82,2.19,.98,4.23,.48,6.13-.5,1.9-1.65,3.65-3.45,5.25-2.17,1.93-4.54,2.89-7.1,2.89s-5.29-1.51-8.2-4.52l-.51,.45c2.91,3.55,4.37,6.8,4.37,9.74,0,2.95-1.19,5.47-3.56,7.58-1.9,1.69-3.91,2.78-6.03,3.26-2.12,.49-4.32,.24-6.59-.75-2.28-.99-4.62-2.84-7.03-5.56Zm1.49-25.21l-4.74,4.21,10.77,12.13c1.03,1.15,1.89,1.8,2.59,1.94,.7,.14,1.52-.21,2.48-1.06,.95-.84,1.4-1.61,1.34-2.29-.06-.68-.61-1.61-1.67-2.8l-10.77-12.13Zm12.18-10.82l-4.33,3.85,9.91,11.16c.88,.98,1.62,1.5,2.25,1.56,.62,.05,1.33-.27,2.11-.96,.78-.69,1.15-1.4,1.12-2.13-.04-.73-.49-1.58-1.37-2.57l-9.68-10.9Z"/>
    <path class="cls-10" d="M224.15,839l-9.95-8.07,28.76-35.46,9.95,8.07-28.76,35.46Zm7.99,6.48l-15.45-12.54,7.25-8.94,15.45,12.54c2.12,1.72,3.94,2.9,5.46,3.55,1.52,.65,3.05,.56,4.6-.26,1.54-.82,3.39-2.56,5.54-5.2,2.17-2.68,3.5-4.85,3.97-6.52,.47-1.66,.23-3.17-.71-4.53-.95-1.35-2.48-2.89-4.6-4.61l-15.45-12.54,7.26-8.94,15.45,12.54c3.92,3.18,6.74,6.62,8.46,10.33,1.73,3.71,2.29,7.52,1.7,11.43-.59,3.91-2.41,7.73-5.44,11.47-3.03,3.74-6.4,6.3-10.1,7.69s-7.54,1.62-11.53,.69c-3.99-.92-7.94-2.98-11.86-6.15Z"/>
    <path class="cls-10" d="M270.84,873.51l-10.9-6.72,23.97-38.86,10.9,6.72-23.97,38.86Zm23.61,14.56l-31.55-19.46,6.04-9.8,31.55,19.46-6.04,9.8Zm8.18-15.21l-30.68-18.92,6.01-9.74,30.68,18.92-6.01,9.74Zm9.74-13.85l-31.55-19.46,6.04-9.8,31.55,19.46-6.04,9.8Z"/>
    <path class="cls-10" d="M334.93,907.27l-16.8-7.51,1.9-49.16,14.12,6.31-2.59,34.67,.81,.36,23.86-25.16,14.06,6.29-35.37,34.2Z"/>
    <path class="cls-10" d="M372.2,920.9l-12.29-3.63,12.96-43.78,12.29,3.64-12.96,43.78Zm26.6,7.87l-35.55-10.52,3.27-11.04,35.55,10.52-3.27,11.04Zm3.91-16.82l-34.57-10.23,3.25-10.98,34.57,10.23-3.25,10.98Zm5.78-15.92l-35.55-10.52,3.27-11.04,35.55,10.52-3.27,11.04Z"/>
    <path class="cls-10" d="M421.37,933.17l-12.63-2.16,7.71-45,12.63,2.16-7.71,45Zm25.99,4.45l-35.13-6.02,1.94-11.35,35.13,6.02-1.95,11.35Z"/>
    <path class="cls-10" d="M482.28,940.71c-5.27-.21-9.75-1.36-13.47-3.45-3.71-2.08-6.5-4.92-8.35-8.52-1.86-3.6-2.68-7.78-2.49-12.55,.19-4.77,1.36-8.87,3.5-12.3,2.14-3.44,5.14-6.04,9.01-7.82,3.87-1.78,8.44-2.56,13.7-2.34,5.45,.22,10.03,1.38,13.74,3.46,3.71,2.08,6.49,4.92,8.35,8.52,1.85,3.6,2.68,7.78,2.49,12.55-.19,4.77-1.36,8.87-3.5,12.3-2.14,3.44-5.15,6.04-9.01,7.82-3.87,1.78-8.53,2.55-13.97,2.33Zm.5-12.26c3.09,.13,5.5-.08,7.25-.63,1.75-.54,3.01-1.62,3.78-3.22s1.22-3.91,1.34-6.9c.12-3.04-.13-5.38-.77-7.02-.64-1.64-1.81-2.8-3.51-3.49-1.7-.68-4.09-1.09-7.18-1.21-3.09-.12-5.48,.08-7.19,.63-1.71,.54-2.92,1.61-3.64,3.19-.72,1.58-1.15,3.9-1.27,6.94-.12,3,.11,5.32,.71,6.99,.59,1.66,1.71,2.83,3.37,3.51s4.02,1.08,7.11,1.21Z"/>
    <path class="cls-10" d="M531.21,939.33l-12.76,1.17-4.16-45.47,12.76-1.17,4.16,45.47Zm11.37-12.6l-20.9,1.91-1.05-11.47,19.48-1.78c2.26-.21,3.85-.69,4.76-1.46,.91-.77,1.26-2.33,1.04-4.68-.21-2.31-.83-3.76-1.87-4.35s-2.68-.78-4.94-.58l-19.48,1.78-1.05-11.47,20.9-1.91c3.62-.33,6.8,.05,9.55,1.15,2.75,1.09,4.95,2.83,6.6,5.21s2.65,5.38,2.98,9c.33,3.57-.11,6.71-1.3,9.39-1.19,2.69-3.04,4.82-5.54,6.39-2.5,1.57-5.56,2.53-9.18,2.86Z"/>
    <path class="cls-10" d="M584.3,932.4l-12.45,3.04-10.85-44.35,16.88-4.13,12.64,16.41,7.17,10.38,.86-.21,1.37-12.47,3.24-20.3,16.88-4.13,10.85,44.35-12.44,3.04-4.48-18.33-1.35-7.53-.86,.21-.7,8.03-2.78,17.31-15.09,3.69-10.46-14.07-4.33-6.8-.86,.21,2.28,7.3,4.49,18.34Z"/>
    <path class="cls-10" d="M653.93,911.73l-11.86,4.84-17.25-42.27,11.86-4.84,17.25,42.27Zm12.78-42.09l-34.32,14-4.35-10.66,34.32-14,4.35,10.66Zm5.44,16.03l-33.38,13.62-4.33-10.6,33.38-13.62,4.33,10.6Zm7.46,15.58l-34.32,14-4.35-10.66,34.32-14,4.35,10.66Z"/>
    <path class="cls-10" d="M700.38,890.46l-11.15,6.31-22.49-39.73,11.86-6.71,19.46,8.64,10.98,5.84,.77-.44-5.43-8.36-8.69-15.36,11.15-6.31,22.49,39.73-11.86,6.71-20.4-8.65-9.47-4.98-.77,.44,4.77,7.32,8.79,15.54Z"/>
    <path class="cls-10" d="M753.26,814.07l-35.97,27.11-6.93-9.2,35.97-27.11,6.93,9.2Zm7.71,36.94l-10.23,7.71-27.48-36.46,10.23-7.71,27.48,36.46Z"/>
    <path class="cls-10" d="M799.26,817.42l-8.94,9.18-32.71-31.85,8.94-9.18,32.71,31.85Zm.45-16.97l-14.64,15.04-8.25-8.03,13.64-14.01c1.58-1.63,2.47-3.03,2.67-4.21,.19-1.17-.56-2.59-2.25-4.23-1.66-1.62-3.08-2.31-4.25-2.09-1.17,.23-2.55,1.15-4.13,2.78l-13.64,14.01-8.25-8.03,14.64-15.04c2.54-2.6,5.2-4.38,8-5.34,2.8-.95,5.6-1.06,8.41-.33,2.8,.73,5.51,2.37,8.11,4.9,2.57,2.5,4.28,5.16,5.12,7.98s.82,5.64-.06,8.46c-.88,2.82-2.58,5.54-5.12,8.14Z"/>
    <path class="cls-10" d="M834.27,778.29l-7.71,10.23-36.46-27.48,16.04-21.28c2.43-3.23,4.91-5.6,7.42-7.12,2.51-1.52,5.01-2.21,7.5-2.07,2.48,.14,4.92,1.11,7.32,2.91,1.92,1.45,3.33,3.04,4.22,4.76,.89,1.72,1.22,3.63,.97,5.73-.24,2.09-1.09,4.41-2.55,6.95l.54,.41c1.89-1.53,3.61-2.36,5.15-2.47,1.54-.12,3.26,0,5.16,.35l12.55,2.38-8.9,11.81-12.21-2.37c-1.23-.25-2.28-.33-3.15-.24-.86,.09-1.68,.44-2.46,1.05-.77,.61-1.67,1.59-2.68,2.93l-3.16,4.19,12.41,9.35Zm-27.26-20.55l7.24,5.46,8.25-10.94c1.12-1.49,1.7-2.7,1.73-3.65,.03-.95-.74-2-2.3-3.18-1.45-1.09-2.64-1.51-3.58-1.25-.94,.26-1.97,1.14-3.09,2.62l-8.25,10.94Z"/>
    <path class="cls-10" d="M872.19,722.52c-2.57,4.6-5.62,8.09-9.16,10.46-3.53,2.37-7.33,3.57-11.38,3.6-4.05,.03-8.16-1.12-12.32-3.44-4.17-2.32-7.3-5.22-9.4-8.68-2.1-3.46-3.07-7.32-2.91-11.57,.16-4.25,1.53-8.68,4.1-13.28,2.66-4.76,5.75-8.33,9.29-10.7,3.54-2.37,7.33-3.57,11.38-3.6,4.05-.03,8.16,1.12,12.32,3.44s7.3,5.22,9.4,8.68c2.1,3.46,3.07,7.32,2.91,11.57-.16,4.25-1.57,8.76-4.23,13.52Zm-10.71-5.98c1.51-2.7,2.41-4.95,2.72-6.76,.31-1.81-.08-3.42-1.17-4.83s-2.94-2.85-5.55-4.31c-2.66-1.48-4.86-2.31-6.61-2.48-1.75-.17-3.32,.35-4.69,1.56-1.38,1.21-2.82,3.16-4.32,5.86-1.51,2.7-2.4,4.93-2.68,6.7s.12,3.33,1.21,4.69c1.09,1.36,2.96,2.78,5.62,4.27,2.62,1.46,4.8,2.3,6.55,2.52,1.75,.22,3.3-.25,4.66-1.42,1.35-1.17,2.78-3.1,4.29-5.8Z"/>
    <path class="cls-10" d="M896.3,671.73c-1.9,4.82-4.14,8.4-6.73,10.75-2.59,2.35-5.53,3.62-8.83,3.81-3.3,.19-7-.52-11.1-2.14l-1.65-.65,5-12.68,1.52,.6c1.9,.75,3.44,1.21,4.62,1.38,1.18,.17,2.18-.15,3.02-.97s1.7-2.37,2.6-4.65,1.35-4.01,1.35-5.18-.45-2.09-1.33-2.76c-.88-.67-2.19-1.34-3.93-2.02l-24.79-9.77,5-12.68,24.92,9.82c3.93,1.55,6.99,3.51,9.18,5.89s3.41,5.3,3.65,8.76c.25,3.47-.59,7.63-2.51,12.49Z"/>
    <path class="cls-10" d="M909.97,629.06l-3.22,12.4-44.2-11.46,3.22-12.4,44.19,11.46Zm-26.08-35.42l-9.31,35.88-11.15-2.89,9.31-35.88,11.15,2.89Zm16.1,5.23l-9.05,34.89-11.08-2.87,9.05-34.89,11.08,2.87Zm16.94,3.34l-9.31,35.88-11.15-2.89,9.31-35.88,11.15,2.89Z"/>
    <path class="cls-10" d="M922.87,567.44c-.65,5.23-2.16,9.6-4.54,13.1-2.38,3.51-5.44,6.03-9.18,7.58-3.74,1.55-7.98,2.04-12.71,1.45-4.73-.59-8.73-2.09-11.97-4.5-3.25-2.42-5.6-5.61-7.05-9.59-1.45-3.98-1.86-8.58-1.21-13.81,.63-5.09,1.94-9.36,3.92-12.8,1.98-3.44,4.54-5.95,7.66-7.53,3.12-1.58,6.72-2.12,10.77-1.62l1.15,.14-1.76,14.2-1.15-.14c-2.57-.32-4.5,.18-5.78,1.48-1.28,1.31-2.16,3.83-2.62,7.57-.38,3.07-.37,5.48,.03,7.25,.4,1.77,1.36,3.09,2.87,3.96,1.52,.88,3.79,1.5,6.81,1.87,2.98,.37,5.32,.31,7.02-.16,1.71-.48,2.97-1.52,3.79-3.14,.82-1.62,1.42-3.96,1.8-7.02,.46-3.74,.23-6.4-.69-7.98-.93-1.58-2.67-2.53-5.24-2.85l-1.15-.14,1.76-14.2,1.15,.14c4.01,.5,7.35,1.89,10.02,4.19,2.67,2.3,4.54,5.36,5.63,9.18,1.08,3.82,1.31,8.28,.68,13.37Z"/>
    <path class="cls-10" d="M890.86,488.6l.73,45.04-11.51,.19-.73-45.04,11.51-.19Zm34.4,15.53l.21,12.81-45.65,.74-.21-12.81,45.65-.74Z"/>
  </g>
  <circle class="cls-10" cx="106.28" cy="420.7" r="21.02"/>
  <circle class="cls-10" cx="893.72" cy="420.7" r="21.02"/>
  <g>
    <path class="cls-10" d="M568.51,474.73c0,14.03-12.57,24.98-28.09,24.46s-27.49-13.53-26.75-29.04c.74-15.51,13.31-26.46,28.09-24.46,14.77,2,26.75,15.01,26.75,29.04Z"/>
    <g>
      <path class="cls-12" d="M534.4,478.71l4.12,.29,.06-2.39-4.11-.31c-2.25-.17-4.01-2.11-3.94-4.34l.03-.81c.08-2.23,1.95-3.87,4.18-3.66l18.19,1.67s0,0,0,0h0s1.21,.11,1.21,.11l.03-2.32-1.21-.12h0s-18.15-1.75-18.15-1.75c-1.25-.12-2.42,.12-3.43,.64-1.88,.97-3.17,2.9-3.26,5.23l-.03,.81c-.13,3.58,2.69,6.69,6.3,6.95Z"/>
      <path class="cls-12" d="M547.64,470.24l-.67-.07-4.64-.45-2.43-.24-.25,9.59,2.45,.17,.17-7.17,4.65,.45,.68,.07c2.24,.19,4.03,2.08,4,4.22v.78c-.05,2.14-1.9,3.76-4.16,3.6l-19.63-1.33-.09,2.43,1.23,.08h0s0,0,0,0l18.44,1.17c1.27,.08,2.45-.18,3.47-.71,1.88-.97,3.14-2.84,3.17-5.06v-.77c.06-3.41-2.81-6.44-6.38-6.76Z"/>
      <polygon class="cls-12" points="529.62 462.96 529.62 462.96 552.98 465.28 554.19 465.4 554.21 464.25 554.21 464.24 554.21 464.24 554.22 463.08 553.02 462.96 529.71 460.53 529.71 460.53 529.71 460.53 528.5 460.41 528.42 462.84 529.62 462.96 529.62 462.96"/>
    </g>
  </g>
</svg>