<svg width="133" height="135" viewBox="0 0 133 135" fill="none" xmlns="http://www.w3.org/2000/svg">
<path d="M132.014 0.98938H0.989349V97.0742H132.014V0.98938Z" fill="#6FC6E7"/>
<path d="M101.442 92.705H132.014V0.987671H5.4679C7.80201 52.2971 50.0775 92.6981 101.442 92.705Z" fill="#B6DEEB"/>
<path d="M132.014 0.98938H0.989349V18.4593H132.014V0.98938Z" fill="#3378A7"/>
<path d="M5.4679 0.98938C5.73617 6.87421 6.54439 12.7232 7.88232 18.4593H132.012V0.98938H5.46619H5.4679Z" fill="#4197CE"/>
<path d="M11.9081 14.0918C9.49538 14.0918 7.54059 12.137 7.54059 9.72431C7.54059 7.3116 9.49538 5.35681 11.9081 5.35681C14.3208 5.35681 16.2756 7.3116 16.2756 9.72431C16.2756 12.137 14.3208 14.0918 11.9081 14.0918Z" fill="#DD4533"/>
<path d="M25.0105 14.0918C22.5978 14.0918 20.6431 12.137 20.6431 9.72431C20.6431 7.3116 22.5978 5.35681 25.0105 5.35681C27.4233 5.35681 29.378 7.3116 29.378 9.72431C29.378 12.137 27.4233 14.0918 25.0105 14.0918Z" fill="#ECE756"/>
<path d="M38.113 14.0918C35.7003 14.0918 33.7455 12.137 33.7455 9.72431C33.7455 7.3116 35.7003 5.35681 38.113 5.35681C40.5258 5.35681 42.4805 7.3116 42.4805 9.72431C42.4805 12.137 40.5258 14.0918 38.113 14.0918Z" fill="#5BB161"/>
<path d="M66.5017 132.012C85.7985 132.012 101.442 116.369 101.442 97.0724C101.442 77.7756 85.7985 62.1325 66.5017 62.1325C47.2049 62.1325 31.5618 77.7756 31.5618 97.0724C31.5618 116.369 47.2049 132.012 66.5017 132.012Z" fill="#6FC6E7"/>
<path d="M66.5017 62.1325C56.2152 62.1257 46.4516 66.6658 39.8252 74.5344C30.9825 91.6729 37.708 112.735 54.8465 121.576C69.3228 129.044 87.0422 125.511 97.5457 113.059C106.395 95.9345 99.6885 74.8779 82.5637 66.0284C77.5981 63.4619 72.0909 62.1257 66.5017 62.1325Z" fill="#B6DEEB"/>
<path d="M66.5017 59.9487C45.9988 59.9487 29.3781 76.5695 29.3781 97.0724C29.3781 117.575 45.9988 134.196 66.5017 134.196C87.0047 134.196 103.625 117.575 103.625 97.0724C103.603 76.5797 86.9944 59.9709 66.5017 59.9487ZM64.318 66.9955V127.149L61.3568 124.516C46.2004 111.046 44.8334 87.8385 58.3033 72.6821C59.2602 71.6056 60.2803 70.5855 61.3568 69.6286L64.318 66.9955ZM68.6855 127.149V66.9955L71.6467 69.6286C86.803 83.0985 88.17 106.306 74.7002 121.463C73.7433 122.539 72.7232 123.559 71.6467 124.516L68.6855 127.149ZM33.7455 97.0724C33.7695 81.4872 44.7548 68.0703 60.0291 64.9707L58.4553 66.3701C41.4963 81.4444 39.9687 107.414 55.043 124.373C56.1127 125.576 57.2524 126.715 58.4553 127.785L60.0291 129.184C44.7514 126.083 33.7643 112.659 33.7455 97.0707V97.0724ZM72.9744 129.174L74.5481 127.775C91.5071 112.7 93.0347 86.7312 77.9604 69.7722C76.8907 68.5692 75.751 67.4295 74.5481 66.3599L72.9744 64.9604C90.7075 68.5419 102.178 85.8222 98.5966 103.554C95.9874 116.47 85.8923 126.567 72.9744 129.176V129.174Z" fill="#3378A7"/>
<path d="M103.629 86.152H29.3798V110.175H103.629V86.152Z" fill="#5BB161"/>
<path d="M27.1943 27.1943H9.72433V44.6643H27.1943V27.1943Z" fill="#F3F3F3"/>
<path d="M123.279 27.1943H105.809V44.6643H123.279V27.1943Z" fill="#F3F3F3"/>
<path d="M27.1943 57.765H9.72433V75.235H27.1943V57.765Z" fill="#F3F3F3"/>
<path d="M123.279 57.765H105.809V75.235H123.279V57.765Z" fill="#F3F3F3"/>
<path d="M66.5205 133.01C52.4253 133.01 39.574 124.711 33.778 111.867L33.4602 111.163H29.3763C28.8313 111.163 28.3887 110.72 28.3887 110.175V98.0601H0.987646C0.442564 98.0601 0 97.6175 0 97.0724V0.987646C0 0.442564 0.442564 0 0.987646 0H132.012C132.557 0 133 0.442564 133 0.987646V97.0724C133 97.6175 132.557 98.0601 132.012 98.0601H104.611V110.175C104.611 110.72 104.169 111.163 103.624 111.163H99.5364L99.2186 111.867C95.6183 119.846 89.2414 126.223 81.2617 129.823C76.5763 131.937 71.6176 133.009 66.5205 133.009V133.01ZM36.4812 112.914C41.24 121.989 49.7323 128.342 59.7813 130.341L64.0993 131.201L59.2482 126.886C54.6637 122.796 51.031 117.618 48.7447 111.913L48.4439 111.161H35.5619L36.4795 112.912L36.4812 112.914ZM84.2587 111.914C81.9725 117.62 78.338 122.797 73.7518 126.888L71.7902 128.632V130.627L73.2204 130.346C83.2711 128.345 91.7634 121.991 96.5205 112.914L97.4381 111.163H84.5595L84.2587 111.913V111.914ZM67.4893 129.813L72.4412 125.41C76.3884 121.888 79.5068 117.666 81.7076 112.858L82.4834 111.164H67.4911V129.815L67.4893 129.813ZM51.2975 112.856C53.4967 117.666 56.6133 121.888 60.5605 125.408L65.5141 129.813V111.163H50.5235L51.2975 112.856ZM30.3657 109.187H102.638V87.1413H30.3657V109.187ZM66.4949 61.1175C73.7211 61.1175 80.7131 63.2756 86.7159 67.3561C92.8519 71.5288 97.4825 77.4187 100.104 84.3903L100.396 85.1661H103.625C104.17 85.1661 104.613 85.6086 104.613 86.1537V96.0848H131.026V19.4452H1.977V96.0848H28.3904V86.1537C28.3904 85.6086 28.833 85.1661 29.378 85.1661H32.6075L32.8997 84.3903C36.541 74.707 44.1824 67.0656 53.8657 63.4243C57.9376 61.8933 62.1872 61.1175 66.4949 61.1175ZM73.7535 67.2587C78.9309 71.8671 82.8302 77.7776 85.0311 84.3493L85.3045 85.1661H98.342L97.6141 83.4932C93.1988 73.3451 84.0827 65.9891 73.2307 63.8139L68.9007 62.9459L73.7518 67.257L73.7535 67.2587ZM67.4893 85.1661H83.2762L82.6594 83.5445C80.503 77.8818 76.9711 72.7608 72.4412 68.735L67.4893 64.3316V85.1661ZM60.5622 68.7384C56.0341 72.7625 52.5005 77.8818 50.3458 83.5445L49.7289 85.1661H65.5158V64.3299L60.5639 68.7384H60.5622ZM59.7711 63.8156C48.9207 65.9891 39.8046 73.3451 35.3876 83.4915L34.6597 85.1644H47.7092L47.9826 84.3476C50.1817 77.7758 54.0776 71.8654 59.2516 67.2552L64.1078 62.9459L59.7711 63.8139V63.8156ZM1.97871 17.47H131.028V1.97527H1.97871V17.47Z" fill="#333333"/>
<path d="M11.9081 14.0918C14.3202 14.0918 16.2756 12.1364 16.2756 9.72431C16.2756 7.31221 14.3202 5.35681 11.9081 5.35681C9.49599 5.35681 7.54059 7.31221 7.54059 9.72431C7.54059 12.1364 9.49599 14.0918 11.9081 14.0918Z" fill="#333333"/>
<path d="M25.0105 14.0918C27.4226 14.0918 29.378 12.1364 29.378 9.72431C29.378 7.31221 27.4226 5.35681 25.0105 5.35681C22.5984 5.35681 20.6431 7.31221 20.6431 9.72431C20.6431 12.1364 22.5984 14.0918 25.0105 14.0918Z" fill="#333333"/>
<path d="M38.113 14.0918C40.5251 14.0918 42.4805 12.1364 42.4805 9.72431C42.4805 7.31221 40.5251 5.35681 38.113 5.35681C35.7009 5.35681 33.7455 7.31221 33.7455 9.72431C33.7455 12.1364 35.7009 14.0918 38.113 14.0918Z" fill="#333333"/>
</svg>
