<?xml version="1.0" encoding="UTF-8"?>
<svg id="Layer_1" data-name="Layer 1" xmlns="http://www.w3.org/2000/svg" xmlns:xlink="http://www.w3.org/1999/xlink" viewBox="0 0 1000 1000">
  <defs>
    <style>
      .cls-1, .cls-2, .cls-3, .cls-4, .cls-5, .cls-6, .cls-7 {
        stroke: #353535;
        stroke-miterlimit: 10;
      }

      .cls-1, .cls-3, .cls-8 {
        fill: none;
      }

      .cls-1, .cls-5, .cls-6, .cls-7 {
        stroke-width: 2.1px;
      }

      .cls-9, .cls-5 {
        fill: #fff;
      }

      .cls-2 {
        fill: #f7f7f7;
        stroke-width: 5.88px;
      }

      .cls-3, .cls-4 {
        stroke-width: 1.4px;
      }

      .cls-4, .cls-10, .cls-6 {
        fill: #353535;
      }

      .cls-11 {
        clip-path: url(#clippath-1);
      }

      .cls-12 {
        clip-path: url(#clippath);
      }

      .cls-13 {
        fill: #ffe100;
      }

      .cls-7 {
        fill: #fd0;
      }
    </style>
    <clipPath id="clippath">
      <path class="cls-8" d="M568.17,181.53l8.93-22.3-53.99-25.15h-123.98l-15.75,61.45c-129.59,47.68-222.03,172.22-222.03,318.36,0,187.29,151.83,339.12,339.12,339.12s339.12-151.83,339.12-339.12c0-164.11-116.57-300.98-271.42-332.35Z"/>
    </clipPath>
    <clipPath id="clippath-1">
      <path class="cls-8" d="M568.17-973.47l8.93-22.3-53.99-25.15h-123.98l-15.75,61.45c-129.59,47.68-222.03,172.22-222.03,318.36,0,187.29,151.83,339.12,339.12,339.12s339.12-151.83,339.12-339.12c0-164.11-116.57-300.98-271.42-332.35Z"/>
    </clipPath>
  </defs>
  <path class="cls-2" d="M500,34c257.36,0,466,208.64,466,466s-208.64,466-466,466S34,757.36,34,500,242.64,34,500,34"/>
  <g>
    <g>
      <path class="cls-9" d="M500.47,174.77c187.29,0,339.12,151.83,339.12,339.12s-151.83,339.12-339.12,339.12-339.12-151.83-339.12-339.12S313.18,174.77,500.47,174.77"/>
      <path class="cls-10" d="M500.47,173.09c243-.92,408.78,247.39,316.04,471.7-69.98,173.12-275.05,258.54-447.06,185.4-224.38-93.12-282.73-386.32-110.54-557.86,63.26-63.36,152.06-99.87,241.56-99.24,0,0,0,3.35,0,3.35-12.91,1.18-28.37,2.76-40.97,5.33,0,0-8.07,1.55-8.07,1.55-.67,.13-1.34,.25-2.01,.4-1.73,.41-4.32,1.07-5.99,1.47-223.81,52.32-332.72,309.33-201.79,501.6,69.79,102.31,197.73,154.66,319.18,130.29,168.16-32.45,279.51-196.71,250.42-365.05-23.46-139.43-134.9-247.13-273.84-271.06-11.13-2.04-25.55-3.51-36.93-4.54,0,0,0-3.35,0-3.35h0Z"/>
    </g>
    <g class="cls-12">
      <g>
        <path class="cls-6" d="M396.86,656.23s-19.64,85.96-20.4,126.38c-.76,40.42,1.46,186.13,2.22,217.4,.76,31.27,14.49,132.71,14.49,141.86s2.29,26.69,2.29,26.69l-6.1,32.8s-5.34,4.58-19.07,12.2c-13.73,7.63-29.75,17.54-34.32,22.88h0c-2.37,2.77-1.32,7.07,2.09,8.37,4.31,1.65,10.35,3.44,16.98,3.83,12.97,.76,34.32,.76,45.76-2.29,11.44-3.05,20.59-12.97,25.93-16.78l5.34-3.81,.76,8.39s.76,0,7.63-1.53c6.86-1.53,16.02-6.86,16.02-6.86,0,0,.76-12.97,.76-20.59s-3.81-21.36-4.58-24.41c-.76-3.05,0-30.51-2.29-39.66-2.29-9.15-3.81-6.86-5.34-23.64-1.53-16.78,12.2-175.42,11.44-180-.76-4.58,19.43-142.1,19.43-142.1,0,0,38.54,179.47,50.74,213.79,12.2,34.32,18.3,100.68,18.3,105.25s6.86,58.73,9.91,66.35c3.05,7.63,11.44,31.27,11.44,31.27,0,0,12.2,18.3,17.54,27.46,5.34,9.15,23.64,16.78,37.37,19.07,13.73,2.29,24.41,3.05,25.17-15.25,.76-18.3-6.1-30.51-17.54-38.9-11.44-8.39-13.73-16.02-13.73-16.02,0,0,1.53-20.59,0-33.56-1.53-12.97-9.92-22.88-10.68-49.58-.76-26.69-6.1-167.03-10.68-189.15-4.58-22.12-10.61-170.11-9.85-190.7,.76-20.59-1.92-77.97-1.92-77.97l-185.71-2.12,.57,10.9Z"/>
        <g>
          <path class="cls-7" d="M469.75,348.94s-28.33,16.72-48.41,26.76c-20.08,10.04-44.56,15.69-47.07,21.34-2.51,5.65-45.81,97.9-53.97,110.45s-27.61,37.03-23.85,50.83c3.77,13.81,19.46,32.63,29.5,31.38,10.04-1.26,30.12-6.9,38.28-21.34,8.16-14.43,27.61-60.88,27.61-60.88,0,0,3.14,43.3,2.51,64.64-.63,21.34-.63,38.91-1.88,49.58-1.26,10.67-6.9,23.85-4.39,27.61s5.65,7.53,8.79,6.9c3.14-.63,50.21-1.26,64.64-.63,14.43,.63,79.7,0,93.51,.63,13.81,.63,25.73-6.28,26.99-8.79s3.77-6.28,2.51-20.08c-1.26-13.81,1.26-55.85,5.02-72.17,3.77-16.32,26.36-79.08,26.36-79.08,0,0,59.62,47.07,72.17,50.83,12.55,3.77,46.44-1.88,57.74-15.69,11.3-13.81,15.06-24.48,8.16-33.89-6.9-9.41-32.01-18.2-58.37-46.44-26.36-28.24-36.4-41.42-54.6-50.21-18.2-8.79-55.23-20.71-64.01-24.48s-11.3-5.65-16.94-8.16c-5.65-2.51-18.83-7.53-43.3-8.16-24.48-.63-46.98,9.01-46.98,9.01Z"/>
          <g>
            <path class="cls-1" d="M379.21,463.03c.87,3.03,12.63,44.46,12.63,44.46l-17.39-34.51"/>
            <path class="cls-1" d="M615.89,476.11c-2.63-.1-27.29-13.95-27.29-13.95"/>
            <path class="cls-1" d="M576.05,460.44s9.95,12.98,18.6,15.57"/>
          </g>
        </g>
        <path class="cls-6" d="M466.25,387.44l7.88,29.75s-24.94,124.7-28.88,145.71c-3.94,21-4.81,38.5-4.81,38.5l21.88,43.32,27.57-46.82s-2.63-59.07-3.5-106.33c-.87-47.26,.88-70.01,.44-71.32-.44-1.31,27.57-21.88,27.57-21.88,0,0,16.19-17.94,17.06-21,.88-3.06-11.38,.87-14,3.5-2.63,2.63-10.5,7.44-21.88,5.25-11.38-2.19-26.25-14.88-28.44-8.75-2.19,6.13-.88,10.06-.88,10.06Z"/>
        <path class="cls-7" d="M485.07,336.69c-1.31,.87-11.81,3.5-15.31,12.25-3.5,8.75-21.44,49.01-26.69,55.57-5.25,6.56,3.06,3.94,10.06-.44,7-4.38,13.13-21.44,17.06-14,3.94,7.44,15.31,10.5,15.31,10.5,0,0,23.63-4.38,28.88-7.88,5.25-3.5,10.06-8.31,10.06-8.31,0,0,20.13,30.19,25.82,32.82,5.69,2.63,6.56-1.75,7-6.56,.44-4.81,4.38-33.25,10.06-52.07,5.69-18.81-5.25-24.94-12.25-32.82-7-7.88-14.88-2.63-22.75-1.75-7.88,.88-47.26,12.69-47.26,12.69Z"/>
        <g>
          <path class="cls-5" d="M473.07,201.96s-13.67,20.76-11.14,25.82c2.53,5.06,2.53,11.65,0,15.19-2.53,3.54-5.57,8.1-4.56,16.71,1.01,8.61-4.05,52.15,3.54,57.21,7.59,5.06,15.7,7.59,15.7,7.59,0,0,8.61,72.91,11.65,70.88,3.04-2.03,46.58-46.58,51.64-56.2,5.06-9.62,11.14-23.29,11.14-23.29,0,0,17.21-32.91,27.34-46.58,10.13-13.67,21.77-38.99,18.23-52.15-3.54-13.16-21.77-22.78-30.38-29.87-8.61-7.09-3.04-23.29-15.19-31.39-12.15-8.1-26.83-10.13-36.45-6.58-9.62,3.54-10.13,11.14-21.77,3.54-11.65-7.59-22.78-15.19-40.5-6.58-17.72,8.61-21.27,38.99-10.63,47.09,10.63,8.1,31.39,8.61,31.39,8.61Z"/>
          <path class="cls-6" d="M566.23,187.28c-8.61-7.09-3.04-23.29-15.19-31.39-12.15-8.1-26.83-10.13-36.45-6.58-9.62,3.54-10.13,11.14-21.77,3.54-11.65-7.59-22.78-15.19-40.5-6.58-17.72,8.61-21.27,38.99-10.63,47.09,10.63,8.1,31.39,8.61,31.39,8.61,0,0,15.19-7.09,25.32-12.66,10.13-5.57,32.91,3.54,36.96,7.09,4.05,3.54-2.03,1.01-3.04,7.59-1.01,6.58,11.65,17.21,17.21,22.28,5.57,5.06-1.01,8.61-2.53,15.19-1.52,6.58,4.56,9.11,8.1,6.58,3.54-2.53,14.68-16.71,18.73-8.61,4.05,8.1,10.13,20.25-1.01,28.86-11.14,8.61-19.24,6.58-19.24,6.58,0,0-3.63,21.93,6.89,23.65,5.65-10.11,12.72-22.2,17.92-29.22,10.13-13.67,21.77-38.99,18.23-52.15-3.54-13.16-21.77-22.78-30.38-29.87Z"/>
          <path class="cls-3" d="M500.41,228.8s5.06-2.03,10.13-1.52"/>
          <path class="cls-3" d="M474.49,233.77s-4.42,.92-7.18,2.58"/>
          <path class="cls-1" d="M474.67,219.96s3.13,5.71,1.47,11.23c-1.66,5.52-17.31,17.86-17.13,20.26,.18,2.39,9.21,7.37,9.02,9.39s-.74,5.34-.74,5.34"/>
          <ellipse class="cls-4" cx="508.92" cy="231.74" rx="3.31" ry="4.05"/>
          <path class="cls-1" d="M502.48,238.37c.55-.18,8.65-3.5,13.99-3.13"/>
          <path class="cls-4" d="M490.78,213.98s10.86-10.08,19.27-8.04c8.41,2.04,11.6,10.12,10.26,10.15s-5.58-6.24-10.22-6.71c-4.64-.47-7.89,1.72-11.84,3.72-3.96,2-6.44,3.44-7.47,.88Z"/>
          <path class="cls-4" d="M475.41,221.98c0-.82-1.29-4.6-6.26-3.87-4.97,.74-8.74,9.76-7.22,9.67,1.51-.09,3.17-5.8,7.04-6.35,3.87-.55,6.45,5.52,6.45,.55Z"/>
          <path class="cls-1" d="M466.94,277.59s7.92-.92,18.23-2.21c10.31-1.29,24.86-3.31,27.25-10.68,2.39-7.37,1.84-11.23,1.84-11.23"/>
          <path class="cls-1" d="M508.74,252.92c.74-.18,6.63-.18,9.02,.55"/>
          <path class="cls-4" d="M551.24,289.31s-1.95,10.88-11.16,16.74c-9.21,5.86-76.74,12.56-74.51,13.39s11.04,5.04,11.04,5.04l2.64,23.98s12.84-12.28,35.16-23.72c22.32-11.44,36.28-15.35,36.84-35.44Z"/>
        </g>
        <g>
          <path class="cls-5" d="M588.9,616.69s-12.55-.63-15.69-1.26c-3.14-.63-13.18-10.04-17.57-9.41-4.39,.63-12.55,9.41-15.69,16.94-3.14,7.53-4.39,11.3-4.39,11.3,0,0-11.3,10.04-5.65,16.94,5.65,6.9,11.92,4.39,11.92,4.39,0,0,3.77,6.28,8.79,6.9,5.02,.63,11.3,.63,11.3,.63,0,0,6.28,1.88,10.04,1.26,3.77-.63,7.53-3.14,7.53-3.14,0,0,4.39,.63,7.53-1.88,2.31-1.85,13.45-13.21,19.18-19.08,2.06-2.11,3.41-3.51,3.41-3.51l-20.71-20.08Z"/>
          <g>
            <path class="cls-7" d="M693.71,487.41s-23.22,25.73-30.75,38.28c-7.53,12.55-30.75,45.19-39.54,55.23-8.79,10.04-39.54,34.52-39.54,34.52,0,0,9.41,20.08,16.32,23.22,6.9,3.14,12.55,4.39,12.55,4.39l25.1-18.83s47.7-36.4,72.8-57.11c25.1-20.71,60.25-48.32,62.76-60.25,2.51-11.92,.63-18.2-11.92-27.61-12.55-9.41-25.73-13.18-25.73-13.18"/>
            <path class="cls-1" d="M603.34,599.75s5.65,27.61,25.1,27.61"/>
          </g>
        </g>
        <g>
          <path class="cls-5" d="M329.89,396.41s2.6,22.06,3.89,32.01c1.3,9.95,4.33,14.28,4.33,14.28,0,0-20.33,45.43-21.2,46.72-.87,1.3-22.06,41.1-25.53,45.86-3.46,4.76-11.68,19.9-6.49,29.42,5.19,9.52,13.41,28.99,24.23,29.42,10.82,.43,25.96-6.06,36.34-12.11,10.38-6.06,13.84-9.95,14.71-27.26,.87-17.31,.43-48.45,3.46-64.89,3.03-16.44,5.19-33.75,7.35-40.23,2.16-6.49,14.71-4.33,19.04-6.92,4.33-2.6,8.22-8.22,16.01-11.68,7.79-3.46,18.6-2.6,21.2-1.73,2.6,.87,7.35-3.03,6.06-7.79-1.3-4.76-9.95-7.35-18.6-6.49-8.65,.87-16.44,3.46-18.6,2.16-2.16-1.3-4.33-24.23-4.33-24.23,0,0-30.72,2.6-41.53,3.03-10.82,.43-20.33,.43-20.33,.43Z"/>
          <g>
            <path class="cls-5" d="M377.48,379.53s.43,28.55,.43,31.15,2.6,4.76,4.76,4.33c2.16-.43,7.79,1.73,9.09-4.76,1.3-6.49,3.89-24.66,2.6-28.99-1.3-4.33-12.98-6.06-16.87-1.73Z"/>
            <path class="cls-5" d="M377.48,379.53s-13.84-3.46-17.74-1.3c-3.89,2.16,2.16,32.88,2.6,35.48s6.49,3.89,9.09,3.03c2.6-.87,6.49-2.6,6.49-6.06s-.43-31.15-.43-31.15Z"/>
            <path class="cls-5" d="M356.71,379.1s-9.09-1.73-11.68,1.3-3.46,7.35-2.6,15.14c.87,7.79,5.19,19.47,6.92,22.06,1.73,2.6,7.35,3.03,10.82,1.73,3.46-1.3,2.16-5.62,2.16-5.62,0,0-1.73-1.73-2.16-15.14-.43-13.41-.43-20.33-.43-20.33l-3.03,.87Z"/>
            <path class="cls-5" d="M341.57,384.29c-1.73,.43-12.55,.87-12.98,5.19-.43,4.33,3.46,24.66,5.19,26.82,1.73,2.16,6.49,1.3,8.22,.43,1.73-.87,4.76-2.16,4.33-4.76-.43-2.6-4.76-27.69-4.76-27.69Z"/>
          </g>
          <path class="cls-7" d="M345.03,469.95c-7.67-.79-11.93-6.75-14.1-11.27-5.95,13.22-13.5,29.96-14.03,30.74-.87,1.3-22.06,41.1-25.53,45.86-3.46,4.76-11.68,19.9-6.49,29.42,5.19,9.52,13.41,28.99,24.23,29.42,10.82,.43,25.96-6.06,36.34-12.11,10.38-6.06,13.84-9.95,14.71-27.26,.86-17.31,.43-48.45,3.46-64.89,1.49-8.06,2.76-16.33,3.93-23.43-6.69,2.09-15.65,4.24-22.54,3.53Z"/>
          <path class="cls-5" d="M364.93,422.36s-7.35,6.49-8.22,12.11c-.87,5.62,2.16,10.38,2.16,10.38"/>
        </g>
      </g>
    </g>
  </g>
  <g>
    <path class="cls-10" d="M147.49,341.6l-2.52,4.99-47.08-23.73,2.51-4.99,47.08,23.73Zm17.78-35.28l-2.52,4.99-47.08-23.73,2.52-4.99,47.08,23.73Zm-22.78-8.13l-18,35.7-4.57-2.3,18-35.7,4.57,2.3Z"/>
    <path class="cls-10" d="M137.51,268.9l-2.98,4.73-7.53-4.74,2.98-4.73,7.53,4.74Zm37.1,23.35l-2.98,4.73-32.9-20.71,2.98-4.73,32.9,20.71Z"/>
    <path class="cls-10" d="M184.08,277.98l-3.32,4.49-31.26-23.11,2.99-4.05,8.8,6.5,.64-.21,22.15,16.37Zm-16.96-12.54l-.94,1.27-5.76-4.26,.84-1.14c-1.47-1.54-2.57-3.28-3.29-5.22-.72-1.94-.93-3.97-.63-6.1s1.26-4.29,2.88-6.48c1.78-2.4,3.76-3.99,5.96-4.75,2.19-.76,4.4-.87,6.62-.35,2.22,.53,4.3,1.51,6.24,2.95l3.1,2.29-3.32,4.49-2.41-1.78c-2.66-1.96-5.08-2.84-7.26-2.62-2.18,.22-4.29,1.69-6.31,4.44-2.34,3.16-3.1,6.18-2.27,9.04,.82,2.86,3.01,5.6,6.55,8.22Z"/>
    <path class="cls-10" d="M218.14,237.42c-2.82,3.04-5.89,5.13-9.21,6.27-3.32,1.14-6.65,1.28-10.01,.42-3.35-.86-6.53-2.68-9.53-5.47-2.88-2.68-4.88-5.66-5.98-8.94-1.1-3.28-1.25-6.64-.42-10.06,.82-3.43,2.64-6.66,5.46-9.69,2.61-2.8,5.42-4.79,8.44-5.96,3.02-1.17,6.09-1.45,9.21-.84,3.12,.61,6.11,2.24,8.95,4.88,.5,.46,.94,.93,1.33,1.4,.39,.47,.74,.92,1.05,1.35l-24.54,26.4-2.54-2.36,22.23-23.92,.37,2.6c-.35-.39-.71-.78-1.07-1.16-.37-.38-.76-.76-1.18-1.15-3-2.79-6.11-4-9.35-3.64-3.24,.36-6.42,2.23-9.57,5.61-3.61,3.88-5.24,7.59-4.91,11.12,.33,3.53,2.19,6.87,5.57,10.01l.92,.86c3.42,3.18,6.91,4.81,10.48,4.91,3.57,.09,7.17-1.82,10.82-5.74,3.11-3.34,4.82-6.36,5.13-9.04,.31-2.68-.57-4.99-2.65-6.92l-.4-.38,3.8-4.09,.4,.38c2,1.86,3.19,4.08,3.58,6.66,.39,2.58,.04,5.32-1.06,8.2-1.1,2.88-2.88,5.65-5.35,8.3Z"/>
    <path class="cls-10" d="M277.4,184.14l-3.98,3.09-6.51-8.4h-.5s-8.05-10.4-8.05-10.4c-2.31-2.99-4.67-4.57-7.08-4.77-2.41-.19-5.31,1.03-8.71,3.66-3.28,2.54-5.3,5.09-6.07,7.65-.77,2.56-.1,5.2,2.02,7.94l.19,.25-4.42,3.42-.19-.25c-1.7-2.2-2.66-4.63-2.86-7.29-.21-2.66,.38-5.37,1.76-8.13,1.38-2.76,3.64-5.36,6.79-7.81,3.11-2.41,6.07-3.84,8.87-4.29,2.8-.45,5.37-.11,7.7,1,2.33,1.12,4.38,2.82,6.14,5.1l14.9,19.22Zm-18.18,15.09c-3.03,2.35-6.01,3.55-8.96,3.61-2.94,.06-5.36-1.14-7.26-3.58-1.32-1.7-1.96-3.41-1.93-5.12,.03-1.72,.57-3.44,1.61-5.18,1.04-1.74,2.42-3.47,4.14-5.2l13.94-13.49,2.27,2.92-12.67,12.31c-2.16,2.01-3.54,3.78-4.15,5.31-.61,1.53-.28,3.11,.97,4.72,1.19,1.53,2.64,2.29,4.34,2.26,1.71-.03,3.72-.94,6.04-2.74,2.53-1.96,4.49-4.1,5.89-6.41,1.4-2.31,2.08-4.72,2.06-7.23-.02-2.51-.98-4.98-2.87-7.43l1.11-.36,3.81,4.91-.87,.67c1.27,3.53,1.25,7.05-.08,10.56-1.32,3.52-3.79,6.67-7.4,9.47Z"/>
    <path class="cls-10" d="M291.03,175.12l-4.8,2.86-19.92-33.39,4.33-2.58,6.33,10.61,.67,.06,13.38,22.44Zm28.12-16.77l-4.8,2.86-11.21-18.79c-2.07-3.47-4.54-5.63-7.4-6.49-2.86-.86-6.21-.14-10.04,2.14-4.1,2.45-6.49,5.46-7.16,9.04-.68,3.58,.28,7.53,2.86,11.86l-1.28,.77-4.1-6.72,1.22-.73c-.72-2.13-1.01-4.41-.86-6.82,.15-2.41,.89-4.73,2.22-6.96,1.33-2.23,3.39-4.17,6.18-5.84,3.15-1.88,6.16-2.77,9.03-2.68,2.87,.09,5.47,.94,7.83,2.52,2.35,1.59,4.32,3.71,5.91,6.37l11.61,19.47Z"/>
    <path class="cls-10" d="M353.58,142.6l-11.04,4.19-18.72-49.29,11.04-4.19,18.72,49.29Zm15.73-51.01l-38.62,14.67-3.77-9.93,38.62-14.67,3.77,9.93Zm6.3,19.92l-37.52,14.25-3.74-9.86,37.52-14.25,3.74,9.86Zm8.65,19.44l-38.62,14.67-3.77-9.93,38.62-14.67,3.77,9.93Z"/>
    <path class="cls-10" d="M401.31,126.58l-13.87,3.24,10.93-22.36-.14-.61-19.77-15.42,14.02-3.28,13.22,10.57,.61-.14,6.86-15.26,13.87-3.24-10.93,22.36,.16,.69,19.75,15.34-14.02,3.28-13.2-10.49-.61,.14-6.87,15.19Z"/>
    <path class="cls-10" d="M453.29,130.12l-11.75,1.13-5.05-52.56,10.89-1.05,1.12,11.67,.96,.94,3.83,39.87Zm14.78-14.07c-4.54,.44-8.18-.25-10.91-2.07-2.73-1.82-4.6-4.42-5.61-7.8l-2.04,.2-.81-8.46,1.49-.14c.21,2.19,.82,3.93,1.84,5.2,1.02,1.27,2.4,2.11,4.16,2.53,1.75,.41,3.86,.5,6.31,.26,2.56-.25,4.62-.76,6.18-1.54,1.56-.78,2.66-1.92,3.31-3.4s.86-3.4,.63-5.75c-.24-2.45-.81-4.34-1.73-5.65-.92-1.31-2.21-2.19-3.89-2.63-1.68-.44-3.77-.55-6.28-.31-3.81,.37-6.62,1.36-8.41,2.98-1.79,1.62-2.52,4.18-2.19,7.68l-1.49,.14-1.71-8.77,2.27-.22c.32-3.83,1.67-6.84,4.07-9.05,2.4-2.21,5.89-3.53,10.49-3.97,4.02-.39,7.51,.12,10.46,1.52,2.95,1.4,5.31,3.56,7.07,6.48,1.75,2.92,2.83,6.46,3.24,10.64,.4,4.13,.02,7.79-1.12,10.98-1.14,3.19-3,5.76-5.59,7.69-2.58,1.94-5.83,3.09-9.75,3.47Z"/>
    <path class="cls-10" d="M513.66,115.02c-4.35-.15-8.18-1.01-11.49-2.59-3.31-1.58-5.83-3.92-7.56-7.03-1.73-3.1-2.52-6.96-2.37-11.58,.14-4.19,1.18-7.79,3.12-10.8,1.94-3.01,4.57-5.29,7.91-6.86,3.33-1.57,7.18-2.28,11.53-2.13,4.3,.15,8.04,1.01,11.21,2.58,3.18,1.58,5.61,3.82,7.29,6.74,1.69,2.92,2.46,6.42,2.32,10.51-.02,.68-.07,1.31-.14,1.88-.07,.58-.17,1.2-.3,1.88l-35.39-1.19,.21-6.21,27.06,.91-2.8,3.76c.02-.52,.03-1.02,.05-1.49,.02-.47,.03-.94,.05-1.42,.1-2.99-.64-5.17-2.22-6.53-1.58-1.37-4.21-2.11-7.88-2.23-3.99-.13-6.79,.55-8.42,2.04-1.62,1.49-2.49,3.92-2.61,7.27l-.1,2.99c-.11,3.36,.59,5.83,2.11,7.43,1.52,1.6,4.3,2.47,8.34,2.6,3.46,.12,5.91-.25,7.36-1.09,1.45-.84,2.2-2.1,2.25-3.78l.03-.79,11.8,.4-.03,.87c-.1,2.83-1.04,5.32-2.85,7.46s-4.29,3.78-7.45,4.91c-3.16,1.13-6.84,1.62-11.03,1.48Z"/>
    <path class="cls-10" d="M553.21,117.59l-11.67-1.79,5.97-38.97,10.81,1.66-1.71,11.12,.8,.52-4.21,27.46Zm3.46-22.56l-2.33-.36,.93-6.07,2.18,.33c.69-2.07,1.69-3.87,3.02-5.39,1.32-1.52,2.96-2.62,4.93-3.31,1.96-.68,4.24-.82,6.83-.43,2.96,.45,5.24,1.43,6.84,2.92,1.6,1.49,2.66,3.33,3.18,5.5,.51,2.18,.58,4.54,.19,7.08l-.99,6.46-11.67-1.79,.62-4.04c.33-2.18,.09-3.82-.72-4.93-.81-1.11-2.41-1.84-4.8-2.21-2.59-.4-4.51-.08-5.76,.95-1.25,1.03-2.06,2.79-2.44,5.28Z"/>
    <path class="cls-10" d="M618.65,101.24l-29.79-7.7,2.44-9.45,29.79,7.7-2.44,9.45Zm-7.42,28.73l-9.45-2.44c-4.47-1.16-7.69-3.15-9.67-5.99-1.98-2.84-2.34-6.67-1.09-11.5l8.21-31.77,11.43,2.95-7.88,30.48c-.5,1.93-.41,3.32,.26,4.17,.67,.85,2,1.53,3.98,2.05l6.86,1.77-2.66,10.29Z"/>
    <path class="cls-10" d="M642.67,141.22l-5.18-2.09,13.89-34.45c1.29-3.21,2.99-5.64,5.1-7.28,2.1-1.64,4.55-2.52,7.34-2.64,2.79-.12,5.84,.49,9.15,1.82l3.94,1.59-1.65,4.09-4.67-1.88c-3.41-1.37-6.24-1.72-8.49-1.05-2.25,.68-3.97,2.84-5.16,6.49l-.44,1.09-13.83,34.31Zm27.27-25.75l-25.47-10.27,1.79-4.45,25.47,10.27-1.79,4.45Z"/>
    <path class="cls-10" d="M680.37,159.54c-3.71-1.97-6.56-4.46-8.55-7.48-1.99-3.02-3.05-6.28-3.17-9.79-.13-3.51,.74-7.01,2.58-10.48,1.84-3.48,4.26-6.15,7.24-8.01,2.98-1.86,6.28-2.82,9.89-2.86,3.61-.04,7.28,.92,10.98,2.89,3.8,2.02,6.68,4.53,8.65,7.54,1.97,3.01,3.01,6.26,3.14,9.78,.12,3.51-.74,7.01-2.58,10.48-1.84,3.48-4.26,6.15-7.24,8.01-2.98,1.86-6.26,2.82-9.86,2.87s-7.29-.93-11.09-2.95Zm2.36-4.45c4.77,2.53,8.9,3.2,12.4,1.99,3.49-1.21,6.34-3.89,8.56-8.06s2.84-8.04,1.89-11.61c-.96-3.57-3.82-6.62-8.59-9.15-4.68-2.49-8.78-3.13-12.29-1.94-3.52,1.19-6.38,3.87-8.59,8.04s-2.83,8.05-1.85,11.63c.98,3.58,3.81,6.61,8.49,9.1Z"/>
    <path class="cls-10" d="M711.58,176.98l-4.6-3.17,22.08-32,4.15,2.86-6.21,9,.23,.64-15.64,22.67Zm11.98-17.36l-1.3-.89,4.07-5.9,1.17,.8c1.49-1.52,3.2-2.67,5.11-3.46,1.91-.78,3.94-1.06,6.07-.83s4.33,1.12,6.57,2.67c2.46,1.7,4.11,3.63,4.94,5.8,.83,2.17,1.02,4.37,.56,6.6-.46,2.23-1.37,4.35-2.74,6.33l-2.19,3.17-4.6-3.17,1.7-2.46c1.88-2.72,2.67-5.17,2.39-7.34-.29-2.17-1.83-4.23-4.64-6.16-3.24-2.23-6.27-2.89-9.1-1.98-2.83,.92-5.5,3.19-8,6.81Z"/>
    <path class="cls-10" d="M747.44,221.11l-3.54-3.36,3.52-3.71,4.28,4.06c1.41,1.34,2.69,2.1,3.85,2.29,1.16,.19,2.56-.05,4.21-.72l6.5-2.51-2.73,1.85,13.03-42.32,4.45,4.23-7.65,24.64-3.42,9.89,.34,.33,9.63-4.09,23.69-9.31,4.45,4.23-45.8,17.62c-2.02,.76-3.87,1.16-5.54,1.2s-3.25-.3-4.73-1.02c-1.49-.72-3.01-1.82-4.57-3.3Z"/>
    <path class="cls-10" d="M797.42,255.18c-2.67-3.24-4.34-6.63-5.03-10.19-.68-3.55-.41-6.97,.82-10.26,1.23-3.29,3.37-6.19,6.4-8.69,3.04-2.5,6.29-4.04,9.75-4.62,3.47-.58,6.88-.19,10.23,1.16,3.35,1.35,6.37,3.64,9.04,6.88,2.74,3.32,4.44,6.75,5.1,10.28,.67,3.53,.38,6.94-.85,10.23-1.23,3.29-3.37,6.19-6.4,8.69-3.04,2.5-6.29,4.04-9.75,4.62-3.47,.58-6.87,.2-10.21-1.12-3.34-1.33-6.38-3.65-9.11-6.97Zm3.89-3.2c3.44,4.17,7,6.37,10.68,6.59,3.69,.23,7.35-1.16,11-4.17,3.64-3,5.71-6.33,6.19-10,.48-3.66-.99-7.58-4.43-11.75-3.37-4.09-6.91-6.26-10.61-6.5-3.71-.25-7.38,1.13-11.02,4.14-3.64,3-5.7,6.34-6.17,10.03-.47,3.68,.98,7.57,4.35,11.66Z"/>
    <path class="cls-10" d="M824.63,292.52c-1.96-3.11-2.93-6.11-2.92-8.99,0-2.89,.77-5.54,2.29-7.95,1.52-2.41,3.56-4.43,6.14-6.05l19.24-12.13,2.98,4.73-18.51,11.66c-3.37,2.13-5.47,4.66-6.29,7.59-.82,2.93-.02,6.31,2.38,10.13,2.54,4.04,5.63,6.36,9.26,6.95,3.63,.6,7.55-.44,11.77-3.09l.86,1.22-6.72,4.24-.71-1.13c-2.09,.82-4.33,1.16-6.71,1.02-2.38-.14-4.72-.85-7.02-2.13-2.3-1.28-4.31-3.3-6.05-6.05Zm12.41,18.22l-2.69-4.26,10.39-6.54,.04-.68,22.17-13.97,2.98,4.73-32.89,20.73Z"/>
    <path class="cls-10" d="M844.54,325.55l-2.41-5.04,35.07-16.78,2.17,4.54-9.87,4.72-.12,.67-24.85,11.89Zm19.03-9.1l-.68-1.42,6.46-3.09,.61,1.28c2.05-.58,4.1-.73,6.15-.46,2.05,.27,3.94,1.04,5.68,2.3s3.2,3.12,4.37,5.58c1.29,2.7,1.76,5.19,1.4,7.49-.36,2.29-1.29,4.3-2.8,6.01-1.51,1.71-3.35,3.09-5.53,4.13l-3.48,1.66-2.41-5.04,2.7-1.29c2.98-1.43,4.89-3.15,5.72-5.18,.83-2.03,.51-4.58-.96-7.66-1.7-3.55-4-5.63-6.91-6.25-2.91-.61-6.35,.03-10.33,1.93Z"/>
  </g>
  <g>
    <path class="cls-10" d="M84.08,480.67c.34-4.08,1.14-7.55,2.41-10.42,1.27-2.87,3.03-5.02,5.3-6.44,2.27-1.42,5.1-1.99,8.5-1.71l.36,.03-.94,11.27-1.26-.1c-.88-.07-1.58,.06-2.12,.4-.53,.34-.95,1.1-1.25,2.28-.3,1.18-.56,3.03-.77,5.55-.19,2.28-.26,3.96-.21,5.05,.05,1.09,.23,1.8,.55,2.13,.31,.33,.77,.52,1.37,.57,.72,.06,1.28-.17,1.69-.67s.77-1.58,1.11-3.2l2.73-12.45c.57-2.45,1.41-4.47,2.53-6.07,1.12-1.6,2.51-2.75,4.18-3.45s3.58-.97,5.74-.79c1.6,.13,3.15,.6,4.65,1.41,1.5,.81,2.82,2.02,3.95,3.65,1.13,1.62,1.97,3.71,2.53,6.25,.55,2.54,.68,5.63,.37,9.27-.36,4.28-1.24,7.75-2.65,10.43-1.41,2.68-3.26,4.62-5.56,5.81-2.29,1.2-4.94,1.67-7.93,1.42l-.36-.03,.94-11.27,.9,.08c.96,.08,1.73-.07,2.33-.44,.59-.37,1.06-1.18,1.41-2.42,.34-1.24,.62-3.12,.83-5.63,.16-1.92,.19-3.38,.09-4.4-.1-1.01-.31-1.73-.64-2.14-.33-.41-.79-.64-1.39-.69-.4-.03-.76,.03-1.07,.18s-.57,.44-.76,.84c-.2,.41-.38,.96-.56,1.67l-2.91,12.43c-.75,3.24-1.79,5.71-3.12,7.4-1.33,1.7-2.82,2.84-4.48,3.43-1.66,.59-3.35,.81-5.06,.66-2.28-.19-4.35-1-6.23-2.42-1.87-1.42-3.3-3.56-4.29-6.42-.99-2.86-1.29-6.55-.92-11.06Z"/>
    <path class="cls-10" d="M83.27,520.03l-.3-11.3,40.28-1.08,.3,11.3-40.28,1.08Zm.66,24.47l-.88-32.71,10.16-.27,.88,32.71-10.16,.27Zm15.19-1.31l-.86-31.8,10.1-.27,.86,31.81-10.1,.27Zm14.94,.5l-.88-32.71,10.16-.27,.88,32.71-10.16,.27Z"/>
    <path class="cls-10" d="M86.24,565.45l-1.58-11.2,39.9-5.62,3.28,23.29c.5,3.53,.44,6.56-.18,9.08-.62,2.52-1.75,4.51-3.38,5.97-1.64,1.46-3.76,2.38-6.38,2.75-2.1,.3-3.97,.18-5.6-.33s-3.03-1.51-4.18-2.96c-1.16-1.46-2.07-3.43-2.75-5.93l-.6,.08c-.23,2.14-.78,3.72-1.67,4.76s-2.03,2.04-3.43,3l-9.31,6.35-1.82-12.92,9.1-6.14c.92-.62,1.63-1.22,2.11-1.82,.48-.59,.77-1.32,.88-2.19,.1-.86,.05-2.03-.16-3.5l-.65-4.59-13.58,1.91Zm29.84-4.2l-7.92,1.12,1.69,11.97c.23,1.63,.63,2.75,1.2,3.35,.57,.61,1.71,.79,3.42,.55,1.59-.22,2.59-.71,3.01-1.46,.42-.75,.52-1.94,.29-3.56l-1.69-11.97Z"/>
    <path class="cls-10" d="M97.18,624.38c-1.21-4.49-1.43-8.56-.65-12.22,.78-3.66,2.43-6.74,4.97-9.26,2.54-2.51,5.84-4.32,9.91-5.42,4.06-1.1,7.83-1.2,11.29-.31,3.46,.89,6.45,2.72,8.96,5.49,2.51,2.77,4.38,6.4,5.59,10.89,1.18,4.37,1.54,8.3,1.06,11.77-.47,3.47-1.73,6.37-3.75,8.71-2.03,2.33-4.78,3.97-8.27,4.91l-.99,.27-3.29-12.19,.99-.27c2.21-.6,3.62-1.64,4.23-3.14,.61-1.5,.49-3.85-.38-7.06-.71-2.63-1.52-4.6-2.44-5.91-.91-1.31-2.14-2.07-3.67-2.28-1.53-.21-3.59,.04-6.19,.74-2.55,.69-4.45,1.51-5.69,2.47-1.24,.96-1.92,2.23-2.05,3.83-.13,1.59,.16,3.7,.87,6.34,.87,3.21,1.94,5.31,3.23,6.29s3.03,1.18,5.23,.58l.99-.27,3.29,12.19-.99,.27c-3.45,.93-6.64,.9-9.59-.09-2.95-.99-5.5-2.87-7.66-5.63-2.16-2.76-3.83-6.33-5.01-10.7Z"/>
    <path class="cls-10" d="M111.07,665.17l-4.31-10.45,37.25-15.37,4.31,10.45-37.25,15.37Zm11.47,27.8l-4.31-10.45,37.25-15.37,4.31,10.45-37.25,15.37Zm11.92-10.84l-12.57-30.47,9.4-3.88,12.57,30.47-9.4,3.88Z"/>
    <path class="cls-10" d="M138.49,722.47l-5.79-9.72,34.62-20.62,5.79,9.72-34.62,20.62Zm12.53,21.03l-16.74-28.11,8.73-5.2,16.74,28.11-8.73,5.2Zm12.61-8.56l-16.28-27.34,8.68-5.17,16.28,27.34-8.68,5.17Zm13.28-6.86l-16.74-28.11,8.73-5.2,16.74,28.11-8.73,5.2Z"/>
    <path class="cls-10" d="M163.31,760.74l-6.87-8.98,32.01-24.48,7.31,9.56-5.2,18.06-3.78,10.31,.47,.62,6.65-5.76,12.38-9.46,6.87,8.98-32.01,24.48-7.31-9.56,5.09-18.88,3.2-8.88-.47-.62-5.82,5.06-12.52,9.57Z"/>
    <path class="cls-10" d="M201.38,806.52c-2.96-2.99-4.89-6.16-5.79-9.5-.9-3.34-.81-6.66,.29-9.97,1.09-3.31,3.14-6.45,6.13-9.41,2.99-2.96,6.24-4.88,9.75-5.75,3.51-.87,7.09-.67,10.76,.61,3.66,1.28,7.22,3.66,10.66,7.14,3.21,3.25,5.51,6.48,6.88,9.69,1.37,3.21,1.81,6.27,1.33,9.17-.49,2.9-1.91,5.53-4.28,7.87l-.3,.3-8.88-8.98,.3-.3c1.34-1.32,1.81-2.75,1.41-4.27-.4-1.52-1.86-3.55-4.37-6.08-2.03-2.05-3.79-3.45-5.29-4.2-1.5-.75-2.98-.85-4.44-.3s-3.15,1.76-5.06,3.65c-1.88,1.86-3.12,3.51-3.73,4.96-.6,1.44-.57,2.89,.1,4.34,.67,1.45,1.97,3.14,3.88,5.08,2.28,2.31,4.08,3.97,5.39,4.98,1.31,1.01,2.42,1.45,3.33,1.32,.91-.14,1.92-.75,3.03-1.85l1.58-1.57,8.12,7.87-.6,.59-12.92-1.01-.93-.94c-1.37,.84-2.89,1.41-4.58,1.7-1.69,.29-3.52,.07-5.48-.67-1.97-.74-4.06-2.23-6.29-4.48Zm18.06,17.41l-7.4-7.48,8.17-8.08,.35-1.44,6.2-6.13,7.95,8.04-15.27,15.1Zm9.75-9.64l-16.75-16.93,5.9-5.84,16.75,16.94-5.9,5.84Z"/>
    <path class="cls-10" d="M235.21,836.83l-8.63-7.31,26.04-30.76,8.63,7.31-26.04,30.76Z"/>
    <path class="cls-10" d="M251.23,849.45l-9.21-6.56,23.37-32.83,9.8,6.98,.36,18.79-.57,10.96,.64,.45,4.65-7.47,9.03-12.69,9.21,6.56-23.37,32.83-9.8-6.98-.7-19.55,.44-9.43-.64-.45-4.07,6.55-9.14,12.84Z"/>
    <path class="cls-10" d="M293.85,877.27l-9.91-5.45,19.42-35.31,9.91,5.45-19.42,35.31Zm21.45,11.8l-28.67-15.77,4.9-8.91,28.67,15.77-4.9,8.91Zm6.54-13.77l-27.88-15.33,4.87-8.85,27.88,15.33-4.87,8.85Zm7.98-12.63l-28.67-15.77,4.9-8.91,28.67,15.77-4.9,8.91Z"/>
    <path class="cls-10" d="M355.32,906.53c-4.36-1.61-7.82-3.8-10.37-6.56-2.55-2.76-4.12-5.9-4.69-9.43-.58-3.53-.14-7.26,1.32-11.21,1.46-3.95,3.55-7.08,6.29-9.38,2.73-2.3,5.96-3.67,9.69-4.11,3.73-.44,7.78,.15,12.14,1.76,4.51,1.67,8.04,3.88,10.6,6.64,2.55,2.76,4.11,5.9,4.69,9.43,.58,3.53,.14,7.26-1.32,11.21-1.46,3.95-3.55,7.08-6.29,9.38-2.73,2.3-5.96,3.67-9.69,4.11-3.73,.44-7.85-.17-12.37-1.84Zm3.75-10.16c2.56,.94,4.64,1.43,6.26,1.45,1.62,.02,2.97-.54,4.05-1.68,1.08-1.14,2.08-2.95,3-5.43,.93-2.52,1.35-4.55,1.26-6.11-.09-1.55-.76-2.84-2-3.88s-3.14-2.03-5.7-2.97c-2.56-.95-4.63-1.42-6.21-1.43s-2.89,.56-3.93,1.69c-1.04,1.13-2.02,2.96-2.95,5.48-.92,2.48-1.35,4.5-1.31,6.06,.04,1.56,.67,2.84,1.87,3.87,1.2,1.02,3.08,2,5.64,2.95Z"/>
    <path class="cls-10" d="M397.3,919l-11.01-2.59,9.24-39.22,11.01,2.59-9.24,39.22Zm13.04-7.37l-18.03-4.25,2.33-9.89,16.8,3.96c1.95,.46,3.42,.5,4.39,.11,.98-.39,1.7-1.6,2.18-3.63,.47-1.99,.35-3.38-.35-4.16-.7-.78-2.03-1.41-3.98-1.86l-16.8-3.96,2.33-9.89,18.03,4.25c3.12,.74,5.68,1.95,7.67,3.63,1.99,1.68,3.35,3.75,4.07,6.21,.72,2.46,.71,5.25-.02,8.37-.73,3.08-1.96,5.58-3.71,7.5-1.75,1.92-3.89,3.18-6.42,3.8-2.54,.62-5.36,.56-8.49-.18Z"/>
    <path class="cls-10" d="M474.2,901.24l-39.48-4.64,1.19-10.09,39.48,4.64-1.19,10.1Zm-17.61,28.27l-11.23-1.32,4.7-40.02,11.23,1.32-4.7,40.02Z"/>
    <path class="cls-10" d="M490.08,931.63l-11.3-.42,1.48-40.27,11.3,.42-1.48,40.27Z"/>
    <path class="cls-10" d="M511.06,931.85l-11.29,.71-2.53-40.22,15.31-.96,8.43,16.22,4.62,10.14,.78-.05,3.13-10.62,5.97-17.13,15.31-.96,2.53,40.22-11.29,.71-1.05-16.63v-6.75s-.78,.05-.78,.05l-1.86,6.87-5.11,14.6-13.69,.86-6.9-13.85-2.7-6.58-.78,.05,.84,6.7,1.05,16.63Z"/>
    <path class="cls-10" d="M574.06,925.18l-11.16,1.85-6.58-39.76,11.16-1.85,6.58,39.76Z"/>
    <path class="cls-10" d="M620.44,914.5l-37.75,9.46-2.47-9.86,16.17-23.83-.19-.76-20.48,5.13-2.47-9.86,37.05-9.28,2.47,9.86-17.1,24.06,.19,.76,22.11-5.54,2.47,9.86Z"/>
    <path class="cls-10" d="M640.06,907.78l-11.82,4.63,1.48-43.86,15.06-5.9,30.94,31.16-12.1,4.74-17.4-18.18-4.94-5.36-.73,.29,.07,7.27-.58,25.23Zm22.7-16.91l-27.66,10.84-3.71-9.46,27.66-10.84,3.71,9.46Z"/>
    <path class="cls-10" d="M702.74,844.81l-34.88,19.08-4.88-8.92,34.88-19.08,4.88,8.92Zm2.01,33.25l-9.92,5.43-19.34-35.35,9.92-5.43,19.34,35.35Z"/>
    <path class="cls-10" d="M733.28,860.38l-9.45,6.21-22.13-33.68,9.45-6.21,22.13,33.68Z"/>
    <path class="cls-10" d="M758.62,842.53c-3.65,2.89-7.31,4.7-11,5.44-3.68,.74-7.18,.44-10.49-.9-3.31-1.34-6.27-3.67-8.89-6.97-2.61-3.3-4.19-6.72-4.73-10.25-.54-3.53-.03-7,1.54-10.42,1.57-3.41,4.18-6.56,7.83-9.45,3.77-2.99,7.5-4.85,11.19-5.59,3.68-.74,7.18-.44,10.49,.9,3.31,1.34,6.27,3.67,8.89,6.97,2.61,3.3,4.19,6.72,4.73,10.25,.54,3.53,.03,7-1.54,10.42-1.57,3.41-4.24,6.61-8.01,9.6Zm-6.72-8.49c2.14-1.69,3.64-3.22,4.5-4.59,.86-1.37,1.08-2.81,.68-4.33-.41-1.52-1.43-3.31-3.08-5.39-1.67-2.11-3.19-3.53-4.56-4.26-1.37-.73-2.82-.84-4.35-.32-1.53,.52-3.37,1.63-5.5,3.32-2.14,1.69-3.62,3.21-4.45,4.55-.83,1.35-1.03,2.76-.6,4.23,.43,1.48,1.47,3.27,3.14,5.38,1.64,2.08,3.14,3.5,4.49,4.27,1.35,.77,2.78,.91,4.28,.41,1.5-.5,3.32-1.59,5.46-3.28Z"/>
    <path class="cls-10" d="M791.25,813.16l-7.92,8.07-28.77-28.21,8.42-8.59,18.61,2.58,10.74,2.28,.55-.56-6.65-5.76-11.12-10.91,7.92-8.07,28.77,28.21-8.42,8.59-19.42-2.36-9.25-1.91-.55,.56,5.83,5.05,11.25,11.03Z"/>
    <path class="cls-10" d="M832.73,766.01l-6.66,9.14-32.56-23.75,6.66-9.14,32.56,23.75Zm-1.73-14.88l-10.92,14.97-8.21-5.99,10.17-13.95c1.18-1.62,1.78-2.95,1.81-4.01,.02-1.05-.81-2.19-2.49-3.42-1.65-1.21-2.98-1.64-3.97-1.29-.99,.34-2.08,1.32-3.26,2.94l-10.17,13.95-8.21-5.99,10.92-14.97c1.89-2.59,4-4.48,6.32-5.66,2.33-1.18,4.76-1.63,7.3-1.34,2.54,.29,5.11,1.38,7.7,3.27,2.56,1.87,4.38,3.98,5.47,6.33s1.42,4.82,1.01,7.4c-.42,2.58-1.57,5.16-3.46,7.75Z"/>
    <path class="cls-10" d="M858.89,727.04l-5.57,9.84-35.08-19.84,11.58-20.47c1.76-3.11,3.65-5.47,5.67-7.09,2.02-1.62,4.13-2.51,6.32-2.68,2.19-.17,4.44,.4,6.74,1.71,1.85,1.05,3.26,2.27,4.24,3.68,.98,1.41,1.48,3.04,1.51,4.9,.03,1.86-.45,3.99-1.43,6.38l.52,.3c1.48-1.56,2.89-2.48,4.22-2.76s2.85-.38,4.55-.29l11.25,.63-6.43,11.36-10.95-.67c-1.11-.07-2.04-.02-2.78,.15-.75,.18-1.42,.58-2.03,1.2-.61,.62-1.28,1.58-2.01,2.87l-2.28,4.03,11.94,6.75Zm-26.23-14.84l6.96,3.94,5.95-10.52c.81-1.43,1.17-2.56,1.09-3.39-.08-.83-.88-1.67-2.38-2.52-1.4-.79-2.49-1.02-3.28-.68-.79,.34-1.59,1.22-2.4,2.65l-5.95,10.52Z"/>
    <path class="cls-10" d="M886.13,673.53c-1.77,4.3-4.07,7.68-6.92,10.13-2.85,2.45-6.04,3.9-9.59,4.35-3.54,.45-7.26-.12-11.16-1.72-3.89-1.6-6.94-3.8-9.15-6.62s-3.46-6.09-3.76-9.83c-.3-3.74,.43-7.77,2.19-12.07,1.83-4.45,4.17-7.9,7.01-10.35,2.85-2.45,6.04-3.9,9.59-4.35,3.54-.45,7.26,.12,11.16,1.72,3.89,1.6,6.94,3.81,9.15,6.62,2.21,2.81,3.46,6.09,3.76,9.83,.3,3.75-.46,7.84-2.29,12.29Zm-10.01-4.11c1.04-2.52,1.59-4.59,1.67-6.21s-.43-2.98-1.53-4.11-2.87-2.19-5.32-3.19c-2.48-1.02-4.5-1.51-6.06-1.48-1.55,.04-2.87,.65-3.95,1.86-1.08,1.2-2.14,3.07-3.17,5.59-1.04,2.52-1.58,4.57-1.65,6.15-.06,1.58,.45,2.91,1.55,3.98,1.1,1.08,2.89,2.13,5.37,3.15,2.45,1.01,4.45,1.51,6.01,1.52,1.56,.01,2.87-.57,3.93-1.73,1.06-1.17,2.11-3.01,3.15-5.53Z"/>
    <path class="cls-10" d="M902.34,626.13c-1.21,4.41-2.84,7.77-4.88,10.07-2.05,2.31-4.51,3.7-7.38,4.18-2.88,.48-6.19,.21-9.94-.82l-1.51-.41,3.18-11.6,1.39,.38c1.74,.48,3.13,.74,4.18,.77,1.05,.04,1.9-.34,2.56-1.14,.65-.8,1.27-2.24,1.84-4.33,.57-2.09,.8-3.65,.69-4.67-.11-1.03-.59-1.79-1.43-2.29-.84-.5-2.05-.97-3.64-1.4l-22.68-6.22,3.18-11.6,22.8,6.25c3.6,.99,6.47,2.42,8.61,4.3,2.15,1.88,3.49,4.33,4.04,7.34,.54,3.02,.21,6.75-1.01,11.2Z"/>
    <path class="cls-10" d="M910.58,586.83l-1.77,11.17-39.8-6.29,1.77-11.17,39.8,6.29Zm-25.94-28.88l-5.11,32.32-10.04-1.59,5.11-32.32,10.04,1.59Zm14.59,3.22l-4.97,31.43-9.98-1.58,4.97-31.43,9.98,1.58Zm15.17,1.49l-5.11,32.32-10.04-1.59,5.11-32.32,10.04,1.59Z"/>
    <path class="cls-10" d="M917,531.17c-.18,4.65-1.19,8.6-3.02,11.86-1.83,3.26-4.33,5.71-7.51,7.35-3.17,1.64-6.86,2.38-11.07,2.22-4.21-.16-7.83-1.19-10.87-3.07-3.04-1.88-5.34-4.52-6.92-7.91-1.57-3.39-2.27-7.41-2.09-12.06,.18-4.53,1.01-8.38,2.5-11.55s3.55-5.57,6.18-7.19c2.63-1.62,5.75-2.37,9.36-2.22l1.02,.04-.49,12.62-1.02-.04c-2.28-.09-3.94,.49-4.97,1.73-1.03,1.25-1.61,3.53-1.74,6.85-.11,2.72,.08,4.85,.56,6.37s1.42,2.61,2.82,3.27c1.4,.66,3.44,1.04,6.12,1.14,2.64,.1,4.7-.12,6.17-.66s2.5-1.56,3.1-3.04c.6-1.48,.95-3.58,1.06-6.31,.13-3.33-.27-5.65-1.2-6.97-.93-1.32-2.54-2.03-4.82-2.11l-1.02-.04,.49-12.62,1.02,.04c3.57,.14,6.61,1.12,9.12,2.94,2.52,1.82,4.39,4.38,5.63,7.65,1.24,3.28,1.77,7.18,1.59,11.71Z"/>
    <path class="cls-10" d="M883.67,463.36l3.23,39.62-10.13,.83-3.23-39.62,10.13-.83Zm31.19,11.7l.92,11.27-40.16,3.28-.92-11.27,40.16-3.28Z"/>
  </g>
  <circle class="cls-10" cx="106.28" cy="420.7" r="21.02"/>
  <circle class="cls-10" cx="893.72" cy="420.7" r="21.02"/>
  <g>
    <path class="cls-10" d="M568.51,474.73c0,14.03-12.57,24.98-28.09,24.46-15.51-.53-27.49-13.53-26.75-29.04s13.31-26.46,28.09-24.46c14.77,2,26.75,15.01,26.75,29.04Z"/>
    <g>
      <path class="cls-13" d="M534.4,478.71l4.12,.29,.06-2.39-4.11-.31c-2.25-.17-4.01-2.11-3.94-4.34l.03-.81c.08-2.23,1.95-3.87,4.18-3.66l18.19,1.67h0s0,0,0,0l1.21,.11,.03-2.32-1.21-.12h0s-18.15-1.75-18.15-1.75c-1.25-.12-2.42,.12-3.43,.64-1.88,.97-3.17,2.9-3.26,5.23l-.03,.81c-.13,3.58,2.69,6.69,6.3,6.95Z"/>
      <path class="cls-13" d="M547.64,470.24l-.67-.07-4.64-.45-2.43-.24-.25,9.59,2.45,.17,.17-7.17,4.65,.45,.68,.07c2.24,.19,4.03,2.08,4,4.22v.78c-.05,2.14-1.9,3.76-4.16,3.6l-19.63-1.33-.09,2.43,1.23,.08h0s0,0,0,0l18.44,1.17c1.27,.08,2.45-.18,3.47-.71,1.88-.97,3.14-2.84,3.17-5.06v-.77c.06-3.41-2.81-6.44-6.38-6.76Z"/>
      <polygon class="cls-13" points="529.62 462.96 529.62 462.96 552.98 465.28 554.19 465.4 554.21 464.25 554.21 464.24 554.21 464.24 554.22 463.08 553.02 462.96 529.71 460.53 529.71 460.53 529.71 460.53 528.5 460.41 528.42 462.84 529.62 462.96 529.62 462.96"/>
    </g>
  </g>
  <g class="cls-11">
    <path class="cls-6" d="M396.86-498.77s-19.64,85.96-20.4,126.38c-.76,40.42,1.46,186.13,2.22,217.4,.76,31.27,14.49,132.71,14.49,141.86s2.29,26.69,2.29,26.69l-6.1,32.8s-5.34,4.58-19.07,12.2c-13.73,7.63-29.75,17.54-34.32,22.88h0c-2.37,2.77-1.32,7.07,2.09,8.37,4.31,1.65,10.35,3.44,16.98,3.83,12.97,.76,34.32,.76,45.76-2.29,11.44-3.05,20.59-12.97,25.93-16.78l5.34-3.81,.76,8.39s.76,0,7.63-1.53c6.86-1.53,16.02-6.86,16.02-6.86,0,0,.76-12.97,.76-20.59s-3.81-21.36-4.58-24.41c-.76-3.05,0-30.51-2.29-39.66-2.29-9.15-3.81-6.86-5.34-23.64-1.53-16.78,12.2-175.42,11.44-180-.76-4.58,19.43-142.1,19.43-142.1,0,0,38.54,179.47,50.74,213.79,12.2,34.32,18.3,100.68,18.3,105.25s6.86,58.73,9.91,66.35c3.05,7.63,11.44,31.27,11.44,31.27,0,0,12.2,18.3,17.54,27.46,5.34,9.15,23.64,16.78,37.37,19.07,13.73,2.29,24.41,3.05,25.17-15.25,.76-18.3-6.1-30.51-17.54-38.9-11.44-8.39-13.73-16.02-13.73-16.02,0,0,1.53-20.59,0-33.56-1.53-12.97-9.92-22.88-10.68-49.58-.76-26.69-6.1-167.03-10.68-189.15-4.58-22.12-10.61-170.11-9.85-190.7,.76-20.59-1.92-77.97-1.92-77.97l-185.71-2.12,.57,10.9Z"/>
  </g>
</svg>