<svg width="133" height="164" viewBox="0 0 133 164" fill="none" xmlns="http://www.w3.org/2000/svg">
<path d="M131.743 46.4038V135.802C131.743 138.581 129.49 140.834 126.711 140.834H6.29285C3.51433 140.834 1.26137 138.581 1.26137 135.802V46.4038C1.26137 43.6253 3.51433 41.3723 6.29285 41.3723H126.711C129.49 41.3723 131.743 43.6253 131.743 46.4038Z" fill="#BED8F0"/>
<path d="M124.409 48.7064H8.58347V128.433H124.409V48.7064Z" fill="white"/>
<path d="M88.8928 159.732V154.671C88.8928 153.281 87.7663 152.156 86.378 152.156H46.618C45.2278 152.156 44.1033 153.283 44.1033 154.671V159.732C44.1033 161.122 45.2298 162.247 46.618 162.247H86.378C87.7683 162.247 88.8928 161.12 88.8928 159.732Z" fill="#BED8F0"/>
<path d="M111.777 13.0279H21.2028V128.431H111.777V13.0279Z" fill="white"/>
<path d="M62.3213 114.82H31.2658V117.334H62.3213V114.82Z" fill="#BED8F0"/>
<path d="M101.714 76.4638H31.2658V78.9785H101.714V76.4638Z" fill="#BED8F0"/>
<path d="M101.714 85.6641H31.2658V88.1788H101.714V85.6641Z" fill="#BED8F0"/>
<path d="M101.714 94.8623H31.2658V97.377H101.714V94.8623Z" fill="#BED8F0"/>
<path d="M62.3213 104.065H31.2658V106.579H62.3213V104.065Z" fill="#BED8F0"/>
<path d="M105.55 36.4162H33.6516V69.094H105.55V36.4162Z" fill="#F6968A"/>
<path d="M111.777 1.24747H21.2028V13.0239H111.777V1.24747Z" fill="#BED8F0"/>
<path d="M99.8799 7.14761C99.8799 8.54976 101.032 9.702 102.434 9.702C103.836 9.702 105.015 8.54976 105.015 7.14761C105.015 5.74546 103.862 4.56741 102.434 4.56741C101.032 4.56741 99.8799 5.71968 99.8799 7.14761Z" fill="#42BDA8"/>
<path d="M90.5765 7.14761C90.5765 8.54976 91.7288 9.702 93.131 9.702C94.5331 9.702 95.7111 8.54976 95.7111 7.14761C95.7111 5.74546 94.5589 4.56741 93.131 4.56741C91.7288 4.56741 90.5765 5.71968 90.5765 7.14761Z" fill="#4AA0D9"/>
<path d="M67.0434 5.87631H27.9637V8.39109H67.0434V5.87631Z" fill="white"/>
<path d="M84.3333 109.033H72.4339V120.805H84.3333V109.033Z" fill="#42BDA8"/>
<path d="M104.408 109.033H92.534V120.805H104.408V109.033Z" fill="#4AA0D9"/>
<path d="M66.4802 62.2202C60.227 62.2202 55.142 57.1332 55.142 50.882C55.142 44.6308 60.229 39.5141 66.4802 39.5141C72.7314 39.5141 77.8481 44.613 77.8481 50.882C77.8481 57.1352 72.7492 62.2202 66.4802 62.2202ZM66.4802 42.0308C61.6153 42.0308 57.6568 46.0013 57.6568 50.882C57.6568 55.7628 61.6153 59.7054 66.4802 59.7054C71.3451 59.7054 75.3314 55.7469 75.3314 50.882C75.3314 46.0013 71.3609 42.0308 66.4802 42.0308Z" fill="white"/>
<path d="M71.7437 50.8641L64.4791 54.779V46.9572L71.7437 50.8641Z" fill="white"/>
<path d="M126.713 40.1249H113.029V0H19.9494V40.1249H6.28887C2.8182 40.1249 0 42.9431 0 46.4138V135.794C0 139.265 2.8182 142.083 6.28887 142.083H53.0794V150.889H46.6141C44.5257 150.889 42.84 152.598 42.84 154.663V159.744C42.84 161.807 44.5257 163.518 46.6141 163.518H86.386C88.4485 163.518 90.1601 161.809 90.1601 159.744V154.663C90.1601 152.6 88.4485 150.889 86.386 150.889H79.8948V142.083H126.711C130.182 142.083 133 139.265 133 135.794V46.4138C133 42.9431 130.182 40.1249 126.711 40.1249H126.713ZM22.4642 2.51672H110.512V11.7745H22.4642V2.51672ZM22.4642 14.2892H110.512V127.167H22.4642C22.4642 89.6464 22.4642 51.9847 22.4642 14.2892ZM113.027 49.9618H123.139V127.167H113.027V49.9618ZM19.9474 127.167H9.8349V49.9618H19.9474V127.167ZM86.386 153.406C87.0642 153.406 87.6433 153.985 87.6433 154.663V159.744C87.6433 160.424 87.0642 161.001 86.386 161.001H46.6141C45.9338 161.001 45.3567 160.422 45.3567 159.744V154.663C45.3567 153.983 45.9358 153.406 46.6141 153.406H86.386ZM77.3801 150.891H55.5942V142.085H77.3801V150.891ZM130.485 135.796C130.485 137.885 128.799 139.57 126.711 139.57H6.28688C4.19853 139.57 2.51277 137.885 2.51277 135.796V46.4157C2.51277 44.3274 4.19853 42.6416 6.28688 42.6416H19.9474V47.447H7.31816V129.684H125.654V47.447H113.025V42.6416H126.709C128.798 42.6416 130.483 44.3274 130.483 46.4157V135.796H130.485Z" fill="#223159"/>
<path d="M66.502 131.558C64.7151 131.558 63.2574 133.018 63.2574 134.803C63.2574 136.588 64.7171 138.024 66.502 138.024C68.2869 138.024 69.7466 136.564 69.7466 134.803C69.7466 133.016 68.2869 131.558 66.502 131.558Z" fill="#223159"/>
<path d="M89.1308 21.8354H84.0993V24.3502H89.1308V21.8354Z" fill="#223159"/>
<path d="M96.677 21.8354H91.6455V24.3502H96.677V21.8354Z" fill="#223159"/>
<path d="M101.706 21.8354H99.1917V24.3502H101.706V21.8354Z" fill="#223159"/>
<path d="M81.5826 21.8354H76.5511V24.3502H81.5826V21.8354Z" fill="#223159"/>
<path d="M51.3957 21.8354H46.3642V24.3502H51.3957V21.8354Z" fill="#223159"/>
<path d="M36.3012 21.8354H31.2697V24.3502H36.3012V21.8354Z" fill="#223159"/>
<path d="M43.8475 21.8354H38.816V24.3502H43.8475V21.8354Z" fill="#223159"/>
<path d="M58.9419 21.8354H53.9104V24.3502H58.9419V21.8354Z" fill="#223159"/>
<path d="M66.4901 21.8354H61.4586V24.3502H66.4901V21.8354Z" fill="#223159"/>
<path d="M74.0363 21.8354H69.0049V24.3502H74.0363V21.8354Z" fill="#223159"/>
<path d="M103.696 31.8984H29.2825C29.2825 34.193 29.2825 68.2532 29.2825 67.093H103.696C103.696 66.8391 103.696 30.0857 103.696 31.8984ZM101.181 64.5762H31.7993V34.4132H101.181C101.181 42.0189 101.181 57.153 101.181 64.5762ZM83.8276 4.56741C82.4254 4.56741 81.2732 5.71968 81.2732 7.14761C81.2732 8.57554 82.4254 9.702 83.8276 9.702C85.2297 9.702 86.4078 8.54976 86.4078 7.14761C86.4078 5.74546 85.2555 4.56741 83.8276 4.56741ZM88.5774 119.141H102.968V104.852H88.5774V119.141ZM91.0922 107.369H100.451V116.626H91.0922V107.369ZM68.4773 119.141H82.8915V104.852H68.4773V119.141ZM70.9921 107.369H80.3747V116.626H70.9921V107.369Z" fill="#223159"/>
<path d="M89.5334 87.5203L92.3 86.3363L81.4318 80.7515L83.6709 92.7521L85.6085 90.4377L88.4505 94.2614L92.3753 91.3182L89.5334 87.5203Z" fill="#223159"/>
</svg>
