<svg width="133" height="133" viewBox="0 0 133 133" fill="none" xmlns="http://www.w3.org/2000/svg">
<path d="M66.5 0C29.8305 0 0 29.8305 0 66.5C0 103.169 29.8305 133 66.5 133C103.169 133 133 103.169 133 66.5C133 29.8305 103.169 0 66.5 0Z" fill="#313C42"/>
<path d="M66.5 127.461C32.8894 127.461 5.54118 100.112 5.54118 66.5019C5.54118 32.8913 32.8894 5.5412 66.5 5.5412C100.111 5.5412 127.459 32.8894 127.459 66.5C127.459 100.111 100.111 127.459 66.5 127.459V127.461Z" fill="#00ACC1"/>
<path d="M66.5 11.0842C35.9427 11.0842 11.0824 35.9446 11.0824 66.5018C11.0824 97.0591 35.9427 121.919 66.5 121.919C97.0573 121.919 121.918 97.0591 121.918 66.5018C121.918 35.9446 97.0573 11.0842 66.5 11.0842Z" fill="#313C42"/>
<path d="M105.248 35.7388C106.167 37.4907 107.708 42.726 104.361 55.5956C102.843 52.1548 100.787 48.829 98.9352 45.8312C96.8348 42.4294 94.447 38.5659 94.447 36.7436C94.447 30.3589 97.0128 30.3589 98.5422 30.3589C99.5062 30.3589 100.754 30.5758 102.122 31.6659C102.782 32.3425 103.409 33.0507 104.028 33.7607C104.432 34.3317 104.836 34.9639 105.248 35.7388ZM84.7049 112.886L60.5713 44.3352H70.6786L89.4824 102.673L86.4235 112.2C85.8581 112.444 85.2815 112.659 84.7049 112.887V112.886ZM34.0314 44.3352L52.164 100.889L48.1523 112.183L24.052 44.3352H34.0333H34.0314Z" fill="#00ACC1"/>
<path d="M100.771 67.388C102.389 61.9618 98.0491 54.9412 94.2209 48.7456C91.3733 44.1294 88.9114 40.1455 88.9114 36.7418C88.9114 29.5265 91.8368 26.6234 94.8252 25.4925C86.5106 19.7159 76.6258 16.6218 66.5019 16.6255C49.8541 16.6329 34.3076 24.9493 25.0605 38.7922H41.5637C43.0931 38.7922 44.3352 40.0324 44.3352 41.5637C44.3352 43.095 43.0949 44.3352 41.5637 44.3352H39.8507L55.2174 92.2762L63.43 69.1511L54.6964 44.3352H52.6461C51.1166 44.3352 49.8745 43.095 49.8745 41.5637C49.8745 40.0324 51.1148 38.7922 52.6461 38.7922H77.5843C79.1137 38.7922 80.3558 40.0324 80.3558 41.5637C80.3558 43.095 79.1156 44.3352 77.5843 44.3352H76.4979L92.3855 93.6128C95.1682 84.9404 98.342 75.026 100.771 67.3899V67.388ZM16.6255 66.5019C16.6255 84.807 26.5677 100.795 41.3078 109.473L19.84 49.0459C17.7248 54.6242 16.6366 60.538 16.6255 66.5019ZM53.2004 114.521C57.5291 115.741 62.0025 116.365 66.5 116.376C70.9826 116.376 75.3058 115.728 79.44 114.613L66.361 77.4675L53.1985 114.519L53.2004 114.521ZM111.76 45.6811C111.345 50.5142 110.12 56.2333 108.053 62.7608C104.539 73.8617 97.1296 96.9702 93.4608 108.397C107.226 99.5081 116.376 84.0691 116.376 66.5019C116.369 59.3089 114.793 52.203 111.76 45.6811Z" fill="white"/>
<path d="M53.2004 114.521C57.5291 115.741 62.0025 116.365 66.5 116.376C70.9826 116.376 75.3058 115.728 79.44 114.613L66.361 77.4675L53.1985 114.519L53.2004 114.521ZM79.44 39.53L79.4511 39.5411L79.44 39.53ZM63.43 69.151L58.8139 56.0442L44.3333 41.5637C44.3333 43.0931 43.0931 44.3352 41.5618 44.3352H39.8488L55.2155 92.2762L63.4281 69.151H63.43ZM100.771 67.388C101.408 65.2486 101.097 62.8609 100.283 60.373L79.6124 39.7024C80.6506 40.8147 80.5894 42.5573 79.4771 43.5955C78.9635 44.0738 78.2869 44.3389 77.5843 44.3352H76.4979L92.3855 93.6128C95.1682 84.9404 98.342 75.0259 100.771 67.3899V67.388ZM111.76 45.6811C111.345 50.5141 110.12 56.2333 108.053 62.7608C104.539 73.8617 97.1296 96.9701 93.4608 108.397C107.226 99.5081 116.376 84.0691 116.376 66.5019C116.369 59.3089 114.793 52.203 111.76 45.6811Z" fill="url(#paint0_linear_2155_2419)"/>
<path d="M66.5 0C29.8305 0 0 29.8305 0 66.5C0 103.169 29.8305 133 66.5 133C103.169 133 133 103.169 133 66.5C133 29.8305 103.169 0 66.5 0Z" fill="url(#paint1_linear_2155_2419)"/>
<defs>
<linearGradient id="paint0_linear_2155_2419" x1="43.2803" y1="40.9018" x2="102.915" y2="100.537" gradientUnits="userSpaceOnUse">
<stop stop-color="#010101" stop-opacity="0.1"/>
<stop offset="1" stop-color="#010101" stop-opacity="0"/>
</linearGradient>
<linearGradient id="paint1_linear_2155_2419" x1="6.23084" y1="38.3991" x2="126.767" y2="94.6046" gradientUnits="userSpaceOnUse">
<stop stop-color="white" stop-opacity="0.2"/>
<stop offset="1" stop-color="white" stop-opacity="0"/>
</linearGradient>
</defs>
</svg>
