<?xml version="1.0" encoding="UTF-8"?>
<svg id="Layer_1" data-name="Layer 1" xmlns="http://www.w3.org/2000/svg" xmlns:xlink="http://www.w3.org/1999/xlink" viewBox="0 0 1000 1000">
  <defs>
    <style>
      .cls-1, .cls-2, .cls-3, .cls-4, .cls-5, .cls-6, .cls-7 {
        stroke: #353535;
        stroke-miterlimit: 10;
      }

      .cls-1, .cls-3, .cls-8 {
        fill: none;
      }

      .cls-1, .cls-5, .cls-6, .cls-7 {
        stroke-width: 2.1px;
      }

      .cls-9, .cls-5 {
        fill: #fff;
      }

      .cls-2 {
        fill: #f7f7f7;
        stroke-width: 5.88px;
      }

      .cls-3, .cls-4 {
        stroke-width: 1.4px;
      }

      .cls-4, .cls-10, .cls-6 {
        fill: #353535;
      }

      .cls-11 {
        clip-path: url(#clippath);
      }

      .cls-12 {
        fill: #ffe100;
      }

      .cls-7 {
        fill: #fd0;
      }
    </style>
    <clipPath id="clippath">
      <path class="cls-8" d="M568.17,181.53l8.93-22.3-53.99-25.15h-123.98l-15.75,61.45c-129.59,47.68-222.03,172.22-222.03,318.36,0,187.29,151.83,339.12,339.12,339.12s339.12-151.83,339.12-339.12c0-164.11-116.57-300.98-271.42-332.35Z"/>
    </clipPath>
  </defs>
  <path class="cls-2" d="M500,34c257.36,0,466,208.64,466,466s-208.64,466-466,466S34,757.36,34,500,242.64,34,500,34"/>
  <g>
    <g>
      <path class="cls-9" d="M500.47,174.77c187.29,0,339.12,151.83,339.12,339.12s-151.83,339.12-339.12,339.12-339.12-151.83-339.12-339.12S313.18,174.77,500.47,174.77"/>
      <path class="cls-10" d="M500.47,173.09c243-.92,408.78,247.39,316.04,471.7-69.98,173.12-275.05,258.54-447.06,185.4-224.38-93.12-282.73-386.32-110.54-557.86,63.26-63.36,152.06-99.87,241.56-99.24,0,0,0,3.35,0,3.35-12.91,1.18-28.37,2.76-40.97,5.33,0,0-8.07,1.55-8.07,1.55-.67,.13-1.34,.25-2.01,.4-1.73,.41-4.32,1.07-5.99,1.47-223.81,52.32-332.72,309.33-201.79,501.6,69.79,102.31,197.73,154.66,319.18,130.29,168.16-32.45,279.51-196.71,250.42-365.05-23.46-139.43-134.9-247.13-273.84-271.06-11.13-2.04-25.55-3.51-36.93-4.54,0,0,0-3.35,0-3.35h0Z"/>
    </g>
    <g class="cls-11">
      <g>
        <path class="cls-6" d="M396.86,656.23s-19.64,85.96-20.4,126.38c-.76,40.42,1.46,186.13,2.22,217.4,.76,31.27,14.49,132.71,14.49,141.86s2.29,26.69,2.29,26.69l-6.1,32.8s-5.34,4.58-19.07,12.2c-13.73,7.63-29.75,17.54-34.32,22.88h0c-2.37,2.77-1.32,7.07,2.09,8.37,4.31,1.65,10.35,3.44,16.98,3.83,12.97,.76,34.32,.76,45.76-2.29,11.44-3.05,20.59-12.97,25.93-16.78l5.34-3.81,.76,8.39s.76,0,7.63-1.53c6.86-1.53,16.02-6.86,16.02-6.86,0,0,.76-12.97,.76-20.59s-3.81-21.36-4.58-24.41c-.76-3.05,0-30.51-2.29-39.66-2.29-9.15-3.81-6.86-5.34-23.64-1.53-16.78,12.2-175.42,11.44-180-.76-4.58,19.43-142.1,19.43-142.1,0,0,38.54,179.47,50.74,213.79,12.2,34.32,18.3,100.68,18.3,105.25s6.86,58.73,9.91,66.35c3.05,7.63,11.44,31.27,11.44,31.27,0,0,12.2,18.3,17.54,27.46,5.34,9.15,23.64,16.78,37.37,19.07,13.73,2.29,24.41,3.05,25.17-15.25,.76-18.3-6.1-30.51-17.54-38.9-11.44-8.39-13.73-16.02-13.73-16.02,0,0,1.53-20.59,0-33.56-1.53-12.97-9.92-22.88-10.68-49.58-.76-26.69-6.1-167.03-10.68-189.15-4.58-22.12-10.61-170.11-9.85-190.7,.76-20.59-1.92-77.97-1.92-77.97l-185.71-2.12,.57,10.9Z"/>
        <g>
          <path class="cls-7" d="M469.75,348.94s-28.33,16.72-48.41,26.76c-20.08,10.04-44.56,15.69-47.07,21.34-2.51,5.65-45.81,97.9-53.97,110.45s-27.61,37.03-23.85,50.83c3.77,13.81,19.46,32.63,29.5,31.38,10.04-1.26,30.12-6.9,38.28-21.34,8.16-14.43,27.61-60.88,27.61-60.88,0,0,3.14,43.3,2.51,64.64-.63,21.34-.63,38.91-1.88,49.58-1.26,10.67-6.9,23.85-4.39,27.61s5.65,7.53,8.79,6.9c3.14-.63,50.21-1.26,64.64-.63,14.43,.63,79.7,0,93.51,.63,13.81,.63,25.73-6.28,26.99-8.79,1.26-2.51,3.77-6.28,2.51-20.08-1.26-13.81,1.26-55.85,5.02-72.17,3.77-16.32,26.36-79.08,26.36-79.08,0,0,59.62,47.07,72.17,50.83,12.55,3.77,46.44-1.88,57.74-15.69,11.3-13.81,15.06-24.48,8.16-33.89-6.9-9.41-32.01-18.2-58.37-46.44-26.36-28.24-36.4-41.42-54.6-50.21-18.2-8.79-55.23-20.71-64.01-24.48s-11.3-5.65-16.94-8.16c-5.65-2.51-18.83-7.53-43.3-8.16-24.48-.63-46.98,9.01-46.98,9.01Z"/>
          <g>
            <path class="cls-1" d="M379.21,463.03c.87,3.03,12.63,44.46,12.63,44.46l-17.39-34.51"/>
            <path class="cls-1" d="M615.89,476.11c-2.63-.1-27.29-13.95-27.29-13.95"/>
            <path class="cls-1" d="M576.05,460.44s9.95,12.98,18.6,15.57"/>
          </g>
        </g>
        <path class="cls-6" d="M466.25,387.44l7.88,29.75s-24.94,124.7-28.88,145.71c-3.94,21-4.81,38.5-4.81,38.5l21.88,43.32,27.57-46.82s-2.63-59.07-3.5-106.33c-.87-47.26,.88-70.01,.44-71.32-.44-1.31,27.57-21.88,27.57-21.88,0,0,16.19-17.94,17.06-21,.88-3.06-11.38,.87-14,3.5-2.63,2.63-10.5,7.44-21.88,5.25-11.38-2.19-26.25-14.88-28.44-8.75-2.19,6.13-.88,10.06-.88,10.06Z"/>
        <path class="cls-7" d="M485.07,336.69c-1.31,.87-11.81,3.5-15.31,12.25-3.5,8.75-21.44,49.01-26.69,55.57-5.25,6.56,3.06,3.94,10.06-.44,7-4.38,13.13-21.44,17.06-14,3.94,7.44,15.31,10.5,15.31,10.5,0,0,23.63-4.38,28.88-7.88,5.25-3.5,10.06-8.31,10.06-8.31,0,0,20.13,30.19,25.82,32.82,5.69,2.63,6.56-1.75,7-6.56,.44-4.81,4.38-33.25,10.06-52.07,5.69-18.81-5.25-24.94-12.25-32.82-7-7.88-14.88-2.63-22.75-1.75-7.88,.88-47.26,12.69-47.26,12.69Z"/>
        <g>
          <path class="cls-5" d="M473.07,201.96s-13.67,20.76-11.14,25.82c2.53,5.06,2.53,11.65,0,15.19-2.53,3.54-5.57,8.1-4.56,16.71,1.01,8.61-4.05,52.15,3.54,57.21,7.59,5.06,15.7,7.59,15.7,7.59,0,0,8.61,72.91,11.65,70.88,3.04-2.03,46.58-46.58,51.64-56.2,5.06-9.62,11.14-23.29,11.14-23.29,0,0,17.21-32.91,27.34-46.58,10.13-13.67,21.77-38.99,18.23-52.15-3.54-13.16-21.77-22.78-30.38-29.87-8.61-7.09-3.04-23.29-15.19-31.39-12.15-8.1-26.83-10.13-36.45-6.58-9.62,3.54-10.13,11.14-21.77,3.54-11.65-7.59-22.78-15.19-40.5-6.58-17.72,8.61-21.27,38.99-10.63,47.09,10.63,8.1,31.39,8.61,31.39,8.61Z"/>
          <path class="cls-6" d="M566.23,187.28c-8.61-7.09-3.04-23.29-15.19-31.39-12.15-8.1-26.83-10.13-36.45-6.58-9.62,3.54-10.13,11.14-21.77,3.54-11.65-7.59-22.78-15.19-40.5-6.58-17.72,8.61-21.27,38.99-10.63,47.09,10.63,8.1,31.39,8.61,31.39,8.61,0,0,15.19-7.09,25.32-12.66,10.13-5.57,32.91,3.54,36.96,7.09,4.05,3.54-2.03,1.01-3.04,7.59-1.01,6.58,11.65,17.21,17.21,22.28,5.57,5.06-1.01,8.61-2.53,15.19-1.52,6.58,4.56,9.11,8.1,6.58,3.54-2.53,14.68-16.71,18.73-8.61,4.05,8.1,10.13,20.25-1.01,28.86-11.14,8.61-19.24,6.58-19.24,6.58,0,0-3.63,21.93,6.89,23.65,5.65-10.11,12.72-22.2,17.92-29.22,10.13-13.67,21.77-38.99,18.23-52.15-3.54-13.16-21.77-22.78-30.38-29.87Z"/>
          <path class="cls-3" d="M500.41,228.8s5.06-2.03,10.13-1.52"/>
          <path class="cls-3" d="M474.49,233.77s-4.42,.92-7.18,2.58"/>
          <path class="cls-1" d="M474.67,219.96s3.13,5.71,1.47,11.23c-1.66,5.52-17.31,17.86-17.13,20.26,.18,2.39,9.21,7.37,9.02,9.39s-.74,5.34-.74,5.34"/>
          <ellipse class="cls-4" cx="508.92" cy="231.74" rx="3.31" ry="4.05"/>
          <path class="cls-1" d="M502.48,238.37c.55-.18,8.65-3.5,13.99-3.13"/>
          <path class="cls-4" d="M490.78,213.98s10.86-10.08,19.27-8.04c8.41,2.04,11.6,10.12,10.26,10.15s-5.58-6.24-10.22-6.71c-4.64-.47-7.89,1.72-11.84,3.72-3.96,2-6.44,3.44-7.47,.88Z"/>
          <path class="cls-4" d="M475.41,221.98c0-.82-1.29-4.6-6.26-3.87-4.97,.74-8.74,9.76-7.22,9.67,1.51-.09,3.17-5.8,7.04-6.35,3.87-.55,6.45,5.52,6.45,.55Z"/>
          <path class="cls-1" d="M466.94,277.59s7.92-.92,18.23-2.21c10.31-1.29,24.86-3.31,27.25-10.68,2.39-7.37,1.84-11.23,1.84-11.23"/>
          <path class="cls-1" d="M508.74,252.92c.74-.18,6.63-.18,9.02,.55"/>
          <path class="cls-4" d="M551.24,289.31s-1.95,10.88-11.16,16.74c-9.21,5.86-76.74,12.56-74.51,13.39s11.04,5.04,11.04,5.04l2.64,23.98s12.84-12.28,35.16-23.72c22.32-11.44,36.28-15.35,36.84-35.44Z"/>
        </g>
        <g>
          <path class="cls-5" d="M588.9,616.69s-12.55-.63-15.69-1.26c-3.14-.63-13.18-10.04-17.57-9.41-4.39,.63-12.55,9.41-15.69,16.94-3.14,7.53-4.39,11.3-4.39,11.3,0,0-11.3,10.04-5.65,16.94,5.65,6.9,11.92,4.39,11.92,4.39,0,0,3.77,6.28,8.79,6.9,5.02,.63,11.3,.63,11.3,.63,0,0,6.28,1.88,10.04,1.26,3.77-.63,7.53-3.14,7.53-3.14,0,0,4.39,.63,7.53-1.88,2.31-1.85,13.45-13.21,19.18-19.08,2.06-2.11,3.41-3.51,3.41-3.51l-20.71-20.08Z"/>
          <g>
            <path class="cls-7" d="M693.71,487.41s-23.22,25.73-30.75,38.28c-7.53,12.55-30.75,45.19-39.54,55.23-8.79,10.04-39.54,34.52-39.54,34.52,0,0,9.41,20.08,16.32,23.22,6.9,3.14,12.55,4.39,12.55,4.39l25.1-18.83s47.7-36.4,72.8-57.11c25.1-20.71,60.25-48.32,62.76-60.25,2.51-11.92,.63-18.2-11.92-27.61-12.55-9.41-25.73-13.18-25.73-13.18"/>
            <path class="cls-1" d="M603.34,599.75s5.65,27.61,25.1,27.61"/>
          </g>
        </g>
        <g>
          <path class="cls-5" d="M329.89,396.41s2.6,22.06,3.89,32.01c1.3,9.95,4.33,14.28,4.33,14.28,0,0-20.33,45.43-21.2,46.72-.87,1.3-22.06,41.1-25.53,45.86-3.46,4.76-11.68,19.9-6.49,29.42,5.19,9.52,13.41,28.99,24.23,29.42,10.82,.43,25.96-6.06,36.34-12.11,10.38-6.06,13.84-9.95,14.71-27.26,.87-17.31,.43-48.45,3.46-64.89,3.03-16.44,5.19-33.75,7.35-40.23,2.16-6.49,14.71-4.33,19.04-6.92,4.33-2.6,8.22-8.22,16.01-11.68,7.79-3.46,18.6-2.6,21.2-1.73,2.6,.87,7.35-3.03,6.06-7.79-1.3-4.76-9.95-7.35-18.6-6.49-8.65,.87-16.44,3.46-18.6,2.16-2.16-1.3-4.33-24.23-4.33-24.23,0,0-30.72,2.6-41.53,3.03-10.82,.43-20.33,.43-20.33,.43Z"/>
          <g>
            <path class="cls-5" d="M377.48,379.53s.43,28.55,.43,31.15,2.6,4.76,4.76,4.33c2.16-.43,7.79,1.73,9.09-4.76,1.3-6.49,3.89-24.66,2.6-28.99-1.3-4.33-12.98-6.06-16.87-1.73Z"/>
            <path class="cls-5" d="M377.48,379.53s-13.84-3.46-17.74-1.3c-3.89,2.16,2.16,32.88,2.6,35.48s6.49,3.89,9.09,3.03c2.6-.87,6.49-2.6,6.49-6.06s-.43-31.15-.43-31.15Z"/>
            <path class="cls-5" d="M356.71,379.1s-9.09-1.73-11.68,1.3-3.46,7.35-2.6,15.14c.87,7.79,5.19,19.47,6.92,22.06,1.73,2.6,7.35,3.03,10.82,1.73,3.46-1.3,2.16-5.62,2.16-5.62,0,0-1.73-1.73-2.16-15.14-.43-13.41-.43-20.33-.43-20.33l-3.03,.87Z"/>
            <path class="cls-5" d="M341.57,384.29c-1.73,.43-12.55,.87-12.98,5.19-.43,4.33,3.46,24.66,5.19,26.82,1.73,2.16,6.49,1.3,8.22,.43,1.73-.87,4.76-2.16,4.33-4.76-.43-2.6-4.76-27.69-4.76-27.69Z"/>
          </g>
          <path class="cls-7" d="M345.03,469.95c-7.67-.79-11.93-6.75-14.1-11.27-5.95,13.22-13.5,29.96-14.03,30.74-.87,1.3-22.06,41.1-25.53,45.86-3.46,4.76-11.68,19.9-6.49,29.42,5.19,9.52,13.41,28.99,24.23,29.42,10.82,.43,25.96-6.06,36.34-12.11,10.38-6.06,13.84-9.95,14.71-27.26,.86-17.31,.43-48.45,3.46-64.89,1.49-8.06,2.76-16.33,3.93-23.43-6.69,2.09-15.65,4.24-22.54,3.53Z"/>
          <path class="cls-5" d="M364.93,422.36s-7.35,6.49-8.22,12.11c-.87,5.62,2.16,10.38,2.16,10.38"/>
        </g>
      </g>
    </g>
  </g>
  <g>
    <path class="cls-10" d="M147.49,341.6l-2.52,4.99-47.08-23.73,2.51-4.99,47.08,23.73Zm17.78-35.28l-2.52,4.99-47.08-23.73,2.52-4.99,47.08,23.73Zm-22.78-8.13l-18,35.7-4.57-2.3,18-35.7,4.57,2.3Z"/>
    <path class="cls-10" d="M137.51,268.9l-2.98,4.73-7.53-4.74,2.98-4.73,7.53,4.74Zm37.1,23.35l-2.98,4.73-32.9-20.71,2.98-4.73,32.9,20.71Z"/>
    <path class="cls-10" d="M184.08,277.98l-3.32,4.49-31.26-23.11,2.99-4.05,8.8,6.5,.64-.21,22.15,16.37Zm-16.96-12.54l-.94,1.27-5.76-4.26,.84-1.14c-1.47-1.54-2.57-3.28-3.29-5.22-.72-1.94-.93-3.97-.63-6.1s1.26-4.29,2.88-6.48c1.78-2.4,3.76-3.99,5.96-4.75,2.19-.76,4.4-.87,6.62-.35,2.22,.53,4.3,1.51,6.24,2.95l3.1,2.29-3.32,4.49-2.41-1.78c-2.66-1.96-5.08-2.84-7.26-2.62-2.18,.22-4.29,1.69-6.31,4.44-2.34,3.16-3.1,6.18-2.27,9.04,.82,2.86,3.01,5.6,6.55,8.22Z"/>
    <path class="cls-10" d="M218.14,237.42c-2.82,3.04-5.89,5.13-9.21,6.27-3.32,1.14-6.65,1.28-10.01,.42-3.35-.86-6.53-2.68-9.53-5.47-2.88-2.68-4.88-5.66-5.98-8.94-1.1-3.28-1.25-6.64-.42-10.06,.82-3.43,2.64-6.66,5.46-9.69,2.61-2.81,5.42-4.79,8.44-5.96,3.02-1.17,6.09-1.45,9.21-.84,3.12,.61,6.11,2.24,8.95,4.88,.5,.46,.94,.93,1.33,1.4,.39,.47,.74,.92,1.05,1.35l-24.54,26.4-2.54-2.36,22.23-23.92,.37,2.6c-.35-.39-.71-.78-1.07-1.16-.37-.38-.76-.76-1.18-1.15-3-2.79-6.11-4-9.35-3.64-3.24,.36-6.42,2.23-9.57,5.61-3.61,3.88-5.24,7.59-4.91,11.12,.33,3.53,2.19,6.87,5.57,10.01l.92,.86c3.42,3.18,6.92,4.81,10.48,4.91,3.57,.09,7.17-1.82,10.82-5.74,3.11-3.34,4.82-6.36,5.13-9.04,.31-2.68-.57-4.99-2.65-6.92l-.4-.38,3.8-4.09,.4,.38c2,1.86,3.19,4.08,3.59,6.66,.39,2.58,.04,5.32-1.06,8.2-1.1,2.88-2.88,5.65-5.35,8.3Z"/>
    <path class="cls-10" d="M277.4,184.14l-3.98,3.09-6.51-8.4h-.5s-8.05-10.4-8.05-10.4c-2.31-2.99-4.67-4.57-7.08-4.77-2.41-.19-5.31,1.03-8.71,3.66-3.28,2.54-5.3,5.09-6.07,7.65-.77,2.56-.1,5.2,2.02,7.94l.19,.25-4.42,3.42-.19-.25c-1.7-2.2-2.66-4.63-2.86-7.29-.21-2.66,.38-5.37,1.76-8.13,1.38-2.76,3.64-5.36,6.79-7.81,3.11-2.41,6.07-3.84,8.87-4.29,2.8-.45,5.37-.11,7.7,1,2.33,1.12,4.37,2.82,6.14,5.1l14.9,19.22Zm-18.18,15.09c-3.03,2.35-6.01,3.55-8.96,3.61-2.94,.06-5.36-1.14-7.26-3.58-1.32-1.7-1.96-3.41-1.93-5.12,.03-1.72,.57-3.44,1.61-5.18,1.04-1.74,2.42-3.47,4.14-5.2l13.94-13.49,2.27,2.92-12.67,12.31c-2.16,2.01-3.54,3.78-4.15,5.31-.61,1.53-.28,3.11,.97,4.72,1.19,1.53,2.64,2.29,4.34,2.26,1.71-.03,3.72-.94,6.04-2.74,2.53-1.96,4.49-4.1,5.89-6.41,1.4-2.31,2.08-4.72,2.06-7.23-.02-2.51-.98-4.98-2.87-7.43l1.11-.36,3.81,4.91-.87,.68c1.27,3.53,1.25,7.05-.08,10.56-1.32,3.52-3.79,6.67-7.4,9.47Z"/>
    <path class="cls-10" d="M291.03,175.12l-4.8,2.86-19.92-33.39,4.33-2.58,6.33,10.61,.67,.06,13.38,22.44Zm28.12-16.77l-4.8,2.86-11.21-18.79c-2.07-3.47-4.54-5.63-7.4-6.49-2.86-.86-6.21-.14-10.04,2.14-4.1,2.45-6.49,5.46-7.16,9.04-.68,3.58,.28,7.53,2.86,11.86l-1.28,.77-4.1-6.72,1.22-.73c-.72-2.13-1.01-4.41-.86-6.82,.15-2.41,.89-4.73,2.22-6.96,1.33-2.23,3.39-4.17,6.18-5.84,3.15-1.88,6.16-2.77,9.03-2.68,2.87,.09,5.47,.94,7.83,2.52,2.35,1.59,4.32,3.71,5.91,6.37l11.61,19.47Z"/>
    <path class="cls-10" d="M353.58,142.6l-11.04,4.19-18.72-49.29,11.04-4.19,18.72,49.29Zm15.73-51.01l-38.62,14.67-3.77-9.93,38.62-14.67,3.77,9.93Zm6.3,19.92l-37.52,14.25-3.75-9.86,37.52-14.25,3.74,9.86Zm8.65,19.44l-38.62,14.67-3.77-9.93,38.62-14.67,3.77,9.93Z"/>
    <path class="cls-10" d="M401.31,126.58l-13.87,3.24,10.93-22.36-.14-.61-19.77-15.42,14.02-3.28,13.22,10.57,.61-.14,6.86-15.26,13.87-3.24-10.93,22.36,.16,.69,19.75,15.34-14.02,3.28-13.2-10.49-.61,.14-6.87,15.19Z"/>
    <path class="cls-10" d="M453.29,130.12l-11.75,1.13-5.05-52.56,10.89-1.05,1.12,11.67,.96,.94,3.83,39.87Zm14.78-14.07c-4.54,.44-8.18-.25-10.91-2.07-2.73-1.82-4.6-4.42-5.61-7.8l-2.04,.2-.81-8.46,1.49-.14c.21,2.19,.82,3.93,1.84,5.2,1.02,1.27,2.4,2.11,4.16,2.53,1.75,.41,3.86,.5,6.31,.26,2.56-.25,4.62-.76,6.18-1.54,1.56-.78,2.66-1.92,3.31-3.4s.86-3.4,.63-5.75c-.24-2.45-.81-4.34-1.73-5.65-.92-1.31-2.21-2.19-3.89-2.63-1.68-.44-3.77-.55-6.28-.31-3.81,.37-6.62,1.36-8.41,2.98-1.79,1.62-2.52,4.18-2.19,7.68l-1.49,.14-1.71-8.77,2.27-.22c.32-3.83,1.67-6.84,4.07-9.05,2.4-2.21,5.89-3.53,10.49-3.97,4.02-.39,7.51,.12,10.46,1.52,2.95,1.4,5.31,3.56,7.07,6.48,1.75,2.92,2.83,6.46,3.24,10.64,.4,4.13,.02,7.79-1.12,10.98-1.14,3.19-3,5.76-5.59,7.69-2.58,1.94-5.83,3.09-9.75,3.47Z"/>
    <path class="cls-10" d="M513.66,115.02c-4.35-.15-8.18-1.01-11.49-2.59-3.31-1.58-5.83-3.92-7.56-7.03-1.73-3.1-2.52-6.96-2.37-11.58,.14-4.19,1.18-7.79,3.12-10.8,1.94-3.01,4.57-5.29,7.91-6.86,3.33-1.57,7.18-2.28,11.53-2.13,4.3,.15,8.04,1.01,11.21,2.58,3.18,1.58,5.61,3.82,7.29,6.74,1.69,2.92,2.46,6.42,2.32,10.51-.02,.68-.07,1.31-.14,1.88-.07,.58-.17,1.2-.3,1.88l-35.39-1.19,.21-6.21,27.06,.91-2.8,3.76c.02-.52,.03-1.02,.05-1.49,.02-.47,.03-.94,.05-1.42,.1-2.99-.64-5.17-2.22-6.53-1.58-1.37-4.21-2.11-7.88-2.23-3.99-.13-6.79,.55-8.42,2.04-1.62,1.49-2.49,3.92-2.61,7.27l-.1,2.99c-.11,3.36,.59,5.83,2.11,7.43,1.52,1.6,4.3,2.47,8.34,2.6,3.46,.12,5.91-.25,7.36-1.09,1.45-.84,2.2-2.1,2.25-3.78l.03-.79,11.8,.4-.03,.87c-.1,2.83-1.04,5.32-2.85,7.46s-4.29,3.78-7.45,4.91c-3.16,1.13-6.84,1.62-11.03,1.48Z"/>
    <path class="cls-10" d="M553.21,117.59l-11.67-1.79,5.97-38.97,10.81,1.66-1.71,11.12,.8,.52-4.21,27.46Zm3.46-22.56l-2.33-.36,.93-6.07,2.18,.33c.69-2.07,1.69-3.87,3.02-5.39,1.32-1.52,2.96-2.62,4.93-3.31,1.96-.68,4.24-.82,6.83-.43,2.96,.45,5.24,1.43,6.84,2.92,1.6,1.49,2.66,3.33,3.18,5.5,.51,2.18,.58,4.54,.19,7.08l-.99,6.46-11.67-1.79,.62-4.04c.33-2.18,.09-3.82-.72-4.93-.81-1.11-2.41-1.84-4.8-2.21-2.59-.4-4.51-.08-5.76,.95-1.25,1.03-2.06,2.79-2.44,5.28Z"/>
    <path class="cls-10" d="M618.65,101.24l-29.79-7.7,2.44-9.45,29.79,7.7-2.44,9.45Zm-7.42,28.73l-9.45-2.44c-4.47-1.16-7.69-3.15-9.67-5.99-1.98-2.84-2.34-6.67-1.09-11.5l8.21-31.77,11.43,2.95-7.88,30.48c-.5,1.93-.41,3.32,.26,4.17,.67,.85,2,1.53,3.98,2.05l6.86,1.77-2.66,10.29Z"/>
    <path class="cls-10" d="M642.67,141.22l-5.18-2.09,13.89-34.45c1.29-3.21,2.99-5.64,5.1-7.28,2.1-1.64,4.55-2.52,7.34-2.64,2.79-.12,5.84,.49,9.15,1.82l3.94,1.59-1.65,4.09-4.67-1.88c-3.41-1.37-6.24-1.72-8.49-1.05-2.25,.68-3.97,2.84-5.16,6.49l-.44,1.09-13.83,34.31Zm27.27-25.75l-25.47-10.27,1.79-4.45,25.47,10.27-1.79,4.45Z"/>
    <path class="cls-10" d="M680.37,159.54c-3.71-1.97-6.56-4.46-8.55-7.48-1.99-3.02-3.05-6.28-3.17-9.79-.13-3.51,.74-7.01,2.58-10.48,1.84-3.48,4.26-6.15,7.24-8.01,2.98-1.86,6.28-2.82,9.89-2.86,3.61-.04,7.28,.92,10.98,2.89,3.8,2.02,6.68,4.53,8.65,7.54,1.97,3.01,3.01,6.26,3.14,9.78,.12,3.51-.74,7.01-2.58,10.48-1.84,3.48-4.26,6.15-7.24,8.01-2.98,1.86-6.26,2.82-9.86,2.87s-7.29-.93-11.09-2.95Zm2.36-4.45c4.77,2.53,8.9,3.2,12.4,1.99,3.49-1.21,6.34-3.89,8.56-8.06s2.84-8.04,1.89-11.61c-.96-3.57-3.82-6.62-8.59-9.15-4.68-2.49-8.78-3.13-12.29-1.94-3.52,1.19-6.38,3.87-8.59,8.04s-2.83,8.05-1.85,11.63c.98,3.58,3.81,6.61,8.49,9.1Z"/>
    <path class="cls-10" d="M711.58,176.98l-4.6-3.17,22.08-32,4.15,2.86-6.21,9,.23,.64-15.64,22.67Zm11.98-17.36l-1.3-.89,4.07-5.9,1.17,.8c1.49-1.52,3.2-2.67,5.11-3.46,1.91-.78,3.94-1.06,6.07-.83s4.33,1.12,6.57,2.67c2.46,1.7,4.11,3.63,4.94,5.8,.83,2.17,1.02,4.37,.56,6.6-.46,2.23-1.37,4.35-2.74,6.33l-2.19,3.17-4.6-3.17,1.7-2.46c1.88-2.72,2.67-5.17,2.39-7.34-.29-2.17-1.83-4.23-4.64-6.16-3.24-2.23-6.27-2.89-9.1-1.98-2.83,.92-5.5,3.19-8,6.81Z"/>
    <path class="cls-10" d="M747.44,221.11l-3.54-3.36,3.52-3.71,4.28,4.06c1.41,1.34,2.69,2.1,3.85,2.29,1.16,.19,2.56-.05,4.21-.72l6.5-2.51-2.73,1.85,13.03-42.32,4.45,4.23-7.65,24.64-3.42,9.89,.34,.33,9.63-4.09,23.69-9.31,4.45,4.23-45.8,17.62c-2.02,.76-3.87,1.16-5.54,1.2s-3.25-.3-4.73-1.02c-1.49-.72-3.01-1.82-4.57-3.3Z"/>
    <path class="cls-10" d="M797.42,255.18c-2.67-3.24-4.34-6.63-5.03-10.19-.68-3.55-.41-6.97,.82-10.26,1.23-3.29,3.37-6.19,6.4-8.69,3.04-2.5,6.29-4.04,9.75-4.62,3.47-.58,6.88-.19,10.23,1.16,3.35,1.35,6.37,3.64,9.04,6.88,2.74,3.32,4.44,6.75,5.1,10.28,.67,3.53,.38,6.94-.85,10.23-1.23,3.29-3.37,6.19-6.4,8.69-3.04,2.5-6.29,4.04-9.75,4.62-3.47,.58-6.87,.2-10.21-1.12-3.34-1.33-6.38-3.65-9.11-6.97Zm3.89-3.2c3.44,4.17,7,6.37,10.68,6.59,3.69,.23,7.35-1.16,11-4.17,3.64-3,5.71-6.33,6.19-10,.48-3.66-.99-7.58-4.43-11.75-3.37-4.09-6.91-6.26-10.61-6.5-3.71-.25-7.38,1.13-11.02,4.14-3.64,3-5.7,6.34-6.17,10.03-.47,3.68,.98,7.57,4.35,11.66Z"/>
    <path class="cls-10" d="M824.63,292.52c-1.96-3.11-2.93-6.11-2.92-8.99,0-2.89,.77-5.54,2.29-7.95,1.52-2.41,3.56-4.43,6.14-6.05l19.24-12.13,2.98,4.73-18.51,11.66c-3.37,2.13-5.47,4.66-6.29,7.59-.82,2.93-.02,6.31,2.38,10.13,2.54,4.04,5.63,6.36,9.26,6.95,3.63,.6,7.55-.44,11.77-3.09l.86,1.22-6.72,4.24-.71-1.13c-2.09,.82-4.33,1.16-6.71,1.02-2.38-.14-4.72-.85-7.02-2.13-2.3-1.28-4.31-3.3-6.05-6.05Zm12.41,18.22l-2.69-4.26,10.39-6.54,.04-.68,22.17-13.97,2.98,4.73-32.89,20.73Z"/>
    <path class="cls-10" d="M844.54,325.55l-2.41-5.04,35.07-16.78,2.17,4.54-9.87,4.72-.12,.67-24.85,11.89Zm19.03-9.1l-.68-1.42,6.46-3.09,.61,1.28c2.05-.58,4.1-.73,6.15-.46,2.05,.27,3.94,1.04,5.68,2.3s3.2,3.12,4.37,5.58c1.29,2.7,1.76,5.19,1.4,7.49-.36,2.29-1.29,4.3-2.8,6.01-1.51,1.71-3.35,3.09-5.53,4.13l-3.48,1.66-2.41-5.04,2.7-1.29c2.98-1.43,4.89-3.15,5.72-5.18,.83-2.03,.51-4.58-.96-7.66-1.7-3.55-4-5.63-6.91-6.25-2.91-.61-6.35,.03-10.33,1.93Z"/>
  </g>
  <g>
    <path class="cls-10" d="M85.79,501.31l.28-17.34,41.77-8.02-.21,13.05-21.25,3.14-9.4,.97v.81s9.34,1.83,9.34,1.83l21.1,5.94-.29,17.58-21.27,4.75-9.41,1.34v.81s9.35,1.39,9.35,1.39l21.13,4.26-.21,12.8-41.48-10.18,.28-17.34,17.9-4.06,13.09-2.52v-.81s-12.99-3.13-12.99-3.13l-17.75-5.26Z"/>
    <path class="cls-10" d="M89.39,575.56c-.7-4.76-.43-8.97,.81-12.65,1.24-3.68,3.32-6.65,6.23-8.92,2.91-2.27,6.52-3.72,10.82-4.35,4.3-.63,8.18-.28,11.62,1.06,3.44,1.34,6.28,3.59,8.53,6.76,2.24,3.17,3.71,7.13,4.41,11.88,.72,4.92,.46,9.22-.78,12.9-1.24,3.68-3.32,6.65-6.23,8.92-2.91,2.27-6.52,3.72-10.83,4.35-4.3,.63-8.18,.28-11.62-1.06-3.44-1.34-6.28-3.59-8.53-6.76-2.25-3.17-3.73-7.21-4.45-12.13Zm11.07-1.62c.41,2.79,1,4.92,1.79,6.4,.78,1.48,1.96,2.42,3.53,2.84,1.57,.42,3.71,.43,6.41,.03,2.75-.4,4.8-1.03,6.16-1.88,1.36-.85,2.21-2.09,2.53-3.73,.33-1.64,.28-3.85-.13-6.64-.41-2.79-1-4.9-1.78-6.33-.78-1.44-1.94-2.34-3.48-2.72-1.54-.38-3.69-.37-6.43,.03-2.71,.4-4.75,1-6.14,1.81s-2.25,2.01-2.58,3.61c-.33,1.6-.29,3.79,.12,6.58Z"/>
    <path class="cls-10" d="M98.51,618.24l-3.14-11.25,40.11-11.17,6.52,23.41c.99,3.55,1.34,6.66,1.05,9.32s-1.17,4.85-2.65,6.58c-1.48,1.72-3.53,2.95-6.17,3.69-2.12,.59-4.04,.73-5.79,.42-1.74-.31-3.31-1.13-4.69-2.47-1.38-1.34-2.59-3.24-3.62-5.7l-.6,.17c.06,2.22-.29,3.92-1.06,5.1s-1.8,2.36-3.11,3.54l-8.67,7.77-3.62-12.99,8.48-7.52c.86-.76,1.5-1.47,1.92-2.15,.41-.67,.61-1.46,.6-2.36-.01-.9-.23-2.09-.64-3.56l-1.28-4.61-13.65,3.8Zm29.99-8.35l-7.96,2.22,3.35,12.03c.46,1.64,1.02,2.73,1.69,3.27,.67,.54,1.86,.58,3.58,.1,1.6-.44,2.56-1.08,2.89-1.9,.33-.82,.27-2.05-.19-3.69l-3.35-12.03Z"/>
    <path class="cls-10" d="M113.9,666.02l-4.51-10.78,38.42-16.06,4.51,10.78-38.42,16.06Zm3.62,8.66l-7-16.74,9.69-4.05,7,16.74c.96,2.29,1.91,4.03,2.85,5.21,.94,1.18,2.21,1.77,3.81,1.78,1.6,0,3.83-.59,6.7-1.79,2.9-1.21,4.91-2.39,6-3.52,1.1-1.13,1.56-2.45,1.38-3.95-.18-1.5-.75-3.39-1.7-5.69l-7-16.74,9.69-4.05,7,16.74c1.77,4.24,2.55,8.23,2.34,11.96s-1.41,7.03-3.57,9.91c-2.16,2.88-5.27,5.17-9.32,6.86-4.05,1.69-7.86,2.3-11.43,1.82-3.57-.48-6.76-1.96-9.56-4.42-2.81-2.46-5.09-5.82-6.87-10.06Z"/>
    <path class="cls-10" d="M135.88,713.07l-5.77-10.16,36.2-20.56,5.77,10.16-36.2,20.56Zm14.75,4.7l-9.45-16.64,9.13-5.19,8.81,15.51c1.02,1.8,2.02,2.93,3,3.4,.98,.47,2.41,.17,4.28-.9,1.84-1.04,2.81-2.11,2.91-3.19,.1-1.08-.36-2.52-1.38-4.32l-8.81-15.51,9.13-5.19,9.45,16.64c1.64,2.88,2.52,5.67,2.64,8.36,.12,2.69-.49,5.17-1.85,7.45-1.35,2.27-3.47,4.22-6.35,5.86-2.85,1.62-5.61,2.44-8.29,2.46-2.68,.02-5.15-.71-7.39-2.2-2.25-1.49-4.19-3.67-5.83-6.55Z"/>
    <path class="cls-10" d="M160.53,752.83l-6.91-9.42,33.59-24.61,14.36,19.6c2.18,2.97,3.6,5.76,4.27,8.35,.67,2.59,.61,4.96-.16,7.09-.77,2.13-2.26,4.01-4.47,5.62-1.77,1.3-3.53,2.11-5.27,2.43-1.74,.32-3.49,.11-5.26-.66-1.77-.76-3.57-2.11-5.4-4.06l-.5,.37c.84,2.06,1.11,3.77,.81,5.15-.3,1.38-.86,2.85-1.66,4.41l-5.37,10.33-7.97-10.88,5.28-10.03c.54-1.01,.89-1.91,1.04-2.69,.15-.78,.06-1.58-.27-2.42-.33-.84-.95-1.87-1.85-3.11l-2.83-3.86-11.43,8.37Zm25.12-18.4l-6.67,4.88,7.38,10.08c1,1.37,1.91,2.19,2.73,2.47,.82,.27,1.94-.12,3.38-1.17,1.34-.98,2.01-1.91,2.03-2.8,.02-.89-.48-2.02-1.48-3.38l-7.38-10.08Z"/>
    <path class="cls-10" d="M191.12,791.31l-7.93-8.58,30.58-28.26,7.93,8.58-30.58,28.26Zm17.16,18.58l-22.94-24.83,7.71-7.13,22.94,24.83-7.71,7.13Zm10.92-11.35l-22.31-24.15,7.67-7.08,22.31,24.15-7.67,7.08Zm11.95-9.77l-22.94-24.83,7.71-7.13,22.94,24.83-7.71,7.13Z"/>
    <path class="cls-10" d="M229.13,829.42c-3.2-2.77-5.61-5.55-7.23-8.36s-2.34-5.59-2.14-8.35c.2-2.76,1.45-5.47,3.75-8.13l.24-.28,8.83,7.65-.85,.99c-.6,.69-.92,1.36-.96,2.01-.04,.65,.34,1.46,1.14,2.43,.8,.97,2.19,2.31,4.17,4.02,1.79,1.55,3.15,2.63,4.09,3.25,.94,.62,1.64,.9,2.11,.84,.46-.06,.9-.33,1.31-.8,.49-.56,.64-1.17,.46-1.82-.18-.65-.84-1.61-1.99-2.87l-8.73-9.86c-1.7-1.96-2.87-3.9-3.52-5.8-.65-1.91-.76-3.77-.34-5.59,.43-1.82,1.37-3.58,2.84-5.27,1.08-1.25,2.42-2.26,4.01-3.02s3.41-1.12,5.45-1.08c2.04,.04,4.29,.61,6.75,1.69,2.46,1.09,5.11,2.86,7.96,5.33,3.35,2.9,5.71,5.76,7.09,8.56,1.38,2.81,1.87,5.53,1.47,8.18-.4,2.64-1.61,5.14-3.65,7.49l-.24,.28-8.83-7.65,.61-.71c.65-.75,1-1.49,1.05-2.21,.05-.72-.34-1.61-1.16-2.65s-2.22-2.42-4.2-4.13c-1.5-1.3-2.71-2.22-3.61-2.76-.91-.54-1.63-.79-2.17-.77s-1.02,.27-1.42,.74c-.27,.31-.44,.65-.5,1.01-.06,.36,.02,.74,.24,1.15,.22,.41,.57,.91,1.05,1.49l8.61,10c2.24,2.6,3.67,4.97,4.28,7.12,.61,2.14,.65,4.09,.13,5.83-.52,1.74-1.36,3.29-2.53,4.63-1.54,1.79-3.48,3.03-5.81,3.72s-4.99,.59-7.98-.33c-2.99-.91-6.25-2.91-9.79-5.97Z"/>
    <path class="cls-10" d="M266.96,858.43c-3.49-2.38-6.2-4.88-8.14-7.48-1.94-2.6-2.96-5.28-3.08-8.05-.12-2.76,.81-5.6,2.8-8.51l.21-.31,9.65,6.59-.74,1.08c-.51,.75-.75,1.45-.72,2.1,.03,.65,.5,1.41,1.41,2.28,.91,.87,2.44,2.04,4.6,3.51,1.95,1.33,3.43,2.25,4.43,2.76s1.74,.71,2.19,.59,.86-.43,1.21-.94c.42-.62,.5-1.24,.25-1.86-.25-.62-1.02-1.5-2.31-2.63l-9.8-8.79c-1.91-1.76-3.3-3.54-4.16-5.36-.87-1.82-1.19-3.66-.97-5.52,.21-1.86,.95-3.71,2.21-5.56,.93-1.37,2.15-2.52,3.64-3.46,1.49-.94,3.26-1.5,5.29-1.69s4.34,.11,6.9,.91c2.56,.8,5.4,2.26,8.52,4.38,3.66,2.5,6.34,5.07,8.03,7.7,1.69,2.63,2.49,5.28,2.39,7.96s-1.01,5.29-2.77,7.86l-.21,.31-9.65-6.59,.53-.77c.56-.82,.82-1.59,.79-2.32-.03-.72-.52-1.56-1.46-2.5-.94-.94-2.49-2.15-4.64-3.62-1.64-1.12-2.94-1.9-3.9-2.33-.96-.43-1.71-.6-2.24-.52-.54,.09-.98,.39-1.33,.9-.23,.34-.36,.69-.38,1.06-.02,.36,.1,.73,.37,1.12s.67,.83,1.22,1.36l9.69,8.95c2.53,2.33,4.21,4.52,5.07,6.58,.85,2.06,1.12,3.99,.8,5.77-.32,1.79-.98,3.42-1.98,4.89-1.33,1.95-3.11,3.41-5.35,4.36-2.23,.96-4.89,1.15-7.96,.58-3.07-.57-6.54-2.17-10.41-4.81Z"/>
    <path class="cls-10" d="M311,883.97l-10.51-5.1,18.16-37.47,10.51,5.1-18.16,37.47Zm8.44,4.09l-16.33-7.92,4.58-9.45,16.33,7.91c2.24,1.08,4.1,1.76,5.58,2.02,1.49,.26,2.83-.14,4.03-1.19,1.2-1.05,2.48-2.98,3.83-5.77,1.37-2.83,2.1-5.04,2.17-6.61s-.45-2.87-1.58-3.87c-1.12-1-2.8-2.05-5.04-3.13l-16.33-7.91,4.58-9.45,16.33,7.91c4.14,2.01,7.36,4.48,9.67,7.41,2.31,2.94,3.6,6.2,3.89,9.79,.29,3.59-.53,7.36-2.45,11.31-1.92,3.95-4.37,6.93-7.37,8.93-3,2-6.36,3.01-10.09,3.02-3.73,0-7.67-.99-11.81-3Z"/>
    <path class="cls-10" d="M358.58,904.66l-11.04-3.81,13.58-39.36,11.04,3.81-13.58,39.36Zm23.91,8.25l-31.96-11.03,3.42-9.93,31.96,11.03-3.42,9.93Zm4.25-15.17l-31.08-10.72,3.41-9.87,31.08,10.72-3.4,9.87Zm5.91-14.26l-31.96-11.03,3.42-9.93,31.96,11.03-3.42,9.93Z"/>
    <path class="cls-10" d="M421.15,921.96l-16.41-3.51-7.64-44.21,13.79,2.95,4.27,31.42,.79,.17,16.51-26.97,13.73,2.94-25.06,37.22Z"/>
    <path class="cls-10" d="M455.75,927.09l-11.64-1.05,3.75-41.47,11.64,1.05-3.74,41.47Zm25.19,2.27l-33.67-3.04,.94-10.46,33.67,3.04-.94,10.46Zm.49-15.74l-32.74-2.96,.94-10.4,32.74,2.96-.94,10.4Zm2.31-15.27l-33.67-3.04,.94-10.46,33.67,3.04-.94,10.46Z"/>
    <path class="cls-10" d="M500.79,929.42l-11.68,.19-.67-41.63,11.68-.19,.67,41.63Zm24.05-.39l-32.5,.53-.17-10.5,32.5-.53,.17,10.5Z"/>
    <path class="cls-10" d="M555.55,926.31c-4.76,.64-8.98,.32-12.64-.97-3.66-1.28-6.61-3.4-8.84-6.34-2.24-2.94-3.64-6.57-4.22-10.88-.58-4.31-.18-8.18,1.2-11.6,1.38-3.42,3.67-6.24,6.86-8.45,3.19-2.21,7.17-3.63,11.94-4.27,4.93-.66,9.22-.35,12.89,.93,3.66,1.29,6.61,3.4,8.84,6.34,2.23,2.94,3.64,6.57,4.22,10.88,.58,4.31,.18,8.18-1.2,11.6-1.38,3.43-3.67,6.24-6.86,8.45-3.2,2.21-7.26,3.64-12.18,4.3Zm-1.49-11.09c2.79-.38,4.93-.94,6.42-1.71,1.49-.76,2.45-1.93,2.89-3.49,.44-1.56,.48-3.7,.11-6.41-.37-2.75-.97-4.81-1.8-6.19-.83-1.37-2.07-2.23-3.7-2.58-1.64-.34-3.85-.33-6.64,.04-2.79,.38-4.91,.94-6.36,1.7-1.45,.76-2.37,1.91-2.77,3.44-.4,1.54-.41,3.68-.04,6.43,.36,2.71,.94,4.76,1.74,6.16,.79,1.4,1.99,2.27,3.58,2.62,1.59,.35,3.79,.34,6.58-.04Z"/>
    <path class="cls-10" d="M598.2,917.73l-11.3,2.96-10.55-40.28,11.3-2.96,10.55,40.28Zm8.34-13.04l-18.52,4.85-2.66-10.16,17.25-4.52c2-.53,3.36-1.2,4.06-2.03,.7-.83,.78-2.28,.24-4.37-.54-2.04-1.31-3.25-2.33-3.63-1.02-.38-2.53-.3-4.53,.22l-17.25,4.52-2.66-10.16,18.52-4.85c3.21-.84,6.13-.97,8.76-.4,2.63,.57,4.87,1.81,6.72,3.7,1.85,1.89,3.19,4.44,4.03,7.65,.83,3.17,.91,6.05,.24,8.64-.67,2.6-2.01,4.79-4.03,6.58-2.02,1.79-4.63,3.11-7.83,3.95Z"/>
    <path class="cls-10" d="M643.77,904.08l-10.79,4.47-15.94-38.46,14.64-6.07,13.68,13.03,7.91,8.36,.75-.31-.5-11.43,.1-18.74,14.64-6.07,15.94,38.46-10.79,4.47-6.59-15.9-2.26-6.6-.75,.31,.48,7.33-.1,15.99-13.09,5.43-11.38-11.23-4.85-5.53-.75,.31,3.07,6.26,6.59,15.9Z"/>
    <path class="cls-10" d="M702.6,876.61l-10.1,5.88-20.96-35.98,10.1-5.88,20.96,35.98Zm6.19-39.63l-29.21,17.01-5.29-9.08,29.21-17.01,5.29,9.08Zm6.95,13.79l-28.41,16.55-5.25-9.02,28.41-16.55,5.25,9.02Zm8.72,13.12l-29.21,17.02-5.29-9.08,29.21-17.02,5.29,9.08Z"/>
    <path class="cls-10" d="M740.97,852.27l-9.35,7.01-24.98-33.31,9.94-7.46,18.61,5.54,10.61,4,.65-.48-5.89-6.92-9.66-12.88,9.35-7.01,24.98,33.31-9.94,7.46-19.46-5.44-9.15-3.39-.65,.48,5.17,6.07,9.77,13.03Z"/>
    <path class="cls-10" d="M779.6,777.9l-29.7,28.38-7.26-7.59,29.7-28.38,7.26,7.59Zm10.91,32.64l-8.45,8.07-28.77-30.1,8.45-8.07,28.77,30.1Z"/>
    <path class="cls-10" d="M820.92,777.27l-7.24,9.17-32.68-25.8,7.24-9.17,32.68,25.8Zm-1.2-15.43l-11.86,15.02-8.24-6.51,11.05-14c1.28-1.63,1.96-2.98,2.02-4.07,.06-1.08-.75-2.29-2.44-3.63-1.66-1.31-3.01-1.81-4.05-1.49-1.04,.31-2.2,1.29-3.48,2.91l-11.05,14-8.24-6.51,11.86-15.02c2.05-2.6,4.3-4.47,6.75-5.6,2.45-1.13,4.98-1.49,7.59-1.09s5.22,1.63,7.82,3.68c2.57,2.03,4.37,4.28,5.4,6.75s1.28,5.03,.75,7.68c-.53,2.64-1.82,5.27-3.88,7.87Z"/>
    <path class="cls-10" d="M848.48,739.46l-6.13,9.94-35.44-21.86,12.75-20.68c1.94-3.14,3.98-5.5,6.13-7.1,2.15-1.59,4.36-2.43,6.63-2.52,2.27-.08,4.57,.59,6.89,2.02,1.87,1.15,3.28,2.47,4.24,3.96,.96,1.49,1.41,3.2,1.37,5.12-.04,1.92-.62,4.1-1.73,6.53l.53,.33c1.59-1.55,3.08-2.45,4.47-2.68,1.39-.24,2.96-.28,4.71-.12l11.59,1.09-7.08,11.48-11.28-1.12c-1.14-.12-2.1-.1-2.88,.05-.78,.15-1.49,.54-2.14,1.16s-1.38,1.58-2.18,2.89l-2.51,4.07,12.06,7.44Zm-26.5-16.34l7.04,4.34,6.56-10.63c.89-1.45,1.31-2.6,1.26-3.46-.05-.86-.84-1.76-2.35-2.69-1.41-.87-2.53-1.15-3.36-.83-.83,.32-1.69,1.2-2.58,2.64l-6.56,10.63Z"/>
    <path class="cls-10" d="M877.88,686.78c-1.99,4.38-4.5,7.77-7.54,10.19-3.04,2.42-6.39,3.79-10.07,4.12-3.68,.33-7.5-.41-11.46-2.21-3.96-1.8-7.02-4.2-9.19-7.18-2.17-2.99-3.34-6.42-3.51-10.3-.17-3.88,.74-8,2.73-12.38,2.06-4.53,4.61-8,7.64-10.42,3.04-2.42,6.39-3.79,10.07-4.12,3.68-.33,7.5,.41,11.46,2.21,3.96,1.8,7.02,4.2,9.19,7.19,2.17,2.99,3.34,6.42,3.51,10.3,.17,3.88-.77,8.08-2.83,12.61Zm-10.18-4.63c1.17-2.56,1.82-4.68,1.96-6.34,.14-1.66-.33-3.1-1.42-4.3-1.09-1.2-2.88-2.37-5.37-3.5-2.53-1.15-4.59-1.74-6.2-1.76-1.6-.02-2.99,.56-4.15,1.77-1.16,1.2-2.33,3.08-3.49,5.65-1.17,2.56-1.81,4.66-1.94,6.29-.13,1.63,.36,3.02,1.45,4.17,1.09,1.16,2.9,2.31,5.42,3.46,2.49,1.13,4.54,1.73,6.14,1.8,1.61,.07,2.98-.48,4.13-1.64,1.14-1.16,2.3-3.03,3.46-5.59Z"/>
    <path class="cls-10" d="M895.82,640.03c-1.42,4.51-3.22,7.91-5.42,10.22-2.2,2.3-4.79,3.65-7.78,4.04-2.99,.39-6.4-.02-10.23-1.23l-1.54-.48,3.72-11.86,1.42,.45c1.78,.56,3.21,.88,4.29,.96,1.08,.08,1.98-.28,2.68-1.08,.71-.8,1.4-2.26,2.07-4.4,.67-2.13,.97-3.73,.89-4.8-.08-1.07-.54-1.87-1.39-2.42-.85-.55-2.08-1.08-3.7-1.59l-23.18-7.28,3.72-11.86,23.3,7.32c3.68,1.16,6.59,2.74,8.73,4.76,2.15,2.02,3.44,4.6,3.89,7.74,.45,3.14-.04,6.98-1.47,11.52Z"/>
    <path class="cls-10" d="M905.4,601.4l-2.24,11.47-40.86-7.99,2.24-11.47,40.86,7.99Zm-25.7-30.8l-6.49,33.18-10.31-2.02,6.49-33.18,10.31,2.02Zm14.95,3.87l-6.31,32.26-10.25-2,6.31-32.26,10.25,2Zm15.61,2.1l-6.49,33.18-10.31-2.02,6.49-33.18,10.31,2.02Z"/>
    <path class="cls-10" d="M913.87,545.79c-.36,4.79-1.54,8.84-3.55,12.14-2.01,3.3-4.68,5.74-8.02,7.32-3.34,1.58-7.17,2.21-11.51,1.89-4.34-.32-8.04-1.51-11.11-3.57s-5.35-4.86-6.85-8.42c-1.5-3.56-2.07-7.74-1.72-12.53,.35-4.67,1.35-8.61,3-11.84,1.65-3.22,3.87-5.62,6.64-7.2,2.78-1.58,6.02-2.23,9.74-1.96l1.05,.08-.97,13.01-1.05-.08c-2.36-.17-4.09,.36-5.2,1.61-1.11,1.25-1.79,3.59-2.05,7.01-.21,2.81-.09,5.01,.35,6.6,.44,1.59,1.38,2.75,2.8,3.48,1.42,.73,3.52,1.2,6.28,1.4,2.73,.2,4.86,.05,6.39-.46,1.53-.51,2.64-1.52,3.31-3.03,.67-1.51,1.11-3.67,1.32-6.48,.25-3.43-.08-5.84-.99-7.24-.91-1.4-2.55-2.18-4.9-2.36l-1.05-.08,.97-13.01,1.05,.08c3.68,.27,6.78,1.4,9.32,3.37,2.53,1.97,4.38,4.68,5.54,8.11,1.16,3.43,1.56,7.48,1.22,12.15Z"/>
    <path class="cls-10" d="M881.86,476.27l1.92,41.03-10.49,.49-1.92-41.03,10.49-.49Zm31.79,13.19l.55,11.67-41.59,1.95-.55-11.67,41.59-1.95Z"/>
  </g>
  <circle class="cls-10" cx="106.28" cy="420.7" r="21.02"/>
  <circle class="cls-10" cx="893.72" cy="420.7" r="21.02"/>
  <g>
    <path class="cls-10" d="M568.51,474.73c0,14.03-12.57,24.98-28.09,24.46s-27.49-13.53-26.75-29.04,13.31-26.46,28.09-24.46c14.77,2,26.75,15.01,26.75,29.04Z"/>
    <g>
      <path class="cls-12" d="M534.4,478.71l4.12,.29,.06-2.39-4.11-.31c-2.25-.17-4.01-2.11-3.94-4.34l.03-.81c.08-2.23,1.95-3.87,4.18-3.66l18.19,1.67s0,0,0,0h0s1.21,.11,1.21,.11l.03-2.32-1.21-.12h0s-18.15-1.75-18.15-1.75c-1.25-.12-2.42,.12-3.43,.64-1.88,.97-3.17,2.9-3.26,5.23l-.03,.81c-.13,3.58,2.69,6.69,6.3,6.95Z"/>
      <path class="cls-12" d="M547.64,470.24l-.67-.07-4.64-.45-2.43-.24-.25,9.59,2.45,.17,.17-7.17,4.65,.45,.68,.07c2.24,.19,4.03,2.08,4,4.22v.78c-.05,2.14-1.9,3.76-4.16,3.6l-19.63-1.33-.09,2.43,1.23,.08h0s0,0,0,0l18.44,1.17c1.27,.08,2.45-.18,3.47-.71,1.88-.97,3.14-2.84,3.17-5.06v-.77c.06-3.41-2.81-6.44-6.38-6.76Z"/>
      <polygon class="cls-12" points="529.62 462.96 529.62 462.96 552.98 465.28 554.19 465.4 554.21 464.25 554.21 464.24 554.21 464.24 554.22 463.08 553.02 462.96 529.71 460.53 529.71 460.53 529.71 460.53 528.5 460.41 528.42 462.84 529.62 462.96 529.62 462.96"/>
    </g>
  </g>
</svg>